<?xml version="1.0" encoding="UTF-8" standalone="no"?> <svg width="25" height="24" viewBox="0 0 25 24" fill="none" xmlns="http://www.w3.org/2000/svg">
<g clip-path="url(#clip0_1316_12884)">
<path d="M21.2706 10.9048V2.4422C21.2706 1.66886 20.5939 0.992188 19.8206 0.992188H2.42046C1.64713 0.992188 0.970459 1.66886 0.970459 2.4422V18.3923C0.970459 19.1656 1.64713 19.8423 2.42046 19.8423H11.1002" stroke="black" stroke-width="1.5" stroke-miterlimit="10" stroke-linecap="round" stroke-linejoin="round"/>
<path d="M0.970459 5.34375H21.2706" stroke="black" stroke-width="1.5" stroke-miterlimit="10" stroke-linecap="round" stroke-linejoin="round"/>
<path d="M18.7316 18.1278C18.6154 18.1278 18.5212 18.0337 18.5212 17.9175C18.5212 17.8012 18.6154 17.707 18.7316 17.707" stroke="black" stroke-width="1.5" stroke-miterlimit="10" stroke-linecap="round" stroke-linejoin="round"/>
<path d="M18.7317 18.1278C18.8479 18.1278 18.9421 18.0337 18.9421 17.9175C18.9421 17.8012 18.8479 17.707 18.7317 17.707" stroke="black" stroke-width="1.5" stroke-miterlimit="10" stroke-linecap="round" stroke-linejoin="round"/>
<path d="M19.6561 13.5463L19.9523 14.6571C20.1004 15.0274 20.4707 15.2496 20.841 15.1755L21.9518 14.9533C22.9146 14.7312 23.5811 15.9161 22.9146 16.5826L22.174 17.3972C21.8778 17.6934 21.8778 18.1378 22.174 18.434L22.9146 19.2486C23.5811 19.9892 22.9146 21.1 21.9518 20.8778L20.841 20.6557C20.4707 20.5816 20.1004 20.8038 19.9523 21.1741L19.6561 22.2849C19.3599 23.2477 18.0268 23.2477 17.8047 22.2849L17.5085 21.1741C17.3603 20.8038 16.9901 20.5816 16.6198 20.6557L15.5089 20.8778C14.5462 21.1 13.8797 19.9151 14.5462 19.2486L15.2868 18.434C15.583 18.1378 15.583 17.6934 15.2868 17.3972L14.5462 16.5826C13.8797 15.842 14.5462 14.7312 15.5089 14.9533L16.6198 15.1755C16.9901 15.2496 17.3603 15.0274 17.5085 14.6571L17.8047 13.5463C18.0268 12.5835 19.3599 12.5835 19.6561 13.5463Z" stroke="black" stroke-width="1.5" stroke-miterlimit="10" stroke-linecap="round" stroke-linejoin="round"/>
<path d="M12.3153 8.80859L14.2771 11.3239L12.3153 13.8378" stroke="black" stroke-width="1.5" stroke-linecap="round" stroke-linejoin="round"/>
<path d="M5.70468 13.8438L3.74292 11.3285L5.70468 8.81451" stroke="black" stroke-width="1.5" stroke-linecap="round" stroke-linejoin="round"/>
<path d="M7.96362 14.3068L10.0566 8.33984" stroke="black" stroke-width="1.5" stroke-linecap="round" stroke-linejoin="round"/>
</g>
<defs>
<clipPath id="clip0_1316_12884">
<rect width="24" height="24" fill="white" transform="translate(0.0769043)"/>
</clipPath>
</defs>
</svg>
