<svg width="32" height="33" viewBox="0 0 32 33" fill="none" xmlns="http://www.w3.org/2000/svg">
<path d="M2 12.4126C2 8.86563 2 7.09213 2.69029 5.73736C3.29749 4.54566 4.26637 3.57679 5.45806 2.96959C6.81283 2.2793 8.58633 2.2793 12.1333 2.2793H19.8667C23.4137 2.2793 25.1872 2.2793 26.5419 2.96959C27.7336 3.57679 28.7025 4.54566 29.3097 5.73736C30 7.09213 30 8.86563 30 12.4126V20.146C30 23.693 30 25.4665 29.3097 26.8212C28.7025 28.0129 27.7336 28.9818 26.5419 29.589C25.1872 30.2793 23.4137 30.2793 19.8667 30.2793H12.1333C8.58633 30.2793 6.81283 30.2793 5.45806 29.589C4.26637 28.9818 3.29749 28.0129 2.69029 26.8212C2 25.4665 2 23.693 2 20.146V12.4126Z" fill="white" fill-opacity="0.07"/>
<path d="M2 12.4126C2 8.86563 2 7.09213 2.69029 5.73736C3.29749 4.54566 4.26637 3.57679 5.45806 2.96959C6.81283 2.2793 8.58633 2.2793 12.1333 2.2793H19.8667C23.4137 2.2793 25.1872 2.2793 26.5419 2.96959C27.7336 3.57679 28.7025 4.54566 29.3097 5.73736C30 7.09213 30 8.86563 30 12.4126V20.146C30 23.693 30 25.4665 29.3097 26.8212C28.7025 28.0129 27.7336 28.9818 26.5419 29.589C25.1872 30.2793 23.4137 30.2793 19.8667 30.2793H12.1333C8.58633 30.2793 6.81283 30.2793 5.45806 29.589C4.26637 28.9818 3.29749 28.0129 2.69029 26.8212C2 25.4665 2 23.693 2 20.146V12.4126Z" fill="url(#paint0_radial_111_4073)"/>
<path d="M2 12.4126C2 8.86563 2 7.09213 2.69029 5.73736C3.29749 4.54566 4.26637 3.57679 5.45806 2.96959C6.81283 2.2793 8.58633 2.2793 12.1333 2.2793H19.8667C23.4137 2.2793 25.1872 2.2793 26.5419 2.96959C27.7336 3.57679 28.7025 4.54566 29.3097 5.73736C30 7.09213 30 8.86563 30 12.4126V20.146C30 23.693 30 25.4665 29.3097 26.8212C28.7025 28.0129 27.7336 28.9818 26.5419 29.589C25.1872 30.2793 23.4137 30.2793 19.8667 30.2793H12.1333C8.58633 30.2793 6.81283 30.2793 5.45806 29.589C4.26637 28.9818 3.29749 28.0129 2.69029 26.8212C2 25.4665 2 23.693 2 20.146V12.4126Z" fill="url(#paint1_radial_111_4073)"/>
<path d="M2 12.4126C2 8.86563 2 7.09213 2.69029 5.73736C3.29749 4.54566 4.26637 3.57679 5.45806 2.96959C6.81283 2.2793 8.58633 2.2793 12.1333 2.2793H19.8667C23.4137 2.2793 25.1872 2.2793 26.5419 2.96959C27.7336 3.57679 28.7025 4.54566 29.3097 5.73736C30 7.09213 30 8.86563 30 12.4126V20.146C30 23.693 30 25.4665 29.3097 26.8212C28.7025 28.0129 27.7336 28.9818 26.5419 29.589C25.1872 30.2793 23.4137 30.2793 19.8667 30.2793H12.1333C8.58633 30.2793 6.81283 30.2793 5.45806 29.589C4.26637 28.9818 3.29749 28.0129 2.69029 26.8212C2 25.4665 2 23.693 2 20.146V12.4126Z" fill="url(#paint2_radial_111_4073)"/>
<path d="M2 12.4126C2 8.86563 2 7.09213 2.69029 5.73736C3.29749 4.54566 4.26637 3.57679 5.45806 2.96959C6.81283 2.2793 8.58633 2.2793 12.1333 2.2793H19.8667C23.4137 2.2793 25.1872 2.2793 26.5419 2.96959C27.7336 3.57679 28.7025 4.54566 29.3097 5.73736C30 7.09213 30 8.86563 30 12.4126V20.146C30 23.693 30 25.4665 29.3097 26.8212C28.7025 28.0129 27.7336 28.9818 26.5419 29.589C25.1872 30.2793 23.4137 30.2793 19.8667 30.2793H12.1333C8.58633 30.2793 6.81283 30.2793 5.45806 29.589C4.26637 28.9818 3.29749 28.0129 2.69029 26.8212C2 25.4665 2 23.693 2 20.146V12.4126Z" fill="url(#paint3_radial_111_4073)"/>
<path d="M2 12.4126C2 8.86563 2 7.09213 2.69029 5.73736C3.29749 4.54566 4.26637 3.57679 5.45806 2.96959C6.81283 2.2793 8.58633 2.2793 12.1333 2.2793H19.8667C23.4137 2.2793 25.1872 2.2793 26.5419 2.96959C27.7336 3.57679 28.7025 4.54566 29.3097 5.73736C30 7.09213 30 8.86563 30 12.4126V20.146C30 23.693 30 25.4665 29.3097 26.8212C28.7025 28.0129 27.7336 28.9818 26.5419 29.589C25.1872 30.2793 23.4137 30.2793 19.8667 30.2793H12.1333C8.58633 30.2793 6.81283 30.2793 5.45806 29.589C4.26637 28.9818 3.29749 28.0129 2.69029 26.8212C2 25.4665 2 23.693 2 20.146V12.4126Z" fill="url(#paint4_radial_111_4073)"/>
<path d="M2 12.4126C2 8.86563 2 7.09213 2.69029 5.73736C3.29749 4.54566 4.26637 3.57679 5.45806 2.96959C6.81283 2.2793 8.58633 2.2793 12.1333 2.2793H19.8667C23.4137 2.2793 25.1872 2.2793 26.5419 2.96959C27.7336 3.57679 28.7025 4.54566 29.3097 5.73736C30 7.09213 30 8.86563 30 12.4126V20.146C30 23.693 30 25.4665 29.3097 26.8212C28.7025 28.0129 27.7336 28.9818 26.5419 29.589C25.1872 30.2793 23.4137 30.2793 19.8667 30.2793H12.1333C8.58633 30.2793 6.81283 30.2793 5.45806 29.589C4.26637 28.9818 3.29749 28.0129 2.69029 26.8212C2 25.4665 2 23.693 2 20.146V12.4126Z" fill="url(#paint5_radial_111_4073)"/>
<path d="M2 12.4126C2 8.86563 2 7.09213 2.69029 5.73736C3.29749 4.54566 4.26637 3.57679 5.45806 2.96959C6.81283 2.2793 8.58633 2.2793 12.1333 2.2793H19.8667C23.4137 2.2793 25.1872 2.2793 26.5419 2.96959C27.7336 3.57679 28.7025 4.54566 29.3097 5.73736C30 7.09213 30 8.86563 30 12.4126V20.146C30 23.693 30 25.4665 29.3097 26.8212C28.7025 28.0129 27.7336 28.9818 26.5419 29.589C25.1872 30.2793 23.4137 30.2793 19.8667 30.2793H12.1333C8.58633 30.2793 6.81283 30.2793 5.45806 29.589C4.26637 28.9818 3.29749 28.0129 2.69029 26.8212C2 25.4665 2 23.693 2 20.146V12.4126Z" fill="url(#paint6_radial_111_4073)"/>
<path d="M24.4703 10.7148C22.9886 9.07553 20.9003 8.15416 18.7303 8.16613C16.6069 8.16613 14.4486 9.09946 13.0603 10.6072C12.8036 10.5832 12.5469 10.5593 12.3019 10.5593C8.13693 10.5593 5.55859 14.149 5.55859 17.4755C5.57026 19.2704 6.24693 20.9935 7.44859 22.3097C8.70859 23.6858 10.4586 24.4636 12.3019 24.4636H18.7303C23.0936 24.4636 26.6403 20.7901 26.6403 16.2909C26.6169 14.2208 25.8469 12.2345 24.4703 10.7148ZM12.1736 23.2909C9.08193 23.2909 6.58526 20.7183 6.58526 17.5473C6.58526 14.4003 9.07026 11.8396 12.1503 11.8157C13.5153 11.8157 14.9503 12.2704 15.8603 13.2636L18.2053 15.7285C18.5903 16.1354 18.5786 16.7815 18.1819 17.1764C17.7853 17.5713 17.1553 17.5593 16.7703 17.1525L14.4836 14.7354C12.9903 13.4191 10.7386 13.5866 9.45526 15.1183C8.89526 15.7764 8.59193 16.626 8.59193 17.4995C8.59193 19.5097 10.2603 21.2089 12.2319 21.2089H12.6869C13.3403 22.1422 15.1719 23.2909 15.1719 23.2909H12.1736ZM23.6303 21.2328C22.3819 22.573 20.6553 23.3268 18.8469 23.3388C17.1319 23.3388 15.3819 22.549 14.0403 21.1849L10.9836 18.026C10.5986 17.6191 10.6103 16.973 10.9953 16.5781C11.1819 16.3866 11.4269 16.2909 11.6953 16.2909C11.9636 16.2909 12.2203 16.3986 12.4069 16.602L15.4519 19.7251C16.4203 20.7183 17.6569 21.2807 18.8469 21.2807C20.1186 21.2807 21.3319 20.7422 22.2069 19.7849C23.1053 18.8396 23.6069 17.5713 23.6069 16.255C23.6069 13.5507 21.4603 11.361 18.8236 11.349C17.8203 11.349 16.9919 11.5525 16.1753 12.1388C15.7129 11.6646 14.7169 11.1935 14.2619 11.0978C15.5219 9.88921 17.0969 9.30288 18.8236 9.30288C22.5686 9.30288 25.5903 12.414 25.6019 16.255C25.6019 18.1097 24.9019 19.9046 23.6303 21.2328Z" fill="white"/>
<defs>
<radialGradient id="paint0_radial_111_4073" cx="0" cy="0" r="1" gradientUnits="userSpaceOnUse" gradientTransform="translate(25.275 26.2109) rotate(46.87) scale(16.7238 17.1298)">
<stop stop-color="#68E048"/>
<stop offset="1" stop-color="#5CE049" stop-opacity="0"/>
</radialGradient>
<radialGradient id="paint1_radial_111_4073" cx="0" cy="0" r="1" gradientUnits="userSpaceOnUse" gradientTransform="translate(6.43333 26.0913) rotate(137.364) scale(17.0478 17.527)">
<stop stop-color="#308CFE"/>
<stop offset="1" stop-color="#2F8BFF" stop-opacity="0"/>
</radialGradient>
<radialGradient id="paint2_radial_111_4073" cx="0" cy="0" r="1" gradientUnits="userSpaceOnUse" gradientTransform="translate(24.75 17.9545) rotate(7.9001) scale(10.0117 10.5219)">
<stop stop-color="#FDD511"/>
<stop offset="1" stop-color="#FDD20D" stop-opacity="0"/>
</radialGradient>
<radialGradient id="paint3_radial_111_4073" cx="0" cy="0" r="1" gradientUnits="userSpaceOnUse" gradientTransform="translate(6.78333 12.3904) rotate(-127.134) scale(14.7842 15.0641)">
<stop stop-color="#F928C2"/>
<stop offset="1" stop-color="#F922BC" stop-opacity="0"/>
</radialGradient>
<radialGradient id="paint4_radial_111_4073" cx="0" cy="0" r="1" gradientUnits="userSpaceOnUse" gradientTransform="translate(17.8667 6.94596) rotate(-63.404) scale(14.8538 15.0084)">
<stop stop-color="#F90700"/>
<stop offset="1" stop-color="#F90700" stop-opacity="0"/>
</radialGradient>
<radialGradient id="paint5_radial_111_4073" cx="0" cy="0" r="1" gradientUnits="userSpaceOnUse" gradientTransform="translate(28.4833 6.34767) rotate(-65.6935) scale(8.92818 9.00675)">
<stop stop-color="#FB4200"/>
<stop offset="1" stop-color="#FB4300" stop-opacity="0"/>
</radialGradient>
<radialGradient id="paint6_radial_111_4073" cx="0" cy="0" r="1" gradientUnits="userSpaceOnUse" gradientTransform="translate(4.91667 5.68955) rotate(-133.672) scale(7.94077 8.13743)">
<stop stop-color="#FE0D88"/>
<stop offset="1" stop-color="#FE0D88" stop-opacity="0"/>
</radialGradient>
</defs>
</svg>
