<svg width="24" height="25" viewBox="0 0 24 25" fill="none" xmlns="http://www.w3.org/2000/svg">
<path d="M19.7627 7.8701C19.1795 8.12806 18.5611 8.29748 17.9279 8.37274C18.5953 7.97356 19.0949 7.34532 19.3334 6.6051C18.707 6.97788 18.0203 7.23913 17.3045 7.38045C16.8237 6.86603 16.1865 6.52486 15.4918 6.40999C14.7971 6.29512 14.0839 6.41298 13.4631 6.74524C12.8423 7.0775 12.3487 7.60555 12.059 8.2473C11.7693 8.88905 11.6997 9.60854 11.8611 10.2939C10.5908 10.2303 9.34812 9.90015 8.21371 9.32505C7.0793 8.74995 6.07852 7.94271 5.27634 6.95573C4.9924 7.44343 4.84318 7.99784 4.84398 8.56218C4.84398 9.66982 5.40773 10.6484 6.26481 11.2213C5.7576 11.2053 5.26155 11.0683 4.81801 10.8218V10.8615C4.81816 11.5992 5.07343 12.3141 5.54053 12.8851C6.00763 13.456 6.65782 13.8479 7.38085 13.9942C6.91 14.1218 6.4163 14.1406 5.9371 14.0492C6.14096 14.6842 6.53829 15.2395 7.07346 15.6374C7.60863 16.0353 8.25484 16.2559 8.92162 16.2683C8.25893 16.7887 7.50016 17.1735 6.68868 17.4005C5.8772 17.6275 5.02894 17.6924 4.19238 17.5913C5.65271 18.5305 7.35266 19.0291 9.08891 19.0275C14.9655 19.0275 18.1792 14.1592 18.1792 9.93718C18.1792 9.79968 18.1754 9.66066 18.1693 9.52468C18.7948 9.07259 19.3346 8.51255 19.7635 7.87086L19.7627 7.8701Z" fill="white"/>
</svg>
