<svg width="24" height="25" viewBox="0 0 24 25" fill="none" xmlns="http://www.w3.org/2000/svg">
<path d="M12.0002 5.07812C14.0757 5.07812 14.3347 5.08576 15.149 5.12396C15.9625 5.16215 16.5163 5.28972 17.0037 5.47917C17.5079 5.67319 17.9326 5.93597 18.3573 6.35993C18.7457 6.7418 19.0463 7.20371 19.2381 7.71354C19.4267 8.20014 19.5551 8.75472 19.5933 9.56826C19.6292 10.3826 19.6391 10.6415 19.6391 12.717C19.6391 14.7925 19.6315 15.0515 19.5933 15.8658C19.5551 16.6793 19.4267 17.2331 19.2381 17.7205C19.0468 18.2306 18.7462 18.6926 18.3573 19.0741C17.9753 19.4624 17.5134 19.7629 17.0037 19.9549C16.5171 20.1435 15.9625 20.2719 15.149 20.3101C14.3347 20.346 14.0757 20.3559 12.0002 20.3559C9.92473 20.3559 9.66577 20.3483 8.85147 20.3101C8.03793 20.2719 7.48411 20.1435 6.99674 19.9549C6.48672 19.7635 6.02472 19.4629 5.64313 19.0741C5.25462 18.6923 4.95405 18.2304 4.76237 17.7205C4.57293 17.2339 4.44536 16.6793 4.40716 15.8658C4.37126 15.0515 4.36133 14.7925 4.36133 12.717C4.36133 10.6415 4.36897 10.3826 4.40716 9.56826C4.44536 8.75396 4.57293 8.2009 4.76237 7.71354C4.95352 7.2034 5.25416 6.74136 5.64313 6.35993C6.02483 5.97129 6.48679 5.6707 6.99674 5.47917C7.48411 5.28972 8.03716 5.16215 8.85147 5.12396C9.66577 5.08806 9.92473 5.07812 12.0002 5.07812ZM12.0002 8.89757C10.9872 8.89757 10.0157 9.29997 9.29946 10.0163C8.58318 10.7325 8.18077 11.704 8.18077 12.717C8.18077 13.73 8.58318 14.7015 9.29946 15.4178C10.0157 16.1341 10.9872 16.5365 12.0002 16.5365C13.0132 16.5365 13.9847 16.1341 14.701 15.4178C15.4173 14.7015 15.8197 13.73 15.8197 12.717C15.8197 11.704 15.4173 10.7325 14.701 10.0163C13.9847 9.29997 13.0132 8.89757 12.0002 8.89757ZM16.9655 8.7066C16.9655 8.45335 16.8649 8.21048 16.6858 8.03141C16.5068 7.85234 16.2639 7.75174 16.0106 7.75174C15.7574 7.75174 15.5145 7.85234 15.3354 8.03141C15.1564 8.21048 15.0558 8.45335 15.0558 8.7066C15.0558 8.95984 15.1564 9.20271 15.3354 9.38179C15.5145 9.56086 15.7574 9.66146 16.0106 9.66146C16.2639 9.66146 16.5068 9.56086 16.6858 9.38179C16.8649 9.20271 16.9655 8.95984 16.9655 8.7066ZM12.0002 10.4253C12.608 10.4253 13.1909 10.6668 13.6207 11.0966C14.0504 11.5263 14.2919 12.1092 14.2919 12.717C14.2919 13.3248 14.0504 13.9077 13.6207 14.3375C13.1909 14.7672 12.608 15.0087 12.0002 15.0087C11.3924 15.0087 10.8095 14.7672 10.3798 14.3375C9.94999 13.9077 9.70855 13.3248 9.70855 12.717C9.70855 12.1092 9.94999 11.5263 10.3798 11.0966C10.8095 10.6668 11.3924 10.4253 12.0002 10.4253Z" fill="white"/>
</svg>
