<svg width="137" height="44" viewBox="0 0 137 44" fill="none" xmlns="http://www.w3.org/2000/svg">
<path d="M98.0508 35.1699C95.029 34.9762 93.2723 33.2572 92.8074 30.0417C92.6835 29.1861 92.6835 29.1639 92.6702 23.6106L92.658 18.2356H95.3322L95.3422 23.4347C95.3522 28.1201 95.3577 28.6702 95.4031 28.999C95.5846 30.3372 95.9466 31.2371 96.5642 31.8824C97.0579 32.3993 97.6357 32.7015 98.436 32.862C98.8123 32.9384 99.8871 32.9384 100.231 32.862C101.004 32.7047 101.712 32.3209 102.266 31.7596C102.92 31.1065 103.404 30.18 103.638 29.1329L103.716 28.7798L103.725 23.5376L103.734 18.2932H106.464V34.7792H103.762V33.4708C103.762 32.5831 103.752 32.1669 103.731 32.1735C103.67 32.2451 103.618 32.3243 103.577 32.4093C103.085 33.2844 102.362 34.0076 101.487 34.5002C100.468 35.0592 99.4465 35.2584 98.0508 35.1699ZM128.712 35.1566C127.611 35.0651 126.547 34.7179 125.605 34.1427C123.67 32.9473 122.525 30.977 122.191 28.2673C122.075 27.3287 122.06 26.069 122.158 25.2721C122.374 23.49 123.074 21.7411 124.073 20.4937C124.327 20.1727 124.908 19.5938 125.228 19.3381C126.091 18.6493 127.101 18.168 128.179 17.9312C128.806 17.7951 129.908 17.7309 130.573 17.7917C132.245 17.9467 133.774 18.7326 134.815 19.969C135.873 21.2253 136.453 22.9808 136.528 25.1426C136.54 25.5827 136.542 26.0229 136.534 26.4631L136.52 27.1671L130.669 27.1737L124.818 27.1815V27.4427C124.818 28.2363 125.01 29.1407 125.344 29.9111C125.632 30.5741 126.129 31.298 126.534 31.6489C127.367 32.3678 128.405 32.8062 129.501 32.9019C129.915 32.9406 130.969 32.8997 131.439 32.8277C132.784 32.6207 134.062 32.0938 135.093 31.3223C135.215 31.2305 135.331 31.1452 135.352 31.1331C135.382 31.1143 135.389 31.3511 135.388 32.3506V33.5904L135.11 33.7619C133.917 34.4919 132.579 34.9549 131.19 35.119C130.767 35.171 129.217 35.1942 128.712 35.1566ZM133.803 24.691C133.803 23.3616 133.242 21.8839 132.448 21.1235C131.882 20.5807 131.159 20.2305 130.382 20.1228C129.997 20.0631 129.185 20.0863 128.779 20.1671C127.949 20.3252 127.186 20.7303 126.591 21.3294C125.935 21.9786 125.439 22.7713 125.142 23.645C125.031 23.966 124.903 24.4917 124.862 24.784L124.843 24.9234H133.803V24.691ZM54.4338 34.7415L58.8492 23.1557L63.2524 11.6064H66.0816L66.1989 11.9053C66.5576 12.8251 75.0131 34.7537 75.0131 34.7648C75.0131 34.7725 74.3357 34.778 73.5077 34.778H72.0024L70.7848 31.5371L69.565 28.2961H59.7513L59.7093 28.4068C59.686 28.4666 59.1647 29.9254 58.5514 31.6467L57.4379 34.778H55.9292C54.736 34.778 54.4239 34.7714 54.4338 34.7415ZM68.6695 25.8233C68.6695 25.8178 67.8504 23.5974 66.8476 20.8866C64.9725 15.8193 64.8674 15.5138 64.719 14.7002C64.6493 14.3194 64.6139 14.3084 64.5729 14.6559C64.5145 15.033 64.4294 15.4055 64.3183 15.7706C64.2685 15.9244 63.424 18.2389 62.4411 20.9154C61.8399 22.5443 61.2441 24.1751 60.6534 25.8078C60.6534 25.8211 62.4577 25.8322 64.6615 25.8322C66.8664 25.8322 68.6695 25.8277 68.6695 25.8233ZM75.923 34.3574V33.9346L80.8121 27.2213L85.7012 20.508L81.2736 20.4937L76.8483 20.4793L76.8406 19.3569L76.8328 18.2356H89.6373V18.9927L84.7482 25.7425C82.0584 29.455 79.8579 32.499 79.8579 32.5056C79.8579 32.5134 82.0319 32.52 84.6884 32.52H89.52V34.778H75.923V34.3574ZM111.798 34.7592C111.787 34.7482 111.779 31.0257 111.779 26.4874V18.2345H114.452V19.9358C114.452 20.8722 114.463 21.6371 114.476 21.6371C114.49 21.6371 114.556 21.4843 114.621 21.2973C114.931 20.4247 115.442 19.6378 116.114 19.0005C116.692 18.4403 117.429 18.0739 118.225 17.9522C118.454 17.9157 118.648 17.908 119.106 17.9201C119.682 17.9356 119.982 17.9777 120.331 18.0917L120.442 18.1271V20.8988L120.127 20.7416C119.58 20.4645 118.968 20.3421 118.357 20.3874C117.926 20.4095 117.644 20.4649 117.3 20.5933C116.601 20.851 116.009 21.3344 115.616 21.9669C115.017 22.9442 114.636 24.039 114.498 25.1769C114.476 25.3728 114.464 26.9723 114.458 30.1236L114.45 34.7803H113.134C112.41 34.7803 111.809 34.7703 111.798 34.7592Z" fill="#0089D6"/>
<path d="M15.6292 0.0631638H29.133L15.1151 41.5969C14.9711 42.0238 14.6968 42.3948 14.3309 42.6576C13.9649 42.9204 13.5257 43.0617 13.0752 43.0616H2.56618C2.22487 43.0616 1.88849 42.9803 1.5848 42.8245C1.28112 42.6687 1.01885 42.443 0.819659 42.1658C0.620526 41.8886 0.490287 41.568 0.439726 41.2304C0.389164 40.8929 0.419734 40.5482 0.528905 40.2248L13.5893 1.52756C13.7333 1.10065 14.0076 0.729671 14.3736 0.46685C14.7395 0.20403 15.1787 0.0626093 15.6292 0.0625V0.0631638Z" fill="url(#paint0_linear_111_3852)"/>
<path d="M35.2534 27.9219H13.8406C13.6415 27.9214 13.4468 27.981 13.2821 28.0928C13.1173 28.2046 12.99 28.3635 12.9169 28.5487C12.8437 28.7339 12.8281 28.9369 12.8721 29.1311C12.916 29.3254 13.0175 29.5018 13.1632 29.6375L26.9229 42.4808C27.3238 42.8545 27.8515 43.0621 28.3995 43.0619H40.5244L35.2534 27.9219Z" fill="#0078D4"/>
<path d="M15.6281 0.0634916C15.1726 0.0617808 14.7286 0.205733 14.3607 0.474325C13.9929 0.742916 13.7206 1.12208 13.5835 1.55643L0.544039 40.1899C0.427631 40.5145 0.391096 40.8623 0.437524 41.204C0.483952 41.5456 0.611978 41.8711 0.810773 42.1528C1.00957 42.4345 1.27329 42.6642 1.57962 42.8225C1.88595 42.9807 2.22589 43.0629 2.57069 43.062H13.3512C13.7527 42.9903 14.128 42.8133 14.4387 42.549C14.7494 42.2848 14.9843 41.9429 15.1196 41.5581L17.7198 33.8946L27.0083 42.5578C27.3975 42.8798 27.8857 43.0578 28.3908 43.062H40.471L35.1727 27.9215L19.7279 27.9251L29.1807 0.0634916H15.6281Z" fill="url(#paint1_linear_111_3852)"/>
<path d="M32.8759 1.52588C32.7321 1.09957 32.4581 0.729136 32.0926 0.466775C31.7271 0.204415 31.2885 0.0633557 30.8386 0.0634766H15.7891C16.2389 0.0635249 16.6774 0.204655 17.0428 0.466997C17.4082 0.729339 17.6821 1.09968 17.826 1.52588L30.8867 40.2248C30.9961 40.5482 31.0268 40.893 30.9763 41.2307C30.9259 41.5684 30.7958 41.8892 30.5967 42.1665C30.3976 42.4439 30.1353 42.6699 29.8315 42.8257C29.5277 42.9815 29.1912 43.0627 28.8498 43.0626H43.9C44.2413 43.0624 44.5776 42.9809 44.8812 42.825C45.1848 42.6691 45.4469 42.4431 45.6459 42.1659C45.8449 41.8886 45.975 41.5679 46.0256 41.2304C46.0761 40.8929 46.0456 40.5482 45.9366 40.2248L32.8759 1.52588Z" fill="url(#paint2_linear_111_3852)"/>
<defs>
<linearGradient id="paint0_linear_111_3852" x1="20.5511" y1="3.24951" x2="6.52721" y2="44.679" gradientUnits="userSpaceOnUse">
<stop stop-color="#114A8B"/>
<stop offset="1" stop-color="#0669BC"/>
</linearGradient>
<linearGradient id="paint1_linear_111_3852" x1="24.9306" y1="22.5571" x2="21.6868" y2="23.6541" gradientUnits="userSpaceOnUse">
<stop stop-opacity="0.3"/>
<stop offset="0.071" stop-opacity="0.2"/>
<stop offset="0.321" stop-opacity="0.1"/>
<stop offset="0.623" stop-opacity="0.05"/>
<stop offset="1" stop-opacity="0"/>
</linearGradient>
<linearGradient id="paint2_linear_111_3852" x1="23.1465" y1="2.04134" x2="38.5406" y2="43.0537" gradientUnits="userSpaceOnUse">
<stop stop-color="#3CCBF4"/>
<stop offset="1" stop-color="#2892DF"/>
</linearGradient>
</defs>
</svg>
