<svg width="1440" height="752" viewBox="0 0 1440 752" fill="none" xmlns="http://www.w3.org/2000/svg">
<mask id="mask0_110_3407" style="mask-type:luminance" maskUnits="userSpaceOnUse" x="1" y="0" width="1440" height="752">
<path d="M1 752L1441 752L1441 0L1 0L1 752Z" fill="white"/>
</mask>
<g mask="url(#mask0_110_3407)">
<path d="M1586 669.5L1587.4 668L1553.2 633.8H1485.3L1451.9 600.5V532.6L1383.4 464.1H1247.7L1214 430.5L1212.6 431.9L1246.9 466.1H1382.6L1449.9 533.4V601.3L1484.4 635.8H1552.3L1586 669.5Z" fill="url(#paint0_linear_110_3407)"/>
<path d="M1868.5 387L1870.6 384.9L1802.3 316.5H1734.4L1700.4 282.6H1564.7L1496.8 214.7H1361L1327.5 181.2L1325.4 183.3L1359.8 217.7H1495.5L1563.4 285.6H1699.2L1733.1 319.5H1801L1868.5 387Z" fill="url(#paint1_linear_110_3407)"/>
<path d="M1812.6 442.8L1813.3 442.1L1643.5 272.3H1507.7L1473.7 238.3H1405.9L1338.1 170.6L1337.4 171.3L1405.5 239.3H1473.3L1507.3 273.3H1643L1812.6 442.8Z" fill="url(#paint2_linear_110_3407)"/>
<path d="M1823.9 431.5L1824.6 430.8L1722.6 328.8H1654.8L1586.9 261H1519L1485.4 227.3V159.4L1451.1 125.2H1315.1V126.2H1450.7L1484.4 159.8V227.7L1518.6 262H1586.5L1654.4 329.8H1722.2L1823.9 431.5Z" fill="url(#paint3_linear_110_3407)"/>
<path d="M1702.3 553.1L1703 552.4L1601 450.5H1533.1L1465.3 382.6H1397.4L1363.7 348.9V281.1L1329.5 246.8H1193.5V247.8H1329.1L1362.7 281.5V349.3L1397 383.6H1464.8L1532.7 451.5H1600.6L1702.3 553.1Z" fill="url(#paint4_linear_110_3407)"/>
<path d="M1790 465.5L1790.7 464.8L1722.6 396.7H1654.8L1620.8 362.8H1552.9L1485.1 294.9H1417.2L1349.4 227.2L1348.7 227.9L1416.8 295.9H1484.6L1552.5 363.8H1620.4L1654.4 397.7H1722.2L1790 465.5Z" fill="url(#paint5_linear_110_3407)"/>
<path d="M1767.3 488.1L1768.1 487.4L1700 419.4H1632.1L1394.7 181.9L1394 182.6L1631.7 420.4H1699.6L1767.3 488.1Z" fill="url(#paint6_linear_110_3407)"/>
<path d="M1656.7 598.8L1658.1 597.3L1589.9 529.2H1522L1284.7 291.9L1283.3 293.3L1521.2 531.2H1589.1L1656.7 598.8Z" fill="url(#paint7_linear_110_3407)"/>
<path d="M1713.3 542.2L1714.7 540.8L1578.6 404.7H1510.7L1408.9 302.9H1341L1205.5 167.4L1204.1 168.8L1340.2 304.9H1408.1L1509.9 406.7H1577.8L1713.3 542.2Z" fill="url(#paint8_linear_110_3407)"/>
<path d="M1594.8 660.6L1595.5 659.9L1459.6 524H1391.7L1289.9 422.2H1222L1086.4 286.6L1085.7 287.3L1221.6 423.2H1289.5L1391.3 525H1459.2L1594.8 660.6Z" fill="url(#paint9_linear_110_3407)"/>
<path d="M1685.3 570.1L1686 569.4L1584.1 467.4H1516.2L1380.6 331.8L1379.8 332.5L1515.8 468.4H1583.6L1685.3 570.1Z" fill="url(#paint10_linear_110_3407)"/>
<path d="M1674 581.4L1674.7 580.7L1572.7 478.7H1504.9L1437.1 411L1436.4 411.7L1504.4 479.7H1572.3L1674 581.4Z" fill="url(#paint11_linear_110_3407)"/>
<path d="M1662.7 592.701L1663.4 592.001L1561.4 490.101H1425.7L1391.9 456.301L1391.2 457.001L1425.3 491.101H1561L1662.7 592.701Z" fill="url(#paint12_linear_110_3407)"/>
<path d="M1640.1 615.4L1640.8 614.7L1572.7 546.6H1504.9L1369.2 411L1368.5 411.7L1504.4 547.6H1572.3L1640.1 615.4Z" fill="url(#paint13_linear_110_3407)"/>
<path d="M1572.2 683.3L1572.9 682.5L1335.4 445.1V377.2L1301.4 343.1L1300.7 343.8L1334.4 377.6V445.5L1572.2 683.3Z" fill="url(#paint14_linear_110_3407)"/>
<path d="M1292.2 963.3L1292.9 962.6L1225.1 894.8V826.9L1123.2 725L1122.5 725.7L1224.1 827.4V895.2L1292.2 963.3Z" fill="url(#paint15_linear_110_3407)"/>
<path d="M1184.7 1070.7L1185.4 1070L1151.6 1036.2V968.4L1117.4 934.1H1049.5L981.902 866.5V730.8L947.802 696.7L947.102 697.4L980.902 731.2V867L1049.1 935.1H1117L1150.6 968.8V1036.7L1184.7 1070.7Z" fill="url(#paint16_linear_110_3407)"/>
<path d="M1484.1 771.3L1485.6 769.9L1451.9 736.2V668.3L1417.4 633.8H1349.5L1282.2 566.5V430.8L1248 396.5L1246.6 397.9L1280.2 431.6V567.3L1348.7 635.8H1416.6L1449.9 669.2V737.1L1484.1 771.3Z" fill="url(#paint17_linear_110_3407)"/>
<path d="M1201 1054.5L1203.1 1052.4L1135.6 984.901V917.001L1101.7 883.101V747.301L1033.8 679.401V543.701L999.401 509.301L997.301 511.401L1030.8 544.901V680.701L1098.7 748.601V884.301L1132.6 918.301V986.201L1201 1054.5Z" fill="url(#paint18_linear_110_3407)"/>
<path d="M1258.2 997.201L1258.9 996.501L1089.4 826.901V691.201L1055.4 657.201V589.401L987.401 521.301L986.701 522.001L1054.4 589.801V657.601L1088.4 691.601V827.401L1258.2 997.201Z" fill="url(#paint19_linear_110_3407)"/>
<path d="M1246.9 1008.5L1247.6 1007.8L1145.9 906.1V838.3L1078.1 770.4V702.5L1043.8 668.3H975.901L942.301 634.6V499H941.301V635L975.501 669.3H1043.4L1077.1 702.9V770.8L1144.9 838.7V906.5L1246.9 1008.5Z" fill="url(#paint20_linear_110_3407)"/>
<path d="M1368.5 886.9L1369.2 886.2L1267.6 784.5V716.6L1199.7 648.7V580.9L1165.4 546.6H1097.6L1063.9 513V377.4H1062.9V513.4L1097.2 547.6H1165L1198.7 581.3V649.2L1266.6 717V784.9L1368.5 886.9Z" fill="url(#paint21_linear_110_3407)"/>
<path d="M1266.7 988.7L1267.4 988L1029.8 750.4L1029.1 751.1L1266.7 988.7Z" fill="url(#paint22_linear_110_3407)"/>
<path d="M1280.9 974.6L1281.6 973.9L1213.8 906.1V838.3L1179.9 804.3V736.4L1112 668.5V600.7L1044 532.6L1043.3 533.3L1111 601.1V669L1178.9 736.8V804.7L1212.8 838.7V906.5L1280.9 974.6Z" fill="url(#paint23_linear_110_3407)"/>
<path d="M1314.4 941.001L1315.9 939.601L1282.2 905.901V838.001L1247.7 803.501H1179.8L1146.4 770.201V634.801H1144.4V771.001L1179 805.501H1246.9L1280.2 838.901V906.801L1314.4 941.001Z" fill="url(#paint24_linear_110_3407)"/>
<path d="M1303.5 952L1304.2 951.2L1236.5 883.5V815.6L998.7 577.9L998 578.6L1235.5 816V883.9L1303.5 952Z" fill="url(#paint25_linear_110_3407)"/>
<path d="M1413.4 842L1414.9 840.6L1347.3 773V705.1L1109.4 467.2L1108 468.6L1345.3 705.9V773.8L1413.4 842Z" fill="url(#paint26_linear_110_3407)"/>
<path d="M1356.9 898.6L1358.3 897.2L1222.8 761.7V693.8L1121 592V524.1L984.9 388L983.5 389.4L1119 524.9V592.8L1220.8 694.6V762.5L1356.9 898.6Z" fill="url(#paint27_linear_110_3407)"/>
<path d="M1476 779.4L1476.7 778.7L1341.1 643.1V575.2L1239.3 473.4V405.5L1103.4 269.6L1102.7 270.3L1238.3 405.9V473.8L1340.1 575.6V643.5L1476 779.4Z" fill="url(#paint28_linear_110_3407)"/>
<path d="M1385.5 869.9L1386.2 869.2L1284.5 767.5V699.7L1148.6 563.7L1147.9 564.5L1283.5 700.1V768L1385.5 869.9Z" fill="url(#paint29_linear_110_3407)"/>
<path d="M1396.8 858.601L1397.5 857.901L1295.8 756.201V688.301L1227.8 620.301L1227.1 621.001L1294.9 688.801V756.601L1396.8 858.601Z" fill="url(#paint30_linear_110_3407)"/>
<path d="M1408.1 847.3L1408.8 846.6L1307.2 744.9V609.2L1273.1 575.1L1272.4 575.8L1306.2 609.6V745.3L1408.1 847.3Z" fill="url(#paint31_linear_110_3407)"/>
<path d="M1430.8 824.7L1431.5 824L1363.7 756.2V688.3L1227.8 552.4L1227.1 553.1L1362.7 688.8V756.6L1430.8 824.7Z" fill="url(#paint32_linear_110_3407)"/>
<path d="M1498.6 756.8L1499.4 756.1L1261.6 518.3H1193.7L1159.9 484.6L1159.2 485.3L1193.3 519.3H1261.2L1498.6 756.8Z" fill="url(#paint33_linear_110_3407)"/>
<path d="M1209.1 435.401C1211.4 437.701 1215.2 437.701 1217.6 435.401C1219.9 433.101 1219.9 429.301 1217.6 426.901C1215.3 424.601 1211.5 424.601 1209.1 426.901C1206.7 429.301 1206.7 433.101 1209.1 435.401Z" fill="url(#paint34_linear_110_3407)"/>
<path d="M1323.6 185.1C1325.2 186.7 1327.7 186.7 1329.3 185.1C1330.9 183.5 1330.9 181 1329.3 179.4C1327.7 177.8 1325.2 177.8 1323.6 179.4C1322.1 181 1322.1 183.5 1323.6 185.1Z" fill="url(#paint35_linear_110_3407)"/>
<path d="M1334.9 173.8C1336.5 175.4 1339 175.4 1340.6 173.8C1342.2 172.2 1342.2 169.7 1340.6 168.1C1339 166.5 1336.5 166.5 1334.9 168.1C1333.4 169.7 1333.4 172.2 1334.9 173.8Z" fill="url(#paint36_linear_110_3407)"/>
<path d="M1312.3 128.5C1313.9 130.1 1316.4 130.1 1318 128.5C1319.6 126.9 1319.6 124.4 1318 122.8C1316.4 121.2 1313.9 121.2 1312.3 122.8C1310.8 124.4 1310.8 127 1312.3 128.5Z" fill="url(#paint37_linear_110_3407)"/>
<path d="M1190.7 250.1C1192.3 251.7 1194.8 251.7 1196.4 250.1C1198 248.5 1198 246 1196.4 244.4C1194.8 242.8 1192.3 242.8 1190.7 244.4C1189.1 246.1 1189.1 248.6 1190.7 250.1Z" fill="url(#paint38_linear_110_3407)"/>
<path d="M1346.3 230.3C1347.9 231.9 1350.4 231.9 1352 230.3C1353.6 228.7 1353.6 226.2 1352 224.6C1350.4 223 1347.9 223 1346.3 224.6C1344.7 226.3 1344.7 228.8 1346.3 230.3Z" fill="url(#paint39_linear_110_3407)"/>
<path d="M1394.3 186.3C1396.51 186.3 1398.3 184.509 1398.3 182.3C1398.3 180.091 1396.51 178.3 1394.3 178.3C1392.09 178.3 1390.3 180.091 1390.3 182.3C1390.3 184.509 1392.09 186.3 1394.3 186.3Z" fill="url(#paint40_linear_110_3407)"/>
<path d="M1279.8 296.8C1282.1 299.1 1285.9 299.1 1288.3 296.8C1290.6 294.5 1290.6 290.7 1288.3 288.3C1286 286 1282.2 286 1279.8 288.3C1277.5 290.7 1277.5 294.5 1279.8 296.8Z" fill="url(#paint41_linear_110_3407)"/>
<path d="M1200.6 172.4C1202.9 174.7 1206.7 174.7 1209.1 172.4C1211.4 170.1 1211.4 166.3 1209.1 163.9C1206.8 161.6 1203 161.6 1200.6 163.9C1198.3 166.2 1198.3 170 1200.6 172.4Z" fill="url(#paint42_linear_110_3407)"/>
<path d="M1083.2 289.7C1084.8 291.3 1087.3 291.3 1088.9 289.7C1090.5 288.1 1090.5 285.6 1088.9 284C1087.3 282.4 1084.8 282.4 1083.2 284C1081.7 285.7 1081.7 288.2 1083.2 289.7Z" fill="url(#paint43_linear_110_3407)"/>
<path d="M1377.4 335C1379 336.6 1381.5 336.6 1383.1 335C1384.7 333.4 1384.7 330.9 1383.1 329.3C1381.5 327.7 1379 327.7 1377.4 329.3C1375.8 330.9 1375.8 333.4 1377.4 335Z" fill="url(#paint44_linear_110_3407)"/>
<path d="M1433.9 414.2C1435.5 415.8 1438 415.8 1439.6 414.2C1441.2 412.6 1441.2 410.1 1439.6 408.5C1438 406.9 1435.5 406.9 1433.9 408.5C1432.4 410.1 1432.4 412.6 1433.9 414.2Z" fill="url(#paint45_linear_110_3407)"/>
<path d="M1388.7 459.5C1390.3 461.1 1392.8 461.1 1394.4 459.5C1396 457.9 1396 455.4 1394.4 453.8C1392.8 452.2 1390.3 452.2 1388.7 453.8C1387.1 455.4 1387.1 457.9 1388.7 459.5Z" fill="url(#paint46_linear_110_3407)"/>
<path d="M1366.1 414.2C1367.7 415.8 1370.2 415.8 1371.8 414.2C1373.4 412.6 1373.4 410.1 1371.8 408.5C1370.2 406.9 1367.7 406.9 1366.1 408.5C1364.5 410.1 1364.5 412.6 1366.1 414.2Z" fill="url(#paint47_linear_110_3407)"/>
<path d="M1298.2 346.3C1299.8 347.9 1302.3 347.9 1303.9 346.3C1305.5 344.7 1305.5 342.2 1303.9 340.6C1302.3 339 1299.8 339 1298.2 340.6C1296.6 342.2 1296.6 344.8 1298.2 346.3Z" fill="url(#paint48_linear_110_3407)"/>
<path d="M1125.6 722.5C1127.2 724.1 1127.2 726.6 1125.6 728.2C1124 729.8 1121.5 729.8 1119.9 728.2C1118.3 726.6 1118.3 724.1 1119.9 722.5C1121.5 720.9 1124.1 720.9 1125.6 722.5Z" fill="url(#paint49_linear_110_3407)"/>
<path d="M539.5 694.2C541.1 695.8 541.1 698.3 539.5 699.9C537.9 701.5 535.4 701.5 533.8 699.9C532.2 698.3 532.2 695.8 533.8 694.2C535.4 692.6 537.9 692.6 539.5 694.2Z" fill="url(#paint50_linear_110_3407)"/>
<path d="M1251.5 393C1253.8 395.3 1253.8 399.1 1251.5 401.5C1249.2 403.8 1245.4 403.8 1243 401.5C1240.7 399.2 1240.7 395.4 1243 393C1245.4 390.6 1249.2 390.6 1251.5 393Z" fill="url(#paint51_linear_110_3407)"/>
<path d="M1004 504.7C1007.1 507.8 1007.1 512.9 1004 516C1000.9 519.1 995.8 519.1 992.7 516C989.6 512.9 989.6 507.8 992.7 504.7C995.8 501.6 1000.9 501.6 1004 504.7Z" fill="url(#paint52_linear_110_3407)"/>
<path d="M987.1 525.7C989.309 525.7 991.1 523.909 991.1 521.7C991.1 519.491 989.309 517.7 987.1 517.7C984.89 517.7 983.1 519.491 983.1 521.7C983.1 523.909 984.89 525.7 987.1 525.7Z" fill="url(#paint53_linear_110_3407)"/>
<path d="M531 503C533.209 503 535 501.209 535 499C535 496.791 533.209 495 531 495C528.791 495 527 496.791 527 499C527 501.209 528.791 503 531 503Z" fill="url(#paint54_linear_110_3407)"/>
<path d="M1066.2 374.6C1067.8 376.2 1067.8 378.7 1066.2 380.3C1064.6 381.9 1062.1 381.9 1060.5 380.3C1058.9 378.7 1058.9 376.2 1060.5 374.6C1062.2 373 1064.7 373 1066.2 374.6Z" fill="url(#paint55_linear_110_3407)"/>
<path d="M1032.3 748C1033.9 749.6 1033.9 752.1 1032.3 753.7C1030.7 755.3 1028.2 755.3 1026.6 753.7C1025 752.1 1025 749.6 1026.6 748C1028.2 746.4 1030.7 746.4 1032.3 748Z" fill="url(#paint56_linear_110_3407)"/>
<path d="M1046.4 530.2C1048 531.8 1048 534.3 1046.4 535.9C1044.8 537.5 1042.3 537.5 1040.7 535.9C1039.1 534.3 1039.1 531.8 1040.7 530.2C1042.4 528.6 1044.9 528.6 1046.4 530.2Z" fill="url(#paint57_linear_110_3407)"/>
<path d="M1149.7 630.6C1152 632.9 1152 636.7 1149.7 639.1C1147.4 641.4 1143.6 641.4 1141.2 639.1C1138.9 636.8 1138.9 633 1141.2 630.6C1143.5 628.2 1147.3 628.2 1149.7 630.6Z" fill="url(#paint58_linear_110_3407)"/>
<path d="M1001.2 575.4C1002.8 577 1002.8 579.5 1001.2 581.1C999.601 582.7 997.101 582.7 995.501 581.1C993.901 579.5 993.901 577 995.501 575.4C997.101 573.9 999.601 573.9 1001.2 575.4Z" fill="url(#paint59_linear_110_3407)"/>
<path d="M1112.9 463.7C1115.2 466 1115.2 469.8 1112.9 472.2C1110.6 474.5 1106.8 474.5 1104.4 472.2C1102.1 469.9 1102.1 466.1 1104.4 463.7C1106.8 461.4 1110.6 461.4 1112.9 463.7Z" fill="url(#paint60_linear_110_3407)"/>
<path d="M988.5 384.5C990.8 386.8 990.8 390.6 988.5 393C986.2 395.3 982.4 395.3 980 393C977.7 390.7 977.7 386.9 980 384.5C982.3 382.2 986.1 382.2 988.5 384.5Z" fill="url(#paint61_linear_110_3407)"/>
<path d="M1105.8 267.1C1107.4 268.7 1107.4 271.2 1105.8 272.8C1104.2 274.4 1101.7 274.4 1100.1 272.8C1098.5 271.2 1098.5 268.7 1100.1 267.1C1101.8 265.6 1104.3 265.6 1105.8 267.1Z" fill="url(#paint62_linear_110_3407)"/>
<path d="M1151.1 561.3C1152.7 562.9 1152.7 565.4 1151.1 567C1149.5 568.6 1147 568.6 1145.4 567C1143.8 565.4 1143.8 562.9 1145.4 561.3C1147 559.7 1149.5 559.7 1151.1 561.3Z" fill="url(#paint63_linear_110_3407)"/>
<path d="M1230.3 617.8C1231.9 619.4 1231.9 621.9 1230.3 623.5C1228.7 625.1 1226.2 625.1 1224.6 623.5C1223 621.9 1223 619.4 1224.6 617.8C1226.2 616.3 1228.7 616.3 1230.3 617.8Z" fill="url(#paint64_linear_110_3407)"/>
<path d="M1275.6 572.6C1277.2 574.2 1277.2 576.7 1275.6 578.3C1274 579.9 1271.5 579.9 1269.9 578.3C1268.3 576.7 1268.3 574.2 1269.9 572.6C1271.5 571 1274 571 1275.6 572.6Z" fill="url(#paint65_linear_110_3407)"/>
<path d="M1227.5 556.8C1229.71 556.8 1231.5 555.009 1231.5 552.8C1231.5 550.591 1229.71 548.8 1227.5 548.8C1225.29 548.8 1223.5 550.591 1223.5 552.8C1223.5 555.009 1225.29 556.8 1227.5 556.8Z" fill="url(#paint66_linear_110_3407)"/>
<path d="M1159.6 488.9C1161.81 488.9 1163.6 487.11 1163.6 484.9C1163.6 482.691 1161.81 480.9 1159.6 480.9C1157.39 480.9 1155.6 482.691 1155.6 484.9C1155.6 487.11 1157.39 488.9 1159.6 488.9Z" fill="url(#paint67_linear_110_3407)"/>
<path d="M-223 719.5V720.5H-126.8L-78.8 672.5H65V671.5H-79.2L-127.2 719.5H-223Z" fill="url(#paint68_linear_110_3407)"/>
<path d="M-223 447V449H-174.6L-126.6 401H-79.4L-31.4 449H65.4L161.4 353H209V351H160.6L64.6 447H-30.6L-78.6 399H-127.4L-175.4 447H-223Z" fill="url(#paint69_linear_110_3407)"/>
<path d="M-223 846.5V849.5H-126.4L-78.4 801.5H-30.4L65.6 705.5H161.6L257.6 609.5H305V606.5H256.4L160.4 702.5H64.4L-31.6 798.5H-79.6L-127.6 846.5H-223Z" fill="url(#paint70_linear_110_3407)"/>
<path d="M-223 767.5V768.5H17.2L113.2 672.5H161.2L209.2 624.5H305V623.5H208.8L160.8 671.5H112.8L16.8 767.5H-223Z" fill="url(#paint71_linear_110_3407)"/>
<path d="M-223 783.5V784.5H-78.8L-30.8 736.5H65.2L113.2 688.5H160.8L208.8 736.5H257.2L353.4 640.4L352.6 639.6L256.8 735.5H209.2L161.2 687.5H112.8L64.8 735.5H-31.2L-79.2 783.5H-223Z" fill="url(#paint72_linear_110_3407)"/>
<path d="M-223 611.5V612.5H-78.8L-30.8 564.5H65.2L113.2 516.5H160.8L208.8 564.5H257.2L353.4 468.4L352.6 467.6L256.8 563.5H209.2L161.2 515.5H112.8L64.8 563.5H-31.2L-79.2 611.5H-223Z" fill="url(#paint73_linear_110_3407)"/>
<path d="M-223 735.5V736.5H-126.8L-78.8 688.5H-30.8L17.2 640.5H113.2L161.2 592.5H257V591.5H160.8L112.8 639.5H16.8L-31.2 687.5H-79.2L-127.2 735.5H-223Z" fill="url(#paint74_linear_110_3407)"/>
<path d="M-223 687V689H-174.6L-126.6 641H-79.4L-31.4 689H17.4L113.7 592.7L112.3 591.3L16.6 687H-30.6L-78.6 639H-127.4L-175.4 687H-223Z" fill="url(#paint75_linear_110_3407)"/>
<path d="M-223 703.5V704.5H-126.8L-78.8 656.5H257V655.5H-79.2L-127.2 703.5H-223Z" fill="url(#paint76_linear_110_3407)"/>
<path d="M-223 547V549H-126.6L-78.6 501H257V499H-79.4L-127.4 547H-223Z" fill="url(#paint77_linear_110_3407)"/>
<path d="M-223 627V629H-30.6L17.4 581H161.4L209.4 533H401V531H208.6L160.6 579H16.6L-31.4 627H-223Z" fill="url(#paint78_linear_110_3407)"/>
<path d="M-223 459.5V460.5H-30.8L17.2 412.5H161.2L209.2 364.5H401V363.5H208.8L160.8 411.5H16.8L-31.2 459.5H-223Z" fill="url(#paint79_linear_110_3407)"/>
<path d="M-223 587.5V588.5H-78.8L-30.8 540.5H161V539.5H-31.2L-79.2 587.5H-223Z" fill="url(#paint80_linear_110_3407)"/>
<path d="M-223 571.5V572.5H-78.8L-30.8 524.5H65V523.5H-31.2L-79.2 571.5H-223Z" fill="url(#paint81_linear_110_3407)"/>
<path d="M-223 555.5V556.5H-78.8L17.2 460.5H65V459.5H16.8L-79.2 555.5H-223Z" fill="url(#paint82_linear_110_3407)"/>
<path d="M-223 523.5V524.5H-126.8L-78.8 476.5H113V475.5H-79.2L-127.2 523.5H-223Z" fill="url(#paint83_linear_110_3407)"/>
<path d="M-223 427.5V428.5H112.8L160.8 476.5H209V475.5H161.2L113.2 427.5H-223Z" fill="url(#paint84_linear_110_3407)"/>
<path d="M-223 31.5V32.5H-127.2L-79.2 80.5H65V79.5H-78.8L-126.8 31.5H-223Z" fill="url(#paint85_linear_110_3407)"/>
<path d="M-223 303V305H-175.4L-127.4 353H-78.6L-30.6 305H64.6L160.6 401H209V399H161.4L65.4 303H-31.4L-79.4 351H-126.6L-174.6 303H-223Z" fill="url(#paint86_linear_110_3407)"/>
<path d="M-223 -97.5V-94.5H-127.6L-79.6 -46.5H-31.6L64.4 49.5H160.4L256.4 145.5H305V142.5H257.6L161.6 46.5H65.6L-30.4 -49.5H-78.4L-126.4 -97.5H-223Z" fill="url(#paint87_linear_110_3407)"/>
<path d="M-223 -16.5V-15.5H16.8L112.8 80.5H160.8L208.8 128.5H305V127.5H209.2L161.2 79.5H113.2L17.2 -16.5H-223Z" fill="url(#paint88_linear_110_3407)"/>
<path d="M-223 -32.5V-31.5H-79.2L-31.2 16.5H64.8L112.8 64.5H161.2L209.2 16.5H256.8L352.6 112.4L353.4 111.6L257.2 15.5H208.8L160.8 63.5H113.2L65.2 15.5H-30.8L-78.8 -32.5H-223Z" fill="url(#paint89_linear_110_3407)"/>
<path d="M-223 139.5V140.5H-79.2L-31.2 188.5H64.8L112.8 236.5H161.2L209.2 188.5H256.8L352.6 284.4L353.4 283.6L257.2 187.5H208.8L160.8 235.5H113.2L65.2 187.5H-30.8L-78.8 139.5H-223Z" fill="url(#paint90_linear_110_3407)"/>
<path d="M-223 15.5V16.5H-127.2L-79.2 64.5H-31.2L16.8 112.5H112.8L160.8 160.5H257V159.5H161.2L113.2 111.5H17.2L-30.8 63.5H-78.8L-126.8 15.5H-223Z" fill="url(#paint91_linear_110_3407)"/>
<path d="M-223 63V65H-175.4L-127.4 113H-78.6L-30.6 65H16.6L112.3 160.7L113.7 159.3L17.4 63H-31.4L-79.4 111H-126.6L-174.6 63H-223Z" fill="url(#paint92_linear_110_3407)"/>
<path d="M-223 47.5V48.5H-127.2L-79.2 96.5H257V95.5H-78.8L-126.8 47.5H-223Z" fill="url(#paint93_linear_110_3407)"/>
<path d="M-223 203V205H-127.4L-79.4 253H257V251H-78.6L-126.6 203H-223Z" fill="url(#paint94_linear_110_3407)"/>
<path d="M-223 123V125H-31.4L16.6 173H160.6L208.6 221H401V219H209.4L161.4 171H17.4L-30.6 123H-223Z" fill="url(#paint95_linear_110_3407)"/>
<path d="M-223 291.5V292.5H-31.2L16.8 340.5H160.8L208.8 388.5H401V387.5H209.2L161.2 339.5H17.2L-30.8 291.5H-223Z" fill="url(#paint96_linear_110_3407)"/>
<path d="M-223 163.5V164.5H-79.2L-31.2 212.5H161V211.5H-30.8L-78.8 163.5H-223Z" fill="url(#paint97_linear_110_3407)"/>
<path d="M-223 179.5V180.5H-79.2L-31.2 228.5H65V227.5H-30.8L-78.8 179.5H-223Z" fill="url(#paint98_linear_110_3407)"/>
<path d="M-223 195.5V196.5H-79.2L16.8 292.5H65V291.5H17.2L-78.8 195.5H-223Z" fill="url(#paint99_linear_110_3407)"/>
<path d="M-223 227.5V228.5H-127.2L-79.2 276.5H113V275.5H-78.8L-126.8 227.5H-223Z" fill="url(#paint100_linear_110_3407)"/>
<path d="M-223 323.5V324.5H113.2L161.2 276.5H209V275.5H160.8L112.8 323.5H-223Z" fill="url(#paint101_linear_110_3407)"/>
<path d="M65 668C62.8 668 61 669.8 61 672C61 674.2 62.8 676 65 676C67.2 676 69 674.2 69 672C69 669.8 67.2 668 65 668Z" fill="url(#paint102_linear_110_3407)"/>
<path d="M209 346C205.7 346 203 348.7 203 352C203 355.3 205.7 358 209 358C212.3 358 215 355.3 215 352C215 348.7 212.3 346 209 346Z" fill="url(#paint103_linear_110_3407)"/>
<path d="M305 604C302.8 604 301 605.8 301 608C301 610.2 302.8 612 305 612C307.2 612 309 610.2 309 608C309 605.8 307.2 604 305 604Z" fill="url(#paint104_linear_110_3407)"/>
<path d="M305 620C302.8 620 301 621.8 301 624C301 626.2 302.8 628 305 628C307.2 628 309 626.2 309 624C309 621.8 307.2 620 305 620Z" fill="url(#paint105_linear_110_3407)"/>
<path d="M353 636C350.8 636 349 637.8 349 640C349 642.2 350.8 644 353 644C355.2 644 357 642.2 357 640C357 637.8 355.2 636 353 636Z" fill="url(#paint106_linear_110_3407)"/>
<path d="M353 464C350.8 464 349 465.8 349 468C349 470.2 350.8 472 353 472C355.2 472 357 470.2 357 468C357 465.8 355.2 464 353 464Z" fill="url(#paint107_linear_110_3407)"/>
<path d="M257 588C254.8 588 253 589.8 253 592C253 594.2 254.8 596 257 596C259.2 596 261 594.2 261 592C261 589.8 259.2 588 257 588Z" fill="url(#paint108_linear_110_3407)"/>
<path d="M113 586C109.7 586 107 588.7 107 592C107 595.3 109.7 598 113 598C116.3 598 119 595.3 119 592C119 588.7 116.3 586 113 586Z" fill="url(#paint109_linear_110_3407)"/>
<path d="M257 652C254.8 652 253 653.8 253 656C253 658.2 254.8 660 257 660C259.2 660 261 658.2 261 656C261 653.8 259.2 652 257 652Z" fill="url(#paint110_linear_110_3407)"/>
<path d="M257 494C253.7 494 251 496.7 251 500C251 503.3 253.7 506 257 506C260.3 506 263 503.3 263 500C263 496.7 260.3 494 257 494Z" fill="url(#paint111_linear_110_3407)"/>
<path d="M401 526C397.7 526 395 528.7 395 532C395 535.3 397.7 538 401 538C404.3 538 407 535.3 407 532C407 528.7 404.3 526 401 526Z" fill="url(#paint112_linear_110_3407)"/>
<path d="M401 360C398.8 360 397 361.8 397 364C397 366.2 398.8 368 401 368C403.2 368 405 366.2 405 364C405 361.8 403.2 360 401 360Z" fill="url(#paint113_linear_110_3407)"/>
<path d="M161 536C158.8 536 157 537.8 157 540C157 542.2 158.8 544 161 544C163.2 544 165 542.2 165 540C165 537.8 163.2 536 161 536Z" fill="url(#paint114_linear_110_3407)"/>
<path d="M65 528C67.2091 528 69 526.209 69 524C69 521.791 67.2091 520 65 520C62.7909 520 61 521.791 61 524C61 526.209 62.7909 528 65 528Z" fill="url(#paint115_linear_110_3407)"/>
<path d="M65 456C62.8 456 61 457.8 61 460C61 462.2 62.8 464 65 464C67.2 464 69 462.2 69 460C69 457.8 67.2 456 65 456Z" fill="url(#paint116_linear_110_3407)"/>
<path d="M113 472C110.8 472 109 473.8 109 476C109 478.2 110.8 480 113 480C115.2 480 117 478.2 117 476C117 473.8 115.2 472 113 472Z" fill="url(#paint117_linear_110_3407)"/>
<path d="M209 472C206.8 472 205 473.8 205 476C205 478.2 206.8 480 209 480C211.2 480 213 478.2 213 476C213 473.8 211.2 472 209 472Z" fill="url(#paint118_linear_110_3407)"/>
<path d="M65 84C62.8 84 61 82.2 61 80C61 77.8 62.8 76 65 76C67.2 76 69 77.8 69 80C69 82.2 67.2 84 65 84Z" fill="url(#paint119_linear_110_3407)"/>
<path d="M209 406C205.7 406 203 403.3 203 400C203 396.7 205.7 394 209 394C212.3 394 215 396.7 215 400C215 403.3 212.3 406 209 406Z" fill="url(#paint120_linear_110_3407)"/>
<path d="M305 152C300.6 152 297 148.4 297 144C297 139.6 300.6 136 305 136C309.4 136 313 139.6 313 144C313 148.4 309.4 152 305 152Z" fill="url(#paint121_linear_110_3407)"/>
<path d="M305 132C302.8 132 301 130.2 301 128C301 125.8 302.8 124 305 124C307.2 124 309 125.8 309 128C309 130.2 307.2 132 305 132Z" fill="url(#paint122_linear_110_3407)"/>
<path d="M353 116C350.8 116 349 114.2 349 112C349 109.8 350.8 108 353 108C355.2 108 357 109.8 357 112C357 114.2 355.2 116 353 116Z" fill="url(#paint123_linear_110_3407)"/>
<path d="M353 288C350.8 288 349 286.2 349 284C349 281.8 350.8 280 353 280C355.2 280 357 281.8 357 284C357 286.2 355.2 288 353 288Z" fill="url(#paint124_linear_110_3407)"/>
<path d="M257 164C254.8 164 253 162.2 253 160C253 157.8 254.8 156 257 156C259.2 156 261 157.8 261 160C261 162.2 259.2 164 257 164Z" fill="url(#paint125_linear_110_3407)"/>
<path d="M113 166C109.7 166 107 163.3 107 160C107 156.7 109.7 154 113 154C116.3 154 119 156.7 119 160C119 163.3 116.3 166 113 166Z" fill="url(#paint126_linear_110_3407)"/>
<path d="M257 100C254.8 100 253 98.2 253 96C253 93.8 254.8 92 257 92C259.2 92 261 93.8 261 96C261 98.2 259.2 100 257 100Z" fill="url(#paint127_linear_110_3407)"/>
<path d="M257 258C253.7 258 251 255.3 251 252C251 248.7 253.7 246 257 246C260.3 246 263 248.7 263 252C263 255.3 260.3 258 257 258Z" fill="url(#paint128_linear_110_3407)"/>
<path d="M401 226C397.7 226 395 223.3 395 220C395 216.7 397.7 214 401 214C404.3 214 407 216.7 407 220C407 223.3 404.3 226 401 226Z" fill="url(#paint129_linear_110_3407)"/>
<path d="M401 392C398.8 392 397 390.2 397 388C397 385.8 398.8 384 401 384C403.2 384 405 385.8 405 388C405 390.2 403.2 392 401 392Z" fill="url(#paint130_linear_110_3407)"/>
<path d="M161 216C158.8 216 157 214.2 157 212C157 209.8 158.8 208 161 208C163.2 208 165 209.8 165 212C165 214.2 163.2 216 161 216Z" fill="url(#paint131_linear_110_3407)"/>
<path d="M65 232C62.8 232 61 230.2 61 228C61 225.8 62.8 224 65 224C67.2 224 69 225.8 69 228C69 230.2 67.2 232 65 232Z" fill="url(#paint132_linear_110_3407)"/>
<path d="M65 296C62.8 296 61 294.2 61 292C61 289.8 62.8 288 65 288C67.2 288 69 289.8 69 292C69 294.2 67.2 296 65 296Z" fill="url(#paint133_linear_110_3407)"/>
<path d="M113 280C110.8 280 109 278.2 109 276C109 273.8 110.8 272 113 272C115.2 272 117 273.8 117 276C117 278.2 115.2 280 113 280Z" fill="url(#paint134_linear_110_3407)"/>
<path d="M209 280C206.8 280 205 278.2 205 276C205 273.8 206.8 272 209 272C211.2 272 213 273.8 213 276C213 278.2 211.2 280 209 280Z" fill="url(#paint135_linear_110_3407)"/>
</g>
<g style="mix-blend-mode:color">
<rect width="1441" height="752" fill="#FFBA08"/>
</g>
<defs>
<linearGradient id="paint0_linear_110_3407" x1="1552.74" y1="702.696" x2="1247.27" y2="397.225" gradientUnits="userSpaceOnUse">
<stop stop-color="#00C2E0"/>
<stop offset="1" stop-color="#E4F7FA"/>
</linearGradient>
<linearGradient id="paint1_linear_110_3407" x1="1784.67" y1="470.765" x2="1411.32" y2="97.4123" gradientUnits="userSpaceOnUse">
<stop stop-color="#00C2E0"/>
<stop offset="1" stop-color="#E4F7FA"/>
</linearGradient>
<linearGradient id="paint2_linear_110_3407" x1="1762.04" y1="493.392" x2="1388.69" y2="120.04" gradientUnits="userSpaceOnUse">
<stop stop-color="#00C2E0"/>
<stop offset="1" stop-color="#E4F7FA"/>
</linearGradient>
<linearGradient id="paint3_linear_110_3407" x1="1773.41" y1="482.027" x2="1365.86" y2="74.483" gradientUnits="userSpaceOnUse">
<stop stop-color="#00C2E0"/>
<stop offset="1" stop-color="#E4F7FA"/>
</linearGradient>
<linearGradient id="paint4_linear_110_3407" x1="1651.78" y1="603.649" x2="1244.24" y2="196.105" gradientUnits="userSpaceOnUse">
<stop stop-color="#00C2E0"/>
<stop offset="1" stop-color="#E4F7FA"/>
</linearGradient>
<linearGradient id="paint5_linear_110_3407" x1="1739.41" y1="516.02" x2="1400" y2="176.608" gradientUnits="userSpaceOnUse">
<stop stop-color="#00C2E0"/>
<stop offset="1" stop-color="#E4F7FA"/>
</linearGradient>
<linearGradient id="paint6_linear_110_3407" x1="1750.73" y1="504.706" x2="1411.32" y2="165.295" gradientUnits="userSpaceOnUse">
<stop stop-color="#00C2E0"/>
<stop offset="1" stop-color="#E4F7FA"/>
</linearGradient>
<linearGradient id="paint7_linear_110_3407" x1="1640.42" y1="615.015" x2="1301.01" y2="275.603" gradientUnits="userSpaceOnUse">
<stop stop-color="#00C2E0"/>
<stop offset="1" stop-color="#E4F7FA"/>
</linearGradient>
<linearGradient id="paint8_linear_110_3407" x1="1680.02" y1="575.417" x2="1238.78" y2="134.182" gradientUnits="userSpaceOnUse">
<stop stop-color="#00C2E0"/>
<stop offset="1" stop-color="#E4F7FA"/>
</linearGradient>
<linearGradient id="paint9_linear_110_3407" x1="1561.22" y1="694.21" x2="1119.99" y2="252.976" gradientUnits="userSpaceOnUse">
<stop stop-color="#00C2E0"/>
<stop offset="1" stop-color="#E4F7FA"/>
</linearGradient>
<linearGradient id="paint10_linear_110_3407" x1="1668.7" y1="586.73" x2="1397.17" y2="315.201" gradientUnits="userSpaceOnUse">
<stop stop-color="#00C2E0"/>
<stop offset="1" stop-color="#E4F7FA"/>
</linearGradient>
<linearGradient id="paint11_linear_110_3407" x1="1657.39" y1="598.044" x2="1453.74" y2="394.397" gradientUnits="userSpaceOnUse">
<stop stop-color="#00C2E0"/>
<stop offset="1" stop-color="#E4F7FA"/>
</linearGradient>
<linearGradient id="paint12_linear_110_3407" x1="1629.11" y1="626.329" x2="1425.46" y2="422.682" gradientUnits="userSpaceOnUse">
<stop stop-color="#00C2E0"/>
<stop offset="1" stop-color="#E4F7FA"/>
</linearGradient>
<linearGradient id="paint13_linear_110_3407" x1="1623.45" y1="631.985" x2="1385.86" y2="394.397" gradientUnits="userSpaceOnUse">
<stop stop-color="#00C2E0"/>
<stop offset="1" stop-color="#E4F7FA"/>
</linearGradient>
<linearGradient id="paint14_linear_110_3407" x1="1589.51" y1="665.926" x2="1284.04" y2="360.456" gradientUnits="userSpaceOnUse">
<stop stop-color="#00C2E0"/>
<stop offset="1" stop-color="#E4F7FA"/>
</linearGradient>
<linearGradient id="paint15_linear_110_3407" x1="1309.49" y1="945.94" x2="1105.85" y2="742.294" gradientUnits="userSpaceOnUse">
<stop stop-color="#00C2E0"/>
<stop offset="1" stop-color="#E4F7FA"/>
</linearGradient>
<linearGradient id="paint16_linear_110_3407" x1="1218.98" y1="1036.45" x2="913.514" y2="730.98" gradientUnits="userSpaceOnUse">
<stop stop-color="#00C2E0"/>
<stop offset="1" stop-color="#E4F7FA"/>
</linearGradient>
<linearGradient id="paint17_linear_110_3407" x1="1518.8" y1="736.637" x2="1213.33" y2="431.167" gradientUnits="userSpaceOnUse">
<stop stop-color="#00C2E0"/>
<stop offset="1" stop-color="#E4F7FA"/>
</linearGradient>
<linearGradient id="paint18_linear_110_3407" x1="1286.87" y1="968.568" x2="913.513" y2="595.216" gradientUnits="userSpaceOnUse">
<stop stop-color="#00C2E0"/>
<stop offset="1" stop-color="#E4F7FA"/>
</linearGradient>
<linearGradient id="paint19_linear_110_3407" x1="1309.49" y1="945.941" x2="936.141" y2="572.589" gradientUnits="userSpaceOnUse">
<stop stop-color="#00C2E0"/>
<stop offset="1" stop-color="#E4F7FA"/>
</linearGradient>
<linearGradient id="paint20_linear_110_3407" x1="1298.13" y1="957.306" x2="890.584" y2="549.762" gradientUnits="userSpaceOnUse">
<stop stop-color="#00C2E0"/>
<stop offset="1" stop-color="#E4F7FA"/>
</linearGradient>
<linearGradient id="paint21_linear_110_3407" x1="1419.75" y1="835.684" x2="1012.21" y2="428.14" gradientUnits="userSpaceOnUse">
<stop stop-color="#00C2E0"/>
<stop offset="1" stop-color="#E4F7FA"/>
</linearGradient>
<linearGradient id="paint22_linear_110_3407" x1="1267.07" y1="988.367" x2="1029.48" y2="750.779" gradientUnits="userSpaceOnUse">
<stop stop-color="#00C2E0"/>
<stop offset="1" stop-color="#E4F7FA"/>
</linearGradient>
<linearGradient id="paint23_linear_110_3407" x1="1332.12" y1="923.313" x2="992.709" y2="583.901" gradientUnits="userSpaceOnUse">
<stop stop-color="#00C2E0"/>
<stop offset="1" stop-color="#E4F7FA"/>
</linearGradient>
<linearGradient id="paint24_linear_110_3407" x1="1348.99" y1="906.447" x2="1110.9" y2="668.359" gradientUnits="userSpaceOnUse">
<stop stop-color="#00C2E0"/>
<stop offset="1" stop-color="#E4F7FA"/>
</linearGradient>
<linearGradient id="paint25_linear_110_3407" x1="1320.81" y1="934.627" x2="981.395" y2="595.216" gradientUnits="userSpaceOnUse">
<stop stop-color="#00C2E0"/>
<stop offset="1" stop-color="#E4F7FA"/>
</linearGradient>
<linearGradient id="paint26_linear_110_3407" x1="1431.11" y1="824.318" x2="1091.7" y2="484.907" gradientUnits="userSpaceOnUse">
<stop stop-color="#00C2E0"/>
<stop offset="1" stop-color="#E4F7FA"/>
</linearGradient>
<linearGradient id="paint27_linear_110_3407" x1="1391.52" y1="863.916" x2="950.282" y2="422.681" gradientUnits="userSpaceOnUse">
<stop stop-color="#00C2E0"/>
<stop offset="1" stop-color="#E4F7FA"/>
</linearGradient>
<linearGradient id="paint28_linear_110_3407" x1="1510.31" y1="745.122" x2="1069.08" y2="303.887" gradientUnits="userSpaceOnUse">
<stop stop-color="#00C2E0"/>
<stop offset="1" stop-color="#E4F7FA"/>
</linearGradient>
<linearGradient id="paint29_linear_110_3407" x1="1402.83" y1="852.602" x2="1131.3" y2="581.073" gradientUnits="userSpaceOnUse">
<stop stop-color="#00C2E0"/>
<stop offset="1" stop-color="#E4F7FA"/>
</linearGradient>
<linearGradient id="paint30_linear_110_3407" x1="1414.15" y1="841.289" x2="1210.5" y2="637.642" gradientUnits="userSpaceOnUse">
<stop stop-color="#00C2E0"/>
<stop offset="1" stop-color="#E4F7FA"/>
</linearGradient>
<linearGradient id="paint31_linear_110_3407" x1="1442.43" y1="813.004" x2="1238.78" y2="609.357" gradientUnits="userSpaceOnUse">
<stop stop-color="#00C2E0"/>
<stop offset="1" stop-color="#E4F7FA"/>
</linearGradient>
<linearGradient id="paint32_linear_110_3407" x1="1448.09" y1="807.348" x2="1210.5" y2="569.76" gradientUnits="userSpaceOnUse">
<stop stop-color="#00C2E0"/>
<stop offset="1" stop-color="#E4F7FA"/>
</linearGradient>
<linearGradient id="paint33_linear_110_3407" x1="1482.03" y1="773.406" x2="1176.56" y2="467.936" gradientUnits="userSpaceOnUse">
<stop stop-color="#00C2E0"/>
<stop offset="1" stop-color="#E4F7FA"/>
</linearGradient>
<linearGradient id="paint34_linear_110_3407" x1="1521.93" y1="739.772" x2="946.518" y2="164.359" gradientUnits="userSpaceOnUse">
<stop stop-color="#00C2E0"/>
<stop offset="1" stop-color="#E4F7FA"/>
</linearGradient>
<linearGradient id="paint35_linear_110_3407" x1="1702.95" y1="558.753" x2="1127.53" y2="-16.6567" gradientUnits="userSpaceOnUse">
<stop stop-color="#00C2E0"/>
<stop offset="1" stop-color="#E4F7FA"/>
</linearGradient>
<linearGradient id="paint36_linear_110_3407" x1="1714.26" y1="547.436" x2="1138.85" y2="-27.9705" gradientUnits="userSpaceOnUse">
<stop stop-color="#00C2E0"/>
<stop offset="1" stop-color="#E4F7FA"/>
</linearGradient>
<linearGradient id="paint37_linear_110_3407" x1="1725.58" y1="536.126" x2="1150.17" y2="-39.2931" gradientUnits="userSpaceOnUse">
<stop stop-color="#00C2E0"/>
<stop offset="1" stop-color="#E4F7FA"/>
</linearGradient>
<linearGradient id="paint38_linear_110_3407" x1="1603.96" y1="657.75" x2="1028.54" y2="82.334" gradientUnits="userSpaceOnUse">
<stop stop-color="#00C2E0"/>
<stop offset="1" stop-color="#E4F7FA"/>
</linearGradient>
<linearGradient id="paint39_linear_110_3407" x1="1691.64" y1="570.066" x2="1116.23" y2="-5.35263" gradientUnits="userSpaceOnUse">
<stop stop-color="#00C2E0"/>
<stop offset="1" stop-color="#E4F7FA"/>
</linearGradient>
<linearGradient id="paint40_linear_110_3407" x1="1736.89" y1="524.812" x2="1161.48" y2="-50.6025" gradientUnits="userSpaceOnUse">
<stop stop-color="#00C2E0"/>
<stop offset="1" stop-color="#E4F7FA"/>
</linearGradient>
<linearGradient id="paint41_linear_110_3407" x1="1626.58" y1="635.12" x2="1051.17" y2="59.7068" gradientUnits="userSpaceOnUse">
<stop stop-color="#00C2E0"/>
<stop offset="1" stop-color="#E4F7FA"/>
</linearGradient>
<linearGradient id="paint42_linear_110_3407" x1="1649.21" y1="612.489" x2="1073.8" y2="37.08" gradientUnits="userSpaceOnUse">
<stop stop-color="#00C2E0"/>
<stop offset="1" stop-color="#E4F7FA"/>
</linearGradient>
<linearGradient id="paint43_linear_110_3407" x1="1530.42" y1="731.287" x2="955.001" y2="155.873" gradientUnits="userSpaceOnUse">
<stop stop-color="#00C2E0"/>
<stop offset="1" stop-color="#E4F7FA"/>
</linearGradient>
<linearGradient id="paint44_linear_110_3407" x1="1654.86" y1="606.837" x2="1079.45" y2="31.4259" gradientUnits="userSpaceOnUse">
<stop stop-color="#00C2E0"/>
<stop offset="1" stop-color="#E4F7FA"/>
</linearGradient>
<linearGradient id="paint45_linear_110_3407" x1="1643.55" y1="618.15" x2="1068.14" y2="42.7389" gradientUnits="userSpaceOnUse">
<stop stop-color="#00C2E0"/>
<stop offset="1" stop-color="#E4F7FA"/>
</linearGradient>
<linearGradient id="paint46_linear_110_3407" x1="1598.3" y1="663.405" x2="1022.88" y2="87.9843" gradientUnits="userSpaceOnUse">
<stop stop-color="#00C2E0"/>
<stop offset="1" stop-color="#E4F7FA"/>
</linearGradient>
<linearGradient id="paint47_linear_110_3407" x1="1609.61" y1="652.091" x2="1034.2" y2="76.6801" gradientUnits="userSpaceOnUse">
<stop stop-color="#00C2E0"/>
<stop offset="1" stop-color="#E4F7FA"/>
</linearGradient>
<linearGradient id="paint48_linear_110_3407" x1="1609.62" y1="652.092" x2="1034.2" y2="76.6723" gradientUnits="userSpaceOnUse">
<stop stop-color="#00C2E0"/>
<stop offset="1" stop-color="#E4F7FA"/>
</linearGradient>
<linearGradient id="paint49_linear_110_3407" x1="1329.6" y1="932.106" x2="754.182" y2="356.69" gradientUnits="userSpaceOnUse">
<stop stop-color="#00C2E0"/>
<stop offset="1" stop-color="#E4F7FA"/>
</linearGradient>
<linearGradient id="paint50_linear_110_3407" x1="845.259" y1="1005.65" x2="269.844" y2="430.23" gradientUnits="userSpaceOnUse">
<stop stop-color="#00C2E0"/>
<stop offset="1" stop-color="#E4F7FA"/>
</linearGradient>
<linearGradient id="paint51_linear_110_3407" x1="1555.87" y1="705.83" x2="980.46" y2="130.418" gradientUnits="userSpaceOnUse">
<stop stop-color="#00C2E0"/>
<stop offset="1" stop-color="#E4F7FA"/>
</linearGradient>
<linearGradient id="paint52_linear_110_3407" x1="1374.85" y1="886.849" x2="799.442" y2="311.435" gradientUnits="userSpaceOnUse">
<stop stop-color="#00C2E0"/>
<stop offset="1" stop-color="#E4F7FA"/>
</linearGradient>
<linearGradient id="paint53_linear_110_3407" x1="1363.54" y1="898.164" x2="788.125" y2="322.751" gradientUnits="userSpaceOnUse">
<stop stop-color="#00C2E0"/>
<stop offset="1" stop-color="#E4F7FA"/>
</linearGradient>
<linearGradient id="paint54_linear_110_3407" x1="941.425" y1="909.478" x2="366.011" y2="334.064" gradientUnits="userSpaceOnUse">
<stop stop-color="#00C2E0"/>
<stop offset="1" stop-color="#E4F7FA"/>
</linearGradient>
<linearGradient id="paint55_linear_110_3407" x1="1473.85" y1="787.857" x2="898.431" y2="212.446" gradientUnits="userSpaceOnUse">
<stop stop-color="#00C2E0"/>
<stop offset="1" stop-color="#E4F7FA"/>
</linearGradient>
<linearGradient id="paint56_linear_110_3407" x1="1270.2" y1="991.502" x2="694.787" y2="416.088" gradientUnits="userSpaceOnUse">
<stop stop-color="#00C2E0"/>
<stop offset="1" stop-color="#E4F7FA"/>
</linearGradient>
<linearGradient id="paint57_linear_110_3407" x1="1386.17" y1="875.537" x2="810.752" y2="300.122" gradientUnits="userSpaceOnUse">
<stop stop-color="#00C2E0"/>
<stop offset="1" stop-color="#E4F7FA"/>
</linearGradient>
<linearGradient id="paint58_linear_110_3407" x1="1386.17" y1="875.537" x2="810.751" y2="300.122" gradientUnits="userSpaceOnUse">
<stop stop-color="#00C2E0"/>
<stop offset="1" stop-color="#E4F7FA"/>
</linearGradient>
<linearGradient id="paint59_linear_110_3407" x1="1340.91" y1="920.79" x2="765.5" y2="345.379" gradientUnits="userSpaceOnUse">
<stop stop-color="#00C2E0"/>
<stop offset="1" stop-color="#E4F7FA"/>
</linearGradient>
<linearGradient id="paint60_linear_110_3407" x1="1451.22" y1="810.481" x2="875.808" y2="235.07" gradientUnits="userSpaceOnUse">
<stop stop-color="#00C2E0"/>
<stop offset="1" stop-color="#E4F7FA"/>
</linearGradient>
<linearGradient id="paint61_linear_110_3407" x1="1428.59" y1="833.109" x2="853.18" y2="257.697" gradientUnits="userSpaceOnUse">
<stop stop-color="#00C2E0"/>
<stop offset="1" stop-color="#E4F7FA"/>
</linearGradient>
<linearGradient id="paint62_linear_110_3407" x1="1547.39" y1="714.313" x2="971.976" y2="138.901" gradientUnits="userSpaceOnUse">
<stop stop-color="#00C2E0"/>
<stop offset="1" stop-color="#E4F7FA"/>
</linearGradient>
<linearGradient id="paint63_linear_110_3407" x1="1422.94" y1="838.767" x2="847.52" y2="263.352" gradientUnits="userSpaceOnUse">
<stop stop-color="#00C2E0"/>
<stop offset="1" stop-color="#E4F7FA"/>
</linearGradient>
<linearGradient id="paint64_linear_110_3407" x1="1434.25" y1="827.454" x2="858.835" y2="252.038" gradientUnits="userSpaceOnUse">
<stop stop-color="#00C2E0"/>
<stop offset="1" stop-color="#E4F7FA"/>
</linearGradient>
<linearGradient id="paint65_linear_110_3407" x1="1479.5" y1="782.199" x2="904.088" y2="206.789" gradientUnits="userSpaceOnUse">
<stop stop-color="#00C2E0"/>
<stop offset="1" stop-color="#E4F7FA"/>
</linearGradient>
<linearGradient id="paint66_linear_110_3407" x1="1468.19" y1="793.512" x2="892.777" y2="218.098" gradientUnits="userSpaceOnUse">
<stop stop-color="#00C2E0"/>
<stop offset="1" stop-color="#E4F7FA"/>
</linearGradient>
<linearGradient id="paint67_linear_110_3407" x1="1468.19" y1="793.514" x2="892.776" y2="218.098" gradientUnits="userSpaceOnUse">
<stop stop-color="#00C2E0"/>
<stop offset="1" stop-color="#E4F7FA"/>
</linearGradient>
<linearGradient id="paint68_linear_110_3407" x1="-223" y1="696" x2="65" y2="696" gradientUnits="userSpaceOnUse">
<stop stop-color="#00C2E0"/>
<stop offset="1" stop-color="#E4F7FA"/>
</linearGradient>
<linearGradient id="paint69_linear_110_3407" x1="-223" y1="400" x2="209" y2="400" gradientUnits="userSpaceOnUse">
<stop stop-color="#00C2E0"/>
<stop offset="1" stop-color="#E4F7FA"/>
</linearGradient>
<linearGradient id="paint70_linear_110_3407" x1="-223" y1="728" x2="305" y2="728" gradientUnits="userSpaceOnUse">
<stop stop-color="#00C2E0"/>
<stop offset="1" stop-color="#E4F7FA"/>
</linearGradient>
<linearGradient id="paint71_linear_110_3407" x1="-223" y1="696" x2="305" y2="696" gradientUnits="userSpaceOnUse">
<stop stop-color="#00C2E0"/>
<stop offset="1" stop-color="#E4F7FA"/>
</linearGradient>
<linearGradient id="paint72_linear_110_3407" x1="-223" y1="712.073" x2="353.354" y2="712.073" gradientUnits="userSpaceOnUse">
<stop stop-color="#00C2E0"/>
<stop offset="1" stop-color="#E4F7FA"/>
</linearGradient>
<linearGradient id="paint73_linear_110_3407" x1="-223" y1="540.073" x2="353.354" y2="540.073" gradientUnits="userSpaceOnUse">
<stop stop-color="#00C2E0"/>
<stop offset="1" stop-color="#E4F7FA"/>
</linearGradient>
<linearGradient id="paint74_linear_110_3407" x1="-223" y1="664" x2="257" y2="664" gradientUnits="userSpaceOnUse">
<stop stop-color="#00C2E0"/>
<stop offset="1" stop-color="#E4F7FA"/>
</linearGradient>
<linearGradient id="paint75_linear_110_3407" x1="-223" y1="640.146" x2="113.707" y2="640.146" gradientUnits="userSpaceOnUse">
<stop stop-color="#00C2E0"/>
<stop offset="1" stop-color="#E4F7FA"/>
</linearGradient>
<linearGradient id="paint76_linear_110_3407" x1="-223" y1="680" x2="257" y2="680" gradientUnits="userSpaceOnUse">
<stop stop-color="#00C2E0"/>
<stop offset="1" stop-color="#E4F7FA"/>
</linearGradient>
<linearGradient id="paint77_linear_110_3407" x1="-223" y1="524" x2="257" y2="524" gradientUnits="userSpaceOnUse">
<stop stop-color="#00C2E0"/>
<stop offset="1" stop-color="#E4F7FA"/>
</linearGradient>
<linearGradient id="paint78_linear_110_3407" x1="-223" y1="580" x2="401" y2="580" gradientUnits="userSpaceOnUse">
<stop stop-color="#00C2E0"/>
<stop offset="1" stop-color="#E4F7FA"/>
</linearGradient>
<linearGradient id="paint79_linear_110_3407" x1="-223" y1="412" x2="401" y2="412" gradientUnits="userSpaceOnUse">
<stop stop-color="#00C2E0"/>
<stop offset="1" stop-color="#E4F7FA"/>
</linearGradient>
<linearGradient id="paint80_linear_110_3407" x1="-223" y1="564" x2="161" y2="564" gradientUnits="userSpaceOnUse">
<stop stop-color="#00C2E0"/>
<stop offset="1" stop-color="#E4F7FA"/>
</linearGradient>
<linearGradient id="paint81_linear_110_3407" x1="-223" y1="548" x2="65.0002" y2="548" gradientUnits="userSpaceOnUse">
<stop stop-color="#00C2E0"/>
<stop offset="1" stop-color="#E4F7FA"/>
</linearGradient>
<linearGradient id="paint82_linear_110_3407" x1="-223" y1="508" x2="65" y2="508" gradientUnits="userSpaceOnUse">
<stop stop-color="#00C2E0"/>
<stop offset="1" stop-color="#E4F7FA"/>
</linearGradient>
<linearGradient id="paint83_linear_110_3407" x1="-223" y1="500" x2="113" y2="500" gradientUnits="userSpaceOnUse">
<stop stop-color="#00C2E0"/>
<stop offset="1" stop-color="#E4F7FA"/>
</linearGradient>
<linearGradient id="paint84_linear_110_3407" x1="-223" y1="452" x2="209" y2="452" gradientUnits="userSpaceOnUse">
<stop stop-color="#00C2E0"/>
<stop offset="1" stop-color="#E4F7FA"/>
</linearGradient>
<linearGradient id="paint85_linear_110_3407" x1="-223" y1="56" x2="65" y2="56" gradientUnits="userSpaceOnUse">
<stop stop-color="#00C2E0"/>
<stop offset="1" stop-color="#E4F7FA"/>
</linearGradient>
<linearGradient id="paint86_linear_110_3407" x1="-223" y1="352" x2="209" y2="352" gradientUnits="userSpaceOnUse">
<stop stop-color="#00C2E0"/>
<stop offset="1" stop-color="#E4F7FA"/>
</linearGradient>
<linearGradient id="paint87_linear_110_3407" x1="-223" y1="24" x2="305" y2="24" gradientUnits="userSpaceOnUse">
<stop stop-color="#00C2E0"/>
<stop offset="1" stop-color="#E4F7FA"/>
</linearGradient>
<linearGradient id="paint88_linear_110_3407" x1="-223" y1="55.9999" x2="305" y2="55.9999" gradientUnits="userSpaceOnUse">
<stop stop-color="#00C2E0"/>
<stop offset="1" stop-color="#E4F7FA"/>
</linearGradient>
<linearGradient id="paint89_linear_110_3407" x1="-223" y1="39.9267" x2="353.354" y2="39.9267" gradientUnits="userSpaceOnUse">
<stop stop-color="#00C2E0"/>
<stop offset="1" stop-color="#E4F7FA"/>
</linearGradient>
<linearGradient id="paint90_linear_110_3407" x1="-223" y1="211.927" x2="353.353" y2="211.927" gradientUnits="userSpaceOnUse">
<stop stop-color="#00C2E0"/>
<stop offset="1" stop-color="#E4F7FA"/>
</linearGradient>
<linearGradient id="paint91_linear_110_3407" x1="-223" y1="88" x2="257" y2="88" gradientUnits="userSpaceOnUse">
<stop stop-color="#00C2E0"/>
<stop offset="1" stop-color="#E4F7FA"/>
</linearGradient>
<linearGradient id="paint92_linear_110_3407" x1="-223" y1="111.854" x2="113.707" y2="111.854" gradientUnits="userSpaceOnUse">
<stop stop-color="#00C2E0"/>
<stop offset="1" stop-color="#E4F7FA"/>
</linearGradient>
<linearGradient id="paint93_linear_110_3407" x1="-223" y1="72" x2="257" y2="72" gradientUnits="userSpaceOnUse">
<stop stop-color="#00C2E0"/>
<stop offset="1" stop-color="#E4F7FA"/>
</linearGradient>
<linearGradient id="paint94_linear_110_3407" x1="-223" y1="228" x2="257" y2="228" gradientUnits="userSpaceOnUse">
<stop stop-color="#00C2E0"/>
<stop offset="1" stop-color="#E4F7FA"/>
</linearGradient>
<linearGradient id="paint95_linear_110_3407" x1="-223" y1="172" x2="401" y2="172" gradientUnits="userSpaceOnUse">
<stop stop-color="#00C2E0"/>
<stop offset="1" stop-color="#E4F7FA"/>
</linearGradient>
<linearGradient id="paint96_linear_110_3407" x1="-223" y1="340" x2="401" y2="340" gradientUnits="userSpaceOnUse">
<stop stop-color="#00C2E0"/>
<stop offset="1" stop-color="#E4F7FA"/>
</linearGradient>
<linearGradient id="paint97_linear_110_3407" x1="-223" y1="188" x2="161" y2="188" gradientUnits="userSpaceOnUse">
<stop stop-color="#00C2E0"/>
<stop offset="1" stop-color="#E4F7FA"/>
</linearGradient>
<linearGradient id="paint98_linear_110_3407" x1="-223" y1="204" x2="65" y2="204" gradientUnits="userSpaceOnUse">
<stop stop-color="#00C2E0"/>
<stop offset="1" stop-color="#E4F7FA"/>
</linearGradient>
<linearGradient id="paint99_linear_110_3407" x1="-223" y1="244" x2="65" y2="244" gradientUnits="userSpaceOnUse">
<stop stop-color="#00C2E0"/>
<stop offset="1" stop-color="#E4F7FA"/>
</linearGradient>
<linearGradient id="paint100_linear_110_3407" x1="-223" y1="252" x2="113" y2="252" gradientUnits="userSpaceOnUse">
<stop stop-color="#00C2E0"/>
<stop offset="1" stop-color="#E4F7FA"/>
</linearGradient>
<linearGradient id="paint101_linear_110_3407" x1="-223" y1="300" x2="209" y2="300" gradientUnits="userSpaceOnUse">
<stop stop-color="#00C2E0"/>
<stop offset="1" stop-color="#E4F7FA"/>
</linearGradient>
<linearGradient id="paint102_linear_110_3407" x1="-227.435" y1="672" x2="586.327" y2="672" gradientUnits="userSpaceOnUse">
<stop stop-color="#00C2E0"/>
<stop offset="1" stop-color="#E4F7FA"/>
</linearGradient>
<linearGradient id="paint103_linear_110_3407" x1="-227.431" y1="352" x2="586.322" y2="352" gradientUnits="userSpaceOnUse">
<stop stop-color="#00C2E0"/>
<stop offset="1" stop-color="#E4F7FA"/>
</linearGradient>
<linearGradient id="paint104_linear_110_3407" x1="-227.434" y1="608" x2="586.324" y2="608" gradientUnits="userSpaceOnUse">
<stop stop-color="#00C2E0"/>
<stop offset="1" stop-color="#E4F7FA"/>
</linearGradient>
<linearGradient id="paint105_linear_110_3407" x1="-227.429" y1="624" x2="586.321" y2="624" gradientUnits="userSpaceOnUse">
<stop stop-color="#00C2E0"/>
<stop offset="1" stop-color="#E4F7FA"/>
</linearGradient>
<linearGradient id="paint106_linear_110_3407" x1="-227.435" y1="640" x2="586.325" y2="640" gradientUnits="userSpaceOnUse">
<stop stop-color="#00C2E0"/>
<stop offset="1" stop-color="#E4F7FA"/>
</linearGradient>
<linearGradient id="paint107_linear_110_3407" x1="-227.438" y1="468" x2="586.325" y2="468" gradientUnits="userSpaceOnUse">
<stop stop-color="#00C2E0"/>
<stop offset="1" stop-color="#E4F7FA"/>
</linearGradient>
<linearGradient id="paint108_linear_110_3407" x1="-227.434" y1="592" x2="586.323" y2="592" gradientUnits="userSpaceOnUse">
<stop stop-color="#00C2E0"/>
<stop offset="1" stop-color="#E4F7FA"/>
</linearGradient>
<linearGradient id="paint109_linear_110_3407" x1="-227.433" y1="592" x2="586.323" y2="592" gradientUnits="userSpaceOnUse">
<stop stop-color="#00C2E0"/>
<stop offset="1" stop-color="#E4F7FA"/>
</linearGradient>
<linearGradient id="paint110_linear_110_3407" x1="-227.438" y1="656" x2="586.326" y2="656" gradientUnits="userSpaceOnUse">
<stop stop-color="#00C2E0"/>
<stop offset="1" stop-color="#E4F7FA"/>
</linearGradient>
<linearGradient id="paint111_linear_110_3407" x1="-227.433" y1="500" x2="586.323" y2="500" gradientUnits="userSpaceOnUse">
<stop stop-color="#00C2E0"/>
<stop offset="1" stop-color="#E4F7FA"/>
</linearGradient>
<linearGradient id="paint112_linear_110_3407" x1="-227.434" y1="532" x2="586.324" y2="532" gradientUnits="userSpaceOnUse">
<stop stop-color="#00C2E0"/>
<stop offset="1" stop-color="#E4F7FA"/>
</linearGradient>
<linearGradient id="paint113_linear_110_3407" x1="-227.429" y1="364" x2="586.322" y2="364" gradientUnits="userSpaceOnUse">
<stop stop-color="#00C2E0"/>
<stop offset="1" stop-color="#E4F7FA"/>
</linearGradient>
<linearGradient id="paint114_linear_110_3407" x1="-227.435" y1="540" x2="586.324" y2="540" gradientUnits="userSpaceOnUse">
<stop stop-color="#00C2E0"/>
<stop offset="1" stop-color="#E4F7FA"/>
</linearGradient>
<linearGradient id="paint115_linear_110_3407" x1="-227.432" y1="524" x2="586.321" y2="524" gradientUnits="userSpaceOnUse">
<stop stop-color="#00C2E0"/>
<stop offset="1" stop-color="#E4F7FA"/>
</linearGradient>
<linearGradient id="paint116_linear_110_3407" x1="-227.433" y1="460" x2="586.322" y2="460" gradientUnits="userSpaceOnUse">
<stop stop-color="#00C2E0"/>
<stop offset="1" stop-color="#E4F7FA"/>
</linearGradient>
<linearGradient id="paint117_linear_110_3407" x1="-227.434" y1="476" x2="586.325" y2="476" gradientUnits="userSpaceOnUse">
<stop stop-color="#00C2E0"/>
<stop offset="1" stop-color="#E4F7FA"/>
</linearGradient>
<linearGradient id="paint118_linear_110_3407" x1="-227.437" y1="476" x2="586.327" y2="476" gradientUnits="userSpaceOnUse">
<stop stop-color="#00C2E0"/>
<stop offset="1" stop-color="#E4F7FA"/>
</linearGradient>
<linearGradient id="paint119_linear_110_3407" x1="-227.436" y1="80.0001" x2="586.327" y2="80.0001" gradientUnits="userSpaceOnUse">
<stop stop-color="#00C2E0"/>
<stop offset="1" stop-color="#E4F7FA"/>
</linearGradient>
<linearGradient id="paint120_linear_110_3407" x1="-227.433" y1="400" x2="586.323" y2="400" gradientUnits="userSpaceOnUse">
<stop stop-color="#00C2E0"/>
<stop offset="1" stop-color="#E4F7FA"/>
</linearGradient>
<linearGradient id="paint121_linear_110_3407" x1="-227.434" y1="144" x2="586.323" y2="144" gradientUnits="userSpaceOnUse">
<stop stop-color="#00C2E0"/>
<stop offset="1" stop-color="#E4F7FA"/>
</linearGradient>
<linearGradient id="paint122_linear_110_3407" x1="-227.437" y1="128" x2="586.325" y2="128" gradientUnits="userSpaceOnUse">
<stop stop-color="#00C2E0"/>
<stop offset="1" stop-color="#E4F7FA"/>
</linearGradient>
<linearGradient id="paint123_linear_110_3407" x1="-227.435" y1="112" x2="586.324" y2="112" gradientUnits="userSpaceOnUse">
<stop stop-color="#00C2E0"/>
<stop offset="1" stop-color="#E4F7FA"/>
</linearGradient>
<linearGradient id="paint124_linear_110_3407" x1="-227.439" y1="284" x2="586.326" y2="284" gradientUnits="userSpaceOnUse">
<stop stop-color="#00C2E0"/>
<stop offset="1" stop-color="#E4F7FA"/>
</linearGradient>
<linearGradient id="paint125_linear_110_3407" x1="-227.43" y1="160" x2="586.322" y2="160" gradientUnits="userSpaceOnUse">
<stop stop-color="#00C2E0"/>
<stop offset="1" stop-color="#E4F7FA"/>
</linearGradient>
<linearGradient id="paint126_linear_110_3407" x1="-227.436" y1="160" x2="586.326" y2="160" gradientUnits="userSpaceOnUse">
<stop stop-color="#00C2E0"/>
<stop offset="1" stop-color="#E4F7FA"/>
</linearGradient>
<linearGradient id="paint127_linear_110_3407" x1="-227.438" y1="96" x2="586.326" y2="96" gradientUnits="userSpaceOnUse">
<stop stop-color="#00C2E0"/>
<stop offset="1" stop-color="#E4F7FA"/>
</linearGradient>
<linearGradient id="paint128_linear_110_3407" x1="-227.435" y1="252" x2="586.324" y2="252" gradientUnits="userSpaceOnUse">
<stop stop-color="#00C2E0"/>
<stop offset="1" stop-color="#E4F7FA"/>
</linearGradient>
<linearGradient id="paint129_linear_110_3407" x1="-227.434" y1="220" x2="586.324" y2="220" gradientUnits="userSpaceOnUse">
<stop stop-color="#00C2E0"/>
<stop offset="1" stop-color="#E4F7FA"/>
</linearGradient>
<linearGradient id="paint130_linear_110_3407" x1="-227.431" y1="388" x2="586.323" y2="388" gradientUnits="userSpaceOnUse">
<stop stop-color="#00C2E0"/>
<stop offset="1" stop-color="#E4F7FA"/>
</linearGradient>
<linearGradient id="paint131_linear_110_3407" x1="-227.43" y1="212" x2="586.321" y2="212" gradientUnits="userSpaceOnUse">
<stop stop-color="#00C2E0"/>
<stop offset="1" stop-color="#E4F7FA"/>
</linearGradient>
<linearGradient id="paint132_linear_110_3407" x1="-227.436" y1="228" x2="586.327" y2="228" gradientUnits="userSpaceOnUse">
<stop stop-color="#00C2E0"/>
<stop offset="1" stop-color="#E4F7FA"/>
</linearGradient>
<linearGradient id="paint133_linear_110_3407" x1="-227.436" y1="292" x2="586.327" y2="292" gradientUnits="userSpaceOnUse">
<stop stop-color="#00C2E0"/>
<stop offset="1" stop-color="#E4F7FA"/>
</linearGradient>
<linearGradient id="paint134_linear_110_3407" x1="-227.436" y1="276" x2="586.326" y2="276" gradientUnits="userSpaceOnUse">
<stop stop-color="#00C2E0"/>
<stop offset="1" stop-color="#E4F7FA"/>
</linearGradient>
<linearGradient id="paint135_linear_110_3407" x1="-227.434" y1="276" x2="586.325" y2="276" gradientUnits="userSpaceOnUse">
<stop stop-color="#00C2E0"/>
<stop offset="1" stop-color="#E4F7FA"/>
</linearGradient>
</defs>
</svg>
