<svg width="25" height="25" viewBox="0 0 25 25" fill="none" xmlns="http://www.w3.org/2000/svg">
<g id="mail-fill 1" clip-path="url(#clip0_111_4223)">
<g id="Group">
<path id="Vector" d="M3.0957 3.54102H21.0957C21.3609 3.54102 21.6153 3.64637 21.8028 3.83391C21.9903 4.02145 22.0957 4.2758 22.0957 4.54102V20.541C22.0957 20.8062 21.9903 21.0606 21.8028 21.2481C21.6153 21.4357 21.3609 21.541 21.0957 21.541H3.0957C2.83049 21.541 2.57613 21.4357 2.3886 21.2481C2.20106 21.0606 2.0957 20.8062 2.0957 20.541V4.54102C2.0957 4.2758 2.20106 4.02145 2.3886 3.83391C2.57613 3.64637 2.83049 3.54102 3.0957 3.54102ZM12.1557 12.224L5.7437 6.77902L4.4487 8.30302L12.1687 14.858L19.7497 8.29802L18.4417 6.78502L12.1567 12.224H12.1557Z" fill="#00253D"/>
</g>
</g>
<defs>
<clipPath id="clip0_111_4223">
<rect width="24" height="24" fill="white" transform="translate(0.0957031 0.541016)"/>
</clipPath>
</defs>
</svg>
