<svg width="111" height="68" viewBox="0 0 111 68" fill="none" xmlns="http://www.w3.org/2000/svg">
<g clip-path="url(#clip0_111_3858)">
<path d="M26.9338 18.037H47.6808V19.702H28.8356V32.2322H46.5572V33.897H28.8356V47.6541H47.897V49.3189H26.9338V18.037ZM49.5396 18.037H51.7439L61.5122 31.7941L71.4967 18.0368L85.0772 0.5625L62.7656 33.24L74.263 49.3189H71.9721L61.5122 34.6857L51.009 49.3189H48.7615L60.3452 33.2398L49.5396 18.037ZM75.0841 19.702V18.0368H98.7273V19.7018H87.8349V49.3186H85.9331V19.702H75.0841ZM0.978516 18.0368H3.35576L36.1366 67.5623L22.5901 49.3186L2.96668 20.4028L2.88031 49.3191H0.978516V18.0368ZM98.5356 47.1513C98.147 47.1513 97.8556 46.8476 97.8556 46.4546C97.8556 46.062 98.147 45.7578 98.5356 45.7578C98.9288 45.7578 99.2156 46.0617 99.2156 46.4546C99.2156 46.8474 98.9288 47.1513 98.5356 47.1513ZM100.404 45.3184H101.422C101.436 45.8748 101.838 46.2489 102.43 46.2489C103.092 46.2489 103.467 45.8468 103.467 45.0939V40.324H104.503V45.0984C104.503 46.4546 103.726 47.2357 102.44 47.2357C101.232 47.2357 100.404 46.478 100.404 45.3182V45.3184ZM105.858 45.2577H106.885C106.973 45.8982 107.593 46.3049 108.485 46.3049C109.318 46.3049 109.929 45.8702 109.929 45.2715C109.929 44.7572 109.54 44.4486 108.656 44.2382L107.796 44.0278C106.589 43.7423 106.038 43.1532 106.038 42.1619C106.038 40.9602 107.01 40.1605 108.467 40.1605C109.822 40.1605 110.812 40.96 110.872 42.0964H109.864C109.767 41.4745 109.23 41.0863 108.453 41.0863C107.634 41.0863 107.088 41.4839 107.088 42.0916C107.088 42.5732 107.44 42.8493 108.31 43.0549L109.045 43.2374C110.414 43.5601 110.979 44.1213 110.979 45.136C110.979 46.4266 109.989 47.2357 108.407 47.2357C106.927 47.2357 105.932 46.4639 105.858 45.2574V45.2577Z" fill="black"/>
</g>
<defs>
<clipPath id="clip0_111_3858">
<rect width="110" height="67" fill="white" transform="translate(0.978516 0.5625)"/>
</clipPath>
</defs>
</svg>
