<svg width="25" height="25" viewBox="0 0 25 25" fill="none" xmlns="http://www.w3.org/2000/svg">
<g clip-path="url(#clip0_111_4216)">
<path d="M21.0957 16.961V20.497C21.0958 20.7502 20.9999 20.994 20.8273 21.1792C20.6547 21.3644 20.4183 21.4773 20.1657 21.495C19.7287 21.525 19.3717 21.541 19.0957 21.541C10.2587 21.541 3.0957 14.378 3.0957 5.54102C3.0957 5.26502 3.1107 4.90802 3.1417 4.47102C3.15943 4.21846 3.27228 3.98203 3.45751 3.80942C3.64273 3.63682 3.88653 3.5409 4.1397 3.54102H7.6757C7.79974 3.54089 7.9194 3.58687 8.01143 3.67004C8.10346 3.7532 8.1613 3.8676 8.1737 3.99102C8.1967 4.22102 8.2177 4.40402 8.2377 4.54302C8.43644 5.92994 8.84371 7.27885 9.4457 8.54402C9.5407 8.74402 9.4787 8.98302 9.2987 9.11102L7.1407 10.653C8.46016 13.7275 10.9103 16.1776 13.9847 17.497L15.5247 15.343C15.5876 15.255 15.6795 15.1919 15.7842 15.1647C15.8889 15.1374 15.9999 15.1478 16.0977 15.194C17.3627 15.7949 18.7113 16.2011 20.0977 16.399C20.2367 16.419 20.4197 16.441 20.6477 16.463C20.7709 16.4757 20.8851 16.5336 20.9681 16.6256C21.051 16.7176 21.0969 16.8371 21.0967 16.961H21.0957Z" fill="#00253D"/>
</g>
<defs>
<clipPath id="clip0_111_4216">
<rect width="24" height="24" fill="white" transform="translate(0.0957031 0.541016)"/>
</clipPath>
</defs>
</svg>
