<svg width="11" height="8" viewBox="0 0 11 8" fill="none" xmlns="http://www.w3.org/2000/svg">
<path d="M7.3381 0.860019L6.87118 1.30359C6.80893 1.36585 6.7778 1.43588 6.7778 1.5137C6.7778 1.59152 6.80893 1.65378 6.87118 1.70047L8.7622 3.52144H0.707884C0.630065 3.52144 0.563918 3.54868 0.509445 3.60315C0.454971 3.65763 0.427734 3.72377 0.427734 3.80159V4.45528C0.427734 4.5331 0.454971 4.59924 0.509445 4.65372C0.563918 4.70819 0.630065 4.73543 0.707884 4.73543H8.7622L6.87118 6.5564C6.80893 6.60309 6.7778 6.66535 6.7778 6.74317C6.7778 6.82099 6.80893 6.89102 6.87118 6.95328L7.3381 7.39685C7.38479 7.45911 7.44705 7.49023 7.52487 7.49023C7.60269 7.49023 7.66494 7.45911 7.71163 7.39685L10.7933 4.3152C10.8555 4.26851 10.8867 4.20625 10.8867 4.12843C10.8867 4.05062 10.8555 3.98836 10.7933 3.94167L7.71163 0.860019C7.66494 0.797763 7.60269 0.766635 7.52487 0.766635C7.44705 0.766635 7.38479 0.797763 7.3381 0.860019Z" fill="#003153"/>
</svg>
