<svg width="11" height="8" viewBox="0 0 11 8" fill="none" xmlns="http://www.w3.org/2000/svg">
<path d="M7.3381 0.908847L6.87118 1.35242C6.80893 1.41467 6.7778 1.48471 6.7778 1.56253C6.7778 1.64035 6.80893 1.70261 6.87118 1.7493L8.7622 3.57027H0.707884C0.630065 3.57027 0.563918 3.59751 0.509445 3.65198C0.454971 3.70646 0.427734 3.7726 0.427734 3.85042V4.5041C0.427734 4.58192 0.454971 4.64807 0.509445 4.70254C0.563918 4.75702 0.630065 4.78425 0.707884 4.78425H8.7622L6.87118 6.60523C6.80893 6.65192 6.7778 6.71418 6.7778 6.792C6.7778 6.86982 6.80893 6.93985 6.87118 7.00211L7.3381 7.44568C7.38479 7.50793 7.44705 7.53906 7.52487 7.53906C7.60269 7.53906 7.66494 7.50793 7.71163 7.44568L10.7933 4.36403C10.8555 4.31734 10.8867 4.25508 10.8867 4.17726C10.8867 4.09944 10.8555 4.03719 10.7933 3.9905L7.71163 0.908847C7.66494 0.846591 7.60269 0.815464 7.52487 0.815464C7.44705 0.815464 7.38479 0.846591 7.3381 0.908847Z" fill="#003153"/>
</svg>
