<svg xmlns="http://www.w3.org/2000/svg" xmlns:xlink="http://www.w3.org/1999/xlink" width="1080" zoomAndPan="magnify" viewBox="0 0 810 809.999993" height="1080" preserveAspectRatio="xMidYMid meet" version="1.0"><path fill="#003153" d="M 33.410156 365.140625 L 33.410156 400.222656 L 60.167969 400.222656 C 69.578125 400.222656 74.429688 389.632812 74.429688 379.261719 C 74.429688 369.113281 69.796875 359.183594 60.167969 359.183594 L 16.425781 359.183594 L 21.058594 344.035156 L 62.226562 344.035156 C 82.074219 344.035156 92.367188 362.347656 92.367188 380.367188 C 92.367188 398.015625 82.515625 415.371094 62.226562 415.371094 L 16.425781 415.371094 L 16.425781 369.773438 Z M 33.410156 365.140625 " fill-opacity="1" fill-rule="nonzero"/><path fill="#003153" d="M 128.976562 391.25 L 148.902344 391.25 L 134.933594 361.613281 L 110.085938 415.296875 L 92.148438 415.296875 L 126.039062 346.683594 L 143.019531 342.050781 L 178.160156 415.222656 L 160.222656 415.222656 L 155.738281 405.664062 L 122.65625 405.664062 Z M 128.976562 391.25 " fill-opacity="1" fill-rule="nonzero"/><path fill="#003153" d="M 165.734375 344.035156 L 240.28125 344.035156 L 235.648438 359.183594 L 208.964844 359.183594 L 208.964844 415.371094 L 191.980469 415.371094 L 191.980469 359.183594 L 165.664062 359.183594 L 165.664062 344.035156 Z M 165.734375 344.035156 " fill-opacity="1" fill-rule="nonzero"/><path fill="#003153" d="M 259.542969 391.25 L 279.464844 391.25 L 265.496094 361.613281 L 240.648438 415.296875 L 222.710938 415.296875 L 256.601562 346.683594 L 273.582031 342.050781 L 308.722656 415.222656 L 290.785156 415.222656 L 286.300781 405.664062 L 253.21875 405.664062 Z M 259.542969 391.25 " fill-opacity="1" fill-rule="nonzero"/><path fill="#003153" d="M 296.300781 344.035156 L 370.84375 344.035156 L 366.210938 359.183594 L 339.527344 359.183594 L 339.527344 415.371094 L 322.542969 415.371094 L 322.542969 359.183594 L 296.226562 359.183594 L 296.226562 344.035156 Z M 296.300781 344.035156 " fill-opacity="1" fill-rule="nonzero"/><path fill="#003153" d="M 395.542969 365.070312 L 395.542969 377.644531 L 425.980469 377.644531 C 431.125 377.644531 433.773438 372.9375 433.773438 368.230469 C 433.773438 363.597656 431.199219 359.113281 425.980469 359.113281 L 378.5625 359.113281 L 383.195312 343.960938 L 426.199219 343.960938 C 442.960938 343.960938 451.785156 356.683594 451.785156 369.039062 C 451.785156 378.453125 446.710938 387.792969 436.125 391.324219 L 453.84375 415.296875 L 433.773438 415.296875 L 418.261719 392.867188 L 395.542969 392.867188 L 395.542969 415.371094 L 378.5625 415.371094 L 378.5625 369.703125 Z M 395.542969 365.070312 " fill-opacity="1" fill-rule="nonzero"/><path fill="#003153" d="M 497.804688 416.914062 C 475.015625 416.914062 456.046875 404.855469 456.046875 379.703125 C 456.046875 354.550781 475.015625 342.492188 497.804688 342.492188 C 521.328125 342.492188 540.738281 353.816406 540.738281 379.703125 C 540.738281 405.515625 521.328125 416.914062 497.804688 416.914062 Z M 498.6875 401.472656 C 514.566406 401.472656 522.875 395 522.875 379.703125 C 522.875 364.40625 514.566406 357.933594 498.6875 357.933594 C 482.21875 357.933594 474.058594 363.890625 474.058594 379.703125 C 474.058594 395.515625 482.21875 401.472656 498.6875 401.472656 Z M 498.6875 401.472656 " fill-opacity="1" fill-rule="nonzero"/><path fill="#003153" d="M 585.800781 416.914062 C 563.011719 416.914062 544.046875 404.855469 544.046875 379.703125 C 544.046875 354.550781 563.011719 342.492188 585.800781 342.492188 C 609.328125 342.492188 628.734375 353.816406 628.734375 379.703125 C 628.660156 405.515625 609.328125 416.914062 585.800781 416.914062 Z M 586.609375 401.472656 C 602.492188 401.472656 610.796875 395 610.796875 379.703125 C 610.796875 364.40625 602.492188 357.933594 586.609375 357.933594 C 570.144531 357.933594 561.984375 363.890625 561.984375 379.703125 C 561.984375 395.515625 570.144531 401.472656 586.609375 401.472656 Z M 586.609375 401.472656 " fill-opacity="1" fill-rule="nonzero"/><path fill="#003153" d="M 654.246094 365.070312 L 654.246094 377.644531 L 687.402344 377.644531 C 692.546875 377.644531 695.191406 372.9375 695.191406 368.230469 C 695.191406 363.597656 692.621094 359.113281 687.402344 359.113281 L 637.191406 359.113281 L 641.820312 343.960938 L 686.664062 343.960938 C 703.941406 343.960938 713.132812 356.683594 713.132812 369.039062 C 713.132812 381.027344 704.675781 392.792969 686.664062 392.792969 L 654.246094 392.792969 L 654.246094 415.296875 L 637.261719 415.296875 L 637.261719 369.628906 Z M 654.246094 365.070312 " fill-opacity="1" fill-rule="nonzero"/><path fill="#003153" d="M 717.761719 365.730469 C 717.761719 354.773438 726.4375 344.035156 743.347656 344.035156 L 791.867188 344.035156 L 787.234375 359.183594 L 743.492188 359.183594 C 738.273438 359.183594 735.699219 362.496094 735.699219 365.730469 C 735.699219 369.039062 738.347656 372.203125 743.492188 372.203125 L 768.121094 372.203125 C 784.734375 372.203125 793.410156 382.9375 793.410156 393.898438 C 793.410156 404.558594 785.25 415.445312 768.121094 415.445312 L 717.761719 415.445312 L 722.394531 400.296875 L 767.972656 400.296875 C 773.121094 400.296875 775.765625 397.28125 775.765625 393.96875 C 775.765625 390.734375 773.191406 387.351562 767.972656 387.351562 L 743.347656 387.351562 C 726.070312 387.203125 717.761719 376.46875 717.761719 365.730469 Z M 717.761719 365.730469 " fill-opacity="1" fill-rule="nonzero"/></svg>