<svg xmlns="http://www.w3.org/2000/svg" xmlns:xlink="http://www.w3.org/1999/xlink" width="100" zoomAndPan="magnify" viewBox="0 0 75 74.999997" height="100" preserveAspectRatio="xMidYMid meet" version="1.0"><defs><clipPath id="9a62346b06"><path d="M 0 0 L 0.824219 0 L 0.824219 1 L 0 1 Z M 0 0 " clip-rule="nonzero"/></clipPath><clipPath id="322758f0e7"><path d="M 0 0 L 0.824219 0 L 0.824219 1.5 L 0 1.5 Z M 0 0 " clip-rule="nonzero"/></clipPath><clipPath id="35736dbe6f"><path d="M 0 0 L 0.824219 0 L 0.824219 1 L 0 1 Z M 0 0 " clip-rule="nonzero"/></clipPath><clipPath id="003e288b76"><path d="M 0 1 L 0.824219 1 L 0.824219 1.5 L 0 1.5 Z M 0 1 " clip-rule="nonzero"/></clipPath><clipPath id="3aa2fe7991"><path d="M 0 0 L 0.824219 0 L 0.824219 1 L 0 1 Z M 0 0 " clip-rule="nonzero"/></clipPath><clipPath id="7a56380a88"><path d="M 0 1 L 0.824219 1 L 0.824219 1.5 L 0 1.5 Z M 0 1 " clip-rule="nonzero"/></clipPath><clipPath id="ef5e8f0ecc"><path d="M 18 38 L 47 38 L 47 74.25 L 18 74.25 Z M 18 38 " clip-rule="nonzero"/></clipPath><clipPath id="57184b38f2"><path d="M 0.675781 0 L 74.925781 0 L 74.925781 38 L 0.675781 38 Z M 0.675781 0 " clip-rule="nonzero"/></clipPath></defs><g clip-path="url(#9a62346b06)"><path fill="#000000" d="M 0.390625 0.402344 L 0.421875 0.433594 C 0.421875 0.433594 0.421875 0.433594 0.421875 0.4375 L 0.476562 0.378906 L 0.542969 0.394531 C 0.554688 0.398438 0.558594 0.394531 0.566406 0.390625 L 0.625 0.332031 C 0.628906 0.324219 0.632812 0.316406 0.628906 0.308594 L 0.609375 0.230469 C 0.609375 0.222656 0.601562 0.214844 0.59375 0.214844 L 0.515625 0.195312 C 0.507812 0.191406 0.5 0.195312 0.492188 0.199219 L 0.433594 0.257812 C 0.429688 0.265625 0.425781 0.273438 0.429688 0.28125 L 0.445312 0.347656 Z M 0.515625 0.242188 L 0.566406 0.257812 L 0.582031 0.308594 L 0.542969 0.347656 L 0.492188 0.332031 L 0.476562 0.28125 Z M 0.515625 0.242188 " fill-opacity="1" fill-rule="nonzero"/></g><g clip-path="url(#322758f0e7)"><path fill="#000000" d="M 0.390625 0.941406 L 0.363281 0.914062 C 0.378906 0.890625 0.386719 0.867188 0.394531 0.839844 L 0.433594 0.839844 C 0.476562 0.839844 0.496094 0.816406 0.496094 0.773438 L 0.496094 0.726562 C 0.496094 0.683594 0.476562 0.660156 0.433594 0.660156 L 0.394531 0.660156 C 0.386719 0.632812 0.378906 0.609375 0.363281 0.585938 L 0.390625 0.558594 C 0.421875 0.527344 0.417969 0.496094 0.386719 0.46875 L 0.355469 0.4375 C 0.328125 0.40625 0.296875 0.402344 0.265625 0.433594 L 0.238281 0.460938 C 0.214844 0.445312 0.191406 0.4375 0.164062 0.429688 L 0.164062 0.390625 C 0.164062 0.347656 0.140625 0.328125 0.0976562 0.328125 L 0.0507812 0.328125 C 0.0078125 0.328125 -0.0117188 0.347656 -0.015625 0.390625 L -0.015625 0.429688 C -0.0429688 0.4375 -0.0664062 0.445312 -0.0898438 0.460938 L -0.117188 0.433594 C -0.148438 0.402344 -0.179688 0.40625 -0.207031 0.4375 L -0.238281 0.46875 C -0.269531 0.496094 -0.273438 0.527344 -0.242188 0.558594 L -0.214844 0.585938 C -0.230469 0.609375 -0.238281 0.632812 -0.246094 0.660156 L -0.285156 0.660156 C -0.328125 0.660156 -0.347656 0.683594 -0.347656 0.726562 L -0.347656 0.773438 C -0.347656 0.816406 -0.328125 0.839844 -0.285156 0.839844 L -0.246094 0.839844 C -0.238281 0.867188 -0.230469 0.890625 -0.214844 0.914062 L -0.242188 0.941406 C -0.273438 0.972656 -0.269531 1.003906 -0.238281 1.03125 L -0.207031 1.0625 C -0.179688 1.09375 -0.148438 1.097656 -0.117188 1.066406 L -0.0898438 1.039062 C -0.0664062 1.054688 -0.0429688 1.0625 -0.015625 1.070312 L -0.015625 1.109375 C -0.0117188 1.152344 0.0078125 1.171875 0.0507812 1.171875 L 0.0976562 1.171875 C 0.140625 1.171875 0.164062 1.152344 0.164062 1.109375 L 0.164062 1.070312 C 0.191406 1.0625 0.214844 1.054688 0.238281 1.039062 L 0.265625 1.066406 C 0.296875 1.097656 0.328125 1.09375 0.355469 1.0625 L 0.386719 1.03125 C 0.417969 1.003906 0.421875 0.972656 0.390625 0.941406 Z M 0.355469 1 L 0.324219 1.03125 C 0.316406 1.039062 0.308594 1.039062 0.296875 1.035156 L 0.257812 0.992188 C 0.25 0.984375 0.238281 0.984375 0.226562 0.992188 C 0.199219 1.007812 0.167969 1.023438 0.136719 1.03125 C 0.125 1.03125 0.117188 1.039062 0.117188 1.050781 L 0.117188 1.109375 C 0.117188 1.117188 0.109375 1.125 0.0976562 1.125 L 0.0507812 1.125 C 0.0390625 1.125 0.03125 1.117188 0.03125 1.109375 L 0.03125 1.050781 C 0.03125 1.039062 0.0234375 1.03125 0.0117188 1.03125 C -0.0195312 1.023438 -0.0507812 1.007812 -0.078125 0.992188 C -0.0898438 0.984375 -0.101562 0.984375 -0.109375 0.992188 L -0.148438 1.035156 C -0.160156 1.039062 -0.167969 1.039062 -0.175781 1.03125 L -0.207031 1 C -0.214844 0.992188 -0.214844 0.984375 -0.210938 0.972656 L -0.167969 0.933594 C -0.160156 0.925781 -0.160156 0.914062 -0.167969 0.902344 C -0.183594 0.875 -0.199219 0.84375 -0.203125 0.8125 C -0.207031 0.800781 -0.214844 0.792969 -0.226562 0.792969 L -0.285156 0.792969 C -0.296875 0.789062 -0.300781 0.785156 -0.300781 0.773438 L -0.300781 0.726562 C -0.300781 0.714844 -0.296875 0.710938 -0.285156 0.707031 L -0.226562 0.707031 C -0.214844 0.707031 -0.207031 0.699219 -0.203125 0.6875 C -0.199219 0.65625 -0.183594 0.625 -0.167969 0.597656 C -0.160156 0.585938 -0.160156 0.574219 -0.167969 0.566406 L -0.210938 0.527344 C -0.214844 0.515625 -0.214844 0.507812 -0.207031 0.5 L -0.175781 0.46875 C -0.167969 0.460938 -0.160156 0.460938 -0.148438 0.464844 L -0.109375 0.507812 C -0.101562 0.515625 -0.0898438 0.515625 -0.078125 0.507812 C -0.0507812 0.492188 -0.0195312 0.476562 0.0117188 0.46875 C 0.0234375 0.46875 0.03125 0.460938 0.03125 0.449219 L 0.03125 0.390625 C 0.03125 0.382812 0.0390625 0.375 0.0507812 0.375 L 0.0976562 0.375 C 0.109375 0.375 0.117188 0.378906 0.117188 0.390625 L 0.117188 0.449219 C 0.117188 0.460938 0.125 0.46875 0.136719 0.46875 C 0.167969 0.476562 0.199219 0.492188 0.226562 0.507812 C 0.238281 0.515625 0.25 0.515625 0.257812 0.507812 L 0.296875 0.464844 C 0.308594 0.460938 0.316406 0.460938 0.324219 0.46875 L 0.355469 0.5 C 0.363281 0.507812 0.363281 0.515625 0.359375 0.527344 L 0.316406 0.566406 C 0.308594 0.574219 0.308594 0.585938 0.316406 0.597656 C 0.332031 0.625 0.347656 0.65625 0.355469 0.6875 C 0.355469 0.699219 0.363281 0.707031 0.375 0.707031 L 0.433594 0.707031 C 0.445312 0.710938 0.449219 0.714844 0.449219 0.726562 L 0.449219 0.773438 C 0.449219 0.785156 0.445312 0.789062 0.433594 0.792969 L 0.375 0.792969 C 0.363281 0.792969 0.355469 0.800781 0.355469 0.8125 C 0.347656 0.84375 0.332031 0.875 0.316406 0.902344 C 0.308594 0.914062 0.308594 0.925781 0.316406 0.933594 L 0.359375 0.972656 C 0.363281 0.984375 0.363281 0.992188 0.355469 1 Z M 0.355469 1 " fill-opacity="1" fill-rule="nonzero"/></g><g clip-path="url(#35736dbe6f)"><path fill="#000000" d="M 0.0742188 0.574219 C -0.0429688 0.574219 -0.101562 0.632812 -0.101562 0.75 C -0.101562 0.867188 -0.0429688 0.925781 0.0742188 0.925781 C 0.191406 0.925781 0.25 0.867188 0.25 0.75 C 0.25 0.632812 0.191406 0.574219 0.0742188 0.574219 Z M 0.0742188 0.878906 C -0.0117188 0.878906 -0.0546875 0.835938 -0.0546875 0.75 C -0.0546875 0.664062 -0.0117188 0.621094 0.0742188 0.621094 C 0.160156 0.621094 0.203125 0.664062 0.203125 0.75 C 0.203125 0.835938 0.160156 0.878906 0.0742188 0.878906 Z M 0.0742188 0.878906 " fill-opacity="1" fill-rule="nonzero"/><path fill="#000000" d="M -0.0078125 0.167969 L 0.0507812 0.203125 L 0.0507812 0.28125 L 0.0976562 0.28125 L 0.0976562 0.203125 L 0.15625 0.167969 C 0.164062 0.164062 0.167969 0.15625 0.167969 0.148438 L 0.167969 0.0664062 C 0.167969 0.0546875 0.164062 0.0507812 0.15625 0.046875 L 0.0859375 0.00390625 C 0.078125 0 0.0703125 0 0.0625 0.00390625 L -0.0078125 0.046875 C -0.015625 0.0507812 -0.0195312 0.0546875 -0.0195312 0.0664062 L -0.0195312 0.148438 C -0.0195312 0.15625 -0.015625 0.164062 -0.0078125 0.167969 Z M 0.0273438 0.078125 L 0.0742188 0.0507812 L 0.121094 0.078125 L 0.121094 0.132812 L 0.0742188 0.160156 L 0.0273438 0.132812 Z M 0.0273438 0.078125 " fill-opacity="1" fill-rule="nonzero"/></g><g clip-path="url(#003e288b76)"><path fill="#000000" d="M 0.15625 1.332031 L 0.0976562 1.296875 L 0.0976562 1.21875 L 0.0507812 1.21875 L 0.0507812 1.296875 L -0.0078125 1.332031 C -0.015625 1.335938 -0.0195312 1.34375 -0.0195312 1.351562 L -0.0195312 1.433594 C -0.0195312 1.445312 -0.015625 1.449219 -0.0078125 1.453125 L 0.0625 1.496094 C 0.0703125 1.5 0.078125 1.5 0.0859375 1.496094 L 0.15625 1.453125 C 0.164062 1.449219 0.167969 1.445312 0.167969 1.433594 L 0.167969 1.351562 C 0.167969 1.34375 0.164062 1.335938 0.15625 1.332031 Z M 0.121094 1.421875 L 0.0742188 1.449219 L 0.0273438 1.421875 L 0.0273438 1.367188 L 0.0742188 1.339844 L 0.121094 1.367188 Z M 0.121094 1.421875 " fill-opacity="1" fill-rule="nonzero"/></g><g clip-path="url(#3aa2fe7991)"><path fill="#000000" d="M 0.8125 0.6875 L 0.742188 0.648438 C 0.734375 0.644531 0.726562 0.644531 0.71875 0.648438 L 0.648438 0.6875 C 0.640625 0.691406 0.636719 0.699219 0.636719 0.710938 L 0.636719 0.726562 L 0.542969 0.726562 L 0.542969 0.773438 L 0.636719 0.773438 L 0.636719 0.789062 C 0.636719 0.800781 0.640625 0.808594 0.648438 0.8125 L 0.71875 0.851562 C 0.726562 0.855469 0.734375 0.855469 0.742188 0.851562 L 0.8125 0.8125 C 0.820312 0.808594 0.824219 0.800781 0.824219 0.789062 L 0.824219 0.710938 C 0.824219 0.699219 0.820312 0.691406 0.8125 0.6875 Z M 0.777344 0.777344 L 0.730469 0.804688 L 0.683594 0.777344 L 0.683594 0.722656 L 0.730469 0.695312 L 0.777344 0.722656 Z M 0.777344 0.777344 " fill-opacity="1" fill-rule="nonzero"/></g><g clip-path="url(#7a56380a88)"><path fill="#000000" d="M 0.566406 1.109375 C 0.558594 1.105469 0.554688 1.101562 0.542969 1.105469 L 0.476562 1.121094 L 0.421875 1.0625 C 0.421875 1.066406 0.421875 1.066406 0.421875 1.066406 L 0.390625 1.097656 L 0.445312 1.152344 L 0.429688 1.21875 C 0.425781 1.226562 0.429688 1.234375 0.433594 1.242188 L 0.492188 1.300781 C 0.5 1.304688 0.507812 1.308594 0.515625 1.304688 L 0.59375 1.285156 C 0.601562 1.285156 0.609375 1.277344 0.609375 1.269531 L 0.628906 1.191406 C 0.632812 1.183594 0.628906 1.175781 0.625 1.167969 Z M 0.566406 1.242188 L 0.515625 1.257812 L 0.476562 1.21875 L 0.492188 1.167969 L 0.542969 1.152344 L 0.582031 1.191406 Z M 0.566406 1.242188 " fill-opacity="1" fill-rule="nonzero"/></g><g clip-path="url(#ef5e8f0ecc)"><path fill="#000000" d="M 37.800781 74.203125 C 40.828125 74.203125 43.855469 73.46875 46.539062 72.085938 L 45.449219 69.949219 C 43.066406 71.175781 40.503906 71.800781 37.8125 71.800781 C 28.574219 71.800781 21.054688 64.253906 21.054688 54.980469 C 21.054688 51.351562 22.253906 47.804688 24.40625 44.921875 L 25.964844 46.484375 C 26.191406 46.710938 26.5 46.832031 26.8125 46.832031 C 26.945312 46.832031 27.0625 46.808594 27.195312 46.773438 C 27.625 46.628906 27.9375 46.257812 27.996094 45.800781 L 28.847656 39.851562 C 28.894531 39.480469 28.777344 39.09375 28.511719 38.832031 C 28.25 38.566406 27.878906 38.433594 27.496094 38.496094 L 21.570312 39.347656 C 21.117188 39.40625 20.746094 39.71875 20.601562 40.152344 C 20.457031 40.585938 20.566406 41.066406 20.886719 41.378906 L 22.695312 43.191406 C 20.097656 46.542969 18.660156 50.714844 18.660156 54.964844 C 18.660156 65.5625 27.257812 74.191406 37.8125 74.191406 Z M 26.238281 41.101562 L 25.953125 43.085938 L 24.261719 41.390625 Z M 26.238281 41.101562 " fill-opacity="1" fill-rule="nonzero"/></g><path fill="#000000" d="M 37.800781 35.753906 C 34.941406 35.753906 32.1875 36.367188 29.625 37.59375 L 30.65625 39.769531 C 32.894531 38.699219 35.300781 38.160156 37.800781 38.160156 C 47.039062 38.160156 54.558594 45.703125 54.558594 54.980469 C 54.558594 58.617188 53.371094 62.152344 51.207031 65.046875 L 49.648438 63.484375 C 49.328125 63.160156 48.859375 63.050781 48.429688 63.195312 C 48 63.339844 47.6875 63.714844 47.628906 64.167969 L 46.777344 70.117188 C 46.730469 70.488281 46.847656 70.875 47.113281 71.136719 C 47.339844 71.367188 47.640625 71.488281 47.960938 71.488281 C 48.023438 71.488281 48.070312 71.488281 48.128906 71.476562 L 54.054688 70.621094 C 54.507812 70.5625 54.878906 70.25 55.023438 69.816406 C 55.167969 69.382812 55.058594 68.902344 54.738281 68.589844 L 52.929688 66.777344 C 55.527344 63.414062 56.964844 59.28125 56.964844 55.003906 C 56.964844 44.40625 48.371094 35.78125 37.8125 35.78125 Z M 49.363281 68.855469 L 49.648438 66.871094 L 51.335938 68.566406 Z M 49.363281 68.855469 " fill-opacity="1" fill-rule="nonzero"/><path fill="#000000" d="M 25.867188 52.105469 C 25.722656 52.636719 25.964844 53.199219 26.441406 53.464844 L 27.734375 54.1875 C 27.699219 54.5 27.6875 54.808594 27.6875 55.121094 C 27.6875 55.433594 27.699219 55.734375 27.734375 56.058594 L 26.441406 56.78125 C 25.964844 57.046875 25.722656 57.609375 25.867188 58.136719 C 26.429688 60.253906 27.566406 62.175781 29.160156 63.703125 C 29.542969 64.0625 30.105469 64.132812 30.570312 63.882812 L 31.746094 63.21875 C 31.839844 63.171875 31.972656 63.160156 32.03125 63.207031 C 32.5 63.53125 33.011719 63.808594 33.527344 64.050781 C 33.597656 64.085938 33.625 64.167969 33.625 64.230469 L 33.625 65.539062 C 33.625 66.082031 33.984375 66.5625 34.507812 66.703125 C 35.597656 66.992188 36.699219 67.136719 37.789062 67.136719 C 37.835938 67.136719 37.882812 67.136719 37.945312 67.136719 C 38.972656 67.125 40.027344 66.980469 41.066406 66.691406 C 41.59375 66.546875 41.953125 66.082031 41.953125 65.527344 L 41.953125 64.230469 C 41.953125 64.15625 41.988281 64.074219 42.050781 64.050781 C 42.578125 63.808594 43.078125 63.53125 43.546875 63.207031 C 43.617188 63.160156 43.738281 63.171875 43.832031 63.21875 L 44.992188 63.871094 C 45.449219 64.121094 46.023438 64.050781 46.40625 63.6875 C 48 62.164062 49.148438 60.242188 49.710938 58.136719 C 49.855469 57.609375 49.613281 57.046875 49.136719 56.78125 L 47.84375 56.046875 C 47.878906 55.734375 47.890625 55.421875 47.890625 55.109375 C 47.890625 54.796875 47.878906 54.5 47.84375 54.171875 L 49.136719 53.453125 C 49.613281 53.1875 49.855469 52.625 49.710938 52.09375 C 49.148438 49.980469 48.011719 48.058594 46.417969 46.53125 C 46.035156 46.171875 45.460938 46.101562 45.007812 46.351562 L 43.832031 47.011719 C 43.738281 47.074219 43.617188 47.074219 43.546875 47.023438 C 43.078125 46.699219 42.5625 46.425781 42.050781 46.183594 C 41.976562 46.148438 41.953125 46.0625 41.953125 46.003906 L 41.953125 44.695312 C 41.953125 44.152344 41.59375 43.671875 41.066406 43.527344 C 39.929688 43.226562 38.78125 43.085938 37.632812 43.097656 C 36.605469 43.109375 35.5625 43.253906 34.507812 43.539062 C 33.984375 43.683594 33.625 44.152344 33.625 44.707031 L 33.625 46.003906 C 33.625 46.074219 33.585938 46.160156 33.527344 46.183594 C 33 46.425781 32.5 46.699219 32.03125 47.023438 C 31.960938 47.074219 31.839844 47.0625 31.746094 47.011719 L 30.582031 46.363281 C 30.128906 46.113281 29.554688 46.183594 29.171875 46.542969 C 27.578125 48.070312 26.429688 49.992188 25.867188 52.09375 Z M 30.210938 48.921875 L 30.570312 49.128906 C 31.457031 49.621094 32.558594 49.585938 33.359375 49.042969 C 33.71875 48.804688 34.101562 48.585938 34.507812 48.40625 C 35.429688 47.984375 36.015625 47.0625 36.015625 46.027344 L 36.015625 45.691406 C 36.566406 45.59375 37.117188 45.535156 37.667969 45.535156 C 38.304688 45.535156 38.9375 45.582031 39.570312 45.691406 L 39.570312 46.039062 C 39.570312 47.0625 40.160156 48 41.082031 48.417969 C 41.476562 48.597656 41.871094 48.816406 42.230469 49.054688 C 43.042969 49.609375 44.132812 49.644531 45.019531 49.140625 L 45.378906 48.933594 C 46.132812 49.800781 46.71875 50.796875 47.125 51.867188 L 45.964844 52.515625 C 45.507812 52.769531 45.269531 53.285156 45.363281 53.789062 C 45.460938 54.269531 45.496094 54.714844 45.496094 55.148438 C 45.496094 55.578125 45.449219 56.023438 45.363281 56.503906 C 45.269531 57.007812 45.507812 57.527344 45.964844 57.777344 L 47.125 58.425781 C 46.730469 59.496094 46.132812 60.480469 45.378906 61.347656 L 45.019531 61.140625 C 44.132812 60.648438 43.042969 60.6875 42.230469 61.226562 C 41.871094 61.464844 41.488281 61.683594 41.082031 61.863281 C 40.171875 62.285156 39.570312 63.207031 39.570312 64.242188 L 39.570312 64.589844 C 39.023438 64.6875 38.472656 64.746094 37.921875 64.746094 C 37.285156 64.746094 36.652344 64.699219 36.015625 64.589844 L 36.015625 64.242188 C 36.015625 63.21875 35.429688 62.285156 34.507812 61.863281 C 34.113281 61.683594 33.71875 61.464844 33.359375 61.226562 C 32.546875 60.671875 31.457031 60.636719 30.570312 61.140625 L 30.210938 61.347656 C 29.457031 60.480469 28.859375 59.484375 28.464844 58.414062 L 29.625 57.765625 C 30.082031 57.515625 30.320312 56.996094 30.222656 56.492188 C 30.128906 56.023438 30.09375 55.578125 30.09375 55.148438 C 30.09375 54.714844 30.140625 54.269531 30.222656 53.800781 C 30.320312 53.296875 30.082031 52.78125 29.625 52.527344 L 28.464844 51.878906 C 28.859375 50.808594 29.457031 49.824219 30.210938 48.960938 Z M 30.210938 48.921875 " fill-opacity="1" fill-rule="nonzero"/><path fill="#000000" d="M 37.800781 60.53125 C 40.769531 60.53125 43.1875 58.101562 43.1875 55.121094 C 43.1875 52.144531 40.769531 49.714844 37.800781 49.714844 C 34.832031 49.714844 32.414062 52.144531 32.414062 55.121094 C 32.414062 58.101562 34.832031 60.53125 37.800781 60.53125 Z M 37.800781 52.121094 C 39.453125 52.121094 40.792969 53.464844 40.792969 55.121094 C 40.792969 56.78125 39.453125 58.125 37.800781 58.125 C 36.148438 58.125 34.808594 56.78125 34.808594 55.121094 C 34.808594 53.464844 36.148438 52.121094 37.800781 52.121094 Z M 37.800781 52.121094 " fill-opacity="1" fill-rule="nonzero"/><g clip-path="url(#57184b38f2)"><path fill="#000000" d="M 71.3125 6.007812 L 52.164062 6.007812 L 52.164062 3.605469 C 52.164062 1.621094 50.546875 0 48.574219 0 L 27.027344 0 C 25.054688 0 23.4375 1.621094 23.4375 3.605469 L 23.4375 6.007812 L 4.289062 6.007812 C 2.3125 6.007812 0.695312 7.628906 0.695312 9.613281 L 0.695312 25.230469 C 0.695312 27.214844 2.3125 28.835938 4.289062 28.835938 L 10.917969 28.835938 L 17.742188 36.824219 C 17.96875 37.101562 18.304688 37.246094 18.648438 37.246094 C 18.792969 37.246094 18.925781 37.222656 19.070312 37.171875 C 19.535156 36.992188 19.847656 36.546875 19.847656 36.042969 L 19.847656 28.835938 L 25.832031 28.835938 C 27.804688 28.835938 29.421875 27.214844 29.421875 25.230469 L 29.421875 22.828125 L 33.421875 22.828125 L 36.699219 30.503906 C 36.890625 30.949219 37.320312 31.238281 37.800781 31.238281 C 38.28125 31.238281 38.710938 30.949219 38.902344 30.503906 L 42.179688 22.828125 L 46.179688 22.828125 L 46.179688 25.230469 C 46.179688 27.214844 47.792969 28.835938 49.769531 28.835938 L 55.753906 28.835938 L 55.753906 36.042969 C 55.753906 36.546875 56.066406 36.992188 56.53125 37.171875 C 56.664062 37.222656 56.808594 37.246094 56.953125 37.246094 C 57.296875 37.246094 57.632812 37.101562 57.859375 36.824219 L 64.683594 28.835938 L 71.3125 28.835938 C 73.289062 28.835938 74.90625 27.214844 74.90625 25.230469 L 74.90625 9.613281 C 74.90625 7.628906 73.289062 6.007812 71.3125 6.007812 Z M 27.027344 25.230469 C 27.027344 25.890625 26.488281 26.433594 25.832031 26.433594 L 18.648438 26.433594 C 17.992188 26.433594 17.453125 26.972656 17.453125 27.632812 L 17.453125 32.800781 L 12.378906 26.851562 C 12.152344 26.589844 11.816406 26.433594 11.46875 26.433594 L 4.289062 26.433594 C 3.628906 26.433594 3.089844 25.890625 3.089844 25.230469 L 3.089844 9.613281 C 3.089844 8.949219 3.628906 8.410156 4.289062 8.410156 L 23.4375 8.410156 L 23.4375 19.222656 C 23.4375 21.207031 25.054688 22.828125 27.027344 22.828125 Z M 41.390625 20.425781 C 40.914062 20.425781 40.480469 20.714844 40.289062 21.15625 L 37.800781 26.996094 L 35.3125 21.15625 C 35.121094 20.714844 34.6875 20.425781 34.210938 20.425781 L 27.027344 20.425781 C 26.371094 20.425781 25.832031 19.882812 25.832031 19.222656 L 25.832031 3.605469 C 25.832031 2.945312 26.371094 2.402344 27.027344 2.402344 L 48.574219 2.402344 C 49.230469 2.402344 49.769531 2.945312 49.769531 3.605469 L 49.769531 19.222656 C 49.769531 19.882812 49.230469 20.425781 48.574219 20.425781 Z M 72.511719 25.230469 C 72.511719 25.890625 71.972656 26.433594 71.3125 26.433594 L 64.132812 26.433594 C 63.785156 26.433594 63.449219 26.589844 63.222656 26.851562 L 58.148438 32.800781 L 58.148438 27.632812 C 58.148438 26.972656 57.609375 26.433594 56.953125 26.433594 L 49.769531 26.433594 C 49.113281 26.433594 48.574219 25.890625 48.574219 25.230469 L 48.574219 22.828125 C 50.546875 22.828125 52.164062 21.207031 52.164062 19.222656 L 52.164062 8.410156 L 71.3125 8.410156 C 71.972656 8.410156 72.511719 8.949219 72.511719 9.613281 Z M 72.511719 25.230469 " fill-opacity="1" fill-rule="nonzero"/></g><path fill="#000000" d="M 39.058594 11.582031 L 36.246094 8.757812 C 35.777344 8.289062 35.023438 8.289062 34.558594 8.757812 L 27.375 15.96875 L 29.0625 17.660156 L 35.394531 11.304688 L 38.136719 14.058594 C 38.578125 14.5 39.285156 14.527344 39.761719 14.117188 L 48.140625 6.910156 L 46.585938 5.082031 L 39.046875 11.570312 Z M 39.058594 11.582031 " fill-opacity="1" fill-rule="nonzero"/><path fill="#000000" d="M 65.328125 10.8125 L 67.722656 10.8125 L 67.722656 22.828125 L 65.328125 22.828125 Z M 65.328125 10.8125 " fill-opacity="1" fill-rule="nonzero"/><path fill="#000000" d="M 60.542969 13.214844 L 62.9375 13.214844 L 62.9375 22.828125 L 60.542969 22.828125 Z M 60.542969 13.214844 " fill-opacity="1" fill-rule="nonzero"/><path fill="#000000" d="M 55.753906 15.617188 L 58.148438 15.617188 L 58.148438 22.828125 L 55.753906 22.828125 Z M 55.753906 15.617188 " fill-opacity="1" fill-rule="nonzero"/><path fill="#000000" d="M 15.058594 10.8125 C 11.097656 10.8125 7.878906 14.046875 7.878906 18.023438 C 7.878906 22 11.097656 25.230469 15.058594 25.230469 C 19.019531 25.230469 22.242188 22 22.242188 18.023438 C 22.242188 14.046875 19.019531 10.8125 15.058594 10.8125 Z M 19.679688 16.820312 L 16.257812 16.820312 L 16.257812 13.382812 C 17.933594 13.816406 19.238281 15.136719 19.679688 16.820312 Z M 15.058594 22.828125 C 12.414062 22.828125 10.273438 20.675781 10.273438 18.023438 C 10.273438 15.789062 11.804688 13.925781 13.863281 13.382812 L 13.863281 18.023438 C 13.863281 18.683594 14.402344 19.222656 15.058594 19.222656 L 19.679688 19.222656 C 19.140625 21.289062 17.285156 22.828125 15.058594 22.828125 Z M 15.058594 22.828125 " fill-opacity="1" fill-rule="nonzero"/></svg>