<svg xmlns="http://www.w3.org/2000/svg" xmlns:xlink="http://www.w3.org/1999/xlink" width="100" zoomAndPan="magnify" viewBox="0 0 75 74.999997" height="100" preserveAspectRatio="xMidYMid meet" version="1.0"><defs><clipPath id="f47524c911"><path d="M 0 0 L 0.824219 0 L 0.824219 1 L 0 1 Z M 0 0 " clip-rule="nonzero"/></clipPath><clipPath id="78e92f18f3"><path d="M 0 0 L 0.824219 0 L 0.824219 1.5 L 0 1.5 Z M 0 0 " clip-rule="nonzero"/></clipPath><clipPath id="7994fd9fdf"><path d="M 0 0 L 0.824219 0 L 0.824219 1 L 0 1 Z M 0 0 " clip-rule="nonzero"/></clipPath><clipPath id="7108f7c306"><path d="M 0 1 L 0.824219 1 L 0.824219 1.5 L 0 1.5 Z M 0 1 " clip-rule="nonzero"/></clipPath><clipPath id="7f201c99b9"><path d="M 0 0 L 0.824219 0 L 0.824219 1 L 0 1 Z M 0 0 " clip-rule="nonzero"/></clipPath><clipPath id="98c1089df9"><path d="M 0 1 L 0.824219 1 L 0.824219 1.5 L 0 1.5 Z M 0 1 " clip-rule="nonzero"/></clipPath></defs><g clip-path="url(#f47524c911)"><path fill="#000000" d="M 0.390625 0.402344 L 0.421875 0.433594 C 0.421875 0.433594 0.421875 0.433594 0.421875 0.4375 L 0.476562 0.378906 L 0.542969 0.394531 C 0.554688 0.398438 0.558594 0.394531 0.566406 0.390625 L 0.625 0.332031 C 0.628906 0.324219 0.632812 0.316406 0.628906 0.308594 L 0.609375 0.230469 C 0.609375 0.222656 0.601562 0.214844 0.59375 0.214844 L 0.515625 0.195312 C 0.507812 0.191406 0.5 0.195312 0.492188 0.199219 L 0.433594 0.257812 C 0.429688 0.265625 0.425781 0.273438 0.429688 0.28125 L 0.445312 0.347656 Z M 0.515625 0.242188 L 0.566406 0.257812 L 0.582031 0.308594 L 0.542969 0.347656 L 0.492188 0.332031 L 0.476562 0.28125 Z M 0.515625 0.242188 " fill-opacity="1" fill-rule="nonzero"/></g><g clip-path="url(#78e92f18f3)"><path fill="#000000" d="M 0.390625 0.941406 L 0.363281 0.914062 C 0.378906 0.890625 0.386719 0.867188 0.394531 0.839844 L 0.433594 0.839844 C 0.476562 0.839844 0.496094 0.816406 0.496094 0.773438 L 0.496094 0.726562 C 0.496094 0.683594 0.476562 0.660156 0.433594 0.660156 L 0.394531 0.660156 C 0.386719 0.632812 0.378906 0.609375 0.363281 0.585938 L 0.390625 0.558594 C 0.421875 0.527344 0.417969 0.496094 0.386719 0.46875 L 0.355469 0.4375 C 0.328125 0.40625 0.296875 0.402344 0.265625 0.433594 L 0.238281 0.460938 C 0.214844 0.445312 0.191406 0.4375 0.164062 0.429688 L 0.164062 0.390625 C 0.164062 0.347656 0.140625 0.328125 0.0976562 0.328125 L 0.0507812 0.328125 C 0.0078125 0.328125 -0.0117188 0.347656 -0.015625 0.390625 L -0.015625 0.429688 C -0.0429688 0.4375 -0.0664062 0.445312 -0.0898438 0.460938 L -0.117188 0.433594 C -0.148438 0.402344 -0.179688 0.40625 -0.207031 0.4375 L -0.238281 0.46875 C -0.269531 0.496094 -0.273438 0.527344 -0.242188 0.558594 L -0.214844 0.585938 C -0.230469 0.609375 -0.238281 0.632812 -0.246094 0.660156 L -0.285156 0.660156 C -0.328125 0.660156 -0.347656 0.683594 -0.347656 0.726562 L -0.347656 0.773438 C -0.347656 0.816406 -0.328125 0.839844 -0.285156 0.839844 L -0.246094 0.839844 C -0.238281 0.867188 -0.230469 0.890625 -0.214844 0.914062 L -0.242188 0.941406 C -0.273438 0.972656 -0.269531 1.003906 -0.238281 1.03125 L -0.207031 1.0625 C -0.179688 1.09375 -0.148438 1.097656 -0.117188 1.066406 L -0.0898438 1.039062 C -0.0664062 1.054688 -0.0429688 1.0625 -0.015625 1.070312 L -0.015625 1.109375 C -0.0117188 1.152344 0.0078125 1.171875 0.0507812 1.171875 L 0.0976562 1.171875 C 0.140625 1.171875 0.164062 1.152344 0.164062 1.109375 L 0.164062 1.070312 C 0.191406 1.0625 0.214844 1.054688 0.238281 1.039062 L 0.265625 1.066406 C 0.296875 1.097656 0.328125 1.09375 0.355469 1.0625 L 0.386719 1.03125 C 0.417969 1.003906 0.421875 0.972656 0.390625 0.941406 Z M 0.355469 1 L 0.324219 1.03125 C 0.316406 1.039062 0.308594 1.039062 0.296875 1.035156 L 0.257812 0.992188 C 0.25 0.984375 0.238281 0.984375 0.226562 0.992188 C 0.199219 1.007812 0.167969 1.023438 0.136719 1.03125 C 0.125 1.03125 0.117188 1.039062 0.117188 1.050781 L 0.117188 1.109375 C 0.117188 1.117188 0.109375 1.125 0.0976562 1.125 L 0.0507812 1.125 C 0.0390625 1.125 0.03125 1.117188 0.03125 1.109375 L 0.03125 1.050781 C 0.03125 1.039062 0.0234375 1.03125 0.0117188 1.03125 C -0.0195312 1.023438 -0.0507812 1.007812 -0.078125 0.992188 C -0.0898438 0.984375 -0.101562 0.984375 -0.109375 0.992188 L -0.148438 1.035156 C -0.160156 1.039062 -0.167969 1.039062 -0.175781 1.03125 L -0.207031 1 C -0.214844 0.992188 -0.214844 0.984375 -0.210938 0.972656 L -0.167969 0.933594 C -0.160156 0.925781 -0.160156 0.914062 -0.167969 0.902344 C -0.183594 0.875 -0.199219 0.84375 -0.203125 0.8125 C -0.207031 0.800781 -0.214844 0.792969 -0.226562 0.792969 L -0.285156 0.792969 C -0.296875 0.789062 -0.300781 0.785156 -0.300781 0.773438 L -0.300781 0.726562 C -0.300781 0.714844 -0.296875 0.710938 -0.285156 0.707031 L -0.226562 0.707031 C -0.214844 0.707031 -0.207031 0.699219 -0.203125 0.6875 C -0.199219 0.65625 -0.183594 0.625 -0.167969 0.597656 C -0.160156 0.585938 -0.160156 0.574219 -0.167969 0.566406 L -0.210938 0.527344 C -0.214844 0.515625 -0.214844 0.507812 -0.207031 0.5 L -0.175781 0.46875 C -0.167969 0.460938 -0.160156 0.460938 -0.148438 0.464844 L -0.109375 0.507812 C -0.101562 0.515625 -0.0898438 0.515625 -0.078125 0.507812 C -0.0507812 0.492188 -0.0195312 0.476562 0.0117188 0.46875 C 0.0234375 0.46875 0.03125 0.460938 0.03125 0.449219 L 0.03125 0.390625 C 0.03125 0.382812 0.0390625 0.375 0.0507812 0.375 L 0.0976562 0.375 C 0.109375 0.375 0.117188 0.378906 0.117188 0.390625 L 0.117188 0.449219 C 0.117188 0.460938 0.125 0.46875 0.136719 0.46875 C 0.167969 0.476562 0.199219 0.492188 0.226562 0.507812 C 0.238281 0.515625 0.25 0.515625 0.257812 0.507812 L 0.296875 0.464844 C 0.308594 0.460938 0.316406 0.460938 0.324219 0.46875 L 0.355469 0.5 C 0.363281 0.507812 0.363281 0.515625 0.359375 0.527344 L 0.316406 0.566406 C 0.308594 0.574219 0.308594 0.585938 0.316406 0.597656 C 0.332031 0.625 0.347656 0.65625 0.355469 0.6875 C 0.355469 0.699219 0.363281 0.707031 0.375 0.707031 L 0.433594 0.707031 C 0.445312 0.710938 0.449219 0.714844 0.449219 0.726562 L 0.449219 0.773438 C 0.449219 0.785156 0.445312 0.789062 0.433594 0.792969 L 0.375 0.792969 C 0.363281 0.792969 0.355469 0.800781 0.355469 0.8125 C 0.347656 0.84375 0.332031 0.875 0.316406 0.902344 C 0.308594 0.914062 0.308594 0.925781 0.316406 0.933594 L 0.359375 0.972656 C 0.363281 0.984375 0.363281 0.992188 0.355469 1 Z M 0.355469 1 " fill-opacity="1" fill-rule="nonzero"/></g><g clip-path="url(#7994fd9fdf)"><path fill="#000000" d="M 0.0742188 0.574219 C -0.0429688 0.574219 -0.101562 0.632812 -0.101562 0.75 C -0.101562 0.867188 -0.0429688 0.925781 0.0742188 0.925781 C 0.191406 0.925781 0.25 0.867188 0.25 0.75 C 0.25 0.632812 0.191406 0.574219 0.0742188 0.574219 Z M 0.0742188 0.878906 C -0.0117188 0.878906 -0.0546875 0.835938 -0.0546875 0.75 C -0.0546875 0.664062 -0.0117188 0.621094 0.0742188 0.621094 C 0.160156 0.621094 0.203125 0.664062 0.203125 0.75 C 0.203125 0.835938 0.160156 0.878906 0.0742188 0.878906 Z M 0.0742188 0.878906 " fill-opacity="1" fill-rule="nonzero"/><path fill="#000000" d="M -0.0078125 0.167969 L 0.0507812 0.203125 L 0.0507812 0.28125 L 0.0976562 0.28125 L 0.0976562 0.203125 L 0.15625 0.167969 C 0.164062 0.164062 0.167969 0.15625 0.167969 0.148438 L 0.167969 0.0664062 C 0.167969 0.0546875 0.164062 0.0507812 0.15625 0.046875 L 0.0859375 0.00390625 C 0.078125 0 0.0703125 0 0.0625 0.00390625 L -0.0078125 0.046875 C -0.015625 0.0507812 -0.0195312 0.0546875 -0.0195312 0.0664062 L -0.0195312 0.148438 C -0.0195312 0.15625 -0.015625 0.164062 -0.0078125 0.167969 Z M 0.0273438 0.078125 L 0.0742188 0.0507812 L 0.121094 0.078125 L 0.121094 0.132812 L 0.0742188 0.160156 L 0.0273438 0.132812 Z M 0.0273438 0.078125 " fill-opacity="1" fill-rule="nonzero"/></g><g clip-path="url(#7108f7c306)"><path fill="#000000" d="M 0.15625 1.332031 L 0.0976562 1.296875 L 0.0976562 1.21875 L 0.0507812 1.21875 L 0.0507812 1.296875 L -0.0078125 1.332031 C -0.015625 1.335938 -0.0195312 1.34375 -0.0195312 1.351562 L -0.0195312 1.433594 C -0.0195312 1.445312 -0.015625 1.449219 -0.0078125 1.453125 L 0.0625 1.496094 C 0.0703125 1.5 0.078125 1.5 0.0859375 1.496094 L 0.15625 1.453125 C 0.164062 1.449219 0.167969 1.445312 0.167969 1.433594 L 0.167969 1.351562 C 0.167969 1.34375 0.164062 1.335938 0.15625 1.332031 Z M 0.121094 1.421875 L 0.0742188 1.449219 L 0.0273438 1.421875 L 0.0273438 1.367188 L 0.0742188 1.339844 L 0.121094 1.367188 Z M 0.121094 1.421875 " fill-opacity="1" fill-rule="nonzero"/></g><g clip-path="url(#7f201c99b9)"><path fill="#000000" d="M 0.8125 0.6875 L 0.742188 0.648438 C 0.734375 0.644531 0.726562 0.644531 0.71875 0.648438 L 0.648438 0.6875 C 0.640625 0.691406 0.636719 0.699219 0.636719 0.710938 L 0.636719 0.726562 L 0.542969 0.726562 L 0.542969 0.773438 L 0.636719 0.773438 L 0.636719 0.789062 C 0.636719 0.800781 0.640625 0.808594 0.648438 0.8125 L 0.71875 0.851562 C 0.726562 0.855469 0.734375 0.855469 0.742188 0.851562 L 0.8125 0.8125 C 0.820312 0.808594 0.824219 0.800781 0.824219 0.789062 L 0.824219 0.710938 C 0.824219 0.699219 0.820312 0.691406 0.8125 0.6875 Z M 0.777344 0.777344 L 0.730469 0.804688 L 0.683594 0.777344 L 0.683594 0.722656 L 0.730469 0.695312 L 0.777344 0.722656 Z M 0.777344 0.777344 " fill-opacity="1" fill-rule="nonzero"/></g><g clip-path="url(#98c1089df9)"><path fill="#000000" d="M 0.566406 1.109375 C 0.558594 1.105469 0.554688 1.101562 0.542969 1.105469 L 0.476562 1.121094 L 0.421875 1.0625 C 0.421875 1.066406 0.421875 1.066406 0.421875 1.066406 L 0.390625 1.097656 L 0.445312 1.152344 L 0.429688 1.21875 C 0.425781 1.226562 0.429688 1.234375 0.433594 1.242188 L 0.492188 1.300781 C 0.5 1.304688 0.507812 1.308594 0.515625 1.304688 L 0.59375 1.285156 C 0.601562 1.285156 0.609375 1.277344 0.609375 1.269531 L 0.628906 1.191406 C 0.632812 1.183594 0.628906 1.175781 0.625 1.167969 Z M 0.566406 1.242188 L 0.515625 1.257812 L 0.476562 1.21875 L 0.492188 1.167969 L 0.542969 1.152344 L 0.582031 1.191406 Z M 0.566406 1.242188 " fill-opacity="1" fill-rule="nonzero"/></g><path fill="#000000" d="M 37.507812 28.605469 C 32.601562 28.605469 28.613281 32.605469 28.613281 37.523438 C 28.613281 42.441406 32.601562 46.441406 37.507812 46.441406 C 42.414062 46.441406 46.402344 42.441406 46.402344 37.523438 C 46.402344 32.605469 42.414062 28.605469 37.507812 28.605469 Z M 37.507812 44.574219 C 33.628906 44.574219 30.472656 41.414062 30.472656 37.523438 C 30.472656 33.632812 33.628906 30.472656 37.507812 30.472656 C 41.386719 30.472656 44.542969 33.636719 44.542969 37.523438 C 44.542969 41.410156 41.386719 44.574219 37.507812 44.574219 Z M 74.769531 37.066406 L 71.625 31.441406 L 71.621094 31.441406 C 71.621094 31.4375 71.617188 31.429688 71.613281 31.425781 C 71.445312 31.140625 71.140625 30.964844 70.8125 30.964844 L 64.707031 30.964844 C 64.371094 30.964844 64.0625 31.144531 63.898438 31.441406 L 61.019531 36.589844 L 56.230469 36.589844 L 56.230469 35.066406 C 56.230469 34.1875 55.628906 33.449219 54.773438 33.265625 L 51.570312 32.574219 C 51.390625 32.0625 51.179688 31.554688 50.941406 31.058594 L 52.722656 28.296875 C 53.199219 27.558594 53.097656 26.613281 52.476562 25.992188 L 51.40625 24.914062 L 54.792969 21.515625 L 60.457031 23.117188 C 60.542969 23.140625 60.625 23.148438 60.710938 23.148438 C 60.953125 23.148438 61.191406 23.054688 61.367188 22.875 L 65.683594 18.550781 C 65.917969 18.316406 66.007812 17.976562 65.925781 17.65625 C 65.921875 17.648438 65.921875 17.644531 65.917969 17.636719 L 65.921875 17.636719 L 64.179688 11.429688 C 64.089844 11.117188 63.847656 10.871094 63.535156 10.785156 L 57.34375 9.039062 C 57.335938 9.039062 57.332031 9.035156 57.324219 9.035156 C 57.003906 8.949219 56.667969 9.042969 56.433594 9.277344 L 52.117188 13.601562 C 51.878906 13.839844 51.789062 14.191406 51.878906 14.515625 L 53.472656 20.195312 L 50.085938 23.589844 L 49.011719 22.515625 C 48.394531 21.894531 47.449219 21.792969 46.710938 22.269531 L 43.957031 24.054688 C 43.464844 23.816406 42.960938 23.605469 42.445312 23.425781 L 41.757812 20.210938 C 41.574219 19.351562 40.832031 18.753906 39.957031 18.753906 L 38.4375 18.753906 L 38.4375 13.949219 L 43.574219 11.0625 C 43.867188 10.898438 44.046875 10.585938 44.046875 10.25 L 44.046875 4.136719 C 44.046875 3.804688 43.871094 3.496094 43.585938 3.328125 C 43.582031 3.328125 43.574219 3.324219 43.570312 3.320312 L 37.960938 0.164062 C 37.679688 0.0078125 37.332031 0.0078125 37.050781 0.164062 L 31.441406 3.320312 C 31.4375 3.324219 31.433594 3.328125 31.425781 3.328125 C 31.140625 3.496094 30.964844 3.804688 30.964844 4.136719 L 30.964844 10.253906 C 30.964844 10.589844 31.148438 10.902344 31.441406 11.066406 L 36.574219 13.953125 L 36.574219 18.753906 L 35.058594 18.753906 C 34.179688 18.753906 33.441406 19.355469 33.257812 20.210938 L 32.570312 23.425781 C 32.058594 23.605469 31.554688 23.816406 31.058594 24.054688 L 28.304688 22.269531 C 27.566406 21.792969 26.621094 21.894531 26.003906 22.515625 L 24.929688 23.59375 L 21.542969 20.195312 L 23.136719 14.515625 C 23.226562 14.191406 23.136719 13.84375 22.898438 13.605469 L 18.582031 9.277344 C 18.347656 9.042969 18.007812 8.949219 17.691406 9.035156 C 17.683594 9.035156 17.679688 9.039062 17.671875 9.042969 L 17.671875 9.039062 L 11.480469 10.785156 C 11.167969 10.871094 10.925781 11.117188 10.835938 11.429688 L 9.09375 17.636719 L 9.097656 17.636719 C 9.09375 17.644531 9.09375 17.648438 9.089844 17.65625 C 9.007812 17.976562 9.101562 18.316406 9.332031 18.550781 L 13.648438 22.875 C 13.824219 23.054688 14.0625 23.148438 14.304688 23.148438 C 14.390625 23.148438 14.472656 23.140625 14.558594 23.117188 L 20.222656 21.515625 L 23.609375 24.914062 L 22.539062 25.988281 C 21.917969 26.609375 21.816406 27.558594 22.292969 28.296875 L 24.074219 31.058594 C 23.835938 31.550781 23.625 32.058594 23.445312 32.574219 L 20.238281 33.265625 C 19.382812 33.449219 18.785156 34.191406 18.785156 35.066406 L 18.785156 36.589844 L 13.992188 36.589844 L 11.113281 31.441406 C 10.949219 31.148438 10.636719 30.96875 10.300781 30.96875 L 4.203125 30.96875 C 3.871094 30.96875 3.566406 31.144531 3.398438 31.429688 C 3.394531 31.433594 3.394531 31.441406 3.390625 31.445312 L 0.242188 37.070312 C 0.0859375 37.351562 0.0859375 37.699219 0.242188 37.980469 L 3.390625 43.605469 C 3.394531 43.613281 3.394531 43.617188 3.398438 43.621094 C 3.566406 43.910156 3.871094 44.085938 4.203125 44.085938 L 10.304688 44.085938 C 10.640625 44.085938 10.953125 43.902344 11.117188 43.609375 L 13.996094 38.460938 L 18.785156 38.460938 L 18.785156 39.984375 C 18.785156 40.863281 19.386719 41.605469 20.242188 41.789062 L 23.449219 42.476562 C 23.625 42.988281 23.835938 43.496094 24.074219 43.992188 L 22.292969 46.753906 C 21.820312 47.492188 21.917969 48.441406 22.539062 49.058594 L 23.613281 50.136719 L 20.226562 53.53125 L 14.558594 51.933594 C 14.234375 51.84375 13.886719 51.933594 13.648438 52.171875 L 9.332031 56.496094 C 9.097656 56.734375 9.007812 57.074219 9.089844 57.394531 C 9.09375 57.398438 9.09375 57.40625 9.097656 57.410156 L 9.09375 57.410156 L 10.835938 63.617188 C 10.925781 63.929688 11.167969 64.175781 11.480469 64.265625 L 17.671875 66.011719 L 17.671875 66.007812 C 17.679688 66.011719 17.683594 66.011719 17.691406 66.015625 C 17.769531 66.035156 17.847656 66.046875 17.925781 66.046875 C 18.167969 66.046875 18.40625 65.949219 18.582031 65.773438 L 22.898438 61.445312 C 23.136719 61.207031 23.226562 60.859375 23.136719 60.535156 L 21.542969 54.851562 L 24.929688 51.457031 L 26.003906 52.53125 C 26.621094 53.15625 27.566406 53.253906 28.304688 52.777344 L 31.058594 50.992188 C 31.550781 51.230469 32.054688 51.441406 32.570312 51.621094 L 33.257812 54.835938 C 33.445312 55.695312 34.183594 56.296875 35.058594 56.296875 L 36.578125 56.296875 L 36.578125 61.097656 L 31.441406 63.984375 C 31.148438 64.152344 30.96875 64.460938 30.96875 64.800781 L 30.96875 70.917969 C 30.96875 71.246094 31.144531 71.554688 31.429688 71.722656 C 31.433594 71.726562 31.441406 71.726562 31.445312 71.730469 L 37.054688 74.886719 C 37.195312 74.964844 37.351562 75.007812 37.511719 75.007812 C 37.667969 75.007812 37.824219 74.964844 37.96875 74.886719 L 43.578125 71.730469 C 43.582031 71.726562 43.589844 71.726562 43.59375 71.722656 C 43.878906 71.554688 44.054688 71.246094 44.054688 70.917969 L 44.054688 64.800781 C 44.054688 64.460938 43.871094 64.152344 43.578125 63.984375 L 38.4375 61.09375 L 38.4375 56.292969 L 39.957031 56.292969 C 40.832031 56.292969 41.574219 55.691406 41.757812 54.835938 L 42.445312 51.621094 C 42.953125 51.441406 43.460938 51.230469 43.957031 50.992188 L 46.710938 52.777344 C 47.445312 53.253906 48.390625 53.152344 49.011719 52.53125 L 50.085938 51.453125 L 53.472656 54.851562 L 51.878906 60.53125 C 51.789062 60.855469 51.878906 61.203125 52.117188 61.441406 L 56.433594 65.769531 C 56.609375 65.945312 56.847656 66.042969 57.089844 66.042969 C 57.167969 66.042969 57.246094 66.035156 57.324219 66.011719 C 57.332031 66.011719 57.335938 66.007812 57.34375 66.003906 L 57.34375 66.007812 L 63.535156 64.261719 C 63.847656 64.171875 64.089844 63.929688 64.179688 63.617188 L 65.921875 57.40625 L 65.917969 57.40625 C 65.921875 57.402344 65.921875 57.398438 65.925781 57.390625 C 66.007812 57.070312 65.914062 56.730469 65.683594 56.496094 L 61.367188 52.167969 C 61.128906 51.929688 60.78125 51.839844 60.457031 51.929688 L 54.789062 53.53125 L 51.402344 50.132812 L 52.476562 49.058594 C 53.09375 48.4375 53.195312 47.488281 52.722656 46.75 L 50.941406 43.988281 C 51.175781 43.496094 51.386719 42.992188 51.566406 42.472656 L 54.773438 41.78125 C 55.628906 41.597656 56.230469 40.855469 56.230469 39.980469 L 56.230469 38.457031 L 61.019531 38.457031 L 63.898438 43.605469 C 64.0625 43.898438 64.375 44.078125 64.710938 44.078125 L 70.8125 44.078125 C 71.144531 44.078125 71.449219 43.902344 71.617188 43.617188 C 71.621094 43.613281 71.621094 43.605469 71.625 43.601562 L 74.773438 37.976562 C 74.929688 37.695312 74.929688 37.351562 74.769531 37.066406 Z M 60.4375 21.171875 L 56.300781 20.003906 L 59.105469 17.191406 L 63.242188 18.355469 Z M 63.679688 16.542969 L 59.589844 15.386719 L 58.4375 11.285156 L 62.53125 12.4375 Z M 56.625 11.722656 L 57.789062 15.871094 L 54.984375 18.683594 L 53.820312 14.535156 Z M 42.1875 9.703125 L 38.4375 11.8125 L 38.4375 7.835938 L 42.1875 5.726562 Z M 37.507812 2.050781 L 41.214844 4.136719 L 37.507812 6.21875 L 33.800781 4.132812 Z M 32.828125 5.726562 L 36.578125 7.835938 L 36.578125 11.8125 L 32.828125 9.707031 Z M 21.195312 14.535156 L 20.03125 18.683594 L 17.226562 15.871094 L 18.390625 11.722656 Z M 12.484375 12.4375 L 16.578125 11.285156 L 15.425781 15.386719 L 11.335938 16.542969 Z M 14.578125 21.171875 L 11.773438 18.355469 L 15.910156 17.191406 L 18.714844 20.003906 Z M 9.761719 32.832031 L 11.863281 36.589844 L 7.894531 36.589844 L 5.792969 32.832031 Z M 4.203125 33.808594 L 6.28125 37.523438 L 4.203125 41.238281 L 2.121094 37.523438 Z M 9.761719 42.214844 L 5.792969 42.214844 L 7.894531 38.457031 L 11.859375 38.457031 Z M 14.578125 53.875 L 18.714844 55.042969 L 15.910156 57.855469 L 11.773438 56.6875 Z M 11.335938 58.503906 L 15.425781 59.65625 L 16.578125 63.761719 L 12.484375 62.605469 Z M 18.390625 63.324219 L 17.226562 59.175781 L 20.03125 56.363281 L 21.195312 60.511719 Z M 32.828125 65.339844 L 36.578125 63.234375 L 36.578125 67.210938 L 32.828125 69.316406 Z M 37.507812 72.996094 L 33.800781 70.910156 L 37.507812 68.828125 L 41.214844 70.910156 Z M 42.1875 69.320312 L 38.4375 67.210938 L 38.4375 63.234375 L 42.1875 65.339844 Z M 53.820312 60.511719 L 54.984375 56.363281 L 57.789062 59.175781 L 56.625 63.324219 Z M 62.53125 62.605469 L 58.4375 63.761719 L 59.589844 59.65625 L 63.679688 58.503906 Z M 63.242188 56.6875 L 59.105469 57.855469 L 56.300781 55.042969 L 60.4375 53.875 Z M 54.367188 39.960938 L 51.164062 40.652344 C 50.535156 40.789062 50.027344 41.234375 49.816406 41.84375 C 49.65625 42.300781 49.46875 42.75 49.257812 43.1875 C 48.980469 43.773438 49.019531 44.445312 49.371094 44.992188 L 51.148438 47.75 L 47.707031 51.199219 L 44.957031 49.417969 C 44.414062 49.0625 43.742188 49.023438 43.160156 49.304688 C 42.722656 49.515625 42.269531 49.703125 41.820312 49.863281 C 41.207031 50.078125 40.761719 50.582031 40.628906 51.214844 L 39.941406 54.425781 L 35.074219 54.425781 L 34.386719 51.214844 C 34.25 50.582031 33.808594 50.074219 33.199219 49.859375 C 32.746094 49.703125 32.292969 49.515625 31.859375 49.304688 C 31.277344 49.023438 30.605469 49.066406 30.058594 49.417969 L 27.308594 51.199219 L 23.867188 47.75 L 25.644531 44.992188 C 25.996094 44.445312 26.039062 43.773438 25.757812 43.1875 C 25.546875 42.75 25.359375 42.296875 25.199219 41.84375 C 24.984375 41.230469 24.480469 40.785156 23.847656 40.652344 L 20.648438 39.960938 L 20.648438 35.082031 L 23.847656 34.394531 C 24.480469 34.257812 24.984375 33.8125 25.199219 33.203125 C 25.359375 32.746094 25.546875 32.296875 25.753906 31.859375 C 26.035156 31.273438 25.992188 30.601562 25.644531 30.054688 L 23.867188 27.296875 L 27.304688 23.847656 L 30.058594 25.628906 C 30.601562 25.980469 31.273438 26.023438 31.855469 25.742188 C 32.292969 25.53125 32.742188 25.34375 33.195312 25.183594 C 33.808594 24.96875 34.25 24.460938 34.386719 23.828125 L 35.074219 20.617188 L 39.941406 20.617188 L 40.628906 23.828125 C 40.761719 24.460938 41.207031 24.96875 41.820312 25.183594 C 42.269531 25.339844 42.722656 25.527344 43.160156 25.742188 C 43.742188 26.023438 44.414062 25.980469 44.957031 25.628906 L 47.710938 23.847656 L 51.148438 27.296875 L 49.371094 30.054688 C 49.019531 30.597656 48.980469 31.273438 49.261719 31.859375 C 49.46875 32.296875 49.65625 32.746094 49.816406 33.203125 C 50.03125 33.8125 50.535156 34.257812 51.167969 34.394531 L 54.371094 35.085938 L 54.371094 39.960938 Z M 65.253906 32.832031 L 69.222656 32.832031 L 67.121094 36.589844 L 63.152344 36.589844 Z M 65.253906 42.214844 L 63.152344 38.457031 L 67.121094 38.457031 L 69.222656 42.214844 Z M 70.8125 41.238281 L 68.734375 37.523438 L 70.8125 33.808594 L 72.894531 37.523438 Z M 70.8125 41.238281 " fill-opacity="1" fill-rule="nonzero"/></svg>