<svg xmlns="http://www.w3.org/2000/svg" xmlns:xlink="http://www.w3.org/1999/xlink" width="100" zoomAndPan="magnify" viewBox="0 0 75 74.999997" height="100" preserveAspectRatio="xMidYMid meet" version="1.0"><defs><clipPath id="49410d29dd"><path d="M 4.734375 0 L 69.984375 0 L 69.984375 75 L 4.734375 75 Z M 4.734375 0 " clip-rule="nonzero"/></clipPath><clipPath id="dd65ec3d78"><path d="M 0 0 L 0.824219 0 L 0.824219 1 L 0 1 Z M 0 0 " clip-rule="nonzero"/></clipPath><clipPath id="2d3be338ce"><path d="M 0 0 L 0.824219 0 L 0.824219 1.5 L 0 1.5 Z M 0 0 " clip-rule="nonzero"/></clipPath><clipPath id="7071773ac6"><path d="M 0 0 L 0.824219 0 L 0.824219 1 L 0 1 Z M 0 0 " clip-rule="nonzero"/></clipPath><clipPath id="5d207d257e"><path d="M 0 1 L 0.824219 1 L 0.824219 1.5 L 0 1.5 Z M 0 1 " clip-rule="nonzero"/></clipPath><clipPath id="e236e8d4a7"><path d="M 0 0 L 0.824219 0 L 0.824219 1 L 0 1 Z M 0 0 " clip-rule="nonzero"/></clipPath><clipPath id="110993bb5a"><path d="M 0 1 L 0.824219 1 L 0.824219 1.5 L 0 1.5 Z M 0 1 " clip-rule="nonzero"/></clipPath></defs><g clip-path="url(#49410d29dd)"><path fill="#000000" d="M 38.578125 9.398438 C 36.242188 9.398438 38.578125 9.398438 36.242188 9.398438 L 36.242188 7.0625 L 38.578125 7.0625 Z M 70.015625 39.796875 C 70.035156 39.886719 70.058594 39.992188 70.058594 40.097656 L 70.058594 50.140625 C 70.058594 50.597656 69.789062 51.011719 69.375 51.207031 L 61.214844 54.96875 C 61.175781 54.988281 61.144531 54.988281 61.101562 55.007812 C 61.070312 55.019531 61.050781 55.03125 61.019531 55.039062 C 60.925781 55.0625 60.824219 55.082031 60.730469 55.082031 C 60.625 55.082031 60.53125 55.0625 60.441406 55.039062 C 60.410156 55.03125 60.386719 55.019531 60.355469 55.007812 C 60.316406 55 60.285156 54.988281 60.242188 54.96875 L 52.085938 51.207031 C 51.980469 51.15625 51.878906 51.09375 51.796875 51.023438 L 46.6875 53.949219 C 47.453125 54.59375 47.90625 55.363281 47.90625 56.253906 C 47.90625 56.464844 47.875 56.660156 47.835938 56.859375 C 47.875 57.046875 47.90625 57.230469 47.90625 57.429688 L 47.90625 60.941406 C 47.90625 61.148438 47.875 61.34375 47.835938 61.542969 C 47.875 61.730469 47.90625 61.914062 47.90625 62.113281 L 47.90625 65.625 C 47.90625 65.832031 47.875 66.027344 47.835938 66.226562 C 47.875 66.414062 47.90625 66.601562 47.90625 66.796875 L 47.90625 70.308594 C 47.90625 73.382812 42.632812 74.992188 37.410156 74.992188 C 32.1875 74.992188 26.914062 73.382812 26.914062 70.308594 L 26.914062 66.796875 C 26.914062 66.601562 26.945312 66.414062 26.988281 66.226562 C 26.945312 66.027344 26.914062 65.832031 26.914062 65.625 L 26.914062 62.113281 C 26.914062 61.914062 26.945312 61.730469 26.988281 61.542969 C 26.945312 61.34375 26.914062 61.148438 26.914062 60.941406 L 26.914062 57.429688 C 26.914062 57.230469 26.945312 57.046875 26.988281 56.859375 C 26.945312 56.660156 26.914062 56.464844 26.914062 56.253906 C 26.914062 55.527344 27.226562 54.875 27.742188 54.3125 L 22.933594 51.074219 C 22.871094 51.113281 22.808594 51.167969 22.746094 51.199219 L 14.589844 54.957031 C 14.546875 54.976562 14.515625 54.976562 14.476562 55 C 14.445312 55.007812 14.421875 55.019531 14.394531 55.03125 C 14.300781 55.050781 14.195312 55.070312 14.101562 55.070312 C 14 55.070312 13.90625 55.050781 13.8125 55.03125 C 13.78125 55.019531 13.761719 55.007812 13.730469 55 C 13.6875 54.988281 13.660156 54.976562 13.617188 54.957031 L 5.457031 51.199219 C 5.042969 51.011719 4.777344 50.597656 4.777344 50.128906 L 4.777344 40.097656 C 4.777344 39.992188 4.796875 39.898438 4.816406 39.796875 C 4.828125 39.773438 4.828125 39.742188 4.835938 39.722656 C 4.867188 39.640625 4.898438 39.566406 4.941406 39.492188 C 4.953125 39.484375 4.953125 39.472656 4.960938 39.453125 C 5.011719 39.371094 5.074219 39.296875 5.148438 39.234375 C 5.167969 39.214844 5.1875 39.203125 5.210938 39.183594 C 5.273438 39.128906 5.34375 39.089844 5.417969 39.046875 C 5.425781 39.035156 5.4375 39.027344 5.449219 39.027344 L 13.605469 35.265625 C 13.917969 35.121094 14.269531 35.121094 14.578125 35.265625 L 21.972656 38.671875 L 28.082031 35.609375 L 28.082031 30.730469 C 28.082031 30.625 28.105469 30.53125 28.125 30.425781 C 28.136719 30.40625 28.136719 30.375 28.144531 30.355469 C 28.175781 30.273438 28.207031 30.199219 28.25 30.125 C 28.257812 30.117188 28.257812 30.105469 28.269531 30.085938 C 28.320312 30 28.382812 29.929688 28.457031 29.867188 C 28.476562 29.847656 28.496094 29.835938 28.519531 29.816406 C 28.582031 29.761719 28.652344 29.722656 28.726562 29.679688 C 28.734375 29.667969 28.746094 29.660156 28.757812 29.660156 L 36.242188 26.210938 L 36.242188 21.113281 L 32.417969 21.113281 L 33.296875 17.601562 L 25.757812 17.601562 L 25.757812 0.03125 L 49.074219 0.03125 L 49.074219 17.589844 L 41.535156 17.589844 L 42.414062 21.101562 L 38.589844 21.101562 L 38.589844 26.199219 L 46.078125 29.648438 C 46.085938 29.648438 46.097656 29.660156 46.109375 29.667969 C 46.191406 29.710938 46.261719 29.753906 46.324219 29.816406 C 46.34375 29.824219 46.367188 29.847656 46.375 29.855469 C 46.449219 29.917969 46.511719 29.992188 46.5625 30.074219 C 46.574219 30.085938 46.574219 30.09375 46.582031 30.105469 C 46.625 30.179688 46.667969 30.261719 46.6875 30.34375 C 46.695312 30.367188 46.695312 30.386719 46.707031 30.417969 C 46.726562 30.511719 46.75 30.613281 46.75 30.71875 L 46.75 35.597656 L 52.859375 38.664062 L 60.253906 35.257812 C 60.5625 35.113281 60.914062 35.113281 61.226562 35.257812 L 69.382812 39.015625 C 69.394531 39.015625 69.40625 39.027344 69.414062 39.035156 C 69.5 39.078125 69.570312 39.121094 69.632812 39.183594 C 69.652344 39.191406 69.675781 39.214844 69.683594 39.222656 C 69.757812 39.285156 69.820312 39.359375 69.871094 39.441406 C 69.882812 39.453125 69.882812 39.460938 69.890625 39.472656 C 69.933594 39.546875 69.972656 39.628906 69.996094 39.710938 C 69.996094 39.742188 70.003906 39.765625 70.015625 39.796875 Z M 28.082031 15.253906 L 33.875 15.253906 L 34.164062 14.082031 L 40.648438 14.082031 L 40.9375 15.253906 L 46.726562 15.253906 L 46.726562 2.375 L 28.082031 2.375 Z M 35.40625 18.765625 L 39.417969 18.765625 L 39.128906 17.589844 L 38.839844 16.417969 L 35.996094 16.417969 L 35.703125 17.589844 Z M 55.363281 40.097656 L 57.894531 41.269531 L 59.5625 42.039062 L 60.730469 42.578125 L 61.898438 42.039062 L 63.5625 41.269531 L 66.097656 40.097656 L 63.550781 38.921875 L 60.730469 37.613281 L 57.90625 38.921875 Z M 53.738281 49.378906 L 54.113281 49.546875 L 59.570312 52.058594 L 59.570312 44.605469 L 53.738281 41.914062 Z M 61.898438 52.070312 L 67.730469 49.378906 L 67.730469 41.925781 L 61.898438 44.613281 Z M 32.042969 30.730469 L 34.578125 31.902344 L 36.242188 32.671875 L 37.410156 33.199219 L 38.578125 32.660156 L 40.246094 31.890625 L 42.777344 30.71875 L 40.234375 29.542969 L 37.410156 28.246094 L 34.589844 29.554688 Z M 44.402344 32.554688 L 38.570312 35.246094 L 38.570312 42.703125 L 44.402344 40.011719 Z M 30.421875 37.054688 L 30.421875 40.011719 L 36.253906 42.703125 L 36.253906 35.246094 L 30.421875 32.554688 Z M 21.09375 48.851562 L 21.09375 41.914062 L 15.261719 44.605469 L 15.261719 52.058594 L 20.691406 49.558594 L 21.09375 49.371094 Z M 8.726562 40.097656 L 11.257812 41.269531 L 12.925781 42.039062 L 14.09375 42.578125 L 15.261719 42.039062 L 16.925781 41.269531 L 19.460938 40.097656 L 16.914062 38.921875 L 14.09375 37.613281 L 11.269531 38.921875 Z M 7.09375 49.378906 L 12.925781 52.070312 L 12.925781 44.613281 L 7.09375 41.925781 Z M 45.570312 68.644531 C 43.542969 69.726562 40.472656 70.285156 37.410156 70.285156 C 34.351562 70.285156 31.277344 69.726562 29.253906 68.644531 L 29.253906 70.285156 C 29.253906 70.960938 32.117188 72.632812 37.410156 72.632812 C 42.714844 72.632812 45.570312 70.972656 45.570312 70.285156 Z M 44.101562 55.0625 C 43.429688 54.761719 42.53125 54.46875 41.421875 54.25 C 40.296875 54.035156 38.960938 53.886719 37.410156 53.886719 C 35.300781 53.886719 33.59375 54.148438 32.28125 54.511719 C 31.671875 54.675781 31.144531 54.863281 30.71875 55.0625 C 30.308594 55.25 29.976562 55.433594 29.726562 55.621094 C 29.417969 55.859375 29.253906 56.078125 29.253906 56.234375 C 29.253906 56.515625 29.757812 56.972656 30.71875 57.410156 C 31.445312 57.730469 32.4375 58.042969 33.679688 58.269531 C 34.742188 58.457031 35.984375 58.582031 37.410156 58.582031 C 37.84375 58.582031 38.257812 58.570312 38.652344 58.550781 C 41.101562 58.425781 42.945312 57.9375 44.101562 57.417969 C 45.0625 56.984375 45.570312 56.535156 45.570312 56.246094 C 45.570312 55.996094 45.1875 55.613281 44.433594 55.238281 C 44.339844 55.164062 44.226562 55.113281 44.101562 55.0625 Z M 45.570312 63.960938 C 45.257812 64.128906 44.917969 64.285156 44.554688 64.429688 C 42.589844 65.207031 39.984375 65.601562 37.402344 65.601562 C 34.816406 65.601562 32.210938 65.207031 30.246094 64.429688 C 29.882812 64.285156 29.550781 64.128906 29.242188 63.960938 L 29.242188 65.601562 C 29.242188 65.882812 29.75 66.339844 30.710938 66.777344 C 32.054688 67.378906 34.308594 67.949219 37.402344 67.949219 C 40.492188 67.949219 42.746094 67.390625 44.089844 66.777344 C 45.054688 66.339844 45.558594 65.894531 45.558594 65.601562 L 45.558594 63.960938 Z M 45.570312 59.277344 C 45.257812 59.445312 44.917969 59.601562 44.554688 59.746094 C 42.589844 60.523438 39.984375 60.917969 37.402344 60.917969 C 34.816406 60.917969 32.210938 60.523438 30.246094 59.746094 C 29.882812 59.601562 29.550781 59.445312 29.242188 59.277344 L 29.242188 60.917969 C 29.242188 61.199219 29.75 61.65625 30.710938 62.09375 C 32.054688 62.695312 34.308594 63.265625 37.402344 63.265625 C 40.492188 63.265625 42.746094 62.707031 44.089844 62.09375 C 45.054688 61.65625 45.558594 61.210938 45.558594 60.917969 L 45.558594 59.277344 Z M 51.402344 48.527344 L 51.402344 40.5625 L 46.738281 38.226562 L 46.738281 40.761719 C 46.738281 41.21875 46.46875 41.632812 46.054688 41.820312 L 37.898438 45.578125 C 37.855469 45.601562 37.824219 45.601562 37.785156 45.621094 C 37.753906 45.632812 37.730469 45.640625 37.699219 45.640625 C 37.609375 45.664062 37.503906 45.683594 37.410156 45.683594 C 37.308594 45.683594 37.214844 45.664062 37.121094 45.640625 C 37.089844 45.632812 37.070312 45.621094 37.039062 45.621094 C 36.996094 45.609375 36.964844 45.601562 36.925781 45.578125 L 28.765625 41.820312 C 28.351562 41.632812 28.082031 41.21875 28.082031 40.761719 L 28.082031 38.226562 L 23.421875 40.5625 L 23.421875 48.582031 L 29.863281 52.890625 C 31.867188 52.007812 34.648438 51.550781 37.410156 51.550781 C 39.871094 51.550781 42.34375 51.914062 44.277344 52.621094 Z M 51.402344 28.132812 C 51.402344 26.191406 52.972656 24.621094 54.898438 24.621094 L 66.550781 24.621094 C 68.484375 24.621094 70.046875 26.199219 70.046875 28.132812 C 70.046875 30.0625 68.476562 31.644531 66.550781 31.644531 L 54.898438 31.644531 C 52.972656 31.644531 51.402344 30.074219 51.402344 28.132812 Z M 53.738281 28.132812 C 53.738281 28.777344 54.265625 29.304688 54.90625 29.304688 L 66.5625 29.304688 C 67.203125 29.304688 67.730469 28.785156 67.730469 28.132812 C 67.730469 27.488281 67.203125 26.957031 66.5625 26.957031 L 54.898438 26.957031 C 54.257812 26.957031 53.738281 27.488281 53.738281 28.132812 Z M 23.421875 31.644531 L 23.421875 29.296875 L 15.261719 29.296875 L 15.261719 31.644531 Z M 12.925781 29.304688 L 4.765625 29.304688 L 4.765625 31.652344 L 12.925781 31.652344 Z M 23.421875 24.621094 L 4.765625 24.621094 L 4.765625 26.957031 L 23.421875 26.957031 Z M 23.421875 24.621094 " fill-opacity="1" fill-rule="nonzero"/></g><g clip-path="url(#dd65ec3d78)"><path fill="#000000" d="M 0.390625 0.402344 L 0.421875 0.433594 C 0.421875 0.433594 0.421875 0.433594 0.421875 0.4375 L 0.476562 0.378906 L 0.542969 0.394531 C 0.554688 0.398438 0.558594 0.394531 0.566406 0.390625 L 0.625 0.332031 C 0.628906 0.324219 0.632812 0.316406 0.628906 0.308594 L 0.609375 0.230469 C 0.609375 0.222656 0.601562 0.214844 0.59375 0.214844 L 0.515625 0.195312 C 0.507812 0.191406 0.5 0.195312 0.492188 0.199219 L 0.433594 0.257812 C 0.429688 0.265625 0.425781 0.273438 0.429688 0.28125 L 0.445312 0.347656 Z M 0.515625 0.242188 L 0.566406 0.257812 L 0.582031 0.308594 L 0.542969 0.347656 L 0.492188 0.332031 L 0.476562 0.28125 Z M 0.515625 0.242188 " fill-opacity="1" fill-rule="nonzero"/></g><g clip-path="url(#2d3be338ce)"><path fill="#000000" d="M 0.390625 0.941406 L 0.363281 0.914062 C 0.378906 0.890625 0.386719 0.867188 0.394531 0.839844 L 0.433594 0.839844 C 0.476562 0.839844 0.496094 0.816406 0.496094 0.773438 L 0.496094 0.726562 C 0.496094 0.683594 0.476562 0.660156 0.433594 0.660156 L 0.394531 0.660156 C 0.386719 0.632812 0.378906 0.609375 0.363281 0.585938 L 0.390625 0.558594 C 0.421875 0.527344 0.417969 0.496094 0.386719 0.46875 L 0.355469 0.4375 C 0.328125 0.40625 0.296875 0.402344 0.265625 0.433594 L 0.238281 0.460938 C 0.214844 0.445312 0.191406 0.4375 0.164062 0.429688 L 0.164062 0.390625 C 0.164062 0.347656 0.140625 0.328125 0.0976562 0.328125 L 0.0507812 0.328125 C 0.0078125 0.328125 -0.0117188 0.347656 -0.015625 0.390625 L -0.015625 0.429688 C -0.0429688 0.4375 -0.0664062 0.445312 -0.0898438 0.460938 L -0.117188 0.433594 C -0.148438 0.402344 -0.179688 0.40625 -0.207031 0.4375 L -0.238281 0.46875 C -0.269531 0.496094 -0.273438 0.527344 -0.242188 0.558594 L -0.214844 0.585938 C -0.230469 0.609375 -0.238281 0.632812 -0.246094 0.660156 L -0.285156 0.660156 C -0.328125 0.660156 -0.347656 0.683594 -0.347656 0.726562 L -0.347656 0.773438 C -0.347656 0.816406 -0.328125 0.839844 -0.285156 0.839844 L -0.246094 0.839844 C -0.238281 0.867188 -0.230469 0.890625 -0.214844 0.914062 L -0.242188 0.941406 C -0.273438 0.972656 -0.269531 1.003906 -0.238281 1.03125 L -0.207031 1.0625 C -0.179688 1.09375 -0.148438 1.097656 -0.117188 1.066406 L -0.0898438 1.039062 C -0.0664062 1.054688 -0.0429688 1.0625 -0.015625 1.070312 L -0.015625 1.109375 C -0.0117188 1.152344 0.0078125 1.171875 0.0507812 1.171875 L 0.0976562 1.171875 C 0.140625 1.171875 0.164062 1.152344 0.164062 1.109375 L 0.164062 1.070312 C 0.191406 1.0625 0.214844 1.054688 0.238281 1.039062 L 0.265625 1.066406 C 0.296875 1.097656 0.328125 1.09375 0.355469 1.0625 L 0.386719 1.03125 C 0.417969 1.003906 0.421875 0.972656 0.390625 0.941406 Z M 0.355469 1 L 0.324219 1.03125 C 0.316406 1.039062 0.308594 1.039062 0.296875 1.035156 L 0.257812 0.992188 C 0.25 0.984375 0.238281 0.984375 0.226562 0.992188 C 0.199219 1.007812 0.167969 1.023438 0.136719 1.03125 C 0.125 1.03125 0.117188 1.039062 0.117188 1.050781 L 0.117188 1.109375 C 0.117188 1.117188 0.109375 1.125 0.0976562 1.125 L 0.0507812 1.125 C 0.0390625 1.125 0.03125 1.117188 0.03125 1.109375 L 0.03125 1.050781 C 0.03125 1.039062 0.0234375 1.03125 0.0117188 1.03125 C -0.0195312 1.023438 -0.0507812 1.007812 -0.078125 0.992188 C -0.0898438 0.984375 -0.101562 0.984375 -0.109375 0.992188 L -0.148438 1.035156 C -0.160156 1.039062 -0.167969 1.039062 -0.175781 1.03125 L -0.207031 1 C -0.214844 0.992188 -0.214844 0.984375 -0.210938 0.972656 L -0.167969 0.933594 C -0.160156 0.925781 -0.160156 0.914062 -0.167969 0.902344 C -0.183594 0.875 -0.199219 0.84375 -0.203125 0.8125 C -0.207031 0.800781 -0.214844 0.792969 -0.226562 0.792969 L -0.285156 0.792969 C -0.296875 0.789062 -0.300781 0.785156 -0.300781 0.773438 L -0.300781 0.726562 C -0.300781 0.714844 -0.296875 0.710938 -0.285156 0.707031 L -0.226562 0.707031 C -0.214844 0.707031 -0.207031 0.699219 -0.203125 0.6875 C -0.199219 0.65625 -0.183594 0.625 -0.167969 0.597656 C -0.160156 0.585938 -0.160156 0.574219 -0.167969 0.566406 L -0.210938 0.527344 C -0.214844 0.515625 -0.214844 0.507812 -0.207031 0.5 L -0.175781 0.46875 C -0.167969 0.460938 -0.160156 0.460938 -0.148438 0.464844 L -0.109375 0.507812 C -0.101562 0.515625 -0.0898438 0.515625 -0.078125 0.507812 C -0.0507812 0.492188 -0.0195312 0.476562 0.0117188 0.46875 C 0.0234375 0.46875 0.03125 0.460938 0.03125 0.449219 L 0.03125 0.390625 C 0.03125 0.382812 0.0390625 0.375 0.0507812 0.375 L 0.0976562 0.375 C 0.109375 0.375 0.117188 0.378906 0.117188 0.390625 L 0.117188 0.449219 C 0.117188 0.460938 0.125 0.46875 0.136719 0.46875 C 0.167969 0.476562 0.199219 0.492188 0.226562 0.507812 C 0.238281 0.515625 0.25 0.515625 0.257812 0.507812 L 0.296875 0.464844 C 0.308594 0.460938 0.316406 0.460938 0.324219 0.46875 L 0.355469 0.5 C 0.363281 0.507812 0.363281 0.515625 0.359375 0.527344 L 0.316406 0.566406 C 0.308594 0.574219 0.308594 0.585938 0.316406 0.597656 C 0.332031 0.625 0.347656 0.65625 0.355469 0.6875 C 0.355469 0.699219 0.363281 0.707031 0.375 0.707031 L 0.433594 0.707031 C 0.445312 0.710938 0.449219 0.714844 0.449219 0.726562 L 0.449219 0.773438 C 0.449219 0.785156 0.445312 0.789062 0.433594 0.792969 L 0.375 0.792969 C 0.363281 0.792969 0.355469 0.800781 0.355469 0.8125 C 0.347656 0.84375 0.332031 0.875 0.316406 0.902344 C 0.308594 0.914062 0.308594 0.925781 0.316406 0.933594 L 0.359375 0.972656 C 0.363281 0.984375 0.363281 0.992188 0.355469 1 Z M 0.355469 1 " fill-opacity="1" fill-rule="nonzero"/></g><g clip-path="url(#7071773ac6)"><path fill="#000000" d="M 0.0742188 0.574219 C -0.0429688 0.574219 -0.101562 0.632812 -0.101562 0.75 C -0.101562 0.867188 -0.0429688 0.925781 0.0742188 0.925781 C 0.191406 0.925781 0.25 0.867188 0.25 0.75 C 0.25 0.632812 0.191406 0.574219 0.0742188 0.574219 Z M 0.0742188 0.878906 C -0.0117188 0.878906 -0.0546875 0.835938 -0.0546875 0.75 C -0.0546875 0.664062 -0.0117188 0.621094 0.0742188 0.621094 C 0.160156 0.621094 0.203125 0.664062 0.203125 0.75 C 0.203125 0.835938 0.160156 0.878906 0.0742188 0.878906 Z M 0.0742188 0.878906 " fill-opacity="1" fill-rule="nonzero"/><path fill="#000000" d="M -0.0078125 0.167969 L 0.0507812 0.203125 L 0.0507812 0.28125 L 0.0976562 0.28125 L 0.0976562 0.203125 L 0.15625 0.167969 C 0.164062 0.164062 0.167969 0.15625 0.167969 0.148438 L 0.167969 0.0664062 C 0.167969 0.0546875 0.164062 0.0507812 0.15625 0.046875 L 0.0859375 0.00390625 C 0.078125 0 0.0703125 0 0.0625 0.00390625 L -0.0078125 0.046875 C -0.015625 0.0507812 -0.0195312 0.0546875 -0.0195312 0.0664062 L -0.0195312 0.148438 C -0.0195312 0.15625 -0.015625 0.164062 -0.0078125 0.167969 Z M 0.0273438 0.078125 L 0.0742188 0.0507812 L 0.121094 0.078125 L 0.121094 0.132812 L 0.0742188 0.160156 L 0.0273438 0.132812 Z M 0.0273438 0.078125 " fill-opacity="1" fill-rule="nonzero"/></g><g clip-path="url(#5d207d257e)"><path fill="#000000" d="M 0.15625 1.332031 L 0.0976562 1.296875 L 0.0976562 1.21875 L 0.0507812 1.21875 L 0.0507812 1.296875 L -0.0078125 1.332031 C -0.015625 1.335938 -0.0195312 1.34375 -0.0195312 1.351562 L -0.0195312 1.433594 C -0.0195312 1.445312 -0.015625 1.449219 -0.0078125 1.453125 L 0.0625 1.496094 C 0.0703125 1.5 0.078125 1.5 0.0859375 1.496094 L 0.15625 1.453125 C 0.164062 1.449219 0.167969 1.445312 0.167969 1.433594 L 0.167969 1.351562 C 0.167969 1.34375 0.164062 1.335938 0.15625 1.332031 Z M 0.121094 1.421875 L 0.0742188 1.449219 L 0.0273438 1.421875 L 0.0273438 1.367188 L 0.0742188 1.339844 L 0.121094 1.367188 Z M 0.121094 1.421875 " fill-opacity="1" fill-rule="nonzero"/></g><g clip-path="url(#e236e8d4a7)"><path fill="#000000" d="M 0.8125 0.6875 L 0.742188 0.648438 C 0.734375 0.644531 0.726562 0.644531 0.71875 0.648438 L 0.648438 0.6875 C 0.640625 0.691406 0.636719 0.699219 0.636719 0.710938 L 0.636719 0.726562 L 0.542969 0.726562 L 0.542969 0.773438 L 0.636719 0.773438 L 0.636719 0.789062 C 0.636719 0.800781 0.640625 0.808594 0.648438 0.8125 L 0.71875 0.851562 C 0.726562 0.855469 0.734375 0.855469 0.742188 0.851562 L 0.8125 0.8125 C 0.820312 0.808594 0.824219 0.800781 0.824219 0.789062 L 0.824219 0.710938 C 0.824219 0.699219 0.820312 0.691406 0.8125 0.6875 Z M 0.777344 0.777344 L 0.730469 0.804688 L 0.683594 0.777344 L 0.683594 0.722656 L 0.730469 0.695312 L 0.777344 0.722656 Z M 0.777344 0.777344 " fill-opacity="1" fill-rule="nonzero"/></g><g clip-path="url(#110993bb5a)"><path fill="#000000" d="M 0.566406 1.109375 C 0.558594 1.105469 0.554688 1.101562 0.542969 1.105469 L 0.476562 1.121094 L 0.421875 1.0625 C 0.421875 1.066406 0.421875 1.066406 0.421875 1.066406 L 0.390625 1.097656 L 0.445312 1.152344 L 0.429688 1.21875 C 0.425781 1.226562 0.429688 1.234375 0.433594 1.242188 L 0.492188 1.300781 C 0.5 1.304688 0.507812 1.308594 0.515625 1.304688 L 0.59375 1.285156 C 0.601562 1.285156 0.609375 1.277344 0.609375 1.269531 L 0.628906 1.191406 C 0.632812 1.183594 0.628906 1.175781 0.625 1.167969 Z M 0.566406 1.242188 L 0.515625 1.257812 L 0.476562 1.21875 L 0.492188 1.167969 L 0.542969 1.152344 L 0.582031 1.191406 Z M 0.566406 1.242188 " fill-opacity="1" fill-rule="nonzero"/></g></svg>