<svg xmlns="http://www.w3.org/2000/svg" xmlns:xlink="http://www.w3.org/1999/xlink" width="1080" zoomAndPan="magnify" viewBox="0 0 810 530.249967" height="707" preserveAspectRatio="xMidYMid meet" version="1.0"><defs><clipPath id="9066e3c25e"><path d="M 0.578125 0.25 L 809.421875 0.25 L 809.421875 529.492188 L 0.578125 529.492188 Z M 0.578125 0.25 " clip-rule="nonzero"/></clipPath></defs><g clip-path="url(#9066e3c25e)"><path stroke-linecap="butt" transform="matrix(0.748941, 0, 0, 0.748941, 0.57801, 0.249627)" fill="none" stroke-linejoin="miter" d="M 0.00015329 0.000498189 L 1079.984 0.000498189 L 1079.984 706.654921 L 0.00015329 706.654921 Z M 0.00015329 0.000498189 " stroke="#444444" stroke-width="10" stroke-opacity="1" stroke-miterlimit="4"/></g><path fill="#444444" d="M 254.878906 299.007812 L 254.878906 234.476562 L 263.226562 234.476562 L 302.714844 286.464844 L 302.714844 234.476562 L 310.617188 234.476562 L 310.617188 299.007812 L 302.265625 299.007812 L 262.777344 246.5625 L 262.777344 299.007812 Z M 374.703125 296.484375 C 369.5 298.472656 363.886719 299.464844 357.867188 299.464844 C 334.488281 299.464844 322.800781 288.261719 322.796875 265.847656 C 322.796875 244.628906 334.082031 234.019531 356.652344 234.019531 C 363.121094 234.023438 369.136719 234.925781 374.703125 236.734375 L 374.703125 243.953125 C 369.179688 241.847656 363.460938 240.796875 357.550781 240.789062 C 339.957031 240.792969 331.15625 249.144531 331.152344 265.835938 C 331.152344 283.742188 339.816406 292.695312 357.148438 292.695312 C 359.917969 292.695312 362.988281 292.332031 366.359375 291.609375 L 366.359375 269.675781 L 374.707031 269.675781 Z M 388.015625 274.101562 L 388.015625 234.472656 L 396.359375 234.472656 L 396.359375 274.097656 C 396.359375 286.492188 402.53125 292.691406 414.867188 292.695312 C 433.378906 292.699219 433.378906 286.492188 433.378906 274.097656 L 433.378906 234.472656 L 441.722656 234.472656 L 441.722656 274.097656 C 441.722656 291.011719 432.769531 299.464844 414.867188 299.464844 C 388.015625 299.464844 388.015625 291.011719 388.015625 274.101562 M 464.960938 234.472656 L 464.960938 292.242188 L 498.71875 292.242188 L 498.71875 299.007812 L 456.617188 299.007812 L 456.617188 234.472656 Z M 510.773438 299.007812 L 502.105469 299.007812 L 534.199219 225.957031 L 566.289062 299.007812 L 557.027344 299.007812 L 548.675781 278.699219 L 527.335938 278.699219 L 529.640625 271.929688 L 545.882812 271.929688 L 533.835938 242.683594 Z M 575.082031 299.007812 L 575.082031 234.476562 L 602.613281 234.476562 C 614.886719 234.476562 621.023438 239.636719 621.019531 249.953125 C 621.019531 258.351562 615.019531 264.5625 603.019531 268.589844 L 625.179688 299.007812 L 614.164062 299.007812 L 593.636719 269.992188 L 593.636719 264.527344 C 605.972656 262.566406 612.136719 257.828125 612.136719 250.3125 C 612.136719 244.355469 608.707031 241.378906 601.847656 241.378906 L 583.433594 241.378906 L 583.433594 299.007812 Z M 656.460938 234.472656 L 656.460938 280.421875 C 656.460938 292.816406 649.164062 299.011719 634.570312 299.011719 L 634.570312 292.246094 C 643.597656 292.242188 648.113281 288.300781 648.113281 280.421875 L 648.113281 234.472656 Z M 671.351562 296.753906 L 671.351562 289.078125 C 678.121094 291.488281 685.433594 292.691406 693.285156 292.695312 C 704.386719 292.695312 709.9375 288.632812 709.941406 280.503906 C 709.941406 273.585938 705.847656 270.128906 697.664062 270.128906 L 689.355469 270.128906 C 675.847656 270.128906 669.089844 264.261719 669.089844 252.527344 C 669.089844 240.1875 677.742188 234.019531 695.046875 234.019531 C 702.570312 234.023438 709.566406 234.925781 716.035156 236.726562 L 716.035156 244.40625 C 709.5625 241.996094 702.566406 240.789062 695.046875 240.785156 C 683.316406 240.785156 677.449219 244.699219 677.445312 252.523438 C 677.445312 259.441406 681.417969 262.898438 689.363281 262.898438 L 697.667969 262.898438 C 711.417969 262.898438 718.292969 268.765625 718.296875 280.5 C 718.296875 293.140625 709.960938 299.460938 693.289062 299.460938 C 685.433594 299.460938 678.121094 298.558594 671.351562 296.753906 M 166.902344 264.871094 L 182.765625 264.871094 L 167.023438 231.957031 L 153.152344 264.871094 Z M 167.074219 184.769531 L 91.699219 211.292969 L 103.609375 310.046875 L 167.160156 344.972656 L 231.027344 309.578125 L 242.9375 210.832031 Z M 147.019531 279.808594 L 137.671875 302.460938 L 120.292969 302.054688 L 166.894531 198.382812 L 215.644531 302.460938 L 199.011719 302.238281 L 188.78125 278.726562 L 166.9375 279.070312 " fill-opacity="1" fill-rule="nonzero"/></svg>