<svg xmlns="http://www.w3.org/2000/svg" xmlns:xlink="http://www.w3.org/1999/xlink" width="1080" zoomAndPan="magnify" viewBox="0 0 810 530.249967" height="707" preserveAspectRatio="xMidYMid meet" version="1.0"><defs><clipPath id="0d9e068bc4"><path d="M 0.578125 0 L 809.421875 0 L 809.421875 529.242188 L 0.578125 529.242188 Z M 0.578125 0 " clip-rule="nonzero"/></clipPath></defs><path fill="#444444" d="M 301.796875 262.488281 C 301.796875 268.308594 302.425781 273.027344 303.527344 276.488281 C 304.785156 279.949219 306.359375 283.726562 308.5625 287.816406 C 309.347656 289.074219 309.664062 290.332031 309.664062 291.433594 C 309.664062 293.007812 308.71875 294.578125 306.675781 296.152344 L 296.765625 302.757812 C 295.347656 303.703125 293.933594 304.175781 292.675781 304.175781 C 291.101562 304.175781 289.527344 303.390625 287.953125 301.972656 C 285.753906 299.613281 283.863281 297.097656 282.292969 294.578125 C 280.71875 291.90625 279.144531 288.917969 277.414062 285.300781 C 265.144531 299.769531 249.730469 307.007812 231.167969 307.007812 C 217.953125 307.007812 207.414062 303.230469 199.707031 295.679688 C 192 288.128906 188.066406 278.0625 188.066406 265.476562 C 188.066406 252.109375 192.785156 241.253906 202.382812 233.074219 C 211.976562 224.894531 224.71875 220.804688 240.921875 220.804688 C 246.269531 220.804688 251.773438 221.277344 257.59375 222.0625 C 263.414062 222.847656 269.394531 224.105469 275.683594 225.523438 L 275.683594 214.039062 C 275.683594 202.085938 273.167969 193.746094 268.292969 188.871094 C 263.257812 183.996094 254.761719 181.636719 242.652344 181.636719 C 237.144531 181.636719 231.484375 182.265625 225.664062 183.679688 C 219.84375 185.09375 214.179688 186.824219 208.671875 189.027344 C 206.15625 190.128906 204.269531 190.757812 203.167969 191.074219 C 202.066406 191.386719 201.28125 191.546875 200.652344 191.546875 C 198.449219 191.546875 197.347656 189.972656 197.347656 186.667969 L 197.347656 178.960938 C 197.347656 176.445312 197.660156 174.554688 198.449219 173.453125 C 199.234375 172.355469 200.652344 171.253906 202.851562 170.152344 C 208.359375 167.320312 214.964844 164.960938 222.671875 163.074219 C 230.382812 161.027344 238.5625 160.085938 247.214844 160.085938 C 265.933594 160.085938 279.617188 164.332031 288.425781 172.824219 C 297.078125 181.320312 301.484375 194.21875 301.484375 211.523438 L 301.484375 262.488281 Z M 237.933594 286.398438 C 243.125 286.398438 248.472656 285.457031 254.132812 283.570312 C 259.796875 281.679688 264.832031 278.21875 269.078125 273.5 C 271.59375 270.511719 273.484375 267.207031 274.425781 263.433594 C 275.371094 259.65625 276 255.097656 276 249.746094 L 276 243.140625 C 271.4375 242.039062 266.5625 241.097656 261.527344 240.46875 C 256.492188 239.835938 251.617188 239.523438 246.742188 239.523438 C 236.203125 239.523438 228.492188 241.566406 223.300781 245.816406 C 218.113281 250.0625 215.59375 256.039062 215.59375 263.90625 C 215.59375 271.296875 217.480469 276.804688 221.414062 280.578125 C 225.191406 284.511719 230.695312 286.398438 237.933594 286.398438 Z M 364.246094 303.390625 C 361.417969 303.390625 359.527344 302.917969 358.269531 301.816406 C 357.011719 300.871094 355.910156 298.667969 354.96875 295.679688 L 318 174.085938 C 317.054688 170.9375 316.585938 168.894531 316.585938 167.792969 C 316.585938 165.273438 317.84375 163.859375 320.359375 163.859375 L 335.777344 163.859375 C 338.765625 163.859375 340.808594 164.332031 341.910156 165.433594 C 343.167969 166.375 344.113281 168.578125 345.058594 171.566406 L 371.484375 275.703125 L 396.023438 171.566406 C 396.808594 168.421875 397.753906 166.375 399.011719 165.433594 C 400.269531 164.488281 402.472656 163.859375 405.304688 163.859375 L 417.890625 163.859375 C 420.878906 163.859375 422.921875 164.332031 424.179688 165.433594 C 425.441406 166.375 426.539062 168.578125 427.167969 171.566406 L 452.023438 276.960938 L 479.238281 171.566406 C 480.179688 168.421875 481.28125 166.375 482.382812 165.433594 C 483.640625 164.488281 485.6875 163.859375 488.519531 163.859375 L 503.148438 163.859375 C 505.664062 163.859375 507.082031 165.117188 507.082031 167.792969 C 507.082031 168.578125 506.921875 169.363281 506.765625 170.308594 C 506.609375 171.253906 506.292969 172.511719 505.664062 174.242188 L 467.753906 295.839844 C 466.8125 298.984375 465.710938 301.03125 464.449219 301.972656 C 463.191406 302.917969 461.148438 303.546875 458.472656 303.546875 L 444.945312 303.546875 C 441.957031 303.546875 439.910156 303.074219 438.652344 301.972656 C 437.394531 300.871094 436.292969 298.828125 435.664062 295.679688 L 411.28125 194.21875 L 387.058594 295.523438 C 386.269531 298.667969 385.328125 300.714844 384.066406 301.816406 C 382.808594 302.917969 380.609375 303.390625 377.777344 303.390625 Z M 566.382812 307.636719 C 558.203125 307.636719 550.023438 306.691406 542.160156 304.804688 C 534.292969 302.917969 528.160156 300.871094 524.070312 298.511719 C 521.554688 297.097656 519.824219 295.523438 519.191406 294.109375 C 518.5625 292.691406 518.25 291.117188 518.25 289.703125 L 518.25 281.679688 C 518.25 278.378906 519.507812 276.804688 521.867188 276.804688 C 522.8125 276.804688 523.753906 276.960938 524.699219 277.277344 C 525.644531 277.589844 527.058594 278.21875 528.632812 278.847656 C 533.980469 281.207031 539.800781 283.097656 545.933594 284.355469 C 552.226562 285.613281 558.363281 286.242188 564.65625 286.242188 C 574.566406 286.242188 582.273438 284.511719 587.621094 281.050781 C 592.96875 277.589844 595.800781 272.558594 595.800781 266.109375 C 595.800781 261.703125 594.386719 258.085938 591.554688 255.097656 C 588.722656 252.109375 583.375 249.433594 575.664062 246.917969 L 552.855469 239.835938 C 541.375 236.21875 532.878906 230.871094 527.6875 223.792969 C 522.496094 216.871094 519.824219 209.164062 519.824219 200.984375 C 519.824219 194.375 521.238281 188.554688 524.070312 183.523438 C 526.902344 178.488281 530.675781 174.085938 535.394531 170.625 C 540.113281 167.003906 545.464844 164.332031 551.753906 162.445312 C 558.046875 160.554688 564.65625 159.769531 571.574219 159.769531 C 575.035156 159.769531 578.65625 159.925781 582.113281 160.398438 C 585.734375 160.871094 589.035156 161.5 592.339844 162.128906 C 595.484375 162.914062 598.476562 163.703125 601.304688 164.644531 C 604.136719 165.589844 606.339844 166.535156 607.914062 167.476562 C 610.117188 168.734375 611.6875 169.996094 612.632812 171.410156 C 613.578125 172.667969 614.046875 174.398438 614.046875 176.601562 L 614.046875 183.996094 C 614.046875 187.296875 612.789062 189.027344 610.429688 189.027344 C 609.171875 189.027344 607.125 188.398438 604.453125 187.140625 C 595.484375 183.050781 585.417969 181.003906 574.25 181.003906 C 565.285156 181.003906 558.203125 182.421875 553.328125 185.410156 C 548.453125 188.398438 545.933594 192.960938 545.933594 199.410156 C 545.933594 203.816406 547.507812 207.589844 550.652344 210.578125 C 553.800781 213.566406 559.621094 216.554688 567.957031 219.230469 L 590.296875 226.308594 C 601.621094 229.925781 609.800781 234.960938 614.675781 241.410156 C 619.554688 247.859375 621.914062 255.253906 621.914062 263.433594 C 621.914062 270.199219 620.496094 276.332031 617.824219 281.679688 C 614.992188 287.027344 611.214844 291.75 606.339844 295.523438 C 601.464844 299.457031 595.644531 302.289062 588.878906 304.332031 C 581.800781 306.535156 574.40625 307.636719 566.386719 307.636719 Z M 566.382812 307.636719 " fill-opacity="1" fill-rule="nonzero"/><path fill="#444444" d="M 596.117188 384.085938 C 544.363281 422.3125 469.171875 442.605469 404.519531 442.605469 C 313.910156 442.605469 232.269531 409.097656 170.605469 353.410156 C 165.730469 349.007812 170.132812 343.03125 175.953125 346.492188 C 242.652344 385.1875 324.921875 408.625 410.023438 408.625 C 467.441406 408.625 530.519531 396.671875 588.566406 372.132812 C 597.214844 368.199219 604.609375 377.792969 596.117188 384.085938 Z M 596.117188 384.085938 " fill-opacity="1" fill-rule="evenodd"/><path fill="#444444" d="M 617.667969 359.546875 C 611.058594 351.050781 573.933594 355.457031 557.105469 357.5 C 552.070312 358.132812 551.285156 353.726562 555.84375 350.421875 C 585.417969 329.660156 634.027344 335.636719 639.6875 342.558594 C 645.351562 349.636719 638.117188 398.242188 610.429688 421.523438 C 606.183594 425.144531 602.09375 423.253906 603.980469 418.535156 C 610.273438 402.964844 624.273438 367.882812 617.667969 359.546875 Z M 617.667969 359.546875 " fill-opacity="1" fill-rule="evenodd"/><g clip-path="url(#0d9e068bc4)"><path stroke-linecap="butt" transform="matrix(0.748941, 0, 0, 0.748941, 0.57801, -0.0000199718)" fill="none" stroke-linejoin="miter" d="M 0.00015329 0.0000266667 L 1079.984 0.0000266667 L 1079.984 706.654449 L 0.00015329 706.654449 Z M 0.00015329 0.0000266667 " stroke="#444444" stroke-width="10" stroke-opacity="1" stroke-miterlimit="4"/></g></svg>