<svg xmlns="http://www.w3.org/2000/svg" xmlns:xlink="http://www.w3.org/1999/xlink" width="1080" zoomAndPan="magnify" viewBox="0 0 810 530.249967" height="707" preserveAspectRatio="xMidYMid meet" version="1.0"><defs><clipPath id="fd49ccff87"><path d="M 0.578125 0.25 L 809.421875 0.25 L 809.421875 529.492188 L 0.578125 529.492188 Z M 0.578125 0.25 " clip-rule="nonzero"/></clipPath><clipPath id="15e1db1d02"><path d="M 151.019531 99 L 658.800781 99 L 658.800781 431 L 151.019531 431 Z M 151.019531 99 " clip-rule="nonzero"/></clipPath></defs><g clip-path="url(#fd49ccff87)"><path stroke-linecap="butt" transform="matrix(0.748941, 0, 0, 0.748941, 0.57801, 0.249627)" fill="none" stroke-linejoin="miter" d="M 0.00015329 0.000498189 L 1079.984 0.000498189 L 1079.984 706.654921 L 0.00015329 706.654921 Z M 0.00015329 0.000498189 " stroke="#444444" stroke-width="10" stroke-opacity="1" stroke-miterlimit="4"/></g><g clip-path="url(#15e1db1d02)"><path fill="#444444" d="M 521.539062 99.386719 C 521.539062 99.386719 489.492188 136.246094 481.476562 131.96875 L 496.953125 100.589844 C 496.953125 100.589844 481.484375 131.96875 460.65625 126.632812 C 470.261719 114.34375 473.964844 103.078125 473.964844 103.078125 C 473.964844 103.078125 457.980469 128.765625 438.21875 121.816406 C 433.574219 120.191406 443.992188 108.382812 443.992188 108.382812 C 443.992188 108.382812 430.734375 121.289062 421.65625 119.6875 C 412.578125 118.089844 422.191406 101.527344 422.191406 101.527344 C 422.191406 101.527344 406.171875 126.636719 402.960938 125.5625 C 399.761719 124.496094 404.566406 107.9375 404.566406 107.9375 C 404.566406 107.9375 392.820312 127.164062 386.410156 126.09375 C 380.003906 125.027344 386.410156 106.339844 386.410156 106.339844 C 386.410156 106.339844 379.472656 127.167969 374.128906 125.5625 C 368.785156 123.960938 367.714844 111.679688 367.714844 111.679688 C 367.714844 111.679688 366.273438 128.351562 358.632812 129.832031 C 300.949219 141.054688 237.386719 165.621094 157.808594 245.203125 C 206.148438 219.148438 235.824219 185.179688 288.152344 162.769531 C 286.535156 169.347656 285.71875 176.027344 285.703125 182.800781 C 285.703125 234.429688 332.320312 276.285156 389.828125 276.285156 C 447.335938 276.285156 493.960938 234.433594 493.960938 182.800781 C 493.960938 170.394531 491.230469 158.570312 486.332031 147.734375 C 537.984375 160.9375 565.640625 184.894531 577.09375 185.382812 C 627.304688 187.527344 658.820312 138.910156 658.820312 138.910156 C 658.820312 138.910156 627.308594 175.226562 604.335938 166.414062 C 624.90625 154.402344 640.660156 125.023438 640.660156 125.023438 C 640.660156 125.023438 600.589844 166.421875 572.824219 160.277344 C 597.921875 140.515625 610.207031 106.339844 610.207031 106.339844 C 610.207031 106.339844 578.332031 155.53125 558.398438 157.605469 C 581.367188 137.308594 590.984375 108.464844 590.984375 108.464844 C 590.984375 108.464844 564.804688 146.929688 544.511719 149.605469 C 571.753906 125.03125 572.824219 109.539062 572.824219 109.539062 C 572.824219 109.539062 535.125 158.257812 519.949219 150.667969 C 538.097656 130.90625 550.386719 105.796875 550.386719 105.796875 C 550.386719 105.796875 518.875 148.523438 510.328125 141.582031 C 504.453125 140.511719 519.949219 121.28125 519.949219 121.28125 C 519.949219 121.28125 500.722656 138.378906 495.375 134.097656 C 504.988281 128.234375 521.542969 99.386719 521.542969 99.386719 Z M 417.507812 139.242188 C 426.398438 139.273438 434.851562 139.6875 442.902344 140.394531 C 449.148438 142.535156 455.0625 145.320312 460.011719 148.992188 C 458.773438 154.765625 456.863281 160.308594 454.277344 165.621094 C 453.65625 165.464844 453.023438 165.386719 452.378906 165.382812 C 451.828125 165.382812 451.285156 165.4375 450.746094 165.542969 C 450.207031 165.652344 449.6875 165.808594 449.179688 166.019531 C 448.671875 166.230469 448.191406 166.488281 447.734375 166.792969 C 447.277344 167.097656 446.855469 167.445312 446.46875 167.832031 C 446.078125 168.222656 445.734375 168.644531 445.429688 169.101562 C 445.125 169.558594 444.867188 170.039062 444.65625 170.546875 C 444.449219 171.054688 444.289062 171.578125 444.183594 172.117188 C 444.078125 172.65625 444.023438 173.199219 444.023438 173.746094 C 444.023438 175.75 444.753906 177.5625 445.929688 179.003906 C 445.6875 179.308594 445.441406 179.613281 445.195312 179.910156 L 425.074219 187.117188 L 424.996094 186.957031 L 440.96875 164.816406 L 419.035156 179.390625 C 418.957031 179.3125 418.875 179.234375 418.789062 179.15625 L 426.453125 153.425781 L 411.449219 174.570312 L 411.105469 174.421875 L 410.773438 147.726562 L 400.683594 172.058594 L 392.273438 147.441406 L 392.675781 173.472656 C 392.21875 173.617188 391.765625 173.769531 391.320312 173.933594 L 378.1875 150.449219 L 385.667969 176.683594 C 385.402344 176.855469 385.128906 177.011719 384.871094 177.1875 L 366.632812 163.925781 C 367.222656 162.734375 367.539062 161.476562 367.578125 160.148438 C 367.621094 158.820312 367.382812 157.546875 366.867188 156.324219 C 382.152344 143.984375 402.757812 137.882812 422.695312 140.636719 C 420.984375 140.105469 419.253906 139.640625 417.507812 139.242188 M 381.886719 140.828125 C 374.582031 143.191406 367.878906 146.695312 361.769531 151.347656 C 360.941406 151.015625 360.085938 150.8125 359.195312 150.734375 C 358.308594 150.652344 357.429688 150.703125 356.554688 150.878906 C 355.679688 151.054688 354.851562 151.351562 354.0625 151.769531 C 353.277344 152.1875 352.5625 152.707031 351.925781 153.328125 C 351.289062 153.953125 350.757812 154.65625 350.324219 155.433594 C 349.890625 156.214844 349.578125 157.039062 349.382812 157.90625 C 349.191406 158.777344 349.125 159.65625 349.1875 160.546875 C 349.25 161.4375 349.433594 162.296875 349.746094 163.132812 C 346.34375 167.449219 343.511719 172.113281 341.25 177.121094 C 338.214844 172.972656 335.640625 168.554688 333.527344 163.871094 C 331.414062 159.183594 329.808594 154.332031 328.710938 149.308594 C 344.371094 145.460938 361.90625 142.542969 381.886719 140.828125 M 327.179688 149.675781 C 327.515625 155.761719 328.660156 161.691406 330.613281 167.460938 C 332.570312 173.234375 335.261719 178.640625 338.695312 183.675781 C 337.992188 185.808594 337.394531 187.972656 336.90625 190.164062 C 335.207031 197.738281 334.832031 205.375 335.78125 213.074219 C 334.757812 213.570312 333.824219 214.195312 332.976562 214.953125 C 332.128906 215.710938 331.402344 216.574219 330.796875 217.535156 C 330.191406 218.5 329.734375 219.527344 329.417969 220.621094 C 329.101562 221.710938 328.945312 222.828125 328.945312 223.964844 C 328.945312 224.757812 329.023438 225.546875 329.175781 226.324219 C 329.332031 227.105469 329.5625 227.863281 329.863281 228.597656 C 330.167969 229.332031 330.542969 230.03125 330.984375 230.691406 C 331.425781 231.351562 331.925781 231.964844 332.488281 232.523438 C 333.050781 233.085938 333.660156 233.589844 334.324219 234.03125 C 334.984375 234.472656 335.679688 234.847656 336.414062 235.148438 C 337.148438 235.453125 337.90625 235.683594 338.6875 235.839844 C 339.464844 235.996094 340.253906 236.070312 341.046875 236.070312 C 341.683594 236.070312 342.300781 236.019531 342.90625 235.917969 C 346.128906 242.113281 350.21875 247.671875 355.167969 252.597656 L 355.105469 252.875 C 325.699219 239.679688 305.207031 210.164062 305.207031 175.847656 C 305.207031 166.320312 308.777344 158.957031 314.394531 153.226562 C 318.625 151.9375 322.886719 150.753906 327.175781 149.675781 Z M 461.445312 150.09375 C 468.996094 156.191406 474.011719 164.496094 474.011719 175.847656 C 474.011719 190.753906 470.128906 204.75 463.351562 216.894531 C 458.679688 213.046875 453.585938 209.878906 448.0625 207.398438 C 442.542969 204.917969 436.789062 203.207031 430.808594 202.273438 C 431.464844 201.847656 432.089844 201.398438 432.726562 200.957031 L 453.382812 196.023438 L 439.757812 195.328125 C 444.089844 191.363281 447.839844 186.90625 451.003906 181.960938 C 451.453125 182.042969 451.910156 182.105469 452.375 182.105469 C 452.921875 182.105469 453.464844 182.050781 454.003906 181.945312 C 454.542969 181.835938 455.066406 181.675781 455.574219 181.46875 C 456.078125 181.257812 456.5625 181 457.015625 180.695312 C 457.472656 180.390625 457.894531 180.042969 458.285156 179.65625 C 458.671875 179.269531 459.019531 178.847656 459.324219 178.390625 C 459.628906 177.933594 459.886719 177.453125 460.097656 176.945312 C 460.308594 176.4375 460.46875 175.917969 460.578125 175.378906 C 460.683594 174.839844 460.738281 174.296875 460.738281 173.746094 C 460.738281 171.289062 459.65625 169.085938 457.957031 167.566406 C 459.855469 162.023438 461.046875 156.167969 461.445312 150.09375 M 365.890625 165.207031 L 379.382812 182.15625 C 379.097656 182.507812 378.816406 182.867188 378.542969 183.226562 L 351.839844 173.40625 C 352.859375 171.726562 353.925781 170.082031 355.09375 168.507812 C 355.566406 168.691406 356.050781 168.832031 356.550781 168.933594 C 357.046875 169.03125 357.550781 169.09375 358.058594 169.109375 C 358.566406 169.125 359.070312 169.101562 359.574219 169.035156 C 360.078125 168.96875 360.570312 168.863281 361.058594 168.714844 C 361.542969 168.566406 362.011719 168.378906 362.464844 168.152344 C 362.921875 167.925781 363.351562 167.660156 363.765625 167.363281 C 364.175781 167.066406 364.558594 166.734375 364.914062 166.375 C 365.269531 166.011719 365.59375 165.625 365.886719 165.207031 Z M 351.8125 173.453125 L 374.605469 190.3125 L 374.558594 190.441406 L 354.578125 191.054688 C 351.785156 188.832031 349.175781 186.414062 346.746094 183.800781 C 348.113281 180.195312 349.800781 176.746094 351.8125 173.453125 M 441.664062 183.976562 C 437.835938 188.078125 433.585938 191.675781 428.914062 194.773438 L 427.765625 194.714844 L 427.742188 194.613281 Z M 572.792969 189.226562 C 567.417969 188.867188 562.679688 190.863281 560.257812 197.460938 C 535.417969 244.722656 483.34375 271.160156 422.449219 279.972656 C 361.566406 288.785156 316.695312 275.980469 279.84375 265.597656 C 231.378906 251.933594 192.917969 276.242188 150.855469 255.148438 C 160.585938 262.847656 171.683594 270.367188 203.730469 270.464844 C 214.597656 270.5 249.398438 268.769531 255.808594 274.371094 C 262.214844 279.980469 234.179688 306.410156 234.179688 306.410156 C 234.179688 306.410156 281.625 266.296875 286.253906 279.972656 C 289.136719 288.484375 272.632812 311.226562 272.632812 311.226562 C 272.632812 311.226562 289.179688 288.773438 301.476562 283.980469 C 309.917969 280.6875 317.03125 281.089844 323.105469 289.59375 C 327.113281 295.199219 303.882812 322.441406 303.882812 322.441406 C 303.882812 322.441406 335.125 291.996094 340.734375 293.597656 C 346.347656 295.203125 340.734375 322.441406 340.734375 322.441406 C 340.734375 322.441406 352.230469 294.832031 358.359375 292.796875 C 366.773438 289.992188 339.128906 356.890625 339.128906 356.890625 C 339.128906 356.890625 372.894531 294.996094 379.195312 293.601562 C 390.011719 291.199219 397.226562 336.871094 397.226562 336.871094 C 397.226562 336.871094 391.960938 296.96875 397.628906 294.398438 C 433.496094 278.167969 412.84375 363.308594 412.84375 363.308594 C 412.84375 363.308594 436.308594 305.53125 421.894531 292.722656 C 459.945312 317.953125 455.308594 363.308594 455.308594 363.308594 C 455.308594 363.308594 465.3125 341.710938 437.25 288.609375 C 452.476562 287.816406 475.332031 328.054688 475.332031 328.054688 C 475.332031 328.054688 450.496094 283.984375 467.324219 283.183594 C 500.753906 281.597656 504.179688 341.675781 504.179688 341.675781 C 504.179688 341.675781 514.195312 333.261719 487.351562 274.371094 C 504.445312 263.425781 545.839844 328.855469 545.839844 328.855469 C 545.839844 328.855469 507.644531 265.03125 513.789062 260.753906 C 519.925781 256.480469 542.375 281.054688 542.375 281.054688 C 542.375 281.054688 525.277344 257.554688 529.808594 255.152344 C 534.351562 252.742188 579.757812 301.878906 579.757812 301.878906 C 579.757812 301.878906 539.695312 253.808594 546.636719 247.929688 C 550.746094 244.453125 562.65625 250.882812 571.746094 256.71875 C 559.003906 247.613281 540.699219 233.359375 546.636719 230.273438 C 558.921875 223.898438 593.914062 245.527344 593.914062 245.527344 C 593.914062 245.527344 572.816406 228.171875 576.285156 223.898438 C 579.761719 219.621094 621.148438 251.140625 621.148438 251.140625 C 621.148438 251.140625 584.566406 222.289062 582.691406 215.082031 C 580.820312 207.875 611.542969 217.488281 611.542969 217.488281 C 611.542969 217.488281 577.621094 201.734375 577.089844 197.191406 C 576.550781 192.648438 599.523438 202.265625 599.523438 202.265625 C 599.523438 202.265625 584.621094 190.023438 572.796875 189.230469 Z M 571.742188 256.71875 C 575.4375 259.367188 579.175781 261.953125 582.953125 264.484375 C 582.953125 264.484375 578.003906 260.742188 571.742188 256.71875 M 344.535156 191.054688 C 348.695312 195.617188 353.390625 199.53125 358.625 202.804688 L 345.125 205.730469 L 367.148438 207.316406 C 368.933594 208.101562 370.761719 208.808594 372.625 209.441406 L 352.996094 222.015625 C 352.898438 221.40625 352.753906 220.808594 352.5625 220.21875 C 352.371094 219.632812 352.136719 219.0625 351.855469 218.511719 C 351.578125 217.960938 351.257812 217.433594 350.902344 216.929688 C 350.542969 216.425781 350.144531 215.953125 349.714844 215.511719 C 349.285156 215.070312 348.820312 214.664062 348.328125 214.292969 C 347.832031 213.921875 347.3125 213.589844 346.769531 213.296875 C 346.226562 213.003906 345.660156 212.757812 345.078125 212.550781 C 344.496094 212.34375 343.902344 212.183594 343.292969 212.070312 C 342.5 205.265625 342.851562 198.515625 344.34375 191.828125 C 344.402344 191.574219 344.476562 191.320312 344.535156 191.058594 Z M 360.542969 195.320312 L 372.882812 198.511719 C 372.851562 198.917969 372.828125 199.328125 372.820312 199.738281 L 369.996094 200.347656 C 366.707031 198.929688 363.558594 197.253906 360.542969 195.320312 M 427.335938 209.925781 L 434.257812 210.464844 C 443.726562 212.496094 452.433594 216.28125 460.378906 221.816406 C 445.328125 244.941406 419.265625 260.253906 389.613281 260.253906 C 382.246094 260.253906 375.089844 259.304688 368.285156 257.53125 C 366.019531 255.613281 363.875 253.570312 361.855469 251.398438 C 365.578125 241.816406 371.296875 233.101562 378.679688 226.074219 L 372.351562 249.738281 L 389.425781 225.523438 L 389.863281 225.703125 L 387.46875 254.246094 L 397.410156 227.671875 L 397.496094 227.6875 L 405.960938 255.613281 L 408.023438 227.46875 L 420.644531 251.480469 L 413.378906 224.734375 L 413.804688 224.496094 L 436.28125 241.902344 L 421.367188 219.089844 L 446.714844 228.964844 Z M 375.804688 214.632812 L 357.765625 237.46875 L 363.761719 232.632812 C 361.089844 236.8125 358.90625 241.230469 357.207031 245.894531 C 354.101562 241.824219 351.457031 237.476562 349.269531 232.847656 C 350.511719 231.707031 351.46875 230.359375 352.148438 228.8125 C 352.828125 227.269531 353.167969 225.652344 353.167969 223.964844 C 353.167969 223.589844 353.101562 223.238281 353.070312 222.871094 Z M 313.230469 372.46875 C 311.277344 372.46875 307.871094 372.855469 305.65625 373.355469 C 305.65625 374.480469 305.488281 375.992188 304.691406 383.027344 C 304.039062 388.699219 300.839844 411.003906 299.601562 417.332031 C 302.945312 417.242188 306.253906 416.59375 307.230469 416.03125 C 307.824219 415.707031 308.140625 415.117188 308.351562 413.929688 C 310.835938 398.730469 316.429688 393.847656 319.238281 393.847656 C 320.65625 393.847656 321.074219 395.480469 320.746094 397.492188 C 319.953125 401.984375 319.238281 405.859375 318.644531 409.761719 C 317.929688 414.464844 317.996094 417.566406 318.523438 417.566406 C 319.621094 417.566406 324.261719 417.328125 326.421875 416.417969 C 326.421875 414.460938 326.863281 410.414062 327.136719 408.40625 C 327.78125 403.96875 328.167969 401.539062 328.753906 398.140625 C 329.84375 391.578125 328.230469 387.195312 323.554688 387.195312 C 318.53125 387.195312 314.210938 390.273438 310.894531 395.800781 C 312.199219 387.257812 313.289062 379.300781 313.878906 375.253906 C 314.144531 373.625 314.144531 372.472656 313.230469 372.472656 Z M 580.269531 372.46875 C 578.582031 372.46875 574.589844 373.027344 572.84375 373.355469 C 572.753906 376.105469 571.335938 385.367188 570.804688 388.382812 C 569.652344 387.644531 567.875 387.195312 565.980469 387.195312 C 554.890625 387.195312 548.292969 396.898438 548.292969 407.484375 C 548.292969 413.871094 550.933594 417.5625 555.160156 417.5625 C 560.042969 417.5625 564.621094 414.964844 567.820312 409.613281 C 567.820312 409.820312 567.671875 411.0625 567.613281 411.917969 C 567.492188 414.582031 567.757812 417.566406 568.199219 417.566406 C 569.292969 417.566406 573.558594 417.390625 575.625 416.472656 C 575.570312 414.519531 575.707031 411.058594 576.101562 407.542969 C 576.539062 403.375 579.410156 384.59375 580.917969 374.746094 C 581.183594 373.175781 581.039062 372.46875 580.269531 372.46875 M 217.855469 386.292969 L 217.855469 386.300781 C 215.765625 386.207031 210.890625 387.625 209.839844 388.292969 C 209.777344 390.066406 209.125 395.09375 208.652344 397.816406 C 207.125 408.773438 205.433594 419.707031 203.574219 430.613281 C 205.402344 430.550781 208.925781 430.222656 210.492188 429.71875 C 211.675781 429.394531 212.117188 428.539062 212.382812 426.765625 C 212.828125 423.898438 213.480469 419.9375 214.15625 415.707031 C 215.636719 417.007812 217.851562 417.566406 220.398438 417.566406 C 230.628906 417.566406 236.691406 407.546875 236.691406 397.164062 C 236.691406 392.347656 234.820312 387.195312 229.265625 387.195312 C 224.117188 387.195312 220.074219 390.648438 217.351562 394.617188 L 217.195312 394.617188 C 217.523438 392.484375 218.320312 387.195312 218.234375 386.335938 C 218.109375 386.316406 217.984375 386.300781 217.855469 386.292969 M 192.574219 387.195312 C 187.929688 387.195312 182.84375 388.234375 178.675781 392.492188 C 173.734375 397.429688 172.488281 404.144531 172.488281 407.984375 C 172.488281 414.464844 174.882812 417.566406 178.726562 417.566406 C 184.023438 417.566406 189.054688 413.988281 191.597656 409.699219 C 191.539062 410.261719 191.390625 411.445312 191.332031 412.355469 C 191.125 414.90625 191.269531 417.566406 191.859375 417.566406 C 192.953125 417.566406 197.007812 417.328125 199.160156 416.417969 C 199.015625 415.027344 199.160156 411.324219 199.496094 408.574219 C 200.207031 402.394531 201.773438 391.488281 202.421875 388.710938 C 199.820312 388.113281 195.621094 387.199219 192.574219 387.199219 Z M 260.632812 387.195312 C 255.988281 387.195312 250.910156 388.234375 246.734375 392.492188 C 241.796875 397.429688 240.550781 404.144531 240.550781 407.984375 C 240.550781 414.464844 242.945312 417.566406 246.789062 417.566406 C 252.085938 417.566406 257.109375 413.988281 259.65625 409.699219 C 259.597656 410.261719 259.445312 411.445312 259.386719 412.355469 C 259.179688 414.90625 259.335938 417.566406 259.925781 417.566406 C 261.015625 417.566406 265.070312 417.328125 267.226562 416.417969 C 267.082031 415.027344 267.226562 411.324219 267.554688 408.574219 C 268.265625 402.394531 269.835938 391.488281 270.484375 388.710938 C 267.882812 388.113281 263.679688 387.199219 260.632812 387.199219 Z M 291.714844 387.195312 C 280.769531 387.195312 274.054688 396.246094 274.054688 406.503906 C 274.054688 414.195312 278.105469 417.566406 283.960938 417.566406 C 289.050781 417.566406 292.566406 415.820312 294.664062 413.71875 C 295.816406 412.566406 296.234375 411.269531 296.234375 410.03125 C 296.234375 408.792969 295.640625 407.75 295.167969 407.394531 C 293.367188 409.109375 290.082031 411.265625 286.890625 411.265625 C 283.902344 411.265625 282.605469 408.964844 282.605469 405.113281 C 282.605469 399.058594 285.53125 392.929688 291.476562 392.929688 C 292.894531 392.929688 294.074219 393.261719 295.316406 393.703125 C 296.351562 393.703125 297.976562 390.71875 297.796875 388.9375 C 296.613281 387.789062 294.253906 387.195312 291.714844 387.195312 M 349.875 387.195312 C 339.761719 387.195312 333.488281 396.78125 333.488281 406.304688 C 333.488281 413.074219 336.398438 417.566406 343.550781 417.566406 C 349.226562 417.566406 353.011719 415.441406 354.90625 413.339844 C 355.613281 412.570312 356.054688 411.261719 356.054688 409.8125 C 356.054688 408.570312 355.726562 407.664062 355.222656 407.28125 C 353.183594 409.054688 349.996094 411.179688 346.210938 411.179688 C 343.105469 411.179688 341.714844 409.371094 341.714844 406.179688 L 341.714844 405.328125 C 347.601562 404.945312 357.890625 402.070312 357.890625 394.027344 C 357.890625 390.175781 355.167969 387.199219 349.875 387.199219 Z M 394.121094 387.195312 C 383.183594 387.195312 376.472656 396.246094 376.472656 406.503906 C 376.472656 414.195312 380.523438 417.566406 386.382812 417.566406 C 391.464844 417.566406 394.984375 415.820312 397.085938 413.71875 C 398.238281 412.566406 398.648438 411.269531 398.648438 410.03125 C 398.648438 408.792969 398.054688 407.75 397.578125 407.394531 C 395.777344 409.109375 392.5 411.265625 389.304688 411.265625 C 386.320312 411.265625 385.019531 408.964844 385.019531 405.113281 C 385.019531 399.058594 387.945312 392.929688 393.890625 392.929688 C 395.308594 392.929688 396.488281 393.261719 397.730469 393.703125 C 398.761719 393.703125 400.386719 390.71875 400.21875 388.9375 C 399.035156 387.789062 396.667969 387.195312 394.125 387.195312 Z M 422.957031 387.195312 C 418.3125 387.195312 413.234375 388.234375 409.058594 392.492188 C 404.121094 397.429688 402.882812 404.144531 402.882812 407.984375 C 402.882812 414.464844 405.277344 417.566406 409.121094 417.566406 C 414.417969 417.566406 419.441406 413.988281 421.980469 409.699219 C 421.921875 410.261719 421.777344 411.445312 421.71875 412.355469 C 421.511719 414.90625 421.664062 417.566406 422.253906 417.566406 C 423.347656 417.566406 427.398438 417.328125 429.554688 416.417969 C 429.40625 415.027344 429.550781 411.324219 429.882812 408.574219 C 430.589844 402.394531 432.160156 391.488281 432.808594 388.710938 C 430.210938 388.113281 426.003906 387.199219 422.957031 387.199219 Z M 449.027344 387.195312 C 442.261719 387.195312 437.558594 391.6875 437.558594 397.101562 C 437.558594 399.703125 438.59375 401.984375 441.992188 404.46875 C 445.898438 407.277344 446.875 408.25 446.875 409.371094 C 446.875 410.675781 445.511719 411.652344 443.414062 411.652344 C 441.070312 411.652344 437.824219 410.679688 436.113281 409.613281 C 434.867188 410.472656 434.539062 413.402344 435.515625 415.023438 C 436.375 416.355469 439.246094 417.5625 442.5 417.5625 C 450.214844 417.5625 454.765625 412.421875 454.765625 407.65625 C 454.765625 404.789062 453.527344 402.777344 450.335938 400.507812 C 446.105469 397.429688 445.136719 396.507812 445.136719 395.269531 C 445.136719 393.640625 446.695312 392.871094 448.441406 392.871094 C 449.683594 392.871094 450.710938 393.136719 451.628906 393.46875 C 453.96875 394.292969 455.359375 391.25 455.417969 389.359375 C 454.324219 388.117188 451.78125 387.195312 449.027344 387.195312 M 471.527344 387.195312 C 464.75 387.195312 460.046875 391.6875 460.046875 397.101562 C 460.046875 399.703125 461.085938 401.984375 464.488281 404.46875 C 468.390625 407.277344 469.371094 408.25 469.371094 409.371094 C 469.371094 410.675781 468.007812 411.652344 465.90625 411.652344 C 463.566406 411.652344 460.320312 410.679688 458.605469 409.613281 C 457.363281 410.472656 457.027344 413.402344 458.007812 415.023438 C 458.863281 416.355469 461.738281 417.5625 464.992188 417.5625 C 472.703125 417.5625 477.261719 412.421875 477.261719 407.65625 C 477.261719 404.789062 476.023438 402.777344 472.828125 400.507812 C 468.601562 397.429688 467.628906 396.507812 467.628906 395.269531 C 467.628906 393.640625 469.183594 392.871094 470.925781 392.871094 C 472.167969 392.871094 473.210938 393.136719 474.128906 393.46875 C 476.464844 394.292969 477.855469 391.25 477.910156 389.359375 C 476.820312 388.117188 474.28125 387.195312 471.523438 387.195312 Z M 501.644531 387.195312 C 497.003906 387.195312 491.917969 388.234375 487.75 392.492188 C 482.808594 397.429688 481.570312 404.144531 481.570312 407.984375 C 481.570312 414.464844 483.964844 417.566406 487.808594 417.566406 C 493.097656 417.566406 498.125 413.988281 500.664062 409.699219 C 500.609375 410.261719 500.464844 411.445312 500.402344 412.355469 C 500.199219 414.90625 500.347656 417.566406 500.941406 417.566406 C 502.035156 417.566406 506.085938 417.328125 508.242188 416.417969 C 508.097656 415.027344 508.242188 411.324219 508.566406 408.574219 C 509.28125 402.394531 510.84375 391.488281 511.496094 388.710938 C 508.890625 388.113281 504.691406 387.199219 501.644531 387.199219 Z M 526.097656 387.195312 C 525.363281 387.195312 519.5625 388.382812 518.472656 388.765625 C 518.648438 390.183594 518.320312 393.707031 517.496094 399.203125 C 516.578125 405.210938 515.332031 413.339844 514.535156 417.332031 C 518.792969 417.242188 520.863281 416.738281 521.839844 416.148438 C 522.640625 415.703125 523.078125 414.910156 523.347656 413.605469 C 526.15625 397.8125 531.894531 393.964844 534.378906 393.964844 C 536.179688 393.964844 536.1875 396.25 535.949219 398.140625 C 535.359375 401.421875 534.289062 407.070312 533.785156 410.207031 C 533.136719 413.988281 533.195312 417.566406 533.640625 417.566406 C 534.761719 417.566406 539.703125 417.242188 541.421875 416.414062 C 541.363281 414.460938 541.683594 411.589844 542.128906 408.394531 C 542.71875 404.613281 543.484375 400.503906 543.902344 397.640625 C 544.785156 391.492188 543.304688 387.195312 538.664062 387.195312 C 533.136719 387.195312 529.203125 390.835938 526.214844 395.683594 L 526.09375 395.683594 C 526.160156 395.273438 526.222656 394.554688 526.277344 394.109375 C 526.929688 389.199219 526.808594 387.195312 526.097656 387.195312 M 592.894531 387.195312 C 591.804688 387.195312 586.886719 388.292969 585.675781 388.824219 C 585.796875 390.007812 585.746094 392.992188 585.539062 394.710938 C 584.886719 401.097656 583.195312 411.976562 582.222656 417.324219 C 584.292969 417.238281 588.671875 416.738281 589.761719 416.085938 C 590.503906 415.761719 590.886719 415.230469 591.097656 413.984375 C 593.816406 399.113281 598.195312 395.589844 600.410156 395.589844 C 601.59375 395.589844 602.484375 396.011719 603.28125 396.390625 C 604.789062 394.765625 606.472656 390.453125 606.203125 388.292969 C 605.4375 387.574219 604.53125 387.210938 603.484375 387.195312 C 600.792969 387.195312 596.683594 388.882812 593.222656 396.515625 L 593.042969 396.515625 C 593.957031 390.722656 593.488281 387.195312 592.894531 387.195312 M 625.832031 387.195312 C 621.191406 387.195312 616.109375 388.234375 611.9375 392.492188 C 607 397.433594 605.753906 404.144531 605.753906 407.984375 C 605.753906 414.464844 608.15625 417.566406 612 417.566406 C 617.292969 417.566406 622.316406 413.988281 624.859375 409.699219 C 624.796875 410.261719 624.65625 411.445312 624.59375 412.355469 C 624.390625 414.90625 624.53125 417.566406 625.125 417.566406 C 626.21875 417.566406 630.273438 417.328125 632.433594 416.417969 C 632.285156 415.027344 632.433594 411.324219 632.757812 408.574219 C 633.46875 402.394531 635.027344 391.488281 635.679688 388.710938 C 633.082031 388.113281 628.882812 387.199219 625.835938 387.199219 Z M 348.574219 392.074219 L 348.574219 392.082031 C 350.199219 392.082031 350.789062 393.527344 350.789062 394.503906 C 350.789062 396.894531 347.984375 399.710938 342.039062 400.179688 C 343.105469 394.714844 346.089844 392.074219 348.574219 392.074219 M 191.207031 392.609375 C 192.183594 392.609375 193.160156 392.867188 193.867188 393.132812 C 193.730469 393.617188 193.644531 394.113281 193.601562 394.613281 C 191.976562 405.257812 186.1875 410.941406 182.90625 410.941406 C 181.605469 410.941406 180.832031 409.4375 180.832031 406.746094 C 180.832031 403.554688 181.804688 399.523438 184.085938 396.386719 C 186.300781 393.371094 188.785156 392.605469 191.207031 392.605469 Z M 259.265625 392.609375 C 260.242188 392.609375 261.222656 392.867188 261.933594 393.132812 C 261.816406 393.578125 261.722656 393.96875 261.664062 394.613281 C 260.035156 405.257812 254.242188 410.941406 250.960938 410.941406 C 249.660156 410.941406 248.890625 409.4375 248.890625 406.746094 C 248.890625 403.554688 249.867188 399.523438 252.144531 396.386719 C 254.367188 393.371094 256.84375 392.605469 259.265625 392.605469 Z M 421.601562 392.609375 C 422.578125 392.609375 423.554688 392.867188 424.261719 393.132812 C 424.125 393.617188 424.039062 394.113281 423.996094 394.613281 C 422.367188 405.257812 416.570312 410.941406 413.28125 410.941406 C 411.988281 410.941406 411.222656 409.4375 411.222656 406.746094 C 411.222656 403.554688 412.195312 399.523438 414.472656 396.386719 C 416.691406 393.371094 419.179688 392.605469 421.601562 392.605469 Z M 500.289062 392.609375 C 501.265625 392.609375 502.242188 392.867188 502.949219 393.132812 C 502.828125 393.578125 502.734375 393.96875 502.675781 394.613281 C 501.046875 405.257812 495.261719 410.941406 491.980469 410.941406 C 490.675781 410.941406 489.902344 409.4375 489.902344 406.746094 C 489.902344 403.554688 490.882812 399.523438 493.15625 396.386719 C 495.378906 393.371094 497.863281 392.605469 500.289062 392.605469 Z M 624.472656 392.609375 C 625.449219 392.609375 626.425781 392.867188 627.132812 393.132812 C 627.011719 393.578125 626.933594 393.96875 626.875 394.613281 C 625.246094 405.257812 619.449219 410.941406 616.160156 410.941406 C 614.863281 410.941406 614.09375 409.4375 614.09375 406.746094 C 614.09375 403.554688 615.070312 399.523438 617.347656 396.386719 C 619.566406 393.371094 622.046875 392.605469 624.472656 392.605469 Z M 566.375 392.667969 C 568.085938 392.667969 569.179688 393.199219 570.039062 393.964844 C 569.871094 394.660156 569.742188 395.363281 569.648438 396.074219 C 567.992188 405.535156 562.257812 410.851562 559.332031 410.851562 C 557.910156 410.851562 556.847656 409.289062 556.847656 406.242188 C 556.847656 400.566406 559.714844 392.667969 566.371094 392.667969 Z M 225.804688 393.847656 C 227.378906 393.847656 228.234375 395.476562 228.234375 398.015625 C 228.234375 403.964844 225.535156 411.445312 219.035156 411.445312 C 218.304688 411.433594 217.609375 411.285156 216.941406 410.992188 C 216.273438 410.699219 215.6875 410.289062 215.1875 409.761719 C 215.304688 409.230469 215.3125 408.96875 215.464844 408.132812 C 217.027344 399.855469 222.023438 393.847656 225.808594 393.847656 Z M 225.804688 393.847656 " fill-opacity="1" fill-rule="nonzero"/></g></svg>