<svg xmlns="http://www.w3.org/2000/svg" xmlns:xlink="http://www.w3.org/1999/xlink" width="1080" zoomAndPan="magnify" viewBox="0 0 810 530.249967" height="707" preserveAspectRatio="xMidYMid meet" version="1.0"><defs><g/><clipPath id="2e61df2b6a"><path d="M 0.578125 0 L 809.421875 0 L 809.421875 529.242188 L 0.578125 529.242188 Z M 0.578125 0 " clip-rule="nonzero"/></clipPath></defs><g clip-path="url(#2e61df2b6a)"><path stroke-linecap="butt" transform="matrix(0.748941, 0, 0, 0.748941, 0.57801, -0.0000199718)" fill="none" stroke-linejoin="miter" d="M 0.00015329 0.0000266667 L 1079.984 0.0000266667 L 1079.984 706.654449 L 0.00015329 706.654449 Z M 0.00015329 0.0000266667 " stroke="#444444" stroke-width="10" stroke-opacity="1" stroke-miterlimit="4"/></g><g fill="#444444" fill-opacity="1"><g transform="translate(153.507024, 335.399941)"><g><path d="M 71.140625 1.875 C 59.148438 1.875 48.582031 -0.617188 39.4375 -5.609375 C 30.300781 -10.597656 23.148438 -18.09375 17.984375 -28.09375 C 12.816406 -38.09375 10.234375 -50.421875 10.234375 -65.078125 C 10.234375 -79.734375 12.816406 -92.0625 17.984375 -102.0625 C 23.148438 -112.070312 30.300781 -119.566406 39.4375 -124.546875 C 48.582031 -129.535156 59.148438 -132.03125 71.140625 -132.03125 C 83.660156 -132.03125 94.296875 -129.582031 103.046875 -124.6875 C 111.804688 -119.789062 118.054688 -112.328125 121.796875 -102.296875 L 103 -90.8125 L 100.78125 -90.890625 C 97.988281 -97.660156 94.203125 -102.515625 89.421875 -105.453125 C 84.648438 -108.390625 78.554688 -109.859375 71.140625 -109.859375 C 60.335938 -109.859375 51.90625 -106.28125 45.84375 -99.125 C 39.789062 -91.976562 36.765625 -80.628906 36.765625 -65.078125 C 36.765625 -49.585938 39.789062 -38.265625 45.84375 -31.109375 C 51.90625 -23.960938 60.335938 -20.390625 71.140625 -20.390625 C 88.046875 -20.390625 98.398438 -28.609375 102.203125 -45.046875 L 104.421875 -45.046875 L 123.390625 -35.171875 C 119.828125 -22.816406 113.742188 -13.550781 105.140625 -7.375 C 96.535156 -1.207031 85.203125 1.875 71.140625 1.875 Z M 71.140625 1.875 "/></g></g><g transform="translate(281.167483, 335.399941)"><g><path d="M 103.453125 32.40625 C 91.992188 32.40625 82.476562 29.644531 74.90625 24.125 C 67.34375 18.601562 62.253906 10.914062 59.640625 1.0625 C 49.734375 -0.351562 41.082031 -3.71875 33.6875 -9.03125 C 26.300781 -14.34375 20.546875 -21.6875 16.421875 -31.0625 C 12.296875 -40.445312 10.234375 -51.785156 10.234375 -65.078125 C 10.234375 -79.972656 12.816406 -92.421875 17.984375 -102.421875 C 23.148438 -112.421875 30.285156 -119.851562 39.390625 -124.71875 C 48.503906 -129.59375 59.023438 -132.03125 70.953125 -132.03125 C 82.878906 -132.03125 93.382812 -129.609375 102.46875 -124.765625 C 111.550781 -119.929688 118.660156 -112.5 123.796875 -102.46875 C 128.929688 -92.4375 131.5 -79.972656 131.5 -65.078125 C 131.5 -45.609375 127.328125 -30.664062 118.984375 -20.25 C 110.648438 -9.832031 98.941406 -3.347656 83.859375 -0.796875 L 83.421875 0.984375 C 85.253906 4.128906 87.992188 6.546875 91.640625 8.234375 C 95.296875 9.921875 99.554688 10.765625 104.421875 10.765625 C 108.347656 10.765625 111.878906 10.265625 115.015625 9.265625 L 116.796875 9.609375 L 120.453125 29.734375 C 118.554688 30.441406 116.003906 31.0625 112.796875 31.59375 C 109.585938 32.132812 106.472656 32.40625 103.453125 32.40625 Z M 70.953125 -20.46875 C 81.992188 -20.46875 90.421875 -24.015625 96.234375 -31.109375 C 102.054688 -38.203125 104.96875 -49.523438 104.96875 -65.078125 C 104.96875 -80.628906 102.054688 -91.960938 96.234375 -99.078125 C 90.421875 -106.203125 81.992188 -109.765625 70.953125 -109.765625 C 59.859375 -109.765625 51.382812 -106.203125 45.53125 -99.078125 C 39.6875 -91.960938 36.765625 -80.628906 36.765625 -65.078125 C 36.765625 -49.523438 39.6875 -38.203125 45.53125 -31.109375 C 51.382812 -24.015625 59.859375 -20.46875 70.953125 -20.46875 Z M 70.953125 -20.46875 "/></g></g><g transform="translate(422.982763, 335.399941)"><g><path d="M 16.921875 0 L 16.921875 -130.15625 L 69.171875 -130.15625 C 82.648438 -130.15625 92.816406 -127.050781 99.671875 -120.84375 C 106.523438 -114.644531 109.953125 -106.085938 109.953125 -95.171875 C 109.953125 -87.273438 107.945312 -80.800781 103.9375 -75.75 C 99.9375 -70.707031 93.957031 -66.851562 86 -64.1875 L 86 -62.3125 C 90.09375 -60.53125 93.398438 -57.890625 95.921875 -54.390625 C 98.441406 -50.890625 100.832031 -45.695312 103.09375 -38.8125 L 116.09375 0 L 89.65625 0 L 76.921875 -38.90625 C 75.617188 -42.820312 74.148438 -45.863281 72.515625 -48.03125 C 70.878906 -50.195312 68.800781 -51.769531 66.28125 -52.75 C 63.757812 -53.726562 60.476562 -54.21875 56.4375 -54.21875 L 42.640625 -54.21875 L 42.640625 0 Z M 66.0625 -74.609375 C 78.519531 -74.609375 84.75 -80.421875 84.75 -92.046875 C 84.75 -103.859375 78.519531 -109.765625 66.0625 -109.765625 L 42.640625 -109.765625 L 42.640625 -74.609375 Z M 66.0625 -74.609375 "/></g></g><g transform="translate(544.678612, 335.399941)"><g><path d="M 57.6875 1.875 C 48.664062 1.875 40.640625 0.757812 33.609375 -1.46875 C 26.578125 -3.695312 20.710938 -6.617188 16.015625 -10.234375 C 11.328125 -13.859375 7.738281 -17.835938 5.25 -22.171875 L 19.40625 -39.4375 L 21.640625 -39.4375 C 25.554688 -33.625 30.523438 -28.992188 36.546875 -25.546875 C 42.566406 -22.109375 49.613281 -20.390625 57.6875 -20.390625 C 64.570312 -20.390625 69.765625 -21.84375 73.265625 -24.75 C 76.765625 -27.65625 78.515625 -31.660156 78.515625 -36.765625 C 78.515625 -39.847656 77.953125 -42.425781 76.828125 -44.5 C 75.703125 -46.582031 73.832031 -48.363281 71.21875 -49.84375 C 68.613281 -51.332031 65.082031 -52.613281 60.625 -53.6875 L 43.890625 -57.515625 C 32.203125 -60.179688 23.492188 -64.613281 17.765625 -70.8125 C 12.035156 -77.019531 9.171875 -85.082031 9.171875 -95 C 9.171875 -102.351562 11.007812 -108.816406 14.6875 -114.390625 C 18.363281 -119.972656 23.71875 -124.304688 30.75 -127.390625 C 37.789062 -130.484375 46.207031 -132.03125 56 -132.03125 C 66.03125 -132.03125 74.617188 -130.707031 81.765625 -128.0625 C 88.921875 -125.425781 94.960938 -121.375 99.890625 -115.90625 L 87.15625 -98.46875 L 84.9375 -98.46875 C 81.25 -102.320312 77.03125 -105.210938 72.28125 -107.140625 C 67.539062 -109.066406 62.113281 -110.03125 56 -110.03125 C 48.9375 -110.03125 43.5625 -108.785156 39.875 -106.296875 C 36.195312 -103.804688 34.359375 -100.363281 34.359375 -95.96875 C 34.359375 -91.875 35.648438 -88.609375 38.234375 -86.171875 C 40.816406 -83.742188 45.285156 -81.847656 51.640625 -80.484375 L 68.734375 -76.921875 C 81.367188 -74.242188 90.535156 -69.710938 96.234375 -63.328125 C 101.929688 -56.953125 104.78125 -48.632812 104.78125 -38.375 C 104.78125 -30.238281 103.03125 -23.15625 99.53125 -17.125 C 96.03125 -11.101562 90.75 -6.429688 83.6875 -3.109375 C 76.625 0.210938 67.957031 1.875 57.6875 1.875 Z M 57.6875 1.875 "/></g></g></g></svg>