<svg xmlns="http://www.w3.org/2000/svg" xmlns:xlink="http://www.w3.org/1999/xlink" width="1080" zoomAndPan="magnify" viewBox="0 0 810 530.249967" height="707" preserveAspectRatio="xMidYMid meet" version="1.0"><defs><clipPath id="27abd4a55b"><path d="M 0.578125 0 L 809.421875 0 L 809.421875 529.242188 L 0.578125 529.242188 Z M 0.578125 0 " clip-rule="nonzero"/></clipPath><clipPath id="35319d4ca7"><path d="M 68 146.929688 L 742 146.929688 L 742 382.84375 L 68 382.84375 Z M 68 146.929688 " clip-rule="nonzero"/></clipPath></defs><g clip-path="url(#27abd4a55b)"><path stroke-linecap="butt" transform="matrix(0.748941, 0, 0, 0.748941, 0.57801, -0.0000199718)" fill="none" stroke-linejoin="miter" d="M 0.00015329 0.0000266667 L 1079.984 0.0000266667 L 1079.984 706.654449 L 0.00015329 706.654449 Z M 0.00015329 0.0000266667 " stroke="#444444" stroke-width="10" stroke-opacity="1" stroke-miterlimit="4"/></g><g clip-path="url(#35319d4ca7)"><path fill="#444444" d="M 577.304688 201.457031 C 593.101562 201.457031 607.703125 203.132812 625.417969 206.722656 L 612.796875 233.308594 C 602.980469 231.394531 612.007812 233.054688 604.59375 232.335938 L 604.59375 236.167969 L 605.070312 251.722656 L 605.308594 271.828125 C 605.546875 276.851562 605.546875 281.878906 605.789062 286.90625 L 605.789062 296.957031 C 605.789062 328.554688 603.15625 343.390625 595.257812 355.597656 C 583.769531 373.550781 563.902344 382.40625 535.660156 382.40625 C 521.296875 382.40625 508.851562 380.253906 495.925781 375.226562 L 495.925781 341.238281 L 495.929688 341.238281 C 508.855469 347.9375 521.777344 351.050781 535.421875 351.050781 C 559.59375 351.050781 569.886719 341.238281 569.886719 317.78125 L 569.886719 317.0625 C 562.707031 320.652344 555.523438 322.089844 545.953125 322.089844 C 513.640625 322.089844 493.054688 300.785156 493.054688 267.039062 C 493.054688 225.152344 523.453125 201.457031 577.304688 201.457031 M 242.964844 203.851562 L 242.964844 289.296875 C 242.964844 318.738281 240.808594 332.855469 234.347656 345.066406 C 228.363281 356.792969 220.460938 364.210938 204.1875 372.351562 L 169.960938 356.074219 C 186.238281 348.417969 194.132812 341.71875 199.160156 331.421875 C 204.425781 320.890625 206.105469 308.683594 206.105469 276.609375 L 206.105469 203.851562 Z M 682.636719 200.738281 C 719.496094 200.738281 741.996094 223.957031 741.996094 261.53125 C 741.996094 300.070312 718.542969 324.242188 681.203125 324.242188 C 644.339844 324.242188 621.601562 301.027344 621.601562 263.6875 C 621.605469 224.910156 645.0625 200.738281 682.636719 200.738281 M 314.054688 201.21875 C 332.964844 201.21875 345.410156 206.246094 350.914062 216.058594 C 354.023438 221.5625 354.980469 228.742188 354.980469 244.0625 L 354.980469 318.976562 C 338.464844 321.371094 317.644531 323.046875 302.328125 323.046875 C 271.453125 323.046875 257.566406 312.273438 257.566406 288.339844 C 257.566406 262.488281 275.996094 250.523438 321.234375 246.691406 L 321.234375 238.554688 C 321.234375 231.855469 317.886719 229.460938 308.550781 229.460938 C 294.90625 229.460938 279.589844 233.289062 265.226562 240.710938 L 265.226562 212.226562 C 281.503906 204.570312 297.0625 201.21875 314.054688 201.21875 M 184.324219 146.929688 L 184.324219 317.542969 C 165.417969 321.132812 151.53125 322.570312 136.457031 322.570312 C 91.457031 322.570312 68 302.222656 68 263.210938 C 68 225.632812 92.894531 201.222656 131.429688 201.222656 C 137.410156 201.222656 141.960938 201.699219 147.464844 203.132812 L 147.464844 146.929688 Z M 430.855469 201.21875 C 449.765625 201.21875 463.410156 205.527344 471.550781 213.90625 C 479.207031 221.800781 481.601562 230.417969 481.601562 248.851562 L 481.601562 321.132812 L 444.738281 321.132812 L 444.738281 250.285156 C 444.738281 236.164062 439.953125 230.898438 426.789062 230.898438 C 421.761719 230.898438 417.214844 231.375 409.792969 233.53125 L 409.792969 321.132812 L 372.933594 321.132812 L 372.933594 209.59375 C 394.714844 203.851562 412.664062 201.21875 430.855469 201.21875 M 322.910156 270.867188 C 298.496094 273.261719 290.597656 277.09375 290.597656 286.664062 C 290.597656 293.84375 295.148438 297.195312 305.199219 297.195312 C 310.703125 297.195312 315.730469 296.71875 322.910156 295.523438 Z M 682.160156 230.417969 C 667.558594 230.417969 659.179688 242.148438 659.179688 262.488281 C 659.179688 282.835938 667.558594 294.5625 681.917969 294.5625 C 696.042969 294.5625 704.417969 282.835938 704.417969 262.488281 C 704.417969 242.386719 696.28125 230.417969 682.160156 230.417969 M 135.019531 230.898438 C 116.351562 230.898438 105.578125 242.386719 105.578125 262.488281 C 105.578125 282.117188 115.871094 292.886719 134.78125 292.886719 C 138.847656 292.886719 142.199219 292.648438 147.464844 291.933594 L 147.464844 232.8125 C 143.15625 231.375 139.566406 230.898438 135.019531 230.898438 M 544.039062 236.398438 C 535.183594 241.429688 530.632812 250.523438 530.632812 263.445312 C 530.632812 281.878906 539.730469 292.410156 556.007812 292.410156 C 561.03125 292.410156 565.101562 291.449219 569.886719 290.015625 L 569.886719 277.332031 C 569.886719 273.023438 569.652344 268.234375 569.652344 263.210938 L 569.414062 246.21875 L 569.171875 234.011719 L 569.171875 231.136719 L 565.339844 231.136719 C 558.164062 230.898438 549.785156 232.8125 544.039062 236.402344 M 242.964844 147.125 L 242.964844 184.945312 L 206.105469 184.945312 L 206.105469 147.125 Z M 242.964844 147.125 " fill-opacity="1" fill-rule="nonzero"/></g></svg>