<svg xmlns="http://www.w3.org/2000/svg" xmlns:xlink="http://www.w3.org/1999/xlink" width="1080" zoomAndPan="magnify" viewBox="0 0 810 530.249967" height="707" preserveAspectRatio="xMidYMid meet" version="1.0"><defs><clipPath id="c9ca0619f1"><path d="M 0.578125 0.25 L 809.421875 0.25 L 809.421875 529.492188 L 0.578125 529.492188 Z M 0.578125 0.25 " clip-rule="nonzero"/></clipPath></defs><g clip-path="url(#c9ca0619f1)"><path stroke-linecap="butt" transform="matrix(0.748941, 0, 0, 0.748941, 0.57801, 0.249627)" fill="none" stroke-linejoin="miter" d="M 0.00015329 0.000498189 L 1079.984 0.000498189 L 1079.984 706.654921 L 0.00015329 706.654921 Z M 0.00015329 0.000498189 " stroke="#444444" stroke-width="10" stroke-opacity="1" stroke-miterlimit="4"/></g><path fill="#444444" d="M 134.664062 200.253906 C 121.445312 200.253906 109.023438 204.175781 98.746094 211.039062 C 88.289062 217.886719 79.972656 227.851562 74.742188 239.433594 L 122.589844 239.433594 C 121.316406 236.554688 119.847656 233.785156 118.175781 231.117188 C 117.25 229.472656 116.226562 227.882812 115.109375 226.359375 C 116.261719 227.890625 117.339844 229.445312 118.34375 231.117188 C 119.976562 233.714844 121.445312 236.488281 122.75 239.433594 L 165.199219 239.433594 C 174.5 239.433594 182.996094 235.511719 189.046875 229.324219 C 177.28125 211.859375 157.355469 200.253906 134.660156 200.253906 Z M 106.246094 216.738281 C 107.390625 217.71875 108.539062 218.867188 109.675781 220.007812 C 108.539062 218.867188 107.390625 217.882812 106.246094 216.738281 M 270.015625 224.75 L 270.015625 284.335938 L 278.984375 284.335938 L 278.984375 224.75 Z M 668.386719 224.75 L 668.386719 284.335938 L 677.355469 284.335938 L 677.355469 263.113281 C 677.355469 257.882812 678.171875 254.144531 679.972656 251.855469 C 681.769531 249.566406 684.546875 248.421875 688.308594 248.421875 C 691.082031 248.421875 693.1875 249.238281 694.492188 250.875 C 695.800781 252.5 696.453125 254.945312 696.453125 258.207031 L 696.453125 284.335938 L 705.605469 284.335938 L 705.605469 256.902344 C 705.605469 246.625 700.542969 241.394531 690.269531 241.394531 C 687.324219 241.394531 684.707031 241.886719 682.585938 243.03125 C 680.496094 244.183594 678.808594 245.761719 677.519531 247.769531 L 676.863281 247.769531 C 677.179688 245.164062 677.34375 242.550781 677.355469 239.925781 L 677.355469 224.75 Z M 410.75 225.726562 C 409.113281 225.726562 407.808594 226.054688 406.984375 227.035156 C 406.175781 228.019531 405.679688 229.15625 405.679688 230.792969 C 405.679688 232.265625 406.175781 233.550781 406.984375 234.367188 C 407.808594 235.1875 409.113281 235.671875 410.75 235.671875 C 412.382812 235.671875 413.691406 235.1875 414.507812 234.367188 C 415.328125 233.550781 415.8125 232.265625 415.8125 230.792969 C 415.8125 229.15625 415.488281 227.851562 414.507812 227.035156 C 413.421875 226.117188 412.171875 225.683594 410.75 225.726562 M 379.71875 232.753906 L 376.632812 241.722656 L 370.425781 244.992188 L 370.425781 248.914062 L 376.140625 248.914062 L 376.140625 271.769531 C 376.140625 280.574219 380.371094 285.15625 388.871094 285.15625 C 390.503906 285.15625 392.140625 284.992188 393.777344 284.664062 C 395.40625 284.335938 396.714844 284.011719 397.699219 283.515625 L 397.699219 276.820312 C 395.566406 277.46875 393.386719 277.796875 391.160156 277.796875 C 389.523438 277.796875 388.054688 277.472656 386.910156 276.492188 C 385.765625 275.511719 385.273438 273.898438 385.273438 271.773438 L 385.273438 249.078125 L 397.367188 249.078125 L 397.367188 242.207031 L 385.273438 242.207031 L 385.273438 232.75 Z M 350.667969 240.898438 C 345.605469 240.898438 341.683594 241.71875 338.746094 243.84375 C 335.816406 245.964844 334.351562 248.742188 334.351562 252.339844 C 334.351562 255.265625 335.164062 257.710938 336.941406 259.671875 C 338.738281 261.632812 342.011719 263.433594 346.914062 265.394531 C 349.359375 266.375 351.320312 267.191406 352.796875 268.007812 C 354.261719 268.824219 355.242188 269.644531 355.898438 270.300781 C 356.550781 270.949219 356.859375 271.761719 356.859375 272.914062 C 356.859375 276.324219 354.105469 277.957031 348.542969 277.957031 C 344.296875 277.957031 339.554688 276.816406 334.675781 274.546875 L 334.675781 282.367188 C 338.085938 284.167969 342.5 284.984375 348.21875 284.984375 C 353.773438 284.984375 358 283.839844 361.105469 281.714844 C 364.210938 279.59375 365.683594 276.324219 365.683594 272.261719 C 365.683594 270.132812 365.359375 268.496094 364.21875 266.863281 C 363.328125 265.269531 362.128906 263.964844 360.621094 262.941406 C 358.984375 261.800781 356.390625 260.492188 352.957031 259.1875 C 348.707031 257.550781 345.929688 256.402344 344.785156 255.421875 C 343.640625 254.4375 342.992188 253.320312 342.992188 252.011719 C 342.992188 249.238281 345.4375 247.933594 350.183594 247.933594 C 353.449219 247.933594 357.191406 248.742188 361.761719 250.703125 L 364.703125 244.011719 C 360.265625 241.890625 355.585938 240.851562 350.667969 240.898438 M 480.308594 240.898438 C 475.238281 240.898438 471.316406 241.71875 468.375 243.84375 C 465.4375 245.964844 463.960938 248.742188 463.960938 252.339844 C 463.960938 255.265625 464.785156 257.710938 466.578125 259.671875 C 468.375 261.632812 471.648438 263.433594 476.550781 265.394531 C 478.996094 266.375 480.957031 267.191406 482.40625 268.007812 C 483.882812 268.824219 484.863281 269.644531 485.511719 270.300781 C 486.167969 270.949219 486.496094 271.761719 486.496094 272.914062 C 486.496094 276.324219 483.71875 277.957031 478.179688 277.957031 C 473.933594 277.957031 469.191406 276.816406 464.292969 274.546875 L 464.292969 282.367188 C 467.722656 284.167969 472.136719 284.984375 477.855469 284.984375 C 483.390625 284.984375 487.636719 283.839844 490.742188 281.714844 C 493.847656 279.59375 495.320312 276.324219 495.320312 272.261719 C 495.320312 270.132812 494.996094 268.496094 493.855469 266.863281 C 492.964844 265.269531 491.765625 263.964844 490.257812 262.941406 C 488.621094 261.800781 486.003906 260.492188 482.574219 259.1875 C 478.34375 257.550781 475.566406 256.402344 474.421875 255.421875 C 473.277344 254.4375 472.628906 253.320312 472.628906 252.011719 C 472.628906 249.238281 475.074219 247.933594 479.820312 247.933594 C 483.0625 247.933594 486.824219 248.742188 491.398438 250.703125 L 494.339844 244.011719 C 489.902344 241.890625 485.222656 240.851562 480.304688 240.898438 Z M 445.847656 241.066406 C 439.324219 241.066406 434.261719 242.859375 430.828125 246.78125 C 427.398438 250.703125 425.597656 256.078125 425.597656 263.269531 C 425.597656 270.292969 427.398438 275.664062 430.671875 279.429688 C 433.933594 283.183594 438.839844 284.984375 445.191406 284.984375 C 447.808594 284.984375 449.769531 284.492188 451.730469 284.167969 C 453.601562 283.851562 455.34375 283.199219 456.960938 282.207031 L 456.960938 274.382812 C 453.398438 276.34375 449.582031 277.316406 445.515625 277.300781 C 442.085938 277.300781 439.324219 276.160156 437.53125 273.730469 C 435.734375 271.277344 434.75 267.683594 434.75 262.941406 C 434.75 253.320312 438.347656 248.417969 445.679688 248.417969 C 448.292969 248.417969 451.402344 249.234375 455.160156 250.703125 L 457.9375 243.511719 C 454.34375 241.882812 450.253906 241.066406 445.847656 241.066406 M 647.164062 241.066406 C 640.628906 241.066406 635.554688 242.859375 632.128906 246.78125 C 628.714844 250.703125 626.921875 256.078125 626.921875 263.269531 C 626.921875 270.292969 628.714844 275.664062 631.964844 279.429688 C 635.230469 283.183594 640.136719 284.984375 646.511719 284.984375 C 649.125 284.984375 651.0625 284.492188 653.027344 284.167969 C 654.898438 283.851562 656.640625 283.199219 658.257812 282.207031 L 658.257812 274.382812 C 654.703125 276.339844 650.894531 277.3125 646.835938 277.300781 C 643.40625 277.300781 640.628906 276.160156 638.828125 273.730469 C 637.03125 271.277344 636.054688 267.683594 636.054688 262.941406 C 636.054688 253.320312 639.644531 248.417969 647 248.417969 C 649.613281 248.417969 652.699219 249.234375 656.457031 250.703125 L 659.234375 243.511719 C 655.644531 241.882812 651.554688 241.066406 647.164062 241.066406 M 241.765625 241.222656 C 235.726562 241.222656 230.992188 243.183594 227.570312 247.109375 C 224.136719 251.03125 222.339844 256.570312 222.339844 263.433594 C 222.339844 270.132812 224.136719 275.507812 227.898438 279.261719 C 231.636719 283.027344 236.867188 284.984375 243.402344 284.984375 C 246.175781 284.984375 248.789062 285.144531 251.082031 284.660156 C 253.351562 284.167969 255.636719 283.351562 257.765625 282.367188 L 257.765625 275.046875 C 255.148438 276.003906 252.859375 276.824219 250.757812 277.3125 C 248.632812 277.804688 246.179688 277.964844 243.726562 277.964844 C 239.96875 277.964844 236.867188 276.988281 234.90625 274.722656 C 232.945312 272.433594 231.800781 269.328125 231.636719 265.242188 L 259.886719 265.242188 L 259.886719 260.335938 C 259.886719 254.292969 258.25 249.734375 254.980469 246.304688 C 251.738281 242.871094 247.324219 241.234375 241.765625 241.234375 Z M 521.9375 241.222656 C 515.890625 241.222656 511.152344 243.183594 507.722656 247.109375 C 504.289062 251.03125 502.507812 256.570312 502.507812 263.433594 C 502.507812 270.132812 504.289062 275.507812 508.054688 279.261719 C 511.808594 283.027344 517.039062 284.984375 523.574219 284.984375 C 526.492188 284.984375 528.945312 285.144531 531.234375 284.660156 C 533.519531 284.167969 535.8125 283.351562 537.929688 282.367188 L 537.929688 275.046875 C 535.316406 276.003906 533.03125 276.824219 530.90625 277.3125 C 528.78125 277.804688 526.332031 277.964844 523.898438 277.964844 C 520.144531 277.964844 517.039062 276.988281 515.078125 274.722656 C 513.117188 272.433594 511.96875 269.328125 511.808594 265.242188 L 540.058594 265.242188 L 540.058594 260.335938 C 540.058594 254.292969 538.425781 249.734375 535.15625 246.304688 C 531.890625 242.871094 527.46875 241.234375 521.9375 241.234375 Z M 617.117188 241.222656 C 614.5 241.222656 612.042969 242.042969 609.757812 243.511719 C 607.492188 244.988281 605.695312 247.109375 604.226562 249.5625 L 603.734375 249.5625 L 602.589844 242.042969 L 595.558594 242.042969 L 595.558594 284.328125 L 604.554688 284.328125 L 604.554688 262.128906 C 604.554688 258.371094 605.695312 255.429688 607.964844 253 C 610.25 250.546875 613.195312 249.402344 616.785156 249.402344 C 618.09375 249.402344 619.402344 249.566406 620.710938 249.894531 L 621.523438 241.558594 C 620.0625 241.34375 618.59375 241.238281 617.117188 241.234375 Z M 308.382812 241.550781 C 305.933594 241.550781 303.480469 241.882812 300.703125 242.535156 C 297.921875 243.1875 295.476562 244.167969 293.207031 245.3125 L 296.128906 251.6875 C 297.921875 250.871094 299.882812 250.050781 301.84375 249.394531 C 303.863281 248.738281 305.933594 248.414062 308.058594 248.417969 C 310.671875 248.417969 312.632812 249.070312 313.941406 250.378906 C 315.226562 251.6875 315.878906 253.648438 315.878906 256.402344 L 315.878906 258.695312 L 308.550781 258.855469 C 301.84375 259.019531 296.9375 260.324219 293.695312 262.453125 C 290.425781 264.574219 288.792969 267.839844 288.792969 272.253906 C 288.792969 276.324219 289.773438 279.429688 292.226562 281.71875 C 294.660156 284.003906 297.921875 285.144531 302.007812 285.144531 C 305.28125 285.144531 307.894531 284.492188 310.019531 283.679688 C 312.140625 282.859375 314.265625 281.066406 316.207031 278.453125 L 316.535156 278.453125 L 318.332031 284.328125 L 324.703125 284.328125 L 324.703125 256.242188 C 324.703125 251.195312 323.394531 247.601562 320.625 245.148438 C 317.84375 242.695312 313.773438 241.550781 308.386719 241.550781 Z M 566.65625 241.550781 C 564.0625 241.578125 561.507812 241.90625 558.996094 242.535156 C 556.21875 243.1875 553.765625 244.167969 551.480469 245.3125 L 554.417969 251.6875 C 556.21875 250.871094 558.179688 250.050781 560.140625 249.394531 C 562.152344 248.742188 564.214844 248.414062 566.332031 248.417969 C 568.945312 248.417969 570.90625 249.070312 572.214844 250.378906 C 574.175781 252.339844 574.175781 253.648438 574.175781 256.402344 L 574.175781 258.695312 L 566.816406 258.855469 C 560.140625 259.019531 555.234375 260.324219 551.964844 262.453125 C 548.703125 264.574219 547.070312 267.839844 547.066406 272.253906 C 547.066406 276.324219 548.050781 279.429688 550.496094 281.71875 C 552.949219 284.003906 556.214844 285.144531 560.300781 285.144531 C 563.570312 285.144531 566.164062 284.492188 568.292969 283.679688 C 570.417969 282.859375 572.539062 281.066406 574.5 278.453125 L 574.828125 278.453125 L 576.625 284.328125 L 583.003906 284.328125 L 583.003906 256.242188 C 583.003906 251.195312 581.695312 247.601562 578.914062 245.148438 C 576.136719 242.695312 572.046875 241.550781 566.65625 241.550781 M 406.335938 242.042969 L 406.335938 284.328125 L 415.328125 284.328125 L 415.328125 242.046875 Z M 72.457031 245.964844 C 70.46875 252.34375 69.488281 258.875 69.519531 265.554688 C 69.519531 272.417969 70.5 278.945312 72.457031 285.144531 L 125.203125 285.144531 C 125.367188 284.328125 125.695312 283.515625 125.859375 282.859375 C 125.695312 283.675781 125.367188 284.492188 125.203125 285.144531 L 159.316406 285.144531 C 170.089844 285.144531 178.746094 276.324219 178.746094 265.554688 C 178.746094 254.773438 170.085938 245.964844 159.316406 245.964844 Z M 241.605469 248.089844 C 244.542969 248.089844 246.835938 249.070312 248.464844 250.871094 C 250.101562 252.664062 250.925781 255.421875 250.925781 258.855469 L 231.636719 258.855469 C 231.960938 255.257812 233.101562 252.664062 234.738281 250.871094 C 236.375 249.070312 238.660156 248.089844 241.605469 248.089844 M 521.9375 248.089844 C 524.699219 248.089844 527.144531 249.070312 528.785156 250.871094 C 530.414062 252.664062 531.234375 255.421875 531.234375 258.855469 L 511.96875 258.855469 C 512.300781 255.257812 513.441406 252.664062 515.078125 250.871094 C 516.707031 249.070312 519 248.089844 521.9375 248.089844 M 315.71875 264.085938 L 315.71875 267.683594 C 315.71875 270.949219 314.757812 273.5625 312.796875 275.339844 C 310.835938 277.140625 308.21875 278.121094 304.949219 278.121094 C 302.664062 278.121094 300.867188 277.628906 299.722656 276.648438 C 298.578125 275.664062 298.089844 274.214844 298.089844 272.253906 C 298.089844 269.640625 299.070312 267.679688 301.027344 266.375 C 302.988281 265.070312 306.097656 264.410156 310.34375 264.25 Z M 574.007812 264.085938 L 574.007812 267.683594 C 574.007812 270.949219 573.03125 273.5625 571.070312 275.339844 C 569.109375 277.140625 566.492188 278.121094 563.246094 278.121094 C 561.125 278.121094 559.160156 277.628906 558.015625 276.648438 C 556.871094 275.664062 556.378906 274.214844 556.378906 272.253906 C 556.378906 269.640625 557.359375 267.679688 559.324219 266.375 C 561.285156 265.070312 564.390625 264.410156 568.617188 264.25 Z M 74.910156 291.6875 C 76.160156 294.570312 77.613281 297.34375 79.269531 300.015625 C 80.925781 302.683594 82.765625 305.21875 84.789062 307.621094 C 86.816406 310.023438 89.003906 312.261719 91.355469 314.34375 C 93.710938 316.425781 96.203125 318.324219 98.832031 320.042969 L 98.746094 320.085938 C 101.394531 321.84375 104.152344 323.398438 107.027344 324.75 C 109.902344 326.097656 112.863281 327.230469 115.90625 328.144531 C 118.949219 329.058594 122.039062 329.746094 125.183594 330.203125 C 128.328125 330.660156 131.488281 330.882812 134.664062 330.875 C 157.359375 330.875 177.277344 319.265625 189.042969 301.796875 C 187.492188 300.203125 185.800781 298.777344 183.964844 297.519531 C 182.128906 296.265625 180.1875 295.203125 178.140625 294.335938 C 176.09375 293.46875 173.980469 292.808594 171.804688 292.363281 C 169.625 291.917969 167.425781 291.695312 165.199219 291.6875 Z M 74.910156 291.6875 " fill-opacity="1" fill-rule="nonzero"/></svg>