<svg xmlns="http://www.w3.org/2000/svg" xmlns:xlink="http://www.w3.org/1999/xlink" width="1080" zoomAndPan="magnify" viewBox="0 0 810 530.249967" height="707" preserveAspectRatio="xMidYMid meet" version="1.0"><defs><clipPath id="60bae3f2b1"><path d="M 0.578125 0 L 809.421875 0 L 809.421875 529.242188 L 0.578125 529.242188 Z M 0.578125 0 " clip-rule="nonzero"/></clipPath></defs><g clip-path="url(#60bae3f2b1)"><path stroke-linecap="butt" transform="matrix(0.748941, 0, 0, 0.748941, 0.57801, -0.0000199718)" fill="none" stroke-linejoin="miter" d="M 0.00015329 0.0000266667 L 1079.984 0.0000266667 L 1079.984 706.654449 L 0.00015329 706.654449 Z M 0.00015329 0.0000266667 " stroke="#444444" stroke-width="10" stroke-opacity="1" stroke-miterlimit="4"/></g><path fill="#444444" d="M 287.578125 347.507812 L 287.578125 212.027344 L 294.933594 212.027344 L 294.933594 233.339844 C 295.796875 232.390625 296.597656 231.390625 297.335938 230.335938 C 298.082031 228.785156 298.933594 227.292969 299.894531 225.863281 C 300.851562 224.433594 301.910156 223.078125 303.058594 221.796875 C 304.210938 220.515625 305.449219 219.324219 306.769531 218.21875 C 308.089844 217.113281 309.480469 216.105469 310.945312 215.195312 C 312.40625 214.289062 313.929688 213.488281 315.503906 212.796875 C 317.082031 212.101562 318.699219 211.527344 320.359375 211.0625 C 322.019531 210.601562 323.703125 210.257812 325.410156 210.03125 C 327.117188 209.808594 328.832031 209.707031 330.554688 209.726562 C 347.3125 209.226562 360.921875 215.429688 368.925781 230.335938 C 370.195312 232.644531 371.324219 235.019531 372.308594 237.460938 C 373.292969 239.902344 374.132812 242.394531 374.820312 244.933594 C 375.507812 247.476562 376.042969 250.050781 376.425781 252.65625 C 376.808594 255.261719 377.03125 257.878906 377.101562 260.511719 C 377.171875 263.144531 377.082031 265.769531 376.839844 268.390625 C 376.597656 271.011719 376.199219 273.613281 375.644531 276.1875 C 375.089844 278.761719 374.386719 281.292969 373.53125 283.78125 C 372.675781 286.273438 371.671875 288.703125 370.527344 291.074219 C 363.074219 307.785156 344.664062 316.089844 324.949219 313.035156 C 323.421875 312.90625 321.910156 312.683594 320.410156 312.363281 C 318.910156 312.042969 317.4375 311.632812 315.988281 311.128906 C 314.539062 310.628906 313.128906 310.035156 311.753906 309.359375 C 310.378906 308.679688 309.050781 307.917969 307.773438 307.074219 C 306.492188 306.230469 305.269531 305.308594 304.105469 304.3125 C 302.941406 303.316406 301.84375 302.25 300.8125 301.117188 C 299.777344 299.980469 298.820312 298.789062 297.9375 297.535156 C 297.054688 296.28125 296.253906 294.976562 295.535156 293.625 L 295.535156 347.507812 Z M 294.933594 259.957031 C 295.582031 266.558594 295.832031 271.261719 296.585938 275.863281 C 299.484375 293.976562 310.191406 304.730469 327.003906 306.683594 C 327.980469 306.84375 328.960938 306.960938 329.949219 307.039062 C 330.9375 307.113281 331.925781 307.148438 332.917969 307.140625 C 333.90625 307.128906 334.894531 307.078125 335.882812 306.984375 C 336.867188 306.890625 337.847656 306.753906 338.824219 306.578125 C 339.796875 306.398438 340.761719 306.179688 341.71875 305.917969 C 342.675781 305.65625 343.617188 305.355469 344.546875 305.015625 C 345.476562 304.671875 346.390625 304.289062 347.285156 303.871094 C 348.183594 303.449219 349.0625 302.992188 349.917969 302.496094 C 350.777344 302 351.609375 301.46875 352.421875 300.898438 C 353.234375 300.332031 354.019531 299.730469 354.78125 299.09375 C 355.539062 298.460938 356.273438 297.792969 356.972656 297.09375 C 357.675781 296.398438 358.347656 295.667969 358.988281 294.914062 C 359.628906 294.15625 360.234375 293.375 360.808594 292.566406 C 361.382812 291.761719 361.917969 290.929688 362.421875 290.074219 C 362.921875 289.21875 363.386719 288.347656 363.8125 287.453125 C 364.238281 286.558594 364.625 285.648438 364.976562 284.71875 C 365.78125 282.800781 366.480469 280.84375 367.078125 278.847656 C 367.675781 276.851562 368.167969 274.832031 368.550781 272.785156 C 368.933594 270.738281 369.207031 268.675781 369.371094 266.601562 C 369.535156 264.527344 369.589844 262.445312 369.535156 260.367188 C 369.480469 258.285156 369.3125 256.210938 369.039062 254.148438 C 368.761719 252.082031 368.378906 250.039062 367.886719 248.015625 C 367.394531 245.992188 366.792969 244 366.089844 242.042969 C 365.386719 240.082031 364.582031 238.164062 363.675781 236.292969 C 362.929688 234.625 362.054688 233.027344 361.050781 231.503906 C 360.046875 229.976562 358.929688 228.542969 357.691406 227.195312 C 356.457031 225.851562 355.121094 224.617188 353.6875 223.488281 C 352.25 222.359375 350.734375 221.351562 349.136719 220.46875 C 347.535156 219.585938 345.878906 218.835938 344.160156 218.222656 C 342.4375 217.609375 340.679688 217.136719 338.886719 216.804688 C 337.089844 216.472656 335.277344 216.289062 333.453125 216.25 C 331.628906 216.214844 329.8125 216.324219 328.003906 216.578125 C 326.304688 216.703125 324.625 216.957031 322.964844 217.339844 C 321.308594 217.722656 319.6875 218.230469 318.105469 218.863281 C 316.527344 219.5 315.003906 220.25 313.539062 221.121094 C 312.078125 221.992188 310.6875 222.96875 309.375 224.054688 C 308.0625 225.140625 306.84375 226.320312 305.714844 227.59375 C 304.582031 228.867188 303.558594 230.222656 302.640625 231.652344 C 301.71875 233.085938 300.914062 234.582031 300.226562 236.140625 C 299.539062 237.699219 298.976562 239.296875 298.535156 240.945312 C 296.960938 247.210938 295.761719 253.546875 294.933594 259.957031 M 527.121094 278.367188 C 526.984375 279.546875 526.792969 280.71875 526.550781 281.882812 C 526.304688 283.042969 526.011719 284.195312 525.664062 285.332031 C 525.316406 286.46875 524.921875 287.585938 524.472656 288.6875 C 524.023438 289.789062 523.53125 290.867188 522.984375 291.921875 C 522.441406 292.980469 521.851562 294.007812 521.210938 295.011719 C 520.574219 296.015625 519.894531 296.988281 519.171875 297.929688 C 518.445312 298.871094 517.679688 299.777344 516.875 300.652344 C 516.066406 301.523438 515.222656 302.359375 514.34375 303.15625 C 513.460938 303.953125 512.546875 304.707031 511.597656 305.421875 C 510.648438 306.136719 509.667969 306.808594 508.660156 307.433594 C 507.648438 308.0625 506.613281 308.640625 505.550781 309.175781 C 504.488281 309.707031 503.40625 310.195312 502.300781 310.628906 C 501.195312 311.066406 500.070312 311.449219 498.933594 311.785156 C 497.792969 312.121094 496.640625 312.402344 495.472656 312.636719 C 494.308594 312.867188 493.132812 313.042969 491.953125 313.167969 C 490.769531 313.296875 489.585938 313.367188 488.398438 313.386719 C 457.578125 314.9375 443.121094 294.476562 440.820312 270.863281 C 440.019531 264.449219 440.128906 258.054688 441.148438 251.671875 C 442.167969 245.292969 444.0625 239.179688 446.824219 233.339844 C 447.300781 232.34375 447.816406 231.371094 448.367188 230.417969 C 448.921875 229.464844 449.511719 228.535156 450.140625 227.628906 C 450.765625 226.722656 451.429688 225.839844 452.125 224.984375 C 452.820312 224.132812 453.550781 223.304688 454.3125 222.507812 C 455.074219 221.710938 455.867188 220.945312 456.6875 220.210938 C 457.511719 219.476562 458.359375 218.777344 459.238281 218.109375 C 460.117188 217.441406 461.019531 216.8125 461.945312 216.214844 C 462.875 215.617188 463.824219 215.058594 464.792969 214.539062 C 465.765625 214.019531 466.757812 213.535156 467.765625 213.09375 C 468.777344 212.652344 469.800781 212.25 470.84375 211.886719 C 471.882812 211.527344 472.9375 211.207031 474.003906 210.925781 C 475.070312 210.648438 476.148438 210.414062 477.234375 210.21875 C 478.320312 210.027344 479.410156 209.875 480.507812 209.769531 C 481.605469 209.660156 482.703125 209.597656 483.804688 209.578125 C 484.910156 209.554688 486.011719 209.578125 487.109375 209.644531 C 488.210938 209.710938 489.308594 209.824219 490.398438 209.976562 C 492.476562 210.152344 494.53125 210.488281 496.558594 210.984375 C 498.585938 211.484375 500.5625 212.136719 502.484375 212.941406 C 504.410156 213.75 506.261719 214.699219 508.035156 215.796875 C 509.8125 216.890625 511.492188 218.117188 513.078125 219.476562 C 514.660156 220.835938 516.128906 222.308594 517.484375 223.898438 C 518.835938 225.484375 520.058594 227.171875 521.148438 228.949219 C 522.238281 230.730469 523.183594 232.582031 523.984375 234.511719 C 524.785156 236.4375 525.429688 238.414062 525.921875 240.445312 C 527.488281 247.882812 528.640625 255.386719 529.371094 262.957031 L 448.375 262.957031 C 446.875 284.371094 458.378906 301.578125 474.691406 305.730469 C 495 310.734375 512.363281 301.929688 518.664062 282.617188 C 520.066406 277.664062 522.617188 276.964844 527.121094 278.367188 M 448.375 256.101562 L 520.765625 256.101562 C 520.316406 233.289062 506.109375 216.78125 486.847656 216.53125 C 465.035156 216.179688 449.324219 232.089844 448.375 256.101562 M 542.03125 278.867188 L 549.132812 278.867188 C 549.199219 280.167969 549.351562 281.457031 549.59375 282.738281 C 549.835938 284.015625 550.167969 285.273438 550.582031 286.507812 C 550.996094 287.742188 551.492188 288.941406 552.074219 290.109375 C 552.652344 291.273438 553.308594 292.394531 554.042969 293.472656 C 554.777344 294.546875 555.578125 295.570312 556.453125 296.535156 C 557.328125 297.5 558.261719 298.402344 559.261719 299.242188 C 560.257812 300.078125 561.308594 300.84375 562.410156 301.535156 C 563.511719 302.230469 564.65625 302.84375 565.84375 303.378906 C 568.839844 304.730469 571.945312 305.726562 575.164062 306.371094 C 578.386719 307.019531 581.636719 307.300781 584.917969 307.210938 C 588.203125 307.125 591.433594 306.675781 594.613281 305.859375 C 597.796875 305.042969 600.847656 303.882812 603.765625 302.378906 C 604.558594 302.023438 605.316406 301.609375 606.042969 301.136719 C 606.773438 300.664062 607.460938 300.140625 608.105469 299.5625 C 608.753906 298.984375 609.355469 298.363281 609.90625 297.691406 C 610.460938 297.023438 610.957031 296.316406 611.402344 295.574219 C 611.847656 294.828125 612.234375 294.054688 612.558594 293.25 C 612.886719 292.445312 613.148438 291.621094 613.351562 290.777344 C 613.550781 289.933594 613.6875 289.078125 613.757812 288.214844 C 613.828125 287.351562 613.832031 286.484375 613.773438 285.621094 C 613.816406 284.785156 613.796875 283.953125 613.707031 283.125 C 613.617188 282.292969 613.460938 281.476562 613.238281 280.671875 C 613.015625 279.863281 612.730469 279.082031 612.382812 278.324219 C 612.035156 277.566406 611.625 276.839844 611.160156 276.148438 C 610.695312 275.453125 610.175781 274.804688 609.601562 274.195312 C 609.03125 273.585938 608.414062 273.027344 607.75 272.519531 C 607.089844 272.007812 606.390625 271.558594 605.652344 271.160156 C 604.917969 270.765625 604.15625 270.433594 603.367188 270.160156 C 595.5625 267.257812 587.257812 265.660156 579.300781 263.105469 C 571.011719 260.75 562.941406 257.800781 555.085938 254.25 C 542.28125 248 541.480469 223.632812 555.988281 215.929688 C 557.839844 214.886719 559.746094 213.960938 561.710938 213.152344 C 563.675781 212.347656 565.683594 211.667969 567.734375 211.113281 C 569.785156 210.554688 571.863281 210.128906 573.964844 209.835938 C 576.070312 209.539062 578.183594 209.375 580.308594 209.339844 C 582.429688 209.308594 584.546875 209.40625 586.660156 209.640625 C 588.773438 209.871094 590.859375 210.234375 592.925781 210.726562 C 594.992188 211.21875 597.023438 211.835938 599.011719 212.582031 C 601 213.324219 602.933594 214.191406 604.816406 215.179688 C 605.953125 215.808594 607.039062 216.519531 608.066406 217.3125 C 609.097656 218.105469 610.0625 218.96875 610.960938 219.910156 C 611.859375 220.847656 612.679688 221.851562 613.425781 222.914062 C 614.171875 223.976562 614.835938 225.089844 615.414062 226.253906 C 615.992188 227.417969 616.476562 228.621094 616.875 229.859375 C 617.269531 231.097656 617.570312 232.359375 617.773438 233.640625 C 617.976562 234.925781 618.085938 236.214844 618.09375 237.515625 C 618.101562 238.816406 618.011719 240.109375 617.824219 241.394531 L 611.722656 241.394531 C 611.722656 241.09375 611.171875 240.84375 611.171875 240.542969 C 610.421875 221.082031 594.109375 215.078125 576.601562 216.78125 C 571.335938 217.433594 566.332031 218.949219 561.589844 221.332031 C 560.890625 221.652344 560.214844 222.027344 559.570312 222.453125 C 558.925781 222.878906 558.316406 223.347656 557.746094 223.867188 C 557.171875 224.386719 556.644531 224.949219 556.160156 225.546875 C 555.675781 226.148438 555.238281 226.785156 554.851562 227.453125 C 554.460938 228.121094 554.128906 228.8125 553.847656 229.53125 C 553.566406 230.253906 553.34375 230.988281 553.179688 231.742188 C 553.011719 232.496094 552.902344 233.261719 552.855469 234.03125 C 552.804688 234.800781 552.816406 235.570312 552.886719 236.339844 C 552.886719 237.109375 552.949219 237.875 553.070312 238.636719 C 553.1875 239.394531 553.367188 240.140625 553.601562 240.875 C 553.835938 241.609375 554.125 242.320312 554.46875 243.007812 C 554.8125 243.695312 555.207031 244.355469 555.652344 244.980469 C 556.097656 245.609375 556.589844 246.199219 557.125 246.75 C 557.660156 247.304688 558.234375 247.8125 558.847656 248.277344 C 559.464844 248.738281 560.109375 249.152344 560.785156 249.519531 C 561.464844 249.882812 562.167969 250.191406 562.890625 250.449219 C 570.597656 253.25 578.652344 255.050781 586.554688 257.253906 C 592.910156 259.003906 599.515625 260.15625 605.667969 262.257812 C 606.746094 262.609375 607.792969 263.042969 608.808594 263.554688 C 609.824219 264.066406 610.792969 264.652344 611.71875 265.3125 C 612.644531 265.96875 613.515625 266.695312 614.332031 267.484375 C 615.148438 268.273438 615.898438 269.121094 616.589844 270.027344 C 617.277344 270.929688 617.894531 271.878906 618.4375 272.875 C 618.984375 273.875 619.449219 274.90625 619.839844 275.972656 C 620.226562 277.042969 620.535156 278.132812 620.757812 279.246094 C 620.984375 280.359375 621.121094 281.484375 621.175781 282.617188 C 621.359375 283.863281 621.449219 285.109375 621.4375 286.367188 C 621.425781 287.625 621.316406 288.871094 621.109375 290.113281 C 620.902344 291.351562 620.601562 292.566406 620.203125 293.757812 C 619.804688 294.949219 619.320312 296.105469 618.742188 297.21875 C 618.164062 298.335938 617.5 299.398438 616.757812 300.410156 C 616.011719 301.425781 615.195312 302.371094 614.300781 303.257812 C 613.40625 304.140625 612.449219 304.949219 611.429688 305.683594 C 610.410156 306.417969 609.339844 307.066406 608.21875 307.632812 C 591.507812 317.089844 563.992188 314.585938 551.734375 302.628906 C 550.183594 301.066406 548.796875 299.367188 547.582031 297.53125 C 546.363281 295.695312 545.339844 293.757812 544.507812 291.71875 C 543.671875 289.679688 543.046875 287.578125 542.632812 285.414062 C 542.214844 283.253906 542.015625 281.070312 542.03125 278.867188 M 711.230469 241.394531 L 704.574219 241.394531 C 704.574219 240.492188 704.226562 239.691406 704.125 238.941406 C 704.097656 237.703125 703.96875 236.476562 703.730469 235.261719 C 703.496094 234.046875 703.15625 232.859375 702.71875 231.703125 C 702.28125 230.546875 701.746094 229.433594 701.117188 228.367188 C 700.488281 227.300781 699.777344 226.292969 698.976562 225.347656 C 698.175781 224.402344 697.300781 223.535156 696.351562 222.738281 C 695.402344 221.941406 694.394531 221.234375 693.324219 220.609375 C 692.253906 219.988281 691.140625 219.457031 689.980469 219.023438 C 688.820312 218.59375 687.632812 218.261719 686.414062 218.03125 C 684.117188 217.371094 681.785156 216.902344 679.410156 216.628906 C 677.035156 216.351562 674.65625 216.273438 672.269531 216.386719 C 669.882812 216.5 667.523438 216.808594 665.1875 217.3125 C 662.851562 217.816406 660.570312 218.503906 658.347656 219.382812 C 657.46875 219.632812 656.617188 219.953125 655.789062 220.34375 C 654.960938 220.730469 654.171875 221.183594 653.417969 221.699219 C 652.664062 222.21875 651.953125 222.789062 651.292969 223.421875 C 650.628906 224.050781 650.019531 224.730469 649.46875 225.457031 C 648.914062 226.183594 648.421875 226.953125 647.992188 227.757812 C 647.5625 228.566406 647.203125 229.402344 646.90625 230.269531 C 646.609375 231.132812 646.386719 232.015625 646.234375 232.917969 C 646.078125 233.820312 646 234.726562 645.992188 235.640625 C 645.960938 236.539062 646.007812 237.429688 646.128906 238.320312 C 646.25 239.210938 646.449219 240.082031 646.71875 240.9375 C 646.992188 241.792969 647.332031 242.617188 647.746094 243.414062 C 648.160156 244.210938 648.636719 244.96875 649.179688 245.683594 C 649.722656 246.398438 650.324219 247.0625 650.980469 247.671875 C 651.636719 248.285156 652.339844 248.835938 653.089844 249.328125 C 653.84375 249.820312 654.628906 250.242188 655.453125 250.597656 C 656.277344 250.957031 657.125 251.238281 658 251.449219 C 668.003906 254.550781 678.261719 256.453125 688.417969 259.253906 C 691.710938 260.046875 694.945312 261.03125 698.121094 262.207031 C 699.300781 262.628906 700.441406 263.136719 701.542969 263.726562 C 702.644531 264.320312 703.695312 264.992188 704.695312 265.742188 C 705.699219 266.492188 706.636719 267.3125 707.515625 268.203125 C 708.394531 269.097656 709.199219 270.046875 709.9375 271.058594 C 710.671875 272.074219 711.328125 273.132812 711.902344 274.246094 C 712.480469 275.355469 712.96875 276.503906 713.371094 277.6875 C 713.777344 278.871094 714.089844 280.078125 714.3125 281.3125 C 714.535156 282.542969 714.664062 283.785156 714.699219 285.035156 C 714.734375 286.285156 714.679688 287.53125 714.527344 288.773438 C 714.378906 290.015625 714.132812 291.238281 713.800781 292.445312 C 713.464844 293.652344 713.042969 294.824219 712.53125 295.96875 C 712.023438 297.109375 711.429688 298.207031 710.753906 299.261719 C 710.078125 300.3125 709.328125 301.3125 708.503906 302.25 C 707.679688 303.191406 706.789062 304.066406 705.832031 304.875 C 704.875 305.679688 703.863281 306.410156 702.800781 307.066406 C 701.734375 307.722656 700.625 308.296875 699.472656 308.785156 C 695.941406 310.386719 692.285156 311.609375 688.5 312.445312 C 684.714844 313.285156 680.882812 313.726562 677.007812 313.761719 C 673.128906 313.800781 669.292969 313.441406 665.488281 312.675781 C 661.6875 311.914062 658.007812 310.765625 654.445312 309.234375 C 652.992188 308.605469 651.589844 307.871094 650.246094 307.03125 C 648.902344 306.191406 647.628906 305.25 646.429688 304.214844 C 645.226562 303.179688 644.113281 302.0625 643.082031 300.855469 C 642.050781 299.652344 641.117188 298.375 640.28125 297.027344 C 639.445312 295.679688 638.71875 294.277344 638.09375 292.820312 C 637.472656 291.359375 636.964844 289.863281 636.570312 288.328125 C 636.175781 286.792969 635.902344 285.234375 635.746094 283.65625 C 635.585938 282.082031 635.550781 280.5 635.636719 278.917969 L 642.140625 278.917969 C 642.289062 279.640625 642.460938 280.355469 642.652344 281.066406 C 642.847656 281.78125 643.0625 282.484375 643.296875 283.183594 C 643.535156 283.882812 643.789062 284.574219 644.066406 285.257812 C 644.347656 285.941406 644.644531 286.613281 644.964844 287.28125 C 645.28125 287.945312 645.621094 288.597656 645.980469 289.242188 C 646.339844 289.890625 646.714844 290.523438 647.113281 291.144531 C 647.507812 291.765625 647.925781 292.375 648.359375 292.972656 C 648.792969 293.566406 649.246094 294.148438 649.714844 294.71875 C 650.183594 295.289062 650.667969 295.84375 651.171875 296.382812 C 651.675781 296.921875 652.195312 297.445312 652.730469 297.953125 C 653.261719 298.460938 653.8125 298.953125 654.378906 299.425781 C 654.941406 299.902344 655.519531 300.359375 656.113281 300.800781 C 656.707031 301.238281 657.308594 301.660156 657.929688 302.0625 C 658.546875 302.464844 659.175781 302.851562 659.816406 303.214844 C 660.457031 303.578125 661.109375 303.925781 661.769531 304.25 C 662.433594 304.574219 663.105469 304.878906 663.785156 305.164062 C 664.464844 305.449219 665.15625 305.710938 665.851562 305.953125 C 666.546875 306.199219 667.25 306.417969 667.960938 306.617188 C 668.671875 306.820312 669.386719 306.996094 670.105469 307.152344 C 670.828125 307.3125 671.550781 307.445312 672.28125 307.558594 C 673.011719 307.671875 673.742188 307.761719 674.476562 307.828125 C 675.210938 307.898438 675.945312 307.945312 676.683594 307.96875 C 677.421875 307.992188 678.160156 307.992188 678.894531 307.972656 C 679.632812 307.949219 680.371094 307.90625 681.105469 307.839844 C 681.839844 307.773438 682.570312 307.6875 683.300781 307.578125 C 684.03125 307.464844 684.753906 307.335938 685.476562 307.179688 C 686.199219 307.027344 686.914062 306.851562 687.625 306.652344 C 688.335938 306.453125 689.039062 306.234375 689.734375 305.996094 C 690.433594 305.753906 691.121094 305.492188 691.804688 305.210938 C 692.484375 304.929688 693.15625 304.625 693.820312 304.304688 C 694.484375 303.980469 695.136719 303.636719 695.78125 303.273438 C 696.421875 302.914062 697.050781 302.53125 697.671875 302.128906 C 698.425781 301.738281 699.148438 301.296875 699.839844 300.800781 C 700.53125 300.304688 701.183594 299.765625 701.796875 299.175781 C 702.410156 298.589844 702.976562 297.960938 703.5 297.289062 C 704.023438 296.621094 704.5 295.917969 704.921875 295.183594 C 705.34375 294.445312 705.714844 293.683594 706.027344 292.894531 C 706.34375 292.105469 706.601562 291.296875 706.800781 290.46875 C 707 289.644531 707.140625 288.808594 707.21875 287.960938 C 707.300781 287.117188 707.320312 286.269531 707.277344 285.421875 C 707.316406 284.585938 707.285156 283.753906 707.1875 282.925781 C 707.089844 282.09375 706.925781 281.277344 706.695312 280.476562 C 706.46875 279.671875 706.175781 278.894531 705.816406 278.136719 C 705.460938 277.382812 705.046875 276.660156 704.574219 275.972656 C 704.101562 275.28125 703.574219 274.636719 702.996094 274.035156 C 702.417969 273.429688 701.796875 272.878906 701.128906 272.375 C 700.460938 271.875 699.757812 271.429688 699.019531 271.039062 C 698.28125 270.652344 697.515625 270.324219 696.722656 270.0625 C 688.917969 267.160156 680.613281 265.609375 672.65625 263.058594 C 664.320312 260.734375 656.199219 257.816406 648.292969 254.300781 C 635.785156 248.148438 634.785156 223.984375 649.042969 216.28125 C 650.914062 215.191406 652.851562 214.230469 654.847656 213.390625 C 656.84375 212.554688 658.886719 211.847656 660.972656 211.273438 C 663.0625 210.699219 665.175781 210.257812 667.320312 209.957031 C 669.464844 209.65625 671.621094 209.492188 673.785156 209.46875 C 675.949219 209.445312 678.109375 209.558594 680.257812 209.8125 C 682.410156 210.066406 684.535156 210.460938 686.632812 210.988281 C 688.734375 211.515625 690.792969 212.175781 692.804688 212.96875 C 694.820312 213.765625 696.777344 214.683594 698.671875 215.730469 C 699.753906 216.375 700.785156 217.097656 701.765625 217.894531 C 702.746094 218.6875 703.660156 219.550781 704.515625 220.480469 C 705.371094 221.40625 706.152344 222.390625 706.863281 223.433594 C 707.574219 224.476562 708.210938 225.5625 708.761719 226.695312 C 709.316406 227.828125 709.789062 228.996094 710.171875 230.199219 C 710.558594 231.398438 710.855469 232.621094 711.066406 233.867188 C 711.273438 235.109375 711.390625 236.363281 711.417969 237.625 C 711.449219 238.886719 711.382812 240.140625 711.230469 241.394531 M 275.421875 310.933594 C 274.773438 311.179688 274.105469 311.367188 273.421875 311.492188 C 272.738281 311.617188 272.050781 311.679688 271.355469 311.679688 C 270.660156 311.675781 269.972656 311.613281 269.289062 311.488281 C 268.605469 311.363281 267.941406 311.175781 267.292969 310.929688 C 266.644531 310.683594 266.023438 310.378906 265.429688 310.019531 C 264.832031 309.660156 264.277344 309.25 263.757812 308.789062 C 263.238281 308.328125 262.765625 307.824219 262.335938 307.277344 C 261.910156 306.730469 261.535156 306.148438 261.214844 305.53125 C 253.058594 293.324219 244.054688 281.667969 235.398438 269.761719 L 231.644531 264.757812 C 221.339844 278.566406 211.035156 291.824219 201.628906 305.582031 C 201.324219 306.171875 200.96875 306.726562 200.566406 307.25 C 200.160156 307.773438 199.714844 308.257812 199.222656 308.703125 C 198.730469 309.144531 198.203125 309.542969 197.640625 309.890625 C 197.078125 310.238281 196.488281 310.535156 195.871094 310.773438 C 195.253906 311.015625 194.621094 311.203125 193.972656 311.328125 C 193.324219 311.457031 192.667969 311.527344 192.007812 311.535156 C 191.34375 311.542969 190.6875 311.496094 190.035156 311.386719 C 189.378906 311.277344 188.742188 311.109375 188.121094 310.886719 L 226.792969 259.003906 L 190.820312 212.125 C 191.464844 211.894531 192.121094 211.71875 192.792969 211.601562 C 193.46875 211.480469 194.144531 211.417969 194.828125 211.417969 C 195.511719 211.414062 196.191406 211.46875 196.863281 211.582031 C 197.539062 211.695312 198.195312 211.863281 198.839844 212.089844 C 199.484375 212.316406 200.105469 212.597656 200.703125 212.929688 C 201.300781 213.261719 201.863281 213.640625 202.394531 214.070312 C 202.925781 214.5 203.417969 214.972656 203.867188 215.484375 C 204.320312 216 204.722656 216.546875 205.078125 217.128906 C 213.433594 229.335938 222.691406 240.992188 231.894531 253.351562 C 241.152344 241.09375 250.308594 229.386719 258.863281 217.28125 C 259.167969 216.703125 259.523438 216.15625 259.929688 215.640625 C 260.332031 215.128906 260.78125 214.65625 261.273438 214.222656 C 261.765625 213.792969 262.289062 213.40625 262.851562 213.070312 C 263.414062 212.734375 264 212.453125 264.613281 212.226562 C 265.226562 211.996094 265.855469 211.824219 266.5 211.710938 C 267.144531 211.597656 267.792969 211.542969 268.445312 211.546875 C 269.101562 211.550781 269.75 211.613281 270.390625 211.738281 C 271.035156 211.859375 271.660156 212.039062 272.269531 212.277344 L 258.3125 230.789062 C 252.058594 239.042969 245.902344 247.347656 239.398438 255.402344 C 239.136719 255.636719 238.902344 255.894531 238.695312 256.179688 C 238.488281 256.464844 238.3125 256.765625 238.171875 257.089844 C 238.027344 257.410156 237.917969 257.742188 237.84375 258.085938 C 237.769531 258.429688 237.734375 258.777344 237.734375 259.128906 C 237.734375 259.480469 237.769531 259.828125 237.84375 260.171875 C 237.917969 260.515625 238.027344 260.851562 238.171875 261.171875 C 238.3125 261.492188 238.488281 261.792969 238.695312 262.078125 C 238.902344 262.363281 239.136719 262.621094 239.398438 262.855469 C 251.355469 278.714844 263.214844 294.625 275.421875 310.933594 M 439.617188 211.625 L 439.617188 218.628906 C 438.355469 218.546875 437.09375 218.53125 435.832031 218.582031 C 434.566406 218.628906 433.3125 218.746094 432.058594 218.925781 C 430.808594 219.105469 429.570312 219.351562 428.34375 219.660156 C 427.117188 219.972656 425.914062 220.34375 424.726562 220.78125 C 423.539062 221.21875 422.378906 221.714844 421.246094 222.273438 C 420.109375 222.832031 419.007812 223.445312 417.9375 224.117188 C 416.867188 224.792969 415.835938 225.519531 414.839844 226.300781 C 413.847656 227.082031 412.894531 227.910156 411.988281 228.792969 C 411.082031 229.671875 410.222656 230.597656 409.410156 231.566406 C 408.601562 232.539062 407.84375 233.546875 407.136719 234.597656 C 406.433594 235.644531 405.785156 236.730469 405.191406 237.847656 C 404.601562 238.964844 404.070312 240.109375 403.597656 241.28125 C 403.125 242.453125 402.714844 243.648438 402.367188 244.863281 C 402.019531 246.082031 401.738281 247.3125 401.519531 248.554688 C 401.300781 249.800781 401.148438 251.054688 401.058594 252.316406 C 400.972656 253.578125 400.953125 254.839844 400.996094 256.101562 L 400.996094 311.136719 L 393.84375 311.136719 L 393.84375 212.027344 L 400.847656 212.027344 L 400.847656 232.339844 C 409.5 217.53125 422.859375 212.027344 439.617188 211.625 M 95.464844 258.355469 C 96.515625 253.351562 97.167969 247.898438 98.617188 242.796875 C 107.273438 212.027344 142.542969 199.21875 166.808594 218.28125 C 181.015625 229.4375 184.566406 245.246094 183.867188 263.058594 L 103.820312 263.058594 C 102.519531 294.875 125.484375 314.085938 154.851562 304.28125 C 156.035156 303.855469 157.191406 303.359375 158.316406 302.792969 C 159.441406 302.226562 160.527344 301.589844 161.574219 300.886719 C 162.621094 300.1875 163.617188 299.421875 164.570312 298.59375 C 165.519531 297.769531 166.417969 296.886719 167.257812 295.949219 C 168.101562 295.011719 168.882812 294.027344 169.601562 292.992188 C 170.320312 291.957031 170.972656 290.882812 171.558594 289.765625 C 172.144531 288.652344 172.660156 287.503906 173.105469 286.324219 C 173.546875 285.144531 173.917969 283.945312 174.210938 282.71875 C 175.761719 277.714844 178.265625 276.863281 183.015625 278.316406 C 182.625 281.363281 181.898438 284.324219 180.835938 287.203125 C 179.773438 290.085938 178.398438 292.808594 176.71875 295.378906 C 175.039062 297.949219 173.089844 300.296875 170.875 302.425781 C 168.664062 304.550781 166.238281 306.40625 163.605469 307.984375 C 162.527344 308.574219 161.425781 309.121094 160.300781 309.625 C 159.179688 310.128906 158.039062 310.589844 156.882812 311.003906 C 155.722656 311.417969 154.550781 311.785156 153.363281 312.105469 C 152.175781 312.429688 150.976562 312.703125 149.769531 312.933594 C 148.558594 313.160156 147.34375 313.34375 146.121094 313.476562 C 144.894531 313.609375 143.667969 313.691406 142.441406 313.730469 C 141.210938 313.765625 139.980469 313.753906 138.75 313.695312 C 137.523438 313.632812 136.296875 313.527344 135.078125 313.371094 C 133.855469 313.214844 132.644531 313.011719 131.441406 312.757812 C 130.234375 312.507812 129.042969 312.210938 127.863281 311.867188 C 126.679688 311.519531 125.515625 311.128906 124.363281 310.695312 C 123.214844 310.257812 122.082031 309.777344 120.96875 309.25 C 119.859375 308.726562 118.765625 308.160156 117.699219 307.546875 C 116.632812 306.9375 115.589844 306.285156 114.570312 305.59375 C 113.554688 304.898438 112.566406 304.167969 111.605469 303.398438 C 110.648438 302.628906 109.71875 301.824219 108.824219 300.980469 C 107.046875 298.984375 105.445312 296.855469 104.015625 294.601562 C 102.585938 292.34375 101.347656 289.984375 100.300781 287.527344 C 99.257812 285.070312 98.414062 282.542969 97.78125 279.949219 C 97.144531 277.355469 96.722656 274.726562 96.515625 272.0625 C 96.515625 270.359375 95.867188 268.660156 95.515625 267.058594 C 95.480469 264.089844 95.464844 261.1875 95.464844 258.355469 M 103.921875 256.203125 L 176.3125 256.203125 C 175.863281 233.140625 161.304688 216.78125 141.894531 216.628906 C 120.28125 216.328125 104.820312 232.339844 103.871094 256.101562 Z M 103.921875 256.203125 " fill-opacity="1" fill-rule="nonzero"/></svg>