<svg xmlns="http://www.w3.org/2000/svg" xmlns:xlink="http://www.w3.org/1999/xlink" width="1080" zoomAndPan="magnify" viewBox="0 0 810 530.249967" height="707" preserveAspectRatio="xMidYMid meet" version="1.0"><defs><clipPath id="1711553fde"><path d="M 0.578125 0 L 809.421875 0 L 809.421875 529.242188 L 0.578125 529.242188 Z M 0.578125 0 " clip-rule="nonzero"/></clipPath></defs><g clip-path="url(#1711553fde)"><path stroke-linecap="butt" transform="matrix(0.748941, 0, 0, 0.748941, 0.57801, -0.0000199718)" fill="none" stroke-linejoin="miter" d="M 0.00015329 0.0000266667 L 1079.984 0.0000266667 L 1079.984 706.654449 L 0.00015329 706.654449 Z M 0.00015329 0.0000266667 " stroke="#444444" stroke-width="10" stroke-opacity="1" stroke-miterlimit="4"/></g><path fill="#444444" d="M 429.132812 164.347656 L 434.78125 164.347656 L 450.699219 148.429688 L 451.726562 141.753906 C 439.402344 130.457031 422.457031 123.78125 403.96875 123.78125 C 371.105469 123.78125 342.863281 146.375 334.648438 176.671875 C 336.1875 175.644531 340.296875 176.160156 340.296875 176.160156 L 372.132812 171.023438 C 372.132812 171.023438 373.671875 168.457031 374.699219 168.457031 C 389.078125 153.050781 412.699219 151.511719 429.132812 164.347656 " fill-opacity="1" fill-rule="nonzero"/><path fill="#444444" d="M 473.808594 176.671875 C 469.699219 163.320312 462.511719 150.996094 451.726562 141.753906 L 429.132812 164.347656 C 438.886719 172.050781 444.023438 183.347656 444.023438 195.671875 L 444.023438 199.78125 C 454.808594 199.78125 464.050781 208.511719 464.050781 219.808594 C 464.050781 230.589844 455.320312 239.320312 444.023438 239.320312 L 403.96875 239.320312 L 399.863281 243.429688 L 399.863281 267.5625 L 403.96875 271.671875 L 444.023438 271.671875 C 472.78125 271.671875 495.886719 248.5625 495.886719 219.808594 C 495.886719 202.347656 487.15625 186.429688 473.292969 177.1875 Z M 473.808594 176.671875 " fill-opacity="1" fill-rule="nonzero"/><path fill="#444444" d="M 364.429688 271.160156 L 404.484375 271.160156 L 404.484375 239.320312 L 364.429688 239.320312 C 361.347656 239.320312 358.78125 238.808594 356.214844 237.78125 L 350.566406 239.320312 L 334.648438 255.238281 L 333.105469 260.375 C 341.835938 267.5625 353.132812 271.160156 364.429688 271.160156 " fill-opacity="1" fill-rule="nonzero"/><path fill="#444444" d="M 364.429688 167.429688 C 335.671875 167.429688 312.566406 190.539062 312.566406 219.292969 C 312.566406 235.726562 320.269531 251.132812 333.105469 260.886719 L 356.214844 237.78125 C 349.023438 234.1875 344.402344 227.511719 344.402344 219.292969 C 344.402344 208.511719 353.132812 199.269531 364.429688 199.269531 C 372.132812 199.78125 379.320312 204.402344 382.402344 211.078125 L 405.511719 187.96875 C 396.265625 175.644531 380.863281 167.429688 364.429688 167.429688 " fill-opacity="1" fill-rule="nonzero"/><path fill="#5f6368" d="M 158 371.804688 C 147.214844 371.804688 137.972656 367.699219 129.757812 359.996094 C 121.542969 352.292969 117.945312 343.5625 117.945312 332.265625 C 117.945312 320.96875 122.054688 312.238281 129.757812 304.535156 C 137.460938 296.832031 147.214844 292.726562 158 292.726562 C 167.757812 293.238281 177.511719 296.832031 184.703125 304.023438 L 177 311.726562 C 171.863281 306.589844 165.1875 304.023438 157.488281 304.023438 C 149.785156 304.023438 143.109375 306.589844 137.460938 312.238281 C 132.324219 317.375 129.242188 325.078125 129.757812 332.265625 C 129.757812 339.96875 132.324219 347.15625 137.972656 352.292969 C 143.109375 358.453125 150.296875 361.023438 157.488281 361.023438 C 165.703125 361.023438 171.863281 358.453125 177.511719 353.320312 C 180.59375 350.238281 182.648438 345.617188 183.160156 339.96875 L 158 339.96875 L 158 329.183594 L 193.945312 329.183594 C 194.460938 331.238281 194.460938 333.292969 194.460938 335.859375 C 194.460938 346.644531 191.378906 354.859375 185.214844 361.023438 C 178.027344 368.210938 169.296875 372.320312 158 372.320312 Z M 242.214844 364.617188 C 237.082031 369.238281 231.429688 371.804688 224.242188 371.804688 C 217.054688 371.804688 210.890625 369.238281 206.269531 364.617188 C 201.648438 359.996094 199.082031 353.832031 199.082031 346.644531 C 199.082031 339.453125 201.648438 333.292969 206.269531 328.671875 C 210.890625 324.050781 217.054688 321.480469 224.242188 321.480469 C 231.429688 321.480469 237.59375 324.050781 242.214844 328.671875 C 246.835938 333.292969 249.40625 339.453125 249.40625 346.644531 C 249.40625 353.832031 246.835938 359.996094 242.214844 364.617188 M 213.972656 357.429688 C 216.539062 360.507812 220.132812 362.050781 223.730469 362.050781 C 227.835938 362.050781 230.917969 360.507812 234 357.429688 C 237.082031 354.347656 238.105469 350.753906 238.105469 346.644531 C 238.105469 342.023438 236.566406 338.429688 234 335.347656 C 231.429688 332.265625 227.835938 331.238281 223.730469 331.238281 C 220.132812 331.238281 216.027344 332.78125 213.457031 335.347656 C 210.890625 338.429688 209.351562 342.023438 209.351562 346.644531 C 209.351562 351.265625 210.890625 354.859375 213.457031 357.429688 Z M 297.675781 364.617188 C 292.539062 369.238281 286.890625 371.804688 279.703125 371.804688 C 272.511719 371.804688 266.351562 369.238281 261.730469 364.617188 C 257.105469 359.996094 254.539062 353.832031 254.539062 346.644531 C 254.539062 339.453125 257.105469 333.292969 261.730469 328.671875 C 266.351562 324.050781 272.511719 321.480469 279.703125 321.480469 C 286.890625 321.480469 293.050781 324.050781 297.675781 328.671875 C 302.296875 333.292969 304.863281 339.453125 304.863281 346.644531 C 304.863281 353.832031 302.296875 359.996094 297.675781 364.617188 M 269.429688 357.429688 C 272 360.507812 275.59375 362.050781 279.1875 362.050781 C 283.296875 362.050781 286.375 360.507812 289.457031 357.429688 C 292.539062 354.347656 293.566406 350.753906 293.566406 346.644531 C 293.566406 342.023438 292.027344 338.429688 289.457031 335.347656 C 286.890625 332.265625 283.296875 331.238281 279.1875 331.238281 C 275.59375 331.238281 271.484375 332.78125 268.917969 335.347656 C 266.351562 338.429688 264.808594 342.023438 264.808594 346.644531 C 264.808594 351.265625 266.351562 354.859375 268.917969 357.429688 Z M 334.132812 394.398438 C 328.484375 394.398438 323.863281 392.859375 319.753906 389.777344 C 315.648438 386.699219 313.078125 383.101562 311.539062 379.507812 L 321.296875 375.402344 C 322.324219 377.96875 323.863281 380.023438 325.917969 381.5625 C 328.996094 383.875 330.539062 384.128906 334.132812 384.128906 C 338.242188 384.128906 341.835938 382.589844 343.890625 380.535156 C 345.945312 378.480469 347.484375 374.375 347.484375 369.238281 L 347.484375 365.644531 L 346.972656 365.644531 C 343.890625 369.238281 339.269531 371.292969 333.621094 371.292969 C 326.945312 371.292969 321.296875 368.726562 316.671875 364.101562 C 311.539062 359.996094 308.972656 353.320312 309.484375 346.644531 C 308.972656 339.96875 311.539062 333.292969 316.671875 328.671875 C 321.296875 323.535156 326.945312 321.480469 333.621094 321.480469 C 336.699219 321.480469 339.269531 321.996094 341.320312 323.023438 C 344.402344 324.5625 345.429688 325.589844 346.972656 327.132812 L 347.484375 327.132812 L 347.484375 323.023438 L 358.269531 323.023438 L 358.269531 368.726562 C 358.269531 377.453125 356.214844 384.128906 351.59375 388.75 C 346.972656 392.859375 341.320312 395.425781 334.132812 395.425781 Z M 334.648438 361.535156 C 338.242188 362.050781 341.835938 360.507812 343.890625 357.429688 C 346.457031 354.347656 347.996094 350.753906 347.996094 346.644531 C 347.996094 342.023438 346.457031 338.429688 343.890625 335.347656 C 341.835938 332.78125 338.242188 331.238281 334.648438 331.238281 C 330.539062 331.238281 327.457031 332.78125 324.890625 335.859375 C 322.324219 338.941406 320.78125 342.535156 320.78125 347.15625 C 320.78125 351.265625 322.324219 355.375 324.890625 357.941406 C 327.457031 360.507812 331.050781 362.5625 334.648438 362.5625 Z M 376.753906 295.292969 L 376.753906 369.75 L 365.457031 369.75 L 365.457031 295.292969 Z M 407.050781 371.292969 C 399.863281 371.292969 393.699219 368.726562 389.078125 364.101562 C 384.457031 359.480469 381.890625 353.320312 381.890625 346.128906 C 381.890625 338.941406 384.457031 332.78125 389.078125 327.644531 C 393.1875 323.535156 399.347656 320.96875 406.023438 320.96875 C 409.105469 320.96875 412.1875 321.480469 414.753906 322.507812 C 416.808594 324.050781 418.863281 325.078125 420.914062 327.132812 C 422.457031 328.671875 423.996094 330.210938 425.023438 332.265625 C 426.050781 333.804688 427.078125 335.347656 427.589844 337.402344 L 428.617188 340.480469 L 394.726562 354.347656 C 397.292969 359.480469 401.402344 362.050781 407.050781 362.050781 C 412.1875 362.050781 416.292969 359.480469 419.375 354.859375 L 428.105469 360.507812 C 426.050781 363.589844 423.484375 366.15625 419.890625 368.210938 C 416.292969 370.265625 412.1875 371.804688 407.050781 371.804688 Z M 393.1875 345.105469 L 415.78125 335.859375 C 415.265625 334.320312 413.726562 332.78125 412.1875 331.753906 C 410.132812 331.238281 408.078125 330.726562 406.023438 330.726562 C 402.941406 330.726562 399.863281 332.265625 396.78125 334.832031 C 393.699219 337.402344 392.671875 340.996094 392.671875 345.617188 Z M 487.15625 371.292969 C 476.886719 371.292969 468.671875 367.699219 461.484375 361.023438 C 454.292969 354.347656 451.210938 345.617188 451.210938 335.347656 C 451.210938 325.078125 454.808594 316.347656 461.484375 309.671875 C 468.160156 302.996094 476.886719 299.402344 487.15625 299.402344 C 497.429688 299.402344 506.15625 302.996094 512.320312 310.699219 L 506.15625 316.859375 C 501.535156 311.210938 494.859375 308.132812 487.15625 308.132812 C 479.457031 308.132812 473.292969 310.699219 468.160156 315.832031 C 463.023438 320.96875 460.457031 327.644531 460.457031 335.859375 C 460.457031 344.078125 463.023438 350.753906 468.160156 355.886719 C 473.292969 361.023438 479.457031 363.589844 487.15625 363.589844 C 495.375 363.589844 502.5625 360.507812 508.210938 353.832031 L 514.375 359.996094 C 511.292969 363.589844 507.183594 366.671875 502.5625 368.726562 C 497.429688 370.777344 492.292969 371.804688 487.15625 371.804688 Z M 531.320312 369.75 L 522.589844 369.75 L 522.589844 301.457031 L 531.320312 301.457031 Z M 545.699219 328.15625 C 550.320312 323.535156 555.96875 320.96875 563.15625 320.96875 C 570.347656 320.96875 575.996094 323.535156 580.617188 328.15625 C 585.238281 332.78125 587.292969 338.941406 587.292969 346.128906 C 587.292969 353.320312 585.238281 359.480469 580.617188 364.101562 C 575.996094 368.726562 570.347656 371.292969 563.15625 371.292969 C 555.96875 371.292969 550.320312 368.726562 545.699219 364.101562 C 541.078125 359.480469 539.023438 353.320312 539.023438 346.128906 C 539.023438 338.941406 541.078125 332.78125 545.699219 328.15625 M 552.375 358.453125 C 555.453125 361.535156 559.050781 363.078125 563.15625 363.078125 C 569.320312 363.078125 570.859375 361.535156 573.941406 358.453125 C 577.023438 355.375 578.5625 351.265625 578.5625 346.128906 C 578.5625 340.996094 577.023438 336.886719 573.941406 333.804688 C 570.859375 330.726562 567.265625 329.183594 563.15625 329.183594 C 559.050781 329.183594 555.453125 330.726562 552.375 333.804688 C 549.292969 336.886719 547.753906 340.996094 547.753906 346.128906 C 547.753906 351.265625 549.292969 355.375 552.375 358.453125 M 636.074219 369.75 L 627.859375 369.75 L 627.859375 363.078125 L 627.34375 363.078125 C 625.804688 365.128906 623.75 367.183594 621.183594 368.726562 C 618.617188 370.265625 615.535156 371.292969 612.453125 371.292969 C 606.804688 371.292969 602.183594 369.75 599.101562 366.15625 C 596.023438 362.5625 594.480469 357.941406 594.480469 351.777344 L 594.480469 323.023438 L 603.210938 323.023438 L 603.210938 350.238281 C 603.210938 358.96875 607.320312 363.589844 615.019531 363.589844 C 618.101562 363.589844 621.695312 362.050781 623.75 359.480469 C 625.804688 356.402344 626.832031 352.804688 626.832031 349.210938 L 626.832031 323.535156 L 635.5625 323.535156 L 635.5625 370.777344 Z M 665.859375 371.292969 C 659.695312 371.292969 654.5625 368.726562 649.941406 364.101562 C 645.316406 359.480469 643.265625 353.320312 643.265625 346.128906 C 643.265625 338.941406 645.316406 333.292969 649.941406 328.15625 C 654.5625 323.023438 659.695312 320.96875 665.859375 320.96875 C 669.453125 320.96875 672.535156 321.996094 675.613281 323.023438 C 678.695312 324.050781 680.75 326.617188 681.777344 328.671875 L 682.289062 328.671875 L 681.777344 321.996094 L 681.777344 300.429688 L 690.507812 300.429688 L 690.507812 369.238281 L 682.289062 369.238281 L 682.289062 362.5625 L 681.777344 362.5625 C 680.238281 364.617188 678.183594 366.671875 675.613281 368.210938 C 672.535156 369.75 669.453125 370.265625 665.859375 370.265625 Z M 667.398438 363.078125 C 670.992188 363.589844 675.101562 362.050781 677.667969 358.96875 C 680.75 355.886719 681.777344 351.777344 681.777344 346.644531 C 681.777344 341.507812 680.238281 337.402344 677.667969 334.320312 C 675.101562 331.753906 670.992188 329.699219 667.398438 329.699219 C 663.292969 329.699219 659.695312 331.238281 656.617188 334.320312 C 651.992188 338.941406 651.992188 341.507812 651.992188 346.644531 C 651.992188 351.777344 653.535156 355.886719 656.617188 358.96875 C 659.183594 362.050781 663.292969 364.101562 667.398438 364.101562 Z M 667.398438 363.078125 " fill-opacity="1" fill-rule="nonzero"/></svg>