<svg xmlns="http://www.w3.org/2000/svg" xmlns:xlink="http://www.w3.org/1999/xlink" width="1080" zoomAndPan="magnify" viewBox="0 0 810 530.249967" height="707" preserveAspectRatio="xMidYMid meet" version="1.0"><defs><g/><clipPath id="4fc6bfc51a"><path d="M 0.578125 0 L 809.421875 0 L 809.421875 529.242188 L 0.578125 529.242188 Z M 0.578125 0 " clip-rule="nonzero"/></clipPath><clipPath id="bda3a8c908"><path d="M 166 121.40625 L 371 121.40625 L 371 407.503906 L 166 407.503906 Z M 166 121.40625 " clip-rule="nonzero"/></clipPath></defs><g clip-path="url(#4fc6bfc51a)"><path stroke-linecap="butt" transform="matrix(0.748941, 0, 0, 0.748941, 0.57801, -0.0000199718)" fill="none" stroke-linejoin="miter" d="M 0.00015329 0.0000266667 L 1079.984 0.0000266667 L 1079.984 706.654449 L 0.00015329 706.654449 Z M 0.00015329 0.0000266667 " stroke="#444444" stroke-width="10" stroke-opacity="1" stroke-miterlimit="4"/></g><g clip-path="url(#bda3a8c908)"><path fill="#444444" d="M 266.71875 407.230469 C 242.171875 405.976562 226.542969 402.9375 213.457031 396.882812 C 211.894531 396.15625 212.085938 396.546875 210.140625 389.777344 C 206.507812 376.828125 203.386719 363.753906 200.785156 350.558594 C 199.175781 342.476562 198.960938 341.476562 195.167969 325.3125 C 189.089844 299.371094 187.539062 291.5625 185.585938 276.960938 C 184.308594 267.472656 187.039062 261.285156 188.863281 269.511719 C 196.050781 301.875 202.261719 325.5 208.832031 345.421875 C 211.09375 352.300781 210.929688 352.011719 212.824219 351.820312 C 214.136719 351.703125 214.136719 351.703125 213.15625 353.980469 C 211.824219 357.078125 212.476562 358.746094 216.625 362.8125 C 219.738281 365.863281 219.773438 366.042969 217.101562 365.660156 C 215.042969 365.363281 215.136719 365.148438 215.886719 368.214844 C 216.246094 369.644531 216.851562 372.324219 217.257812 374.171875 C 220.40625 388.835938 224.519531 396.023438 230.515625 397.300781 C 248.011719 401.042969 273.429688 402.664062 295.839844 401.472656 C 321.824219 400.101562 328.0625 399.109375 336.132812 395.082031 C 341.601562 392.351562 346.300781 387.25 343.414062 387.179688 C 341.292969 387.121094 341.101562 386.617188 342.902344 385.867188 C 346.824219 384.246094 348.480469 382.519531 348.148438 380.382812 C 348.0625 379.742188 348.183594 379.074219 348.660156 377.617188 C 350.125 373.136719 350.375 369.488281 349.996094 357.78125 C 349.828125 352.359375 349.839844 351.976562 350.246094 349.9375 C 351.328125 344.585938 351.820312 340.546875 352.628906 330.199219 C 353.1875 322.890625 353.367188 321.066406 353.953125 316.859375 C 354.546875 312.652344 354.726562 310.265625 355.0625 302.710938 C 355.714844 287.953125 356.445312 282.074219 357.789062 280.726562 C 360.03125 278.488281 360.019531 277.28125 357.71875 274.015625 C 355.097656 270.285156 355.097656 268.328125 357.753906 265.539062 C 359.042969 264.179688 359.101562 262.65625 358.21875 252.84375 C 357.980469 250.316406 357.742188 246.539062 357.683594 244.441406 C 357.589844 241.855469 357.480469 240.625 357.324219 240.625 C 356.835938 240.625 353.679688 243.320312 346.714844 249.6875 C 338.8125 256.921875 336.75 258.625 332.316406 261.582031 C 323.160156 267.699219 314.375 270.691406 299.175781 272.871094 C 283.847656 275.066406 265.800781 274.539062 253.984375 271.558594 C 246.023438 269.558594 241.410156 267.386719 232.421875 261.429688 C 224.003906 255.824219 224.46875 246.777344 233.375 242.796875 C 237.367188 241.007812 234.269531 239.039062 226.222656 238.289062 C 220.179688 237.730469 223.253906 236.550781 230.992188 236.464844 C 240.394531 236.371094 247.082031 233.03125 255.714844 224.117188 C 259.328125 220.386719 260.171875 219.644531 264.988281 216.046875 C 272.652344 210.3125 275.359375 207.820312 276.574219 205.378906 C 277.503906 203.53125 277.445312 201.707031 276.457031 201.324219 C 276.136719 201.203125 275.980469 200.980469 275.980469 200.65625 C 275.980469 200.035156 277.851562 200.121094 245.449219 199.203125 C 211.25 198.210938 185.371094 196.675781 172.164062 194.828125 C 169.585938 194.46875 170.816406 196.746094 173.949219 198.164062 C 174.964844 198.617188 175.046875 199.023438 174.1875 199.179688 C 171.875 199.632812 171.996094 199.296875 172.664062 203.101562 C 175.261719 217.820312 179.277344 221.480469 187.160156 216.261719 C 188.707031 215.234375 189.257812 215.042969 193.070312 214.175781 C 201.414062 212.277344 210.414062 211.242188 223.863281 210.597656 C 237.738281 209.953125 239.238281 209.90625 239.40625 210.074219 C 239.765625 210.429688 232.730469 211.386719 220.40625 212.636719 C 207.648438 213.9375 203.371094 214.519531 197.445312 215.785156 C 195.847656 216.117188 194.109375 216.402344 193.582031 216.402344 C 190.128906 216.402344 185.097656 219.894531 183.273438 223.542969 C 180.984375 228.132812 183.09375 230.875 189.351562 231.449219 C 191.460938 231.625 196.589844 232.542969 197.503906 232.878906 C 198.28125 233.1875 198.125 233.675781 197.101562 234.128906 C 195.992188 234.628906 195.992188 234.605469 196.992188 235.226562 C 199.019531 236.5 198.148438 236.417969 192.582031 234.808594 C 183.308594 232.128906 181.425781 231.972656 183.964844 234.117188 C 185.179688 235.128906 185.128906 235.429688 183.808594 235.023438 C 181.769531 234.402344 181.816406 233.988281 183.058594 242.234375 C 184.644531 252.796875 183.414062 252.273438 181.210938 241.4375 C 178.171875 226.535156 173.234375 213.851562 175.441406 226.582031 C 175.917969 229.335938 176.453125 231.519531 178.0625 237.167969 C 180.210938 244.773438 181.484375 252.058594 180.722656 252.523438 C 180.363281 252.75 178.457031 246.753906 177.121094 241.234375 C 175.644531 235.15625 175.011719 231.699219 171.960938 212.839844 C 170.410156 203.277344 169.0625 196.792969 167.453125 191.074219 C 166.535156 187.804688 166.859375 186.269531 168.980469 183.90625 C 173.308594 179.082031 184.15625 176.125 184.15625 179.773438 C 184.15625 181.523438 181.925781 182.703125 176.488281 183.824219 C 170.289062 185.113281 169.777344 185.910156 173.03125 189.285156 C 176 192.347656 194.65625 195.019531 217.449219 195.636719 L 231.898438 196.054688 C 257.335938 196.867188 284.203125 196.855469 285.753906 196.03125 C 285.933594 195.9375 286.753906 194.78125 287.578125 193.457031 C 290.773438 188.265625 294.527344 183.515625 298.84375 179.210938 C 302.15625 175.824219 302.253906 175.707031 301.714844 175.5625 C 300.140625 175.171875 300.023438 168.863281 301.574219 168.078125 C 304.410156 166.648438 305.792969 164.597656 310.25 155.296875 C 312.613281 150.363281 313.945312 148.195312 315.949219 145.964844 C 317.679688 144.035156 319 141.375 320.957031 135.890625 C 322.886719 130.503906 324.101562 127.976562 325.484375 126.570312 C 328.144531 123.839844 328.261719 125.34375 325.925781 132.410156 C 323.996094 138.25 317.453125 152.507812 312.492188 161.664062 C 308.261719 169.484375 308.832031 171.738281 314.734375 170.519531 C 315.699219 170.300781 316.679688 170.234375 317.664062 170.320312 C 319.214844 170.460938 320.921875 170.105469 325.082031 168.78125 C 328.527344 167.683594 328.964844 167.875 327.464844 169.757812 C 326.402344 171.105469 326.414062 171.117188 328.109375 171.902344 C 329.777344 172.679688 329.65625 172.832031 327.371094 172.832031 C 324.210938 172.832031 322.003906 174.097656 321.695312 176.101562 C 321.550781 176.980469 321.550781 176.980469 320.230469 175.527344 C 316.582031 171.535156 312.539062 172.191406 310.097656 177.148438 C 309.226562 178.890625 307.878906 180.164062 306.878906 180.164062 C 306.28125 180.164062 306.425781 179.757812 307.867188 177.398438 C 311.359375 171.703125 311.417969 170.699219 308.199219 172.34375 C 304.53125 174.203125 298.855469 182.191406 298.628906 185.816406 C 298.425781 188.984375 302.144531 190.691406 304.980469 188.722656 C 315.722656 181.25 321.050781 178.292969 316.652344 182.238281 C 315.894531 182.90625 315.167969 183.605469 314.472656 184.335938 C 312.386719 186.757812 310.777344 187.839844 307.722656 188.820312 C 297.589844 192.085938 297.589844 196.640625 307.722656 196.390625 C 310.429688 196.328125 312.765625 196.363281 313.421875 196.484375 C 318.332031 197.390625 340.039062 193.660156 351.101562 190 C 358.113281 187.699219 359.269531 184.886719 354.953125 180.628906 C 349.410156 175.144531 343.523438 176.230469 347.242188 182.046875 C 349.554688 185.648438 342.617188 189.476562 330.910156 191.058594 C 325.628906 191.777344 323.625 192.132812 321.683594 192.679688 C 320.371094 193.0625 316.460938 193.539062 313.289062 193.71875 C 309.09375 193.945312 307.761719 193.386719 311.003906 192.765625 C 315.949219 191.8125 317.941406 191.511719 323.851562 190.859375 C 339.707031 189.105469 344.832031 186.625 344.867188 180.664062 C 344.894531 177.351562 342.210938 176.851562 334.722656 178.757812 C 332.324219 179.378906 332.226562 179.15625 334.425781 178.089844 C 337.789062 176.46875 337.527344 175.085938 333.578125 173.632812 C 332.257812 173.15625 332.257812 173.15625 334.1875 172.988281 C 343.03125 172.273438 347.359375 168.757812 343.246094 165.621094 C 342.4375 165 342.460938 164.800781 343.367188 164.621094 C 343.914062 164.460938 344.414062 164.210938 344.867188 163.871094 C 346.8125 162.460938 348.445312 166.800781 346.726562 168.804688 C 344.367188 171.558594 346.300781 175.132812 350.984375 176.671875 C 355.789062 178.257812 357.992188 176.074219 356.015625 171.714844 C 355.367188 170.058594 354.847656 168.367188 354.453125 166.636719 C 351.59375 155.144531 345.394531 142.304688 342.722656 142.304688 C 342.46875 142.3125 342.277344 142.058594 342.152344 141.542969 C 339.589844 131.601562 338.71875 129.742188 335.773438 128.035156 C 330.765625 125.117188 329.21875 120.050781 333.832031 121.742188 C 344.402344 125.605469 355.550781 139.027344 364.011719 158.101562 C 370.761719 173.285156 372.273438 195.863281 367.875 215.355469 C 365.457031 226.082031 363.546875 247.136719 361.367188 287.234375 C 360.726562 300.1875 359.777344 313.117188 358.519531 326.027344 C 358.253906 328.601562 357.980469 331.628906 357.921875 332.738281 C 357.398438 341.175781 355.488281 356.914062 353.617188 368.261719 C 353.226562 370.644531 353.046875 372.671875 352.914062 376.507812 C 352.414062 391.054688 347.777344 398.242188 337.917969 399.71875 C 336.609375 399.945312 335.320312 400.242188 334.042969 400.613281 C 321.171875 404.558594 308.226562 406.214844 282.285156 407.253906 C 273.605469 407.585938 273.820312 407.585938 266.707031 407.230469 Z M 269.839844 404.414062 C 270.402344 403.855469 266.957031 403.34375 259.289062 402.867188 C 257.621094 402.769531 255.957031 402.632812 254.296875 402.449219 C 249.324219 401.757812 240.347656 401.234375 240.347656 401.613281 C 240.347656 403.140625 268.445312 405.8125 269.839844 404.414062 M 221.011719 394.128906 C 221.011719 393.652344 217.007812 377.796875 216.199219 375.078125 C 214.707031 370.074219 211.703125 362.96875 211.15625 363.121094 C 210.320312 363.359375 212.335938 373.910156 214.433594 380.371094 C 216.519531 386.761719 221.011719 396.167969 221.011719 394.128906 M 214.765625 392.578125 C 215.28125 389.300781 214.265625 384.542969 210.773438 373.863281 C 208.675781 367.425781 207.984375 365.019531 207.484375 362.359375 C 206.957031 359.546875 207.007812 359.679688 206.53125 359.75 C 204.550781 360.046875 204.730469 363.148438 207.171875 371.371094 C 208.9375 377.332031 209.140625 378.144531 209.414062 380.324219 C 210.175781 386.523438 214.242188 395.84375 214.765625 392.578125 M 205.351562 353.457031 C 205.351562 349.355469 204.753906 346.015625 202.90625 339.351562 C 200.832031 331.902344 199.996094 328.671875 199.53125 326.167969 C 198.648438 321.390625 196.800781 318.777344 197.386719 323.117188 C 197.695312 325.441406 199.949219 337.183594 200.558594 339.664062 C 200.84375 340.785156 201.296875 343.5625 201.582031 345.824219 C 202.371094 352.121094 202.796875 353.859375 203.929688 355.421875 C 205.097656 357.03125 205.335938 356.6875 205.335938 353.457031 M 274.261719 255.46875 C 274.824219 254.847656 274.714844 253.488281 273.84375 249.984375 C 272.652344 245.214844 272.652344 243 273.859375 241.164062 C 275.882812 238.0625 264.128906 236.679688 257.191406 239.207031 C 250.875 241.507812 249.46875 245.371094 253.378906 249.664062 C 255.308594 251.773438 252.496094 252.90625 249.847656 251.09375 C 246.214844 248.625 246.546875 240.839844 250.277344 240.839844 C 250.707031 240.839844 251.542969 239.957031 251.542969 239.507812 C 251.542969 238.839844 250.742188 238.277344 249.027344 237.742188 C 246.667969 237.003906 246.679688 236.859375 249.121094 236.453125 C 254.890625 235.5 260.328125 231.421875 268.910156 221.589844 C 280.042969 208.820312 284.492188 204.996094 278.566406 213.246094 C 275.585938 217.417969 273.09375 220.300781 268.113281 225.355469 C 259.171875 234.414062 258.050781 236.347656 261.769531 236.347656 C 267.398438 236.347656 269.910156 234.046875 275.050781 224.140625 C 279.914062 214.78125 282.308594 212.375 285.742188 213.398438 C 287.195312 213.828125 287.171875 213.851562 283.132812 223.832031 C 279.390625 233.058594 279.554688 235.582031 283.777344 233.484375 C 285.886719 232.449219 285.800781 232.59375 286.636719 228.609375 C 288.710938 218.835938 292.953125 205.414062 294.003906 205.414062 C 295.375 205.414062 294.550781 211.433594 292.296875 217.820312 C 288.914062 227.464844 288.746094 230.566406 291.488281 233.269531 C 294.46875 236.226562 297.804688 235.679688 300.394531 231.828125 C 301.347656 230.410156 301.765625 230.601562 302.503906 232.78125 C 303.050781 234.414062 303.132812 234.464844 305.410156 234.5 C 308.523438 234.546875 312.800781 233.414062 313.027344 232.484375 C 313.101562 232.1875 313.265625 232.007812 313.445312 232.054688 C 315.113281 232.484375 315.101562 230.78125 313.410156 230.054688 C 312.324219 229.574219 312.21875 229.289062 313.027344 228.871094 C 314.816406 227.964844 316.675781 229.324219 316.675781 231.542969 C 316.675781 232.484375 316.914062 232.605469 319.121094 232.855469 C 333.640625 234.546875 342.367188 230.757812 347.300781 220.648438 C 348.148438 218.929688 349.746094 215.785156 350.875 213.648438 C 354.867188 206.058594 356.503906 200.523438 355.789062 197.042969 C 355.359375 195.019531 355.585938 195.089844 351.257812 195.613281 C 329.191406 198.378906 307.050781 200.320312 284.835938 201.429688 C 283.023438 201.550781 283.023438 201.550781 279.449219 205.054688 C 273.667969 210.71875 268.671875 215.308594 259.183594 223.652344 C 256.488281 226.023438 254.007812 228.253906 253.675781 228.609375 C 252.722656 229.648438 249.574219 232.140625 244.925781 235.523438 C 235.210938 242.640625 230.167969 248.101562 231.847656 249.710938 C 233.757812 251.546875 248.179688 254.179688 260.195312 254.882812 C 262.210938 255.003906 265 255.230469 266.394531 255.382812 C 270.089844 255.8125 270.210938 255.824219 272.117188 255.859375 C 273.667969 255.886719 273.90625 255.847656 274.261719 255.46875 M 333.066406 223.414062 C 325.496094 222.183594 318.203125 217.917969 310.621094 210.265625 C 305.625 205.234375 306.210938 204.839844 313.316406 208.453125 C 318.523438 211.097656 320.394531 211.765625 322.589844 211.707031 L 325.03125 211.660156 C 327.296875 211.613281 336.058594 216.453125 335.226562 217.285156 C 334.9375 217.570312 333.316406 217.046875 330.21875 215.6875 C 320.265625 211.289062 313.910156 211.253906 320.644531 215.628906 C 327.75 220.242188 335.546875 222.433594 340.195312 221.160156 C 341.9375 220.683594 342.414062 220.683594 342.496094 221.207031 C 342.78125 223.234375 338.324219 224.269531 333.078125 223.414062 M 291.15625 255.480469 C 292.046875 255.265625 295.480469 254.621094 298.785156 254.050781 C 314.398438 251.378906 317.964844 250.007812 327.65625 243.035156 C 334.234375 238.300781 335.046875 233.628906 329.15625 234.332031 C 322.578125 235.082031 321.851562 235.667969 319.917969 241.746094 C 317.679688 248.816406 316.675781 249.675781 310.679688 249.6875 C 304.398438 249.6875 301.859375 247.527344 300.082031 240.625 C 299.464844 238.183594 299.285156 237.980469 297.507812 237.382812 C 290.886719 235.191406 287.582031 239.609375 287.589844 250.640625 C 287.589844 252.546875 287.472656 252.640625 285.289062 252.703125 C 281.738281 252.796875 281.355469 251.617188 283.453125 247.039062 C 286.230469 240.972656 286.339844 239.78125 284.179688 238.863281 C 279.507812 236.894531 274.847656 241.902344 275.71875 247.957031 C 276.515625 253.382812 280.414062 256.242188 285.289062 254.980469 C 286.671875 254.621094 286.671875 254.621094 287.886719 255.242188 C 289.355469 256.003906 289.164062 255.992188 291.15625 255.480469 M 312.875 246.230469 C 315.652344 245.992188 317.5 244.023438 317.5 241.339844 C 317.5 237.457031 314.136719 235.761719 309.988281 237.5625 C 308.796875 238.085938 308.535156 238.125 307.535156 237.96875 C 303.277344 237.277344 301.550781 240.816406 304.503906 244.167969 C 306.402344 246.324219 307.84375 246.671875 312.875 246.230469 M 274.609375 234.90625 C 279.054688 232.640625 284.527344 221.027344 282.761719 217.621094 C 282.238281 216.617188 282.046875 216.703125 280.878906 218.5 C 280.308594 219.371094 278.875 221.363281 277.707031 222.914062 C 272.25 230.160156 270.816406 233.257812 272.273438 234.714844 C 273.011719 235.441406 273.464844 235.488281 274.609375 234.90625 M 248.429688 374.851562 C 245.300781 374.355469 242.179688 373.789062 239.074219 373.160156 C 231.394531 371.632812 227.953125 371.109375 225.675781 371.109375 C 223.578125 371.109375 223.097656 370.703125 223.683594 369.417969 C 224.328125 368.011719 226.269531 368.164062 232.707031 370.109375 C 236.945312 371.378906 239.898438 372.09375 241.578125 372.253906 C 242.304688 372.324219 243.363281 372.503906 243.914062 372.660156 C 245.523438 373.101562 258.289062 374.78125 260.03125 374.78125 C 260.078125 374.789062 260.070312 374.855469 260.007812 374.984375 C 259.816406 375.28125 251.054688 375.1875 248.429688 374.863281 M 269.398438 365.949219 C 266.742188 364.636719 265.917969 362.921875 265.203125 357.175781 C 264.464844 351.167969 263.308594 349.308594 259.804688 348.519531 L 258.433594 348.199219 C 257.957031 348.066406 257.585938 346.136719 257.765625 344.695312 C 258.171875 341.449219 260.195312 338.828125 266.3125 333.726562 C 267.417969 332.804688 268.496094 331.851562 269.542969 330.867188 C 273.832031 326.382812 287.78125 332.105469 293.265625 340.582031 C 297.136719 346.601562 297.101562 347.960938 292.929688 350.714844 C 287.78125 354.097656 287.042969 355.066406 287.148438 358.296875 L 287.246094 361.359375 C 287.363281 365.210938 285.132812 366.210938 279.554688 364.816406 C 274.824219 363.625 273.320312 363.8125 271.414062 365.816406 C 270.699219 366.566406 270.664062 366.566406 269.386719 365.9375 M 282.953125 363.242188 C 286.648438 361.359375 287.421875 356.6875 284.707031 352.609375 C 281.796875 348.257812 278.03125 349.761719 278.171875 355.230469 C 278.339844 361.941406 280.007812 364.757812 282.941406 363.242188 M 272.617188 362.265625 C 275.539062 360.953125 276.503906 355.863281 274.609375 351.835938 C 272.75 347.898438 269.28125 350.226562 268.625 355.828125 C 268.519531 356.714844 268.386719 357.59375 268.230469 358.472656 C 267.433594 362.585938 268.96875 363.910156 272.617188 362.265625 M 266.179688 348.710938 C 269.421875 346.554688 272.640625 346.445312 282.570312 348.199219 C 288.269531 349.210938 292.859375 348.542969 292.847656 346.707031 C 292.824219 339.890625 288.699219 337.863281 278.183594 339.519531 C 271.582031 340.570312 269.148438 340.570312 266.179688 339.542969 C 262.902344 338.410156 259.003906 341.511719 259.578125 344.789062 C 260.113281 347.851562 264.011719 350.164062 266.179688 348.722656 M 242.089844 338.125 C 227.285156 335.027344 217.890625 317.300781 225.652344 307.109375 C 228.035156 303.984375 228.773438 305.082031 227.117188 309.242188 C 220.203125 326.621094 241.777344 342.882812 258.527344 332.914062 C 270.78125 325.621094 270.628906 307.800781 258.265625 301.683594 C 257.46875 301.277344 256.691406 300.839844 255.929688 300.371094 C 251.148438 297.417969 245.761719 297.605469 235.472656 301.085938 C 229.453125 303.125 229.632812 303.125 231.539062 301.085938 C 238.75 293.292969 254.164062 293.53125 263.558594 301.566406 C 280.640625 316.179688 264.929688 342.929688 242.089844 338.125 M 302.132812 336.789062 C 278.78125 333.214844 270.902344 310.71875 288.390625 297.546875 C 304.003906 285.78125 327.988281 297.429688 327.226562 316.429688 C 326.75 328.125 313.863281 338.578125 302.132812 336.789062 M 306.925781 332.976562 C 324.84375 332.738281 330.839844 309.957031 315.6875 299.667969 C 306.175781 293.207031 290.738281 296.152344 285.230469 305.476562 C 278.769531 316.417969 285.789062 331.066406 298.472656 333.117188 C 298.808594 333.167969 300.226562 333.167969 301.632812 333.117188 C 303.027344 333.046875 305.410156 333 306.925781 332.964844 M 288.996094 322.996094 C 283.75 321.507812 282.917969 315.191406 287.351562 310.398438 C 291.34375 306.070312 297.089844 307.941406 299.488281 314.355469 C 300.558594 317.214844 300.179688 317.632812 296.828125 317.441406 C 294.695312 317.3125 293.679688 317.46875 293.695312 317.917969 C 293.695312 318.003906 294.410156 318.597656 295.289062 319.242188 C 297.914062 321.175781 297.972656 321.816406 295.613281 322.628906 C 293.433594 323.25 291.230469 323.371094 288.996094 322.984375 M 233.519531 324.261719 C 227.964844 323.738281 226.007812 320.722656 228.25 316.15625 C 230.917969 310.765625 236.976562 309.183594 240.347656 313.007812 C 245.449219 318.800781 241.660156 325.046875 233.519531 324.261719 M 188.339844 179.746094 C 188.265625 179.628906 188.445312 179.199219 188.730469 178.78125 L 189.792969 177.28125 C 190.097656 176.792969 190.308594 176.269531 190.425781 175.707031 C 190.496094 175.195312 190.664062 174.847656 190.867188 174.789062 C 191.699219 174.527344 199.089844 173.011719 202.191406 172.453125 C 210.175781 171.023438 212.324219 170.878906 230.382812 170.59375 C 263.878906 170.066406 276.695312 169.640625 289.09375 168.660156 C 293.347656 168.316406 293.121094 168.28125 294.132812 169.664062 C 295.71875 171.84375 294.324219 173.371094 290.105469 174.074219 C 285.039062 174.90625 264.617188 174.371094 259.183594 173.273438 C 253.414062 172.09375 251.601562 172.152344 249.945312 173.585938 C 248.980469 174.417969 249.183594 174.417969 246.628906 173.5625 C 243.414062 172.488281 240.585938 172.152344 236.1875 172.296875 C 232.613281 172.417969 231.21875 172.582031 222.644531 173.847656 C 220.347656 174.167969 217.140625 174.550781 215.519531 174.679688 C 209.890625 175.097656 203.441406 176.289062 194.585938 178.542969 C 188.648438 180.058594 188.542969 180.082031 188.339844 179.746094 M 331.351562 165.347656 C 331.351562 164.335938 332.660156 162.84375 338.445312 157.382812 C 341.648438 154.34375 343.976562 151.652344 343.976562 150.949219 C 343.976562 150.28125 344.535156 150.230469 344.761719 150.875 C 346.011719 154.453125 343.484375 157.992188 336.441406 162.59375 L 332.625 165.121094 C 331.613281 165.8125 331.351562 165.859375 331.351562 165.347656 " fill-opacity="1" fill-rule="nonzero"/></g><g fill="#444444" fill-opacity="1"><g transform="translate(427.95844, 314.811399)"><g><path d="M 44.796875 1.328125 C 37.097656 1.328125 30.441406 -0.425781 24.828125 -3.9375 C 19.210938 -7.445312 14.878906 -12.742188 11.828125 -19.828125 C 8.773438 -26.921875 7.25 -35.679688 7.25 -46.109375 C 7.25 -56.628906 9.078125 -65.429688 12.734375 -72.515625 C 16.398438 -79.609375 21.476562 -84.890625 27.96875 -88.359375 C 34.46875 -91.828125 42.007812 -93.5625 50.59375 -93.5625 C 59.425781 -93.5625 66.953125 -91.921875 73.171875 -88.640625 C 79.398438 -85.359375 83.773438 -80.476562 86.296875 -74 L 73 -65.921875 L 71.421875 -65.984375 C 69.523438 -70.109375 66.863281 -73.113281 63.4375 -75 C 60.007812 -76.894531 55.726562 -77.84375 50.59375 -77.84375 C 42.644531 -77.84375 36.566406 -75.328125 32.359375 -70.296875 C 28.160156 -65.273438 26.0625 -57.210938 26.0625 -46.109375 C 26.0625 -34.972656 28.023438 -26.878906 31.953125 -21.828125 C 35.890625 -16.773438 41.703125 -14.25 49.390625 -14.25 C 56.035156 -14.25 60.9375 -15.742188 64.09375 -18.734375 C 67.25 -21.722656 68.828125 -26.179688 68.828125 -32.109375 L 68.828125 -36.09375 L 47 -36.09375 L 47 -50.90625 L 86.9375 -50.90625 L 86.9375 0 L 69.515625 0 L 69.515625 -12.359375 L 68.203125 -12.546875 C 66.304688 -8.140625 63.429688 -4.722656 59.578125 -2.296875 C 55.734375 0.117188 50.804688 1.328125 44.796875 1.328125 Z M 44.796875 1.328125 "/></g></g></g><g fill="#444444" fill-opacity="1"><g transform="translate(524.16137, 314.811399)"><g><path d="M 30.21875 0 L 11.984375 0 L 11.984375 -92.234375 L 30.21875 -92.234375 Z M 30.21875 0 "/></g></g></g><g fill="#444444" fill-opacity="1"><g transform="translate(566.427576, 314.811399)"><g><path d="M 29.65625 0 L 11.984375 0 L 11.984375 -92.234375 L 32.875 -92.234375 L 69.90625 -32.8125 L 71.546875 -33.0625 L 71.546875 -92.234375 L 89.078125 -92.234375 L 89.078125 0 L 70.40625 0 L 31.234375 -63.46875 L 29.65625 -63.21875 Z M 29.65625 0 "/></g></g></g></svg>