<svg xmlns="http://www.w3.org/2000/svg" xmlns:xlink="http://www.w3.org/1999/xlink" width="1080" zoomAndPan="magnify" viewBox="0 0 810 530.249967" height="707" preserveAspectRatio="xMidYMid meet" version="1.0"><defs><clipPath id="91baaaaea1"><path d="M 0.578125 0 L 809.421875 0 L 809.421875 529.242188 L 0.578125 529.242188 Z M 0.578125 0 " clip-rule="nonzero"/></clipPath><clipPath id="5925bbc255"><path d="M 60.15625 182 L 749.929688 182 L 749.929688 347 L 60.15625 347 Z M 60.15625 182 " clip-rule="nonzero"/></clipPath></defs><g clip-path="url(#91baaaaea1)"><path stroke-linecap="butt" transform="matrix(0.748941, 0, 0, 0.748941, 0.57801, -0.0000199718)" fill="none" stroke-linejoin="miter" d="M 0.00015329 0.0000266667 L 1079.984 0.0000266667 L 1079.984 706.654449 L 0.00015329 706.654449 Z M 0.00015329 0.0000266667 " stroke="#444444" stroke-width="10" stroke-opacity="1" stroke-miterlimit="4"/></g><g clip-path="url(#5925bbc255)"><path fill="#444444" d="M 158.667969 182.960938 C 149.441406 185.222656 146.726562 186.832031 143.660156 197.523438 C 147.554688 189.695312 150.515625 186.800781 158.667969 182.960938 M 182.375 183.523438 C 176.339844 183.644531 169.921875 185.464844 162.507812 188.589844 C 158.878906 190.0625 155.625 192.128906 152.746094 194.785156 C 150.210938 197.125 148.066406 199.835938 145.714844 202.976562 C 144.394531 203.03125 143.117188 203.289062 141.882812 203.75 C 140.515625 204.300781 139.132812 205.191406 137.484375 206.644531 C 136.339844 207.660156 135.21875 208.695312 134.117188 209.757812 C 133.097656 210.742188 132.105469 211.742188 131.140625 212.75 C 123.433594 213.988281 117.144531 215.363281 111.527344 217.539062 C 105.765625 219.765625 100.695312 222.832031 95.484375 227.453125 C 91.457031 231.007812 88.230469 235.183594 85.804688 239.976562 C 84.773438 241.152344 83.6875 242.273438 82.546875 243.34375 C 81.496094 244.339844 80.300781 245.117188 78.960938 245.675781 C 78.191406 245.972656 77.882812 246.144531 77.84375 246.128906 C 77.796875 246.011719 77.757812 245.886719 77.730469 245.761719 C 79.601562 243.964844 79.914062 241.324219 80.085938 238.703125 C 80.3125 238.976562 80.535156 239.292969 80.757812 239.648438 C 81.007812 240.039062 81.28125 240.429688 81.585938 240.816406 L 82.855469 242.433594 L 83.308594 240.417969 C 83.683594 238.726562 83.972656 236.480469 83.523438 234.523438 C 83.28125 233.226562 82.644531 232.164062 81.621094 231.332031 L 81.917969 230.601562 C 82.242188 229.777344 82.566406 228.925781 82.84375 228.121094 L 83.398438 226.550781 L 81.75 226.828125 C 79.546875 227.210938 74.8125 229.8125 71.480469 233.273438 C 70.242188 234.554688 69.179688 235.976562 68.480469 237.472656 C 67.753906 239.023438 67.429688 240.648438 67.710938 242.265625 C 67.957031 243.683594 68.675781 245.066406 69.949219 246.371094 C 70.15625 247.21875 70.382812 248.0625 70.636719 248.898438 C 70.90625 249.746094 71.195312 250.503906 71.550781 251.25 C 72.519531 253.261719 74.066406 254.492188 75.863281 255.070312 C 77.3125 255.53125 78.910156 255.554688 80.484375 255.203125 C 80.179688 256.980469 79.953125 258.8125 79.875 260.832031 C 79.796875 263.808594 79.890625 266.78125 80.160156 269.746094 C 80.304688 271.320312 80.527344 272.882812 80.824219 274.433594 L 79.941406 276.804688 L 78.570312 280.523438 L 75.582031 283.492188 L 72.78125 286.261719 L 72.113281 286.90625 C 70.226562 288.726562 69.847656 289.089844 70.386719 292.289062 C 70.710938 294.25 71.359375 296.234375 72.363281 298.152344 C 73.292969 299.914062 74.53125 301.644531 76.132812 303.242188 C 78.125 305.238281 81.386719 307.722656 84.804688 309.019531 C 86.746094 309.757812 88.761719 310.117188 90.640625 309.824219 C 90.542969 310.113281 90.480469 310.398438 90.371094 310.695312 C 90.070312 311.527344 89.738281 312.34375 89.371094 313.148438 C 87.054688 318.234375 89.429688 320.882812 93.140625 322.578125 C 94.984375 323.417969 97.183594 323.988281 99.230469 324.519531 C 99.644531 324.628906 100.070312 324.738281 100.597656 324.882812 C 103.023438 325.535156 107.203125 326.742188 111.023438 326.984375 C 115.199219 327.253906 118.960938 326.386719 119.96875 322.640625 C 120.320312 321.417969 120.566406 320.167969 120.695312 318.902344 C 120.78125 317.878906 120.738281 316.839844 120.625 315.566406 C 121.800781 312.957031 122.328125 312.148438 123.191406 310.878906 L 123.621094 310.242188 C 124.554688 308.859375 125 307.871094 125.15625 306.769531 C 125.3125 305.699219 125.175781 304.644531 124.980469 303.023438 L 124.992188 303.023438 L 124.898438 302.324219 C 127.304688 302.644531 129.71875 302.820312 132.144531 302.84375 C 133.351562 302.84375 134.558594 302.8125 135.757812 302.75 C 135.425781 302.921875 135.203125 303.050781 134.839844 303.234375 L 134.386719 303.464844 C 131.171875 305.117188 131.035156 308.261719 132.042969 311.492188 C 132.953125 314.402344 134.824219 317.375 136 319.1875 C 138.464844 322.992188 140.816406 326.203125 143.671875 327.953125 C 146.667969 329.785156 150.082031 330 154.5 327.613281 C 156.75 326.402344 157.449219 325.164062 158.402344 323.492188 C 158.703125 322.964844 159.03125 322.394531 159.40625 321.828125 C 160.277344 321.273438 162.550781 319.402344 164.878906 317.484375 C 165.632812 316.855469 166.441406 316.195312 167.296875 315.5 C 167.886719 315.941406 168.617188 316.257812 169.484375 316.460938 C 170.617188 316.730469 171.980469 316.847656 173.601562 316.96875 C 174.816406 317.054688 178.773438 317.0625 181.324219 317.058594 L 183.167969 317.058594 C 185.800781 317.074219 187.925781 316.929688 189.535156 316.019531 C 191.25 315.050781 192.265625 313.324219 192.492188 310.242188 C 192.589844 308.867188 192.605469 308.023438 192.417969 307.160156 C 192.238281 306.359375 191.878906 305.613281 191.285156 304.558594 L 191.183594 300.539062 L 191.078125 296.296875 C 191.054688 294.820312 190.867188 293.367188 190.511719 291.933594 C 190.128906 290.523438 189.640625 289.144531 189.050781 287.808594 C 188.621094 286.773438 188.257812 285.824219 187.914062 284.890625 L 187.914062 284.882812 C 187.367188 283.359375 186.746094 281.867188 186.050781 280.410156 L 186.199219 279.429688 L 187.683594 280.851562 L 189.847656 282.941406 C 191.503906 284.535156 193.011719 285.980469 194.785156 287.027344 C 196.621094 288.109375 198.691406 288.746094 201.363281 288.613281 C 204.164062 288.484375 207.164062 287.300781 209.632812 285.480469 C 212.019531 283.71875 213.925781 281.351562 214.726562 278.722656 L 215.425781 276.4375 L 215.980469 274.605469 C 220.027344 275.316406 224.097656 275.46875 228.191406 275.070312 C 232.117188 274.660156 235.910156 273.664062 239.179688 271.917969 C 239.804688 271.582031 240.40625 271.230469 240.988281 270.859375 L 229.292969 323.125 L 269.664062 323.132812 L 281.808594 269.820312 L 295.464844 269.820312 C 297.09375 269.820312 296.769531 270.742188 296.496094 271.964844 L 285.019531 323.132812 L 552.621094 323.132812 C 557.160156 323.132812 560.722656 322.199219 564.808594 320.113281 C 568.839844 322.808594 572.40625 323.703125 577.320312 323.660156 L 639.292969 323.132812 L 634.320312 346.285156 L 674.71875 346.285156 L 679.714844 323.515625 C 691.246094 323.515625 703.152344 323.585938 714.683594 323.585938 C 720.320312 323.585938 725.308594 321.84375 729.738281 318.847656 C 731.109375 317.925781 732.378906 316.878906 733.550781 315.710938 C 734.722656 314.546875 735.769531 313.277344 736.699219 311.910156 C 737.625 310.542969 738.414062 309.097656 739.066406 307.578125 C 739.71875 306.058594 740.21875 304.492188 740.570312 302.878906 C 743.105469 291.324219 745.648438 279.777344 748.203125 268.230469 C 749.660156 261.636719 751.554688 254.191406 746.824219 248.238281 C 742.476562 242.757812 736.707031 242.332031 730.367188 242.332031 C 684.746094 242.386719 639.125 242.332031 593.511719 242.332031 C 588.902344 242.332031 585.050781 243.824219 581.027344 245.898438 C 577.253906 243.230469 573.839844 242.332031 569.210938 242.332031 L 506.589844 242.332031 L 511.71875 219.253906 L 471.253906 219.253906 L 466.253906 241.765625 L 430.664062 241.765625 C 425.746094 241.765625 421.019531 243.316406 416.898438 245.96875 C 412.898438 243.480469 409.824219 242.394531 405.09375 242.394531 L 287.617188 242.394531 L 292.992188 219 L 253.003906 218.9375 C 252.199219 215.949219 251.230469 213.175781 250.054688 210.929688 C 249.757812 210.386719 249.386719 209.902344 248.941406 209.472656 C 247.742188 208.328125 246.359375 207.488281 244.789062 206.953125 C 243.121094 206.375 241.351562 206.253906 239.953125 206.984375 C 239.578125 207.183594 239.242188 207.429688 238.945312 207.726562 C 238.03125 208.707031 237.21875 209.757812 236.503906 210.886719 C 235.648438 212.136719 234.789062 213.390625 233.765625 214.265625 C 232.570312 215.289062 231.074219 215.90625 229.660156 216.472656 C 229.082031 215.03125 228.378906 213.648438 227.558594 212.324219 C 226.582031 210.78125 225.496094 209.316406 224.304688 207.933594 C 223.421875 206.871094 222.429688 205.929688 221.324219 205.097656 C 220.25 204.304688 219.136719 203.558594 217.988281 202.867188 C 214.671875 200.792969 211.847656 198.316406 208.96875 195.789062 C 207.660156 194.640625 206.339844 193.472656 205.046875 192.410156 C 198.1875 186.753906 191.789062 184.003906 184.949219 183.578125 C 184.09375 183.527344 183.238281 183.507812 182.378906 183.523438 Z M 151.332031 183.621094 C 146.683594 184.742188 145.792969 185.609375 144.398438 190.167969 C 146.625 186.828125 147.90625 185.734375 151.332031 183.621094 M 182.292969 187.421875 C 189.519531 187.101562 196.015625 189.539062 203.296875 195.664062 C 206.652344 198.480469 209.589844 201.226562 212.996094 203.660156 C 211.757812 203.769531 210.695312 203.984375 209.289062 204.53125 C 210.996094 204.210938 212.972656 204.53125 214.746094 204.855469 C 215.25 205.179688 215.761719 205.496094 216.289062 205.804688 C 218.683594 207.222656 220.046875 208.003906 221.675781 210.265625 C 223.390625 212.660156 224.820312 215.039062 226.082031 217.675781 C 225.375 217.414062 224.664062 217.171875 223.945312 216.949219 C 223.246094 216.625 222.511719 216.492188 221.742188 216.539062 C 220.976562 216.585938 220.265625 216.816406 219.613281 217.222656 L 219.515625 217.265625 C 218.1875 217.910156 216.125 218.648438 214.746094 218.875 C 215.445312 219.117188 217.007812 219.203125 217.738281 218.917969 C 217.835938 218.878906 217.9375 218.847656 218.042969 218.824219 C 217.703125 219.410156 217.496094 220.042969 217.417969 220.71875 C 217.355469 221.503906 217.488281 222.253906 217.8125 222.972656 C 217.765625 222.824219 217.738281 222.675781 217.730469 222.519531 C 217.71875 222.367188 217.730469 222.214844 217.757812 222.066406 C 217.785156 221.914062 217.832031 221.769531 217.898438 221.628906 C 217.960938 221.488281 218.039062 221.359375 218.136719 221.238281 C 218.234375 221.121094 218.34375 221.011719 218.464844 220.921875 C 218.585938 220.828125 218.71875 220.75 218.859375 220.691406 C 219 220.628906 219.148438 220.585938 219.300781 220.5625 C 219.453125 220.539062 219.605469 220.535156 219.757812 220.546875 C 220.796875 220.648438 221.5625 221.570312 221.464844 222.609375 C 221.4375 222.824219 221.375 223.03125 221.28125 223.230469 C 220.300781 223.410156 219.34375 223.675781 218.410156 224.03125 C 217.757812 224.277344 217.109375 224.539062 216.46875 224.820312 C 219.410156 224.332031 222.359375 224.277344 225.3125 224.664062 C 225.511719 225.605469 225.710938 226.613281 225.894531 227.625 L 224.777344 227.710938 L 224.691406 227.722656 C 223.277344 226.59375 221.695312 226.78125 219.535156 227.269531 C 212.972656 228.769531 214.507812 232.453125 211.488281 238.007812 C 214.621094 234.171875 214.394531 230.164062 219.503906 228.957031 C 220.695312 228.675781 221.507812 228.320312 222.316406 228.441406 C 220.863281 229.171875 219.601562 230.378906 219.105469 231.785156 C 217.703125 235.746094 218.570312 239.085938 217.03125 242.785156 C 218.945312 239.476562 219.0625 236.246094 220.769531 232.761719 C 221.378906 231.515625 223.652344 229.511719 225.054688 229.484375 L 226.195312 229.464844 C 226.535156 231.664062 226.734375 233.84375 226.609375 235.660156 C 226.320312 239.066406 225.78125 242.433594 224.996094 245.761719 C 226.730469 243.542969 227.511719 238.828125 228.269531 235.515625 C 229.0625 232.066406 228.867188 227.929688 228.179688 224.222656 C 227.226562 219.136719 232.460938 219.953125 235.5 217.5625 C 237.738281 215.800781 239.285156 212.980469 241.332031 210.988281 C 243.363281 209.015625 246.558594 211.921875 247.367188 213.855469 C 250.832031 222.242188 252.402344 235.433594 251.488281 243.886719 C 250.457031 253.375 245.882812 263.738281 237.511719 268.410156 C 226.84375 274.363281 214.265625 270.726562 203.667969 267.160156 C 201.40625 266.394531 199.828125 265.285156 197.839844 264.035156 C 198.378906 266.46875 198.628906 269.046875 197.910156 271.480469 C 196.765625 275.34375 194.917969 281.667969 200.160156 282.839844 C 202.15625 283.28125 203.070312 283.214844 205.886719 281.761719 C 204.230469 282.199219 202.5625 282.230469 200.886719 281.859375 C 200.285156 281.753906 199.75 281.503906 199.289062 281.101562 C 198.824219 280.703125 198.5 280.210938 198.3125 279.628906 C 198.808594 279.988281 199.621094 280.1875 201.007812 280.523438 C 204.890625 281.460938 208.59375 279.589844 209.320312 276.890625 C 209.742188 275.316406 209.675781 274.480469 210.570312 272.335938 C 211.378906 272.585938 212.207031 272.8125 213.054688 273.023438 L 211.609375 277.734375 C 210.359375 281.808594 205.496094 285.089844 201.195312 285.015625 C 197.21875 284.945312 194.695312 282.457031 191.953125 280.015625 C 190.070312 278.335938 188.242188 276.730469 186.441406 275.132812 C 181.492188 273.570312 177.53125 271.746094 172.941406 268.34375 C 176.203125 272.1875 178.417969 274.320312 182.976562 276.226562 C 182.316406 282.988281 179.972656 287.914062 177.96875 294.386719 C 177.0625 297.304688 169.902344 309.023438 167.917969 310.171875 C 166.507812 310.980469 157.648438 318.445312 155.984375 319.429688 C 154.746094 321.078125 153.648438 323.359375 151.78125 324.34375 C 146.101562 327.351562 142.449219 321.585938 139.386719 316.726562 C 137.996094 314.511719 134.132812 308.136719 137.503906 306.347656 C 140.691406 304.660156 142.46875 303.453125 145.722656 301.320312 C 146.203125 302.1875 147.027344 303.027344 147.566406 303.894531 L 147.207031 301.039062 C 146.992188 299.316406 146.996094 297.914062 147.136719 296.179688 L 147.535156 291.152344 C 147.042969 292.859375 146.0625 294.558594 145.578125 296.265625 C 145.394531 296.839844 145.246094 297.421875 145.125 298.011719 C 137.867188 299.511719 130.585938 299.605469 123.289062 298.296875 C 122.855469 295.773438 122.351562 293.261719 121.773438 290.765625 C 121.628906 293.027344 121.71875 299.273438 121.710938 302.769531 C 121.699219 305.480469 121.589844 306.40625 120.195312 308.71875 C 118.886719 310.875 118.320312 311.367188 116.488281 315.023438 C 116.640625 317.324219 116.648438 318.847656 116.035156 321.03125 C 115.015625 324.660156 104.757812 321.84375 102.046875 321.101562 C 98.71875 320.1875 91.828125 318.835938 93.554688 314.386719 C 95.082031 310.472656 96.050781 306.359375 96.800781 300.882812 C 90.691406 292.085938 85.003906 280.019531 83.921875 269.335938 C 83.070312 261.039062 83.578125 255.941406 85.371094 250.867188 C 88.21875 242.828125 92.191406 235.863281 98.574219 230.261719 C 107.195312 222.703125 115.25 219.667969 127.851562 217.75 C 124.824219 221.144531 121.816406 224.726562 118.550781 228.582031 C 115.242188 232.476562 113.273438 236.410156 111.171875 240.671875 C 108.273438 246.554688 108.335938 248.796875 112.183594 253.957031 C 115.503906 258.414062 117.292969 260.414062 118.742188 264.765625 C 117.542969 267.234375 117.113281 269.3125 116.710938 272.6875 C 120.773438 277.121094 123.785156 280.167969 127.726562 281.105469 C 131.597656 282.019531 134.824219 281.847656 138.285156 280.078125 C 145.96875 276.152344 153.074219 271.070312 161.742188 270.867188 C 165.753906 261.007812 165.351562 252.761719 163.425781 243.226562 C 162.109375 236.710938 161.582031 230.546875 161.171875 223.902344 C 159.546875 230.746094 159.238281 236.757812 160.445312 243.570312 C 161.898438 251.785156 163.03125 260.855469 158.984375 268.074219 C 151.144531 268.671875 144.4375 273.429688 137.367188 277.089844 C 134.527344 278.558594 131.574219 278.710938 128.433594 277.847656 C 125.511719 277.046875 123.546875 275.117188 120.40625 271.492188 C 120.351562 267.855469 121.175781 266.167969 122.847656 262.871094 C 125.53125 257.578125 128.5 252.652344 131.746094 247.449219 C 127.765625 252.253906 123.988281 256.273438 120.859375 261.109375 C 119.65625 257.691406 117.949219 255.960938 115.109375 252.121094 C 112.339844 248.367188 112.039062 246.714844 114.113281 242.375 C 116.191406 238.007812 117.960938 234.171875 121.511719 230.347656 C 127.636719 223.726562 133.257812 216.355469 139.960938 209.835938 C 143.597656 206.292969 145.078125 206.417969 149.898438 205.6875 C 154.265625 205.027344 158.519531 204.199219 162.972656 203.164062 C 158.667969 203.5625 154.511719 203.714844 150.320312 203.8125 L 150.195312 203.8125 C 154.320312 198.550781 156.710938 195.621094 163.402344 192.710938 C 170.613281 189.585938 176.675781 187.667969 182.292969 187.421875 M 188.027344 210.132812 C 179.0625 212.371094 177.375 216.148438 178.527344 221.9375 C 179.507812 217.582031 181.265625 213.375 188.027344 210.132812 M 161.457031 210.625 C 157.828125 211.035156 154.203125 211.410156 150.574219 211.753906 C 147.523438 212.039062 147.035156 211.988281 144.875 214.125 C 141.585938 217.378906 138.386719 228.535156 137.367188 233 C 138.972656 229.292969 142.996094 218.925781 146.078125 216.285156 C 146.9375 215.558594 147.535156 215.105469 148.175781 214.78125 C 145.96875 218.484375 146.128906 219.410156 146.90625 224.371094 C 147.5625 219.324219 149.300781 217.371094 152.164062 213.613281 C 155.324219 212.816406 158.425781 211.824219 161.457031 210.625 M 244.71875 211.046875 C 242.640625 215.253906 239.441406 218.777344 235.074219 220.941406 C 232.742188 222.09375 231.25 221.695312 228.640625 221.441406 C 231.292969 222.207031 232.980469 223.164062 235.585938 222.234375 C 240.894531 220.335938 243.449219 216.070312 244.71875 211.046875 M 226.160156 217.839844 L 226.703125 219.011719 C 226.558594 219.117188 226.417969 219.230469 226.28125 219.351562 C 226.039062 218.792969 225.703125 218.296875 225.273438 217.863281 Z M 199.605469 221.097656 C 196.679688 222.441406 193.285156 222.121094 190.773438 223.8125 C 188.566406 225.304688 185.503906 230.035156 183.261719 232.039062 C 184.886719 231.410156 186.457031 230.316406 187.902344 229.167969 C 187.914062 230.054688 188.109375 230.902344 188.496094 231.703125 C 188.878906 232.503906 189.414062 233.1875 190.101562 233.753906 C 189.972656 233.613281 189.863281 233.460938 189.769531 233.296875 C 189.675781 233.136719 189.601562 232.960938 189.546875 232.78125 C 189.492188 232.601562 189.460938 232.417969 189.445312 232.230469 C 189.433594 232.042969 189.441406 231.855469 189.46875 231.667969 C 189.5 231.480469 189.546875 231.300781 189.617188 231.125 C 189.6875 230.953125 189.773438 230.785156 189.878906 230.628906 C 189.988281 230.476562 190.109375 230.332031 190.246094 230.207031 C 190.386719 230.078125 190.539062 229.964844 190.699219 229.871094 C 190.863281 229.777344 191.035156 229.703125 191.214844 229.648438 C 191.394531 229.59375 191.578125 229.558594 191.769531 229.542969 C 191.957031 229.53125 192.144531 229.535156 192.328125 229.5625 C 192.515625 229.59375 192.695312 229.640625 192.871094 229.710938 C 193.046875 229.777344 193.214844 229.863281 193.371094 229.96875 C 193.523438 230.078125 193.667969 230.199219 193.796875 230.335938 C 193.925781 230.472656 194.035156 230.625 194.132812 230.785156 C 194.226562 230.949219 194.300781 231.121094 194.359375 231.300781 C 193.15625 232.195312 192.058594 233.242188 191.136719 234.457031 C 190.328125 235.523438 189.652344 236.722656 189.175781 238.035156 C 191.332031 235.535156 193.796875 233.390625 196.570312 231.597656 C 199.34375 229.804688 202.3125 228.441406 205.480469 227.503906 C 203.589844 227.507812 201.75 227.816406 199.960938 228.429688 C 199.898438 227.871094 199.761719 227.332031 199.546875 226.8125 C 199.335938 226.292969 199.054688 225.808594 198.707031 225.367188 C 198.359375 224.925781 197.957031 224.542969 197.503906 224.210938 C 197.046875 223.882812 196.554688 223.621094 196.027344 223.429688 C 197.332031 222.734375 198.609375 222 199.605469 221.097656 M 266.839844 224.335938 L 286.382812 224.335938 L 281.101562 248.171875 L 322.5 248.171875 C 330.417969 248.171875 335.472656 254.679688 333.714844 262.601562 L 327.121094 292.425781 L 327.089844 292.425781 L 321.566406 317.261719 L 302.023438 317.261719 L 307.519531 292.425781 L 311.996094 272.207031 C 312.921875 268.015625 310.230469 264.566406 306.042969 264.566406 L 277.554688 264.566406 L 275.847656 272.105469 L 275.847656 272.214844 L 271.429688 292.148438 L 271.398438 292.148438 L 265.808594 317.257812 L 246.289062 317.257812 L 251.875 292.148438 L 251.8125 292.148438 L 258.386719 262.601562 C 258.472656 262.179688 258.578125 261.765625 258.707031 261.363281 L 259.042969 259.960938 L 258.949219 259.960938 Z M 485.617188 224.335938 L 505.128906 224.335938 L 499.972656 247.664062 L 484.546875 317.261719 L 423.621094 317.261719 C 415.703125 317.261719 410.660156 310.78125 412.414062 302.867188 L 421.488281 262.035156 C 423.238281 254.113281 431.144531 247.632812 439.058594 247.636719 L 480.429688 247.671875 Z M 70.910156 226.367188 C 63.152344 231.839844 61.199219 234.324219 62.257812 245.398438 C 63.023438 236.683594 64.726562 232.921875 70.914062 226.367188 Z M 64.320312 229.664062 C 60.402344 232.402344 59.886719 233.527344 60.253906 238.285156 C 61.105469 234.363281 61.90625 232.878906 64.320312 229.664062 M 78.816406 231.242188 C 78.316406 232.242188 77.898438 233.277344 77.558594 234.34375 C 76.363281 238.484375 78.109375 242.175781 74.351562 245.175781 C 76.113281 248.730469 76.035156 250.15625 80.140625 248.511719 C 81.648438 247.894531 82.996094 247.035156 84.191406 245.929688 C 83.53125 247.644531 82.9375 249.382812 82.402344 251.140625 C 79.464844 252.386719 75.609375 253.1875 74.132812 250.101562 C 73.414062 248.601562 73.011719 247.132812 72.488281 245.234375 C 67.65625 240.222656 74.875 233.613281 78.816406 231.242188 M 79.8125 233.484375 C 80.8125 234.066406 81.082031 235.121094 81.191406 236.542969 C 80.597656 235.953125 80.125 235.550781 79.351562 235.640625 C 79.433594 234.90625 79.585938 234.1875 79.8125 233.484375 M 340.9375 247.648438 L 406.375 247.671875 C 414.132812 247.820312 419.039062 254.226562 417.3125 262.058594 L 416.074219 267.621094 L 416.089844 267.621094 L 414.582031 274.367188 L 414.601562 274.367188 L 406.917969 309.015625 L 406.910156 309.015625 L 405.078125 317.253906 L 339.988281 317.253906 C 332.066406 317.253906 327.023438 310.769531 328.78125 302.855469 L 331.398438 291.011719 L 331.410156 291.011719 L 331.917969 288.734375 C 333.667969 280.8125 341.582031 274.332031 349.5 274.335938 L 395.054688 274.359375 L 395.726562 271.324219 C 396.445312 267.378906 393.960938 264.179688 390.050781 264.023438 L 337.308594 264.023438 L 340.941406 247.644531 Z M 671.519531 248.171875 L 732.40625 248.171875 C 740.328125 248.171875 745.371094 254.6875 743.613281 262.601562 L 734.578125 303.398438 C 732.820312 311.320312 724.933594 317.800781 717.011719 317.796875 L 675.632812 317.753906 L 670.449219 341.085938 L 650.9375 341.085938 L 656.09375 317.753906 L 658.796875 305.472656 L 671.515625 248.171875 Z M 518.550781 248.183594 L 569.289062 248.183594 C 577.210938 248.183594 582.253906 254.667969 580.5 262.589844 L 571.460938 303.398438 C 569.707031 311.320312 561.796875 317.796875 553.875 317.796875 L 503.117188 317.796875 C 495.199219 317.796875 490.15625 311.320312 491.910156 303.398438 L 500.953125 262.589844 C 502.703125 254.667969 510.625 248.183594 518.546875 248.183594 Z M 602.203125 248.183594 L 652.957031 248.183594 C 660.878906 248.183594 665.917969 254.667969 664.164062 262.589844 L 655.125 303.398438 C 653.367188 311.320312 645.457031 317.796875 637.535156 317.796875 L 586.78125 317.796875 C 578.859375 317.796875 573.820312 311.320312 575.574219 303.398438 L 584.613281 262.589844 C 586.371094 254.667969 594.28125 248.183594 602.203125 248.183594 M 200.878906 260.09375 C 199.816406 260.273438 197.914062 260.667969 196.859375 260.84375 C 194.023438 261.324219 193.699219 262.003906 193.257812 264.789062 C 193.054688 266.101562 192.761719 267.730469 192.558594 269.046875 C 193.109375 267.558594 193.78125 265.828125 194.429688 264.410156 C 195.113281 262.914062 195.5 262.785156 196.953125 261.988281 C 197.984375 261.433594 199.847656 260.65625 200.878906 260.101562 Z M 448.257812 264.046875 C 444.070312 264.046875 439.882812 267.457031 438.957031 271.640625 L 434.167969 293.253906 C 433.242188 297.445312 435.902344 300.851562 440.09375 300.851562 L 468.613281 300.851562 L 476.808594 264.046875 Z M 527.742188 264.566406 C 523.550781 264.566406 519.359375 267.996094 518.433594 272.1875 L 513.652344 293.792969 C 512.726562 297.984375 515.386719 301.410156 519.578125 301.410156 L 544.679688 301.410156 C 548.871094 301.410156 553.050781 297.984375 553.976562 293.792969 L 558.773438 272.1875 C 559.695312 268 557.027344 264.566406 552.828125 264.566406 Z M 611.410156 264.566406 C 607.210938 264.566406 603.019531 267.996094 602.09375 272.1875 L 597.304688 293.792969 C 596.375 297.984375 599.050781 301.410156 603.242188 301.410156 L 628.328125 301.410156 C 632.519531 301.410156 636.710938 297.984375 637.644531 293.792969 L 642.429688 272.1875 C 643.363281 268 640.6875 264.566406 636.496094 264.566406 Z M 687.421875 264.566406 L 679.25 301.421875 L 707.808594 301.421875 C 711.996094 301.421875 716.183594 297.980469 717.109375 293.792969 L 721.894531 272.207031 C 722.824219 268.023438 720.164062 264.566406 715.964844 264.566406 Z M 447.617188 269.898438 L 459.527344 269.898438 L 453.898438 295.027344 L 442.304688 295.027344 C 440.621094 295.027344 439.648438 294.703125 440.074219 292.785156 L 444.542969 272.714844 C 444.960938 270.839844 445.527344 269.898438 447.617188 269.898438 M 527.863281 270.382812 L 540.582031 270.382812 C 543.035156 270.382812 542.898438 271.660156 542.457031 273.640625 L 538.09375 293.296875 C 537.582031 295.585938 536.152344 295.550781 534.1875 295.550781 L 521.238281 295.550781 C 519.335938 295.550781 519.320312 294.429688 519.660156 292.886719 L 524.007812 273.230469 C 524.546875 270.808594 525.5 270.375 527.863281 270.375 Z M 611.621094 270.382812 L 624.339844 270.382812 C 626.789062 270.382812 626.65625 271.660156 626.214844 273.640625 L 621.851562 293.296875 C 621.339844 295.585938 619.914062 295.550781 617.941406 295.550781 L 604.996094 295.550781 C 603.097656 295.550781 603.078125 294.429688 603.417969 292.886719 L 607.765625 273.230469 C 608.304688 270.808594 609.261719 270.375 611.621094 270.375 Z M 691.945312 270.609375 L 703.542969 270.609375 C 705.222656 270.609375 706.1875 270.921875 705.761719 272.839844 L 701.289062 292.910156 C 700.875 294.785156 700.320312 295.738281 698.230469 295.738281 L 686.316406 295.738281 Z M 83.066406 279.636719 C 85.292969 287.339844 89.085938 294.910156 93.28125 301.265625 L 93.28125 301.375 C 93.023438 302.460938 92.710938 303.527344 92.074219 304.378906 C 89.066406 308.398438 81.433594 302.5 79.222656 300.242188 C 76.804688 297.773438 75.1875 294.855469 74.804688 292.105469 C 74.527344 290.113281 74.785156 290.058594 76.183594 288.648438 C 78.066406 286.746094 79.945312 284.84375 81.820312 282.941406 Z M 184.082031 284.679688 C 184.539062 286.167969 184.894531 287.644531 185.5625 289.222656 C 186.683594 291.875 187.234375 293.507812 187.316406 296.351562 L 187.5625 305.351562 C 188.527344 307.027344 188.671875 307.386719 188.5 309.304688 C 188.15625 313.222656 186.847656 313.480469 183.410156 313.421875 C 181.847656 313.394531 175.628906 313.355469 174.054688 313.222656 C 171.824219 313.027344 170.570312 312.835938 169.886719 312.328125 C 173.386719 309.753906 179.347656 299.132812 180.5 295.480469 C 181.734375 291.617188 183.085938 288.25 184.082031 284.679688 M 356.820312 290.6875 C 354.023438 290.6875 351.234375 292.980469 350.625 295.769531 C 350.011719 298.527344 351.746094 300.792969 354.480469 300.847656 L 354.472656 300.867188 L 389.160156 300.867188 L 391.421875 290.722656 L 357.320312 290.722656 C 357.15625 290.703125 356.988281 290.691406 356.820312 290.6875 " fill-opacity="1" fill-rule="nonzero"/></g></svg>