<svg xmlns="http://www.w3.org/2000/svg" xmlns:xlink="http://www.w3.org/1999/xlink" width="1080" zoomAndPan="magnify" viewBox="0 0 810 530.249967" height="707" preserveAspectRatio="xMidYMid meet" version="1.0"><defs><g/><clipPath id="9e058b0962"><path d="M 0.578125 0 L 809.421875 0 L 809.421875 529.242188 L 0.578125 529.242188 Z M 0.578125 0 " clip-rule="nonzero"/></clipPath><clipPath id="cbd996d7e7"><path d="M 53.523438 137.804688 L 307.414062 137.804688 L 307.414062 391.699219 L 53.523438 391.699219 Z M 53.523438 137.804688 " clip-rule="nonzero"/></clipPath></defs><g clip-path="url(#9e058b0962)"><path stroke-linecap="butt" transform="matrix(0.748941, 0, 0, 0.748941, 0.57801, -0.0000199718)" fill="none" stroke-linejoin="miter" d="M 0.00015329 0.0000266667 L 1079.984 0.0000266667 L 1079.984 706.654449 L 0.00015329 706.654449 Z M 0.00015329 0.0000266667 " stroke="#444444" stroke-width="10" stroke-opacity="1" stroke-miterlimit="4"/></g><g clip-path="url(#cbd996d7e7)"><path fill="#444444" d="M 307.15625 137.804688 L 53.523438 137.804688 L 53.523438 391.441406 L 307.15625 391.441406 Z M 188.792969 273.078125 C 188.792969 271.96875 188.847656 270.867188 188.957031 269.761719 C 189.066406 268.660156 189.226562 267.566406 189.441406 266.480469 C 189.660156 265.394531 189.929688 264.320312 190.25 263.261719 C 190.570312 262.199219 190.945312 261.160156 191.367188 260.136719 C 191.792969 259.113281 192.265625 258.113281 192.785156 257.136719 C 193.308594 256.160156 193.878906 255.210938 194.492188 254.289062 C 195.109375 253.367188 195.765625 252.480469 196.46875 251.625 C 197.171875 250.769531 197.914062 249.949219 198.699219 249.164062 C 199.480469 248.382812 200.300781 247.640625 201.15625 246.9375 C 202.011719 246.234375 202.902344 245.574219 203.824219 244.960938 C 204.742188 244.34375 205.691406 243.773438 206.667969 243.253906 C 207.644531 242.730469 208.644531 242.257812 209.667969 241.835938 C 210.691406 241.410156 211.734375 241.039062 212.792969 240.714844 C 213.855469 240.394531 214.925781 240.125 216.011719 239.910156 C 217.101562 239.695312 218.195312 239.53125 219.296875 239.421875 C 220.398438 239.3125 221.503906 239.261719 222.609375 239.261719 L 242.34375 239.261719 C 259.457031 239.261719 273.335938 253.125 273.335938 270.253906 L 273.335938 273.078125 L 256.429688 273.078125 L 256.429688 270.253906 C 256.429688 269.328125 256.339844 268.414062 256.160156 267.507812 C 255.976562 266.597656 255.710938 265.71875 255.355469 264.863281 C 255.003906 264.007812 254.570312 263.199219 254.054688 262.429688 C 253.542969 261.660156 252.957031 260.949219 252.304688 260.292969 C 251.648438 259.640625 250.9375 259.054688 250.167969 258.542969 C 249.398438 258.027344 248.589844 257.59375 247.734375 257.242188 C 246.878906 256.886719 246 256.621094 245.089844 256.441406 C 244.183594 256.257812 243.269531 256.167969 242.34375 256.167969 L 222.609375 256.167969 C 222.058594 256.167969 221.503906 256.195312 220.953125 256.25 C 220.402344 256.304688 219.855469 256.386719 219.3125 256.492188 C 218.769531 256.601562 218.234375 256.734375 217.703125 256.898438 C 217.171875 257.058594 216.652344 257.242188 216.140625 257.457031 C 215.628906 257.667969 215.128906 257.90625 214.640625 258.164062 C 214.152344 258.425781 213.675781 258.710938 213.21875 259.019531 C 212.757812 259.328125 212.3125 259.65625 211.882812 260.007812 C 211.457031 260.359375 211.046875 260.730469 210.65625 261.121094 C 210.261719 261.511719 209.890625 261.921875 209.539062 262.351562 C 209.1875 262.777344 208.859375 263.222656 208.550781 263.683594 C 208.246094 264.144531 207.960938 264.617188 207.699219 265.105469 C 207.4375 265.59375 207.203125 266.09375 206.988281 266.605469 C 206.777344 267.117188 206.589844 267.640625 206.429688 268.167969 C 206.269531 268.699219 206.136719 269.234375 206.027344 269.777344 C 205.917969 270.320312 205.839844 270.871094 205.785156 271.421875 C 205.730469 271.972656 205.703125 272.523438 205.703125 273.078125 C 205.703125 273.632812 205.730469 274.183594 205.785156 274.734375 C 205.839844 275.285156 205.917969 275.832031 206.027344 276.375 C 206.136719 276.917969 206.269531 277.457031 206.429688 277.984375 C 206.589844 278.515625 206.777344 279.035156 206.988281 279.546875 C 207.203125 280.058594 207.4375 280.558594 207.699219 281.046875 C 207.960938 281.535156 208.246094 282.011719 208.550781 282.472656 C 208.859375 282.933594 209.1875 283.375 209.539062 283.804688 C 209.890625 284.234375 210.261719 284.640625 210.65625 285.035156 C 211.046875 285.425781 211.457031 285.796875 211.882812 286.148438 C 212.3125 286.5 212.757812 286.828125 213.21875 287.136719 C 213.675781 287.445312 214.152344 287.730469 214.640625 287.988281 C 215.128906 288.25 215.628906 288.488281 216.140625 288.699219 C 216.652344 288.910156 217.171875 289.097656 217.703125 289.257812 C 218.234375 289.417969 218.769531 289.554688 219.3125 289.660156 C 219.855469 289.769531 220.402344 289.851562 220.953125 289.90625 C 221.503906 289.960938 222.058594 289.988281 222.609375 289.988281 L 239.519531 289.988281 C 240.628906 289.988281 241.734375 290.039062 242.835938 290.148438 C 243.9375 290.257812 245.03125 290.421875 246.117188 290.636719 C 247.203125 290.851562 248.277344 291.121094 249.335938 291.441406 C 250.398438 291.765625 251.4375 292.136719 252.460938 292.5625 C 253.484375 292.984375 254.484375 293.457031 255.460938 293.980469 C 256.4375 294.5 257.386719 295.070312 258.308594 295.6875 C 259.230469 296.300781 260.117188 296.960938 260.972656 297.664062 C 261.828125 298.367188 262.648438 299.109375 263.433594 299.890625 C 264.214844 300.675781 264.957031 301.496094 265.660156 302.351562 C 266.363281 303.207031 267.023438 304.09375 267.636719 305.015625 C 268.253906 305.9375 268.824219 306.886719 269.34375 307.863281 C 269.867188 308.839844 270.339844 309.839844 270.761719 310.863281 C 271.1875 311.886719 271.558594 312.929688 271.882812 313.988281 C 272.203125 315.046875 272.472656 316.121094 272.6875 317.207031 C 272.902344 318.292969 273.066406 319.386719 273.175781 320.488281 C 273.285156 321.59375 273.335938 322.695312 273.335938 323.804688 C 273.335938 324.910156 273.285156 326.015625 273.175781 327.121094 C 273.066406 328.222656 272.902344 329.316406 272.6875 330.402344 C 272.472656 331.488281 272.203125 332.5625 271.882812 333.621094 C 271.558594 334.679688 271.1875 335.722656 270.761719 336.746094 C 270.339844 337.769531 269.867188 338.769531 269.34375 339.746094 C 268.824219 340.722656 268.253906 341.671875 267.636719 342.59375 C 267.023438 343.511719 266.363281 344.402344 265.660156 345.257812 C 264.957031 346.113281 264.214844 346.933594 263.433594 347.71875 C 262.648438 348.5 261.828125 349.242188 260.972656 349.945312 C 260.117188 350.648438 259.230469 351.308594 258.308594 351.921875 C 257.386719 352.539062 256.4375 353.105469 255.460938 353.628906 C 254.484375 354.152344 253.484375 354.625 252.460938 355.046875 C 251.4375 355.472656 250.398438 355.84375 249.335938 356.167969 C 248.277344 356.488281 247.203125 356.757812 246.117188 356.972656 C 245.03125 357.1875 243.9375 357.351562 242.835938 357.460938 C 241.734375 357.566406 240.628906 357.621094 239.519531 357.621094 L 222.609375 357.621094 C 221.503906 357.621094 220.398438 357.566406 219.296875 357.460938 C 218.195312 357.351562 217.101562 357.1875 216.011719 356.972656 C 214.925781 356.757812 213.855469 356.488281 212.792969 356.167969 C 211.734375 355.84375 210.691406 355.472656 209.667969 355.046875 C 208.644531 354.625 207.644531 354.152344 206.667969 353.628906 C 205.691406 353.105469 204.742188 352.539062 203.824219 351.921875 C 202.902344 351.308594 202.011719 350.648438 201.15625 349.945312 C 200.300781 349.242188 199.480469 348.5 198.699219 347.71875 C 197.914062 346.933594 197.171875 346.113281 196.46875 345.257812 C 195.765625 344.402344 195.109375 343.511719 194.492188 342.59375 C 193.878906 341.671875 193.308594 340.722656 192.785156 339.746094 C 192.265625 338.769531 191.792969 337.769531 191.367188 336.746094 C 190.945312 335.722656 190.570312 334.679688 190.25 333.621094 C 189.929688 332.5625 189.660156 331.488281 189.441406 330.402344 C 189.226562 329.316406 189.066406 328.222656 188.957031 327.121094 C 188.847656 326.015625 188.792969 324.910156 188.792969 323.804688 L 205.703125 323.804688 C 205.703125 324.359375 205.730469 324.910156 205.785156 325.460938 C 205.839844 326.011719 205.917969 326.558594 206.027344 327.101562 C 206.136719 327.644531 206.269531 328.183594 206.429688 328.710938 C 206.589844 329.242188 206.777344 329.761719 206.988281 330.273438 C 207.203125 330.785156 207.4375 331.285156 207.699219 331.773438 C 207.960938 332.261719 208.246094 332.738281 208.550781 333.199219 C 208.859375 333.660156 209.1875 334.101562 209.539062 334.53125 C 209.890625 334.960938 210.261719 335.371094 210.65625 335.761719 C 211.046875 336.152344 211.457031 336.523438 211.882812 336.875 C 212.3125 337.226562 212.757812 337.554688 213.21875 337.863281 C 213.675781 338.171875 214.152344 338.457031 214.640625 338.714844 C 215.128906 338.976562 215.628906 339.214844 216.140625 339.425781 C 216.652344 339.636719 217.171875 339.824219 217.703125 339.984375 C 218.234375 340.144531 218.769531 340.28125 219.3125 340.386719 C 219.855469 340.496094 220.402344 340.578125 220.953125 340.632812 C 221.503906 340.6875 222.058594 340.714844 222.609375 340.714844 L 239.519531 340.714844 C 240.074219 340.714844 240.625 340.6875 241.175781 340.632812 C 241.726562 340.578125 242.277344 340.496094 242.820312 340.386719 C 243.363281 340.28125 243.898438 340.144531 244.429688 339.984375 C 244.957031 339.824219 245.480469 339.636719 245.992188 339.425781 C 246.503906 339.214844 247.003906 338.976562 247.492188 338.714844 C 247.980469 338.457031 248.453125 338.171875 248.914062 337.863281 C 249.375 337.554688 249.820312 337.226562 250.246094 336.875 C 250.675781 336.523438 251.085938 336.152344 251.476562 335.761719 C 251.867188 335.371094 252.238281 334.960938 252.589844 334.53125 C 252.941406 334.101562 253.273438 333.660156 253.578125 333.199219 C 253.886719 332.738281 254.171875 332.261719 254.433594 331.773438 C 254.691406 331.285156 254.929688 330.785156 255.140625 330.273438 C 255.355469 329.761719 255.539062 329.242188 255.699219 328.710938 C 255.863281 328.183594 255.996094 327.644531 256.105469 327.101562 C 256.210938 326.558594 256.292969 326.011719 256.347656 325.460938 C 256.402344 324.910156 256.429688 324.359375 256.429688 323.804688 C 256.429688 323.25 256.402344 322.699219 256.347656 322.148438 C 256.292969 321.597656 256.210938 321.050781 256.105469 320.503906 C 255.996094 319.960938 255.863281 319.425781 255.699219 318.894531 C 255.539062 318.367188 255.355469 317.84375 255.140625 317.332031 C 254.929688 316.820312 254.691406 316.320312 254.433594 315.832031 C 254.171875 315.34375 253.886719 314.871094 253.578125 314.410156 C 253.273438 313.949219 252.941406 313.503906 252.589844 313.078125 C 252.238281 312.648438 251.867188 312.238281 251.476562 311.847656 C 251.085938 311.457031 250.675781 311.085938 250.246094 310.734375 C 249.820312 310.382812 249.375 310.054688 248.914062 309.746094 C 248.453125 309.4375 247.980469 309.152344 247.492188 308.890625 C 247.003906 308.632812 246.503906 308.394531 245.992188 308.183594 C 245.480469 307.972656 244.957031 307.785156 244.429688 307.625 C 243.898438 307.464844 243.363281 307.328125 242.820312 307.21875 C 242.277344 307.113281 241.726562 307.03125 241.175781 306.976562 C 240.625 306.921875 240.074219 306.894531 239.519531 306.894531 L 222.609375 306.894531 C 221.503906 306.894531 220.398438 306.839844 219.296875 306.734375 C 218.195312 306.625 217.101562 306.460938 216.011719 306.246094 C 214.925781 306.03125 213.855469 305.761719 212.792969 305.4375 C 211.734375 305.117188 210.691406 304.746094 209.667969 304.320312 C 208.644531 303.898438 207.644531 303.425781 206.667969 302.902344 C 205.691406 302.378906 204.742188 301.8125 203.824219 301.195312 C 202.902344 300.582031 202.011719 299.921875 201.15625 299.21875 C 200.300781 298.515625 199.480469 297.773438 198.699219 296.992188 C 197.914062 296.207031 197.171875 295.386719 196.46875 294.53125 C 195.765625 293.675781 195.109375 292.785156 194.492188 291.867188 C 193.878906 290.945312 193.308594 289.996094 192.785156 289.019531 C 192.265625 288.042969 191.792969 287.042969 191.367188 286.019531 C 190.945312 284.996094 190.570312 283.953125 190.25 282.894531 C 189.929688 281.835938 189.660156 280.761719 189.441406 279.675781 C 189.226562 278.589844 189.066406 277.496094 188.957031 276.390625 C 188.847656 275.289062 188.792969 274.183594 188.792969 273.078125 M 154.976562 239.261719 L 154.976562 323.804688 C 154.976562 324.359375 154.949219 324.910156 154.894531 325.460938 C 154.839844 326.011719 154.757812 326.558594 154.652344 327.101562 C 154.542969 327.644531 154.40625 328.183594 154.246094 328.710938 C 154.085938 329.242188 153.898438 329.761719 153.6875 330.273438 C 153.476562 330.785156 153.238281 331.285156 152.980469 331.773438 C 152.71875 332.261719 152.433594 332.738281 152.125 333.199219 C 151.816406 333.660156 151.488281 334.101562 151.136719 334.53125 C 150.785156 334.960938 150.414062 335.371094 150.023438 335.761719 C 149.632812 336.152344 149.222656 336.523438 148.792969 336.875 C 148.367188 337.226562 147.921875 337.554688 147.460938 337.863281 C 147 338.171875 146.527344 338.457031 146.039062 338.714844 C 145.550781 338.976562 145.050781 339.214844 144.539062 339.425781 C 144.027344 339.636719 143.503906 339.824219 142.976562 339.984375 C 142.445312 340.144531 141.910156 340.28125 141.367188 340.386719 C 140.820312 340.496094 140.273438 340.578125 139.722656 340.632812 C 139.171875 340.6875 138.621094 340.714844 138.066406 340.714844 C 137.511719 340.714844 136.960938 340.6875 136.410156 340.632812 C 135.859375 340.578125 135.3125 340.496094 134.769531 340.386719 C 134.226562 340.28125 133.6875 340.144531 133.160156 339.984375 C 132.628906 339.824219 132.109375 339.636719 131.597656 339.425781 C 131.085938 339.214844 130.585938 338.976562 130.097656 338.714844 C 129.609375 338.457031 129.132812 338.171875 128.671875 337.863281 C 128.210938 337.554688 127.769531 337.226562 127.339844 336.875 C 126.910156 336.523438 126.5 336.152344 126.109375 335.761719 C 125.71875 335.371094 125.347656 334.960938 124.996094 334.53125 C 124.644531 334.101562 124.316406 333.660156 124.007812 333.199219 C 123.699219 332.738281 123.414062 332.261719 123.15625 331.773438 C 122.894531 331.285156 122.65625 330.785156 122.445312 330.273438 C 122.234375 329.761719 122.046875 329.242188 121.886719 328.710938 C 121.726562 328.183594 121.589844 327.644531 121.484375 327.101562 C 121.375 326.558594 121.292969 326.011719 121.238281 325.460938 C 121.183594 324.910156 121.15625 324.359375 121.15625 323.804688 L 104.25 323.804688 C 104.25 324.910156 104.304688 326.015625 104.410156 327.121094 C 104.519531 328.222656 104.683594 329.316406 104.898438 330.402344 C 105.113281 331.488281 105.382812 332.5625 105.703125 333.621094 C 106.027344 334.679688 106.398438 335.722656 106.824219 336.746094 C 107.246094 337.769531 107.71875 338.769531 108.242188 339.746094 C 108.765625 340.722656 109.332031 341.671875 109.949219 342.59375 C 110.5625 343.511719 111.222656 344.402344 111.925781 345.257812 C 112.628906 346.113281 113.371094 346.933594 114.152344 347.71875 C 114.9375 348.5 115.757812 349.242188 116.613281 349.945312 C 117.46875 350.648438 118.359375 351.308594 119.277344 351.921875 C 120.199219 352.539062 121.148438 353.105469 122.125 353.628906 C 123.101562 354.152344 124.101562 354.625 125.125 355.046875 C 126.148438 355.472656 127.191406 355.84375 128.25 356.167969 C 129.308594 356.488281 130.382812 356.757812 131.46875 356.972656 C 132.554688 357.1875 133.648438 357.351562 134.75 357.460938 C 135.855469 357.566406 136.960938 357.621094 138.066406 357.621094 C 139.175781 357.621094 140.277344 357.566406 141.382812 357.460938 C 142.484375 357.351562 143.578125 357.1875 144.664062 356.972656 C 145.75 356.757812 146.824219 356.488281 147.882812 356.167969 C 148.941406 355.84375 149.984375 355.472656 151.007812 355.046875 C 152.03125 354.625 153.03125 354.152344 154.007812 353.628906 C 154.984375 353.105469 155.933594 352.539062 156.855469 351.921875 C 157.777344 351.308594 158.664062 350.648438 159.519531 349.945312 C 160.375 349.242188 161.195312 348.5 161.980469 347.71875 C 162.761719 346.933594 163.503906 346.113281 164.207031 345.257812 C 164.910156 344.402344 165.570312 343.511719 166.183594 342.59375 C 166.800781 341.671875 167.367188 340.722656 167.890625 339.746094 C 168.414062 338.769531 168.886719 337.769531 169.308594 336.746094 C 169.734375 335.722656 170.105469 334.679688 170.429688 333.621094 C 170.75 332.5625 171.019531 331.488281 171.234375 330.402344 C 171.449219 329.316406 171.613281 328.222656 171.722656 327.121094 C 171.832031 326.015625 171.882812 324.910156 171.882812 323.804688 L 171.882812 239.261719 Z M 154.976562 239.261719 " fill-opacity="1" fill-rule="evenodd"/></g><g fill="#444444" fill-opacity="1"><g transform="translate(342.153926, 287.543608)"><g><path d="M 16.90625 0.6875 C 12.8125 0.6875 9.410156 -0.0859375 6.703125 -1.640625 C 3.992188 -3.191406 2.023438 -5.273438 0.796875 -7.890625 L 6.171875 -14.421875 L 7 -14.421875 C 7.875 -12.304688 9.117188 -10.640625 10.734375 -9.421875 C 12.359375 -8.203125 14.238281 -7.59375 16.375 -7.59375 C 18.769531 -7.59375 20.550781 -8.289062 21.71875 -9.6875 C 22.882812 -11.082031 23.46875 -13.351562 23.46875 -16.5 L 23.46875 -48.265625 L 32.984375 -48.265625 L 32.984375 -16.34375 C 32.984375 -10.507812 31.65625 -6.210938 29 -3.453125 C 26.34375 -0.691406 22.3125 0.6875 16.90625 0.6875 Z M 16.90625 0.6875 "/></g></g></g><g fill="#444444" fill-opacity="1"><g transform="translate(381.109024, 287.543608)"><g><path d="M 46.3125 0 L 36.28125 0 L 32.65625 -11.125 L 14.15625 -11.125 L 10.53125 0 L 0.71875 0 L 17.390625 -48.265625 L 29.640625 -48.265625 Z M 22.9375 -38.203125 L 16.734375 -19.140625 L 30.015625 -19.140625 L 23.765625 -38.203125 Z M 22.9375 -38.203125 "/></g></g></g><g fill="#444444" fill-opacity="1"><g transform="translate(428.152257, 287.543608)"><g><path d="M 28.6875 0 L 17.171875 0 L 0.859375 -48.265625 L 11 -48.265625 L 22.71875 -12.28125 L 23.53125 -12.28125 L 35.09375 -48.265625 L 44.96875 -48.265625 Z M 28.6875 0 "/></g></g></g><g fill="#444444" fill-opacity="1"><g transform="translate(473.974017, 287.543608)"><g><path d="M 46.3125 0 L 36.28125 0 L 32.65625 -11.125 L 14.15625 -11.125 L 10.53125 0 L 0.71875 0 L 17.390625 -48.265625 L 29.640625 -48.265625 Z M 22.9375 -38.203125 L 16.734375 -19.140625 L 30.015625 -19.140625 L 23.765625 -38.203125 Z M 22.9375 -38.203125 "/></g></g></g><g fill="#444444" fill-opacity="1"><g transform="translate(521.01725, 287.543608)"><g><path d="M 21.390625 0.6875 C 18.046875 0.6875 15.066406 0.273438 12.453125 -0.546875 C 9.847656 -1.367188 7.675781 -2.453125 5.9375 -3.796875 C 4.195312 -5.140625 2.867188 -6.613281 1.953125 -8.21875 L 7.203125 -14.625 L 8.015625 -14.625 C 9.472656 -12.46875 11.316406 -10.75 13.546875 -9.46875 C 15.785156 -8.195312 18.398438 -7.5625 21.390625 -7.5625 C 23.941406 -7.5625 25.863281 -8.097656 27.15625 -9.171875 C 28.457031 -10.253906 29.109375 -11.742188 29.109375 -13.640625 C 29.109375 -14.773438 28.898438 -15.726562 28.484375 -16.5 C 28.066406 -17.269531 27.375 -17.929688 26.40625 -18.484375 C 25.4375 -19.035156 24.128906 -19.507812 22.484375 -19.90625 L 16.28125 -21.328125 C 11.9375 -22.316406 8.703125 -23.960938 6.578125 -26.265625 C 4.460938 -28.566406 3.40625 -31.550781 3.40625 -35.21875 C 3.40625 -37.945312 4.085938 -40.347656 5.453125 -42.421875 C 6.816406 -44.492188 8.800781 -46.097656 11.40625 -47.234375 C 14.007812 -48.378906 17.128906 -48.953125 20.765625 -48.953125 C 24.484375 -48.953125 27.664062 -48.460938 30.3125 -47.484375 C 32.96875 -46.503906 35.210938 -45.003906 37.046875 -42.984375 L 32.3125 -36.515625 L 31.5 -36.515625 C 30.132812 -37.941406 28.570312 -39.007812 26.8125 -39.71875 C 25.050781 -40.4375 23.035156 -40.796875 20.765625 -40.796875 C 18.148438 -40.796875 16.160156 -40.332031 14.796875 -39.40625 C 13.429688 -38.488281 12.75 -37.21875 12.75 -35.59375 C 12.75 -34.070312 13.222656 -32.859375 14.171875 -31.953125 C 15.128906 -31.054688 16.785156 -30.351562 19.140625 -29.84375 L 25.484375 -28.515625 C 30.171875 -27.523438 33.570312 -25.847656 35.6875 -23.484375 C 37.800781 -21.117188 38.859375 -18.035156 38.859375 -14.234375 C 38.859375 -11.210938 38.207031 -8.582031 36.90625 -6.34375 C 35.601562 -4.113281 33.644531 -2.382812 31.03125 -1.15625 C 28.414062 0.0703125 25.203125 0.6875 21.390625 0.6875 Z M 21.390625 0.6875 "/></g></g></g><g fill="#444444" fill-opacity="1"><g transform="translate(562.48132, 287.543608)"><g><path d="M 26.375 0.6875 C 21.925781 0.6875 18.007812 -0.234375 14.625 -2.078125 C 11.238281 -3.929688 8.585938 -6.710938 6.671875 -10.421875 C 4.753906 -14.128906 3.796875 -18.695312 3.796875 -24.125 C 3.796875 -29.5625 4.753906 -34.132812 6.671875 -37.84375 C 8.585938 -41.550781 11.238281 -44.328125 14.625 -46.171875 C 18.007812 -48.023438 21.925781 -48.953125 26.375 -48.953125 C 31.019531 -48.953125 34.960938 -48.046875 38.203125 -46.234375 C 41.453125 -44.421875 43.769531 -41.65625 45.15625 -37.9375 L 38.203125 -33.671875 L 37.375 -33.703125 C 36.332031 -36.210938 34.925781 -38.007812 33.15625 -39.09375 C 31.382812 -40.1875 29.125 -40.734375 26.375 -40.734375 C 22.375 -40.734375 19.25 -39.40625 17 -36.75 C 14.757812 -34.101562 13.640625 -29.894531 13.640625 -24.125 C 13.640625 -18.382812 14.757812 -14.1875 17 -11.53125 C 19.25 -8.882812 22.375 -7.5625 26.375 -7.5625 C 32.644531 -7.5625 36.484375 -10.609375 37.890625 -16.703125 L 38.71875 -16.703125 L 45.75 -13.046875 C 44.4375 -8.460938 42.179688 -5.023438 38.984375 -2.734375 C 35.796875 -0.453125 31.59375 0.6875 26.375 0.6875 Z M 26.375 0.6875 "/></g></g></g><g fill="#444444" fill-opacity="1"><g transform="translate(609.821668, 287.543608)"><g><path d="M 6.265625 0 L 6.265625 -48.265625 L 25.65625 -48.265625 C 30.644531 -48.265625 34.410156 -47.113281 36.953125 -44.8125 C 39.492188 -42.507812 40.765625 -39.335938 40.765625 -35.296875 C 40.765625 -32.367188 40.019531 -29.96875 38.53125 -28.09375 C 37.050781 -26.21875 34.835938 -24.785156 31.890625 -23.796875 L 31.890625 -23.109375 C 33.410156 -22.453125 34.632812 -21.472656 35.5625 -20.171875 C 36.5 -18.867188 37.390625 -16.941406 38.234375 -14.390625 L 43.046875 0 L 33.25 0 L 28.515625 -14.421875 C 28.035156 -15.878906 27.492188 -17.007812 26.890625 -17.8125 C 26.285156 -18.613281 25.515625 -19.195312 24.578125 -19.5625 C 23.640625 -19.925781 22.425781 -20.109375 20.9375 -20.109375 L 15.8125 -20.109375 L 15.8125 0 Z M 24.5 -27.671875 C 29.113281 -27.671875 31.421875 -29.828125 31.421875 -34.140625 C 31.421875 -38.515625 29.113281 -40.703125 24.5 -40.703125 L 15.8125 -40.703125 L 15.8125 -27.671875 Z M 24.5 -27.671875 "/></g></g></g><g fill="#444444" fill-opacity="1"><g transform="translate(654.950172, 287.543608)"><g><path d="M 15.8125 0 L 6.265625 0 L 6.265625 -48.265625 L 15.8125 -48.265625 Z M 15.8125 0 "/></g></g></g><g fill="#444444" fill-opacity="1"><g transform="translate(677.068745, 287.543608)"><g><path d="M 24.921875 -48.265625 C 28.378906 -48.265625 31.332031 -47.628906 33.78125 -46.359375 C 36.238281 -45.097656 38.09375 -43.328125 39.34375 -41.046875 C 40.601562 -38.773438 41.234375 -36.128906 41.234375 -33.109375 C 41.234375 -30.097656 40.601562 -27.457031 39.34375 -25.1875 C 38.09375 -22.914062 36.238281 -21.144531 33.78125 -19.875 C 31.332031 -18.613281 28.378906 -17.984375 24.921875 -17.984375 L 15.8125 -17.984375 L 15.8125 0 L 6.265625 0 L 6.265625 -48.265625 Z M 23.671875 -25.546875 C 28.972656 -25.546875 31.625 -28.066406 31.625 -33.109375 C 31.625 -38.171875 28.972656 -40.703125 23.671875 -40.703125 L 15.8125 -40.703125 L 15.8125 -25.546875 Z M 23.671875 -25.546875 "/></g></g></g><g fill="#444444" fill-opacity="1"><g transform="translate(721.173839, 287.543608)"><g><path d="M 38.6875 -48.265625 L 38.6875 -40.234375 L 24.765625 -40.234375 L 24.765625 0 L 15.25 0 L 15.25 -40.234375 L 1.328125 -40.234375 L 1.328125 -48.265625 Z M 38.6875 -48.265625 "/></g></g></g></svg>