<svg xmlns="http://www.w3.org/2000/svg" xmlns:xlink="http://www.w3.org/1999/xlink" width="1080" zoomAndPan="magnify" viewBox="0 0 810 530.249967" height="707" preserveAspectRatio="xMidYMid meet" version="1.0"><defs><g/><clipPath id="36a32c114f"><path d="M 1.757812 0 L 809.425781 0 L 809.425781 528.152344 L 1.757812 528.152344 Z M 1.757812 0 " clip-rule="nonzero"/></clipPath><clipPath id="a7d0d6c506"><path d="M 30.410156 95.597656 L 365.9375 95.597656 L 365.9375 431.121094 L 30.410156 431.121094 Z M 30.410156 95.597656 " clip-rule="nonzero"/></clipPath></defs><g clip-path="url(#36a32c114f)"><path stroke-linecap="butt" transform="matrix(0.748941, 0, 0, 0.748941, 1.75712, -1.091236)" fill="none" stroke-linejoin="miter" d="M 0.000925117 0.0018591 L 1079.984771 0.0018591 L 1079.984771 706.656282 L 0.000925117 706.656282 Z M 0.000925117 0.0018591 " stroke="#444444" stroke-width="10" stroke-opacity="1" stroke-miterlimit="4"/></g><g clip-path="url(#a7d0d6c506)"><path fill="#ffffff" d="M 30.410156 95.597656 L 30.410156 431.121094 L 365.9375 431.121094 L 365.9375 95.597656 Z M 30.410156 95.597656 " fill-opacity="1" fill-rule="nonzero"/></g><path fill="#444444" d="M 110.179688 355.890625 L 118.574219 355.890625 C 118.574219 320.597656 141.519531 284.519531 311.699219 284.519531 L 311.699219 276.125 C 134.121094 276.125 110.179688 316.445312 110.179688 355.890625 M 135.367188 381.082031 L 143.765625 381.082031 C 143.765625 349.316406 143.765625 301.3125 311.699219 301.3125 L 311.699219 292.917969 C 234.714844 292.917969 184.605469 302.820312 158.5 323.195312 C 135.367188 341.246094 135.367188 364.273438 135.367188 381.082031 M 93.386719 204.753906 L 84.988281 204.753906 C 84.988281 235.804688 127.136719 255.46875 210.488281 263.527344 C 127.136719 271.589844 84.988281 291.253906 84.988281 322.304688 L 93.386719 322.304688 C 93.386719 301.921875 121.75 267.726562 311.699219 267.726562 L 311.699219 259.332031 C 121.75 259.332031 93.386719 225.136719 93.386719 204.753906 M 118.574219 171.164062 L 110.179688 171.164062 C 110.179688 210.613281 134.121094 250.933594 311.699219 250.933594 L 311.699219 242.535156 C 141.519531 242.535156 118.574219 206.457031 118.574219 171.164062 M 311.699219 225.742188 L 311.699219 234.140625 C 234.714844 234.140625 184.605469 224.238281 158.5 203.863281 C 135.367188 185.808594 135.367188 162.785156 135.367188 145.976562 L 143.765625 145.976562 C 143.765625 177.738281 143.765625 225.742188 311.699219 225.742188 " fill-opacity="1" fill-rule="nonzero"/><g fill="#444444" fill-opacity="1"><g transform="translate(355.712885, 297.653464)"><g><path d="M 8.265625 0 L 8.265625 -63.625 L 20.84375 -63.625 L 20.84375 -37.640625 L 22.234375 -37.640625 L 43.46875 -63.625 L 56.359375 -63.625 L 56.359375 -62.53125 L 32.9375 -33.59375 L 58.796875 -1.09375 L 58.796875 0 L 44.5625 0 L 22.234375 -27.453125 L 20.84375 -27.453125 L 20.84375 0 Z M 8.265625 0 "/></g></g><g transform="translate(414.507283, 297.653464)"><g><path d="M 20.84375 0 L 8.265625 0 L 8.265625 -63.625 L 20.84375 -63.625 Z M 20.84375 0 "/></g></g><g transform="translate(443.665126, 297.653464)"><g><path d="M 20.453125 0 L 8.265625 0 L 8.265625 -63.625 L 22.671875 -63.625 L 48.21875 -22.625 L 49.34375 -22.796875 L 49.34375 -63.625 L 61.453125 -63.625 L 61.453125 0 L 48.5625 0 L 21.546875 -43.78125 L 20.453125 -43.609375 Z M 20.453125 0 "/></g></g><g transform="translate(513.426354, 297.653464)"><g><path d="M 20.84375 -27.9375 L 20.84375 -10.53125 L 51.21875 -10.53125 L 51.21875 0 L 8.265625 0 L 8.265625 -63.625 L 50.53125 -63.625 L 50.53125 -53.09375 L 20.84375 -53.09375 L 20.84375 -38.203125 L 46.78125 -38.203125 L 46.78125 -27.9375 Z M 20.84375 -27.9375 "/></g></g><g transform="translate(568.12995, 297.653464)"><g><path d="M 28.203125 0.90625 C 23.785156 0.90625 19.859375 0.363281 16.421875 -0.71875 C 12.984375 -1.800781 10.117188 -3.226562 7.828125 -5 C 5.535156 -6.769531 3.78125 -8.71875 2.5625 -10.84375 L 9.484375 -19.28125 L 10.578125 -19.28125 C 12.492188 -16.4375 14.921875 -14.171875 17.859375 -12.484375 C 20.804688 -10.804688 24.253906 -9.96875 28.203125 -9.96875 C 31.566406 -9.96875 34.101562 -10.675781 35.8125 -12.09375 C 37.53125 -13.519531 38.390625 -15.476562 38.390625 -17.96875 C 38.390625 -19.476562 38.113281 -20.738281 37.5625 -21.75 C 37.007812 -22.769531 36.09375 -23.640625 34.8125 -24.359375 C 33.539062 -25.085938 31.816406 -25.710938 29.640625 -26.234375 L 21.453125 -28.109375 C 15.734375 -29.421875 11.472656 -31.59375 8.671875 -34.625 C 5.878906 -37.65625 4.484375 -41.59375 4.484375 -46.4375 C 4.484375 -50.03125 5.378906 -53.191406 7.171875 -55.921875 C 8.972656 -58.648438 11.59375 -60.765625 15.03125 -62.265625 C 18.46875 -63.773438 22.582031 -64.53125 27.375 -64.53125 C 32.28125 -64.53125 36.476562 -63.882812 39.96875 -62.59375 C 43.46875 -61.3125 46.421875 -59.332031 48.828125 -56.65625 L 42.609375 -48.125 L 41.515625 -48.125 C 39.710938 -50.007812 37.648438 -51.421875 35.328125 -52.359375 C 33.015625 -53.304688 30.363281 -53.78125 27.375 -53.78125 C 23.914062 -53.78125 21.285156 -53.171875 19.484375 -51.953125 C 17.691406 -50.742188 16.796875 -49.0625 16.796875 -46.90625 C 16.796875 -44.90625 17.425781 -43.3125 18.6875 -42.125 C 19.945312 -40.9375 22.128906 -40.007812 25.234375 -39.34375 L 33.59375 -37.59375 C 39.769531 -36.289062 44.25 -34.078125 47.03125 -30.953125 C 49.820312 -27.835938 51.21875 -23.769531 51.21875 -18.75 C 51.21875 -14.78125 50.359375 -11.320312 48.640625 -8.375 C 46.929688 -5.425781 44.351562 -3.140625 40.90625 -1.515625 C 37.457031 0.0976562 33.222656 0.90625 28.203125 0.90625 Z M 28.203125 0.90625 "/></g></g><g transform="translate(622.790027, 297.653464)"><g><path d="M 20.84375 0 L 8.265625 0 L 8.265625 -63.625 L 20.84375 -63.625 Z M 20.84375 0 "/></g></g><g transform="translate(651.94787, 297.653464)"><g><path d="M 28.203125 0.90625 C 23.785156 0.90625 19.859375 0.363281 16.421875 -0.71875 C 12.984375 -1.800781 10.117188 -3.226562 7.828125 -5 C 5.535156 -6.769531 3.78125 -8.71875 2.5625 -10.84375 L 9.484375 -19.28125 L 10.578125 -19.28125 C 12.492188 -16.4375 14.921875 -14.171875 17.859375 -12.484375 C 20.804688 -10.804688 24.253906 -9.96875 28.203125 -9.96875 C 31.566406 -9.96875 34.101562 -10.675781 35.8125 -12.09375 C 37.53125 -13.519531 38.390625 -15.476562 38.390625 -17.96875 C 38.390625 -19.476562 38.113281 -20.738281 37.5625 -21.75 C 37.007812 -22.769531 36.09375 -23.640625 34.8125 -24.359375 C 33.539062 -25.085938 31.816406 -25.710938 29.640625 -26.234375 L 21.453125 -28.109375 C 15.734375 -29.421875 11.472656 -31.59375 8.671875 -34.625 C 5.878906 -37.65625 4.484375 -41.59375 4.484375 -46.4375 C 4.484375 -50.03125 5.378906 -53.191406 7.171875 -55.921875 C 8.972656 -58.648438 11.59375 -60.765625 15.03125 -62.265625 C 18.46875 -63.773438 22.582031 -64.53125 27.375 -64.53125 C 32.28125 -64.53125 36.476562 -63.882812 39.96875 -62.59375 C 43.46875 -61.3125 46.421875 -59.332031 48.828125 -56.65625 L 42.609375 -48.125 L 41.515625 -48.125 C 39.710938 -50.007812 37.648438 -51.421875 35.328125 -52.359375 C 33.015625 -53.304688 30.363281 -53.78125 27.375 -53.78125 C 23.914062 -53.78125 21.285156 -53.171875 19.484375 -51.953125 C 17.691406 -50.742188 16.796875 -49.0625 16.796875 -46.90625 C 16.796875 -44.90625 17.425781 -43.3125 18.6875 -42.125 C 19.945312 -40.9375 22.128906 -40.007812 25.234375 -39.34375 L 33.59375 -37.59375 C 39.769531 -36.289062 44.25 -34.078125 47.03125 -30.953125 C 49.820312 -27.835938 51.21875 -23.769531 51.21875 -18.75 C 51.21875 -14.78125 50.359375 -11.320312 48.640625 -8.375 C 46.929688 -5.425781 44.351562 -3.140625 40.90625 -1.515625 C 37.457031 0.0976562 33.222656 0.90625 28.203125 0.90625 Z M 28.203125 0.90625 "/></g></g></g></svg>