<svg xmlns="http://www.w3.org/2000/svg" xmlns:xlink="http://www.w3.org/1999/xlink" width="1080" zoomAndPan="magnify" viewBox="0 0 810 530.249967" height="707" preserveAspectRatio="xMidYMid meet" version="1.0"><defs><clipPath id="f431f4c85c"><path d="M 0.578125 0.25 L 809.421875 0.25 L 809.421875 529.492188 L 0.578125 529.492188 Z M 0.578125 0.25 " clip-rule="nonzero"/></clipPath></defs><g clip-path="url(#f431f4c85c)"><path stroke-linecap="butt" transform="matrix(0.748941, 0, 0, 0.748941, 0.57801, 0.249627)" fill="none" stroke-linejoin="miter" d="M 0.00015329 0.000498189 L 1079.984 0.000498189 L 1079.984 706.654921 L 0.00015329 706.654921 Z M 0.00015329 0.000498189 " stroke="#444444" stroke-width="10" stroke-opacity="1" stroke-miterlimit="4"/></g><path fill="#444444" d="M 472.183594 158.496094 C 462.878906 129.523438 447.953125 103.882812 426.921875 81.820312 C 421.601562 76.238281 415.695312 71.125 411.984375 64.183594 C 409.640625 59.789062 407.40625 55.332031 405.125 50.90625 L 403.671875 47.257812 L 403.269531 48.695312 C 403.082031 55.914062 398.992188 60.804688 393.902344 65.375 C 388.171875 70.515625 382.839844 76.09375 377.339844 81.488281 L 360.417969 103.746094 L 346.734375 128.90625 L 337.582031 153.617188 L 337.308594 153.996094 C 332.273438 170.539062 329.789062 187.546875 328.570312 204.71875 C 328.109375 211.175781 328.640625 217.722656 329 224.210938 C 329.519531 233.488281 331.128906 242.601562 333.546875 251.582031 C 342.324219 284.191406 360.144531 311.238281 384.511719 334.21875 C 389.035156 338.488281 393.925781 342.375 398.644531 346.433594 L 400.734375 353.605469 L 402.679688 364.742188 L 403.609375 376.363281 C 403.597656 378.722656 403.5 381.09375 403.640625 383.445312 C 403.679688 384.046875 404.464844 384.605469 404.910156 385.183594 L 408.855469 386.570312 L 412.960938 388.167969 L 412.257812 377.835938 L 412.222656 367.660156 L 413.640625 352.160156 L 414.671875 348.785156 L 417.621094 343.566406 C 421.257812 340.644531 425.15625 337.984375 428.46875 334.730469 C 434.460938 328.84375 440.441406 322.878906 445.804688 316.429688 C 452.808594 308.039062 458.726562 298.945312 463.558594 289.144531 C 466.773438 282.59375 469.800781 275.910156 472.308594 269.070312 C 474.515625 263.039062 475.882812 256.695312 477.625 250.488281 L 478.082031 249.148438 C 481.671875 232.398438 482.277344 215.476562 480.957031 198.445312 C 479.898438 184.71875 476.671875 171.472656 472.183594 158.496094 M 401.074219 338.140625 C 401.625 335.382812 402.308594 332.644531 402.804688 329.878906 C 402.308594 332.644531 401.628906 335.382812 401.074219 338.140625 M 413.285156 340.039062 L 410.976562 334.984375 Z M 413.285156 340.039062 L 416.675781 342.9375 Z M 556.761719 404.097656 C 553.8125 398.441406 549.480469 394.144531 543.757812 391.324219 C 538.960938 388.96875 533.804688 387.929688 528.503906 387.78125 C 524.53125 387.667969 520.542969 387.871094 516.5625 387.921875 C 513.027344 387.964844 509.488281 388.023438 505.957031 387.992188 C 501.800781 387.949219 497.644531 387.824219 493.488281 387.707031 C 492.800781 387.683594 492.308594 387.824219 491.988281 388.523438 C 491.484375 389.613281 490.886719 390.664062 490.269531 391.859375 L 490.960938 392.078125 C 493.023438 392.445312 495.097656 392.753906 497.148438 393.167969 C 499.785156 393.691406 500.972656 395.207031 501.09375 397.429688 C 501.265625 400.597656 501.347656 403.769531 501.332031 406.941406 C 501.277344 419.496094 501.1875 432.054688 501.097656 444.605469 C 501.089844 445.433594 501.074219 446.300781 500.851562 447.078125 C 500.589844 447.980469 500.304688 449.144531 499.636719 449.585938 C 498.414062 450.371094 497.085938 450.878906 495.652344 451.105469 C 493.644531 451.433594 493.308594 451.523438 492.683594 453.496094 L 492.414062 454.480469 C 492.113281 455.558594 492.273438 455.769531 493.394531 455.777344 C 499.835938 455.851562 506.269531 455.988281 512.707031 455.96875 C 518.578125 455.945312 524.445312 456.304688 530.296875 455.199219 C 535.824219 454.160156 540.984375 452.339844 545.691406 449.253906 C 551.804688 445.25 556.199219 439.894531 558.515625 432.910156 C 560.390625 427.269531 560.808594 421.511719 560.171875 415.613281 C 559.773438 411.554688 558.636719 407.71875 556.761719 404.097656 M 545.484375 438.617188 C 542.039062 445.027344 536.898438 449.308594 529.558594 450.4375 C 524.957031 451.140625 520.351562 450.9375 515.96875 449.199219 C 513.191406 448.097656 512.160156 445.699219 512.074219 442.867188 C 511.996094 440.089844 511.953125 437.3125 511.957031 434.53125 C 511.941406 424.765625 511.941406 414.996094 511.957031 405.230469 C 511.960938 402.152344 512.015625 399.070312 512.066406 395.988281 C 512.101562 393.824219 512.554688 393.097656 514.667969 392.921875 C 523.941406 392.144531 532.792969 393.144531 540.144531 399.671875 C 544.6875 403.710938 547.277344 408.859375 548.351562 414.773438 C 548.796875 417.238281 548.933594 419.761719 549.210938 422.261719 C 548.988281 427.972656 548.214844 433.527344 545.484375 438.617188 M 623.339844 428.035156 C 621.507812 423.585938 618.042969 420.792969 613.6875 419.007812 C 612.199219 418.394531 610.667969 417.894531 609.0625 417.300781 L 609.625 416.941406 C 611.359375 415.832031 613.289062 414.933594 614.78125 413.566406 C 618.410156 410.238281 619.917969 406.054688 619.210938 401.085938 C 618.539062 396.355469 616.183594 392.886719 611.96875 390.636719 C 608.144531 388.601562 604.023438 387.855469 599.753906 387.859375 C 592.375 387.867188 584.988281 387.976562 577.605469 387.992188 C 575.0625 387.996094 572.515625 387.804688 569.972656 387.769531 C 569.480469 387.761719 568.746094 387.886719 568.535156 388.21875 C 567.953125 389.109375 567.570312 390.140625 567.152344 391.132812 C 566.914062 391.710938 567.148438 392.03125 567.8125 392.117188 C 569.585938 392.359375 571.359375 392.664062 573.140625 392.925781 C 575.597656 393.292969 576.789062 394.574219 576.9375 397.050781 L 576.96875 398.519531 C 576.972656 406.21875 577 413.917969 576.964844 421.621094 C 576.917969 429.308594 576.847656 437 576.746094 444.6875 C 576.738281 445.65625 576.605469 446.628906 576.464844 447.589844 C 576.253906 449.039062 575.480469 450.039062 573.992188 450.355469 L 569.789062 451.183594 C 569.289062 451.285156 568.574219 451.269531 568.367188 451.578125 C 567.597656 452.730469 566.976562 453.992188 567.0625 455.515625 L 567.492188 455.632812 L 581.617188 455.980469 L 584.453125 455.96875 C 589.339844 455.910156 594.234375 456.007812 599.117188 455.757812 C 604.402344 455.492188 609.363281 453.925781 613.953125 451.226562 C 618.835938 448.351562 622.59375 444.558594 623.933594 438.855469 C 624.789062 435.214844 624.792969 431.554688 623.339844 428.035156 M 587.453125 395.230469 C 587.476562 393.683594 588.15625 393.011719 589.695312 392.972656 C 593.476562 392.871094 597.238281 392.890625 600.886719 394.195312 C 605.613281 395.882812 608.515625 399.957031 608.464844 404.933594 C 608.4375 406.84375 608.46875 408.738281 607.761719 410.574219 C 606.375 414.191406 603.707031 416.097656 599.925781 416.46875 C 597.953125 416.671875 595.964844 416.691406 594.207031 416.785156 L 588.339844 416.527344 C 587.558594 416.5 587.222656 416.15625 587.222656 415.355469 Z M 611.773438 443.449219 C 609.882812 447.5625 606.4375 449.722656 602.125 450.472656 C 598.648438 451.070312 595.203125 450.921875 591.792969 450.019531 C 589.269531 449.371094 588.238281 447.347656 587.734375 445.097656 C 587.394531 443.59375 587.453125 441.804688 587.425781 440.238281 C 587.378906 437.824219 587.414062 432.8125 587.414062 432.8125 L 587.363281 432.8125 C 587.363281 429.238281 587.375 426.144531 587.351562 422.714844 C 587.351562 421.976562 587.476562 421.609375 588.378906 421.636719 C 591.585938 421.734375 594.808594 421.789062 598.015625 421.914062 C 600.886719 422.023438 603.570312 422.875 606.097656 424.234375 C 609.941406 426.308594 612.257812 429.480469 612.894531 433.839844 C 613.378906 437.144531 613.171875 440.398438 611.773438 443.449219 M 259.503906 447.300781 L 259.570312 427.871094 C 259.582031 424.949219 259.210938 422.085938 258.25 419.3125 C 255.609375 411.675781 248.328125 408.199219 240.746094 410.9375 C 237.296875 412.1875 234.207031 414.078125 231.257812 416.21875 C 229.539062 417.472656 229.539062 417.472656 228.292969 415.6875 C 224.773438 410.644531 219.746094 408.917969 213.894531 410.777344 C 210.109375 411.980469 206.800781 414.035156 203.667969 416.421875 C 203.375 416.640625 202.785156 416.890625 202.609375 416.757812 C 202.316406 416.539062 202.113281 416.019531 202.121094 415.632812 L 202.335938 412.179688 C 202.351562 411.453125 202.214844 410.726562 202.140625 409.964844 C 200.726562 410.453125 199.597656 410.941406 198.414062 411.230469 C 194.757812 412.121094 191.078125 412.945312 187.402344 413.785156 C 186.511719 413.988281 185.574219 414.253906 185.488281 415.277344 C 185.398438 416.28125 186.367188 416.449219 187.117188 416.75 C 188.695312 417.390625 190.265625 418.054688 191.824219 418.746094 C 193.136719 419.324219 193.625 420.371094 193.621094 421.78125 C 193.59375 427.800781 193.632812 433.816406 193.597656 439.835938 C 193.582031 442.285156 193.46875 444.726562 193.359375 447.175781 C 193.257812 449.34375 192.519531 450.25 190.417969 450.796875 C 189.304688 451.089844 188.171875 451.289062 187.046875 451.550781 C 186.800781 451.609375 186.378906 451.765625 186.375 451.886719 C 186.332031 452.949219 186.273438 454.035156 186.453125 455.066406 C 186.488281 455.253906 187.609375 455.253906 188.230469 455.324219 L 188.648438 455.300781 C 192.980469 455.230469 197.3125 455.171875 201.644531 455.121094 C 203.941406 455.097656 206.238281 455.117188 208.730469 455.117188 L 209 451.652344 C 207.570312 451.390625 206.292969 451.195312 205.035156 450.917969 C 203.074219 450.492188 202.238281 449.449219 202.1875 447.472656 L 202.152344 444.636719 C 202.132812 437.289062 202.101562 429.941406 202.101562 422.589844 C 202.101562 421.523438 202.546875 420.675781 203.484375 420.035156 C 205.476562 418.691406 207.578125 417.625 209.902344 417.027344 C 214.804688 415.773438 219.058594 417.515625 220.945312 421.6875 C 221.539062 423.003906 222.007812 424.457031 222.140625 425.886719 C 222.832031 433.253906 222.535156 440.628906 222.117188 447.996094 C 222.027344 449.585938 221.28125 450.386719 219.710938 450.777344 L 216.023438 451.554688 C 215.726562 451.632812 215.292969 451.429688 215.273438 451.675781 C 215.191406 452.695312 215.238281 454.257812 215.238281 454.257812 L 216.117188 454.257812 L 227.34375 454.625 C 230.417969 454.617188 233.5 454.988281 236.574219 455.066406 C 237.125 455.078125 237.613281 455.160156 237.644531 454.523438 C 237.675781 453.539062 237.664062 452.550781 237.605469 451.5625 L 237.019531 451.460938 L 233.855469 450.75 C 231.722656 450.246094 230.988281 449.433594 230.980469 447.273438 C 230.957031 441.953125 231.027344 436.636719 230.980469 431.320312 C 230.953125 428.277344 230.839844 425.242188 230.640625 422.207031 C 230.585938 421.398438 230.710938 420.871094 231.355469 420.414062 C 233.234375 419.039062 235.296875 418.046875 237.542969 417.433594 C 244.457031 415.609375 250.117188 419.402344 250.476562 426.527344 C 250.828125 433.402344 250.679688 440.304688 250.625 447.191406 C 250.609375 449.589844 249.816406 450.316406 247.453125 450.960938 L 246.636719 451.167969 C 244.21875 451.75 244.242188 451.75 244.382812 454.316406 C 244.429688 455.121094 244.652344 455.328125 245.507812 455.308594 C 250.4375 455.195312 255.363281 455.167969 260.292969 455.125 C 262.308594 455.109375 264.324219 455.125 266.515625 455.125 L 266.960938 451.78125 C 265.035156 451.269531 263.261719 450.890625 261.546875 450.332031 C 260.03125 449.816406 259.496094 448.902344 259.503906 447.300781 M 429.1875 417.851562 C 431.21875 415.96875 431.234375 413.484375 430.664062 410.722656 C 429.058594 412.402344 427.257812 413.179688 425.203125 413.324219 C 422.445312 413.523438 419.742188 413.285156 417.175781 412.1875 C 410.238281 409.207031 403.40625 409.417969 396.59375 412.6875 C 390.867188 415.429688 387.34375 419.707031 386.988281 426.191406 C 386.765625 430.347656 387.542969 434.28125 390.316406 437.589844 C 391.976562 439.566406 394.113281 440.851562 396.515625 441.738281 C 397.550781 442.117188 397.632812 442.613281 396.761719 443.273438 C 396.121094 443.757812 395.457031 444.210938 394.773438 444.632812 C 393.320312 445.542969 391.859375 446.441406 390.390625 447.324219 C 389.53125 447.847656 389.238281 448.511719 389.519531 449.53125 C 390.34375 452.523438 392.472656 454.253906 395.128906 455.515625 L 396.097656 456.191406 L 395.25 457.035156 C 392.644531 459.148438 389.9375 461.144531 387.445312 463.382812 C 385.351562 465.265625 384.675781 467.789062 385.308594 470.574219 C 386.582031 476.128906 390.265625 479.566406 395.496094 481.144531 C 404.628906 483.910156 413.210938 482.324219 421.03125 476.910156 C 425.667969 473.699219 428.996094 469.519531 430.007812 463.765625 C 431.140625 457.300781 427.550781 451.691406 421.121094 450.535156 C 416.867188 449.761719 412.515625 449.539062 408.214844 449.046875 C 406.207031 448.820312 404.167969 448.683594 402.214844 448.222656 C 400.554688 447.828125 399.726562 446.476562 399.882812 445.152344 C 400.035156 443.851562 401.417969 442.640625 403 442.515625 C 406.1875 442.257812 409.3125 441.761719 412.25 440.417969 C 420.03125 436.859375 423.644531 430.628906 422.738281 422.238281 C 422.621094 421.109375 422.363281 419.992188 422.132812 418.679688 C 424.621094 419.097656 427.171875 419.730469 429.1875 417.851562 M 405.574219 457.21875 C 408.738281 457.3125 412.339844 457.507812 415.820312 458.527344 C 418.882812 459.421875 421.402344 460.984375 422.148438 464.40625 C 423.042969 468.535156 421.058594 472.644531 417.058594 474.851562 C 413.3125 476.917969 409.246094 477.089844 405.125 476.664062 C 401.59375 476.300781 398.417969 475.078125 395.871094 472.46875 C 392.519531 469.035156 392.503906 464.285156 395.859375 460.859375 C 398.855469 457.800781 400.460938 457.167969 405.574219 457.21875 M 413.496094 432.34375 C 411.652344 438.242188 406.285156 439.058594 402.078125 437.171875 C 398.496094 435.566406 396.933594 432.40625 396.117188 428.800781 C 395.796875 427.414062 395.722656 425.976562 395.535156 424.558594 C 395.613281 422.523438 395.949219 420.574219 396.824219 418.742188 C 399.507812 413.109375 406.097656 413.445312 409.746094 415.996094 C 411.3125 417.089844 412.402344 418.574219 413.085938 420.335938 C 413.84375 422.253906 414.257812 424.242188 414.328125 426.304688 C 414.398438 428.363281 414.121094 430.378906 413.496094 432.34375 M 380.015625 451.148438 C 378.738281 450.953125 377.476562 450.671875 376.238281 450.304688 C 374.066406 449.640625 373.800781 449.234375 373.777344 446.9375 C 373.710938 440.53125 373.667969 434.128906 373.597656 427.730469 C 373.5625 424.851562 373.21875 422.007812 372.335938 419.257812 C 370.015625 412.003906 362.898438 408.109375 355.78125 410.25 C 351.835938 411.441406 348.449219 413.652344 345.292969 416.25 L 344.144531 417.132812 L 344.148438 415.949219 C 344.222656 414.585938 344.367188 413.226562 344.359375 411.863281 C 344.351562 411.152344 344.078125 410.4375 343.949219 409.8125 C 341.257812 410.625 338.84375 411.441406 336.382812 412.0625 C 333.914062 412.683594 331.394531 413.105469 328.898438 413.613281 C 327.65625 413.863281 326.746094 414.613281 326.765625 415.464844 C 326.800781 416.671875 327.796875 416.902344 328.667969 417.265625 C 330.246094 417.910156 331.824219 418.5625 333.386719 419.257812 C 334.5 419.753906 334.953125 420.675781 334.941406 421.875 C 334.863281 430.195312 334.8125 438.519531 334.691406 446.847656 C 334.65625 449.476562 333.992188 450.167969 331.40625 450.75 L 330.277344 450.972656 C 327.882812 451.382812 327.8125 451.480469 327.980469 454.007812 L 327.992188 454.425781 C 327.964844 455.398438 328.390625 455.710938 329.390625 455.699219 C 335.75 455.621094 342.113281 455.59375 348.472656 455.613281 C 351.199219 455.625 351.492188 455.410156 351.4375 452.609375 L 351.308594 451.40625 C 349.75 451.144531 348.261719 450.957031 346.800781 450.632812 C 345.277344 450.292969 344.730469 449.667969 344.585938 448.117188 C 344.453125 446.699219 344.410156 445.257812 344.398438 443.832031 C 344.324219 437.285156 344.273438 430.746094 344.238281 424.207031 C 344.230469 422.558594 344.535156 421.03125 346.046875 419.96875 C 348.320312 418.34375 350.851562 417.4375 353.640625 417.246094 C 359.316406 416.855469 363.628906 420.21875 363.9375 425.875 C 364.316406 432.855469 364.199219 439.855469 364.289062 446.851562 C 364.296875 447.371094 364.203125 447.898438 364.132812 448.414062 C 363.996094 449.4375 363.496094 450.203125 362.460938 450.46875 C 361.449219 450.734375 360.421875 450.96875 359.390625 451.125 C 357.851562 451.355469 357.820312 451.34375 357.699219 452.898438 L 357.738281 453.945312 C 357.921875 455.753906 357.925781 455.699219 359.753906 455.683594 C 365.90625 455.628906 372.058594 455.605469 378.207031 455.609375 C 380.78125 455.613281 380.960938 455.492188 380.984375 452.84375 L 380.976562 452.214844 C 381.015625 451.535156 380.710938 451.257812 380.015625 451.148438 M 465.957031 410.6875 C 459.507812 409.113281 453.390625 410.285156 447.582031 413.289062 C 441.933594 416.210938 438.160156 420.722656 436.726562 426.953125 C 435.273438 433.253906 435.96875 439.398438 438.75 445.25 C 440.5625 449.046875 443.351562 451.984375 447.144531 453.890625 C 456.027344 458.367188 466.894531 456.335938 473.863281 450.351562 C 479.359375 445.632812 481.378906 439.347656 481.5 431.566406 C 481.425781 430.789062 481.351562 429.289062 481.144531 427.800781 C 479.976562 419.332031 474.113281 412.683594 465.957031 410.6875 M 470.84375 443.402344 C 469.128906 450.140625 463.300781 453.136719 456.726562 450.820312 C 453.371094 449.640625 450.863281 447.386719 449.179688 444.335938 C 445.296875 437.335938 444.550781 429.886719 446.757812 422.25 C 448.230469 417.160156 452.417969 414.375 457.398438 414.726562 C 461.851562 415.039062 465.273438 417.175781 467.785156 420.796875 C 470.433594 424.621094 471.457031 428.96875 471.726562 433.535156 C 471.773438 434.269531 471.734375 435 471.734375 435.738281 L 472.050781 435.773438 C 471.65625 438.320312 471.472656 440.917969 470.84375 443.402344 M 303.746094 410.578125 C 296.960938 409.027344 290.601562 410.558594 284.714844 414.007812 C 279.621094 416.988281 276.332031 421.441406 275.070312 427.257812 C 273.886719 432.691406 274.371094 438.035156 276.296875 443.242188 C 277.46875 446.414062 279.242188 449.203125 281.847656 451.378906 C 287.332031 455.957031 293.742188 457.117188 300.566406 455.839844 C 306.339844 454.757812 311.414062 452.191406 315.101562 447.394531 C 318.550781 442.90625 319.867188 437.753906 320.003906 432.167969 C 319.800781 430.398438 319.75 428.597656 319.375 426.871094 C 317.507812 418.257812 312.472656 412.570312 303.746094 410.578125 M 309.28125 443.378906 C 307.625 450.082031 301.703125 453.152344 295.175781 450.835938 C 290.984375 449.347656 288.253906 446.277344 286.53125 442.34375 C 283.765625 436.023438 283.199219 429.445312 284.988281 422.777344 C 286.363281 417.679688 290.496094 413.921875 296.824219 414.824219 C 300.707031 415.375 303.738281 417.355469 305.996094 420.511719 C 309.046875 424.765625 310.050781 429.640625 310.191406 434.761719 L 310.191406 435.808594 L 310.449219 435.847656 C 310.074219 438.363281 309.886719 440.921875 309.28125 443.378906 " fill-opacity="1" fill-rule="evenodd"/></svg>