<svg xmlns="http://www.w3.org/2000/svg" xmlns:xlink="http://www.w3.org/1999/xlink" width="1080" zoomAndPan="magnify" viewBox="0 0 810 530.249967" height="707" preserveAspectRatio="xMidYMid meet" version="1.0"><defs><clipPath id="d24549438f"><path d="M 0.578125 0.25 L 809.421875 0.25 L 809.421875 529.492188 L 0.578125 529.492188 Z M 0.578125 0.25 " clip-rule="nonzero"/></clipPath><clipPath id="83834762b3"><path d="M 155.28125 66 L 672.800781 66 L 672.800781 336 L 155.28125 336 Z M 155.28125 66 " clip-rule="nonzero"/></clipPath></defs><g clip-path="url(#d24549438f)"><path stroke-linecap="butt" transform="matrix(0.748941, 0, 0, 0.748941, 0.57801, 0.249627)" fill="none" stroke-linejoin="miter" d="M 0.00015329 0.000498189 L 1079.984 0.000498189 L 1079.984 706.654921 L 0.00015329 706.654921 Z M 0.00015329 0.000498189 " stroke="#444444" stroke-width="10" stroke-opacity="1" stroke-miterlimit="4"/></g><g clip-path="url(#83834762b3)"><path fill="#444444" d="M 155.28125 311.15625 L 172.441406 311.15625 L 172.441406 243.417969 L 199 302.464844 C 202.125 309.625 206.410156 312.136719 214.828125 312.136719 C 223.25 312.136719 227.359375 309.625 230.488281 302.464844 L 257.042969 243.417969 L 257.042969 311.152344 L 274.203125 311.152344 L 274.203125 243.53125 C 274.203125 236.925781 271.566406 233.734375 266.113281 232.09375 C 253.078125 228.03125 244.339844 231.539062 240.375 240.339844 L 214.324219 298.625 L 189.09375 240.339844 C 185.304688 231.539062 176.390625 228.03125 163.371094 232.09375 C 157.921875 233.734375 155.28125 236.925781 155.28125 243.53125 Z M 288.476562 256.015625 L 305.617188 256.015625 L 305.617188 293.335938 C 305.460938 295.355469 306.265625 300.113281 315.664062 300.273438 L 352.96875 300.273438 L 352.96875 255.824219 L 370.160156 255.824219 C 370.242188 255.824219 370.128906 316.429688 370.128906 316.683594 C 370.222656 331.628906 351.59375 334.871094 343 335.125 L 288.839844 335.125 L 288.839844 323.589844 L 343.097656 323.574219 C 354.140625 322.421875 352.828125 316.921875 352.828125 315.085938 L 352.828125 310.585938 L 316.378906 310.585938 C 299.410156 310.429688 288.617188 303.019531 288.476562 294.5 C 288.460938 293.726562 288.839844 256.390625 288.476562 256.011719 Z M 383.371094 311.15625 L 432.695312 311.15625 C 438.464844 311.15625 444.074219 309.9375 448.527344 307.855469 C 455.953125 304.457031 459.570312 299.832031 459.570312 293.78125 L 459.570312 281.25 C 459.570312 276.300781 455.460938 271.675781 447.371094 268.609375 C 443.085938 266.949219 437.796875 266.082031 432.691406 266.082031 L 411.898438 266.082031 C 404.976562 266.082031 401.675781 263.996094 400.855469 259.382812 C 400.699219 258.828125 400.699219 258.386719 400.699219 257.835938 L 400.699219 250.027344 C 400.699219 249.585938 400.699219 249.140625 400.855469 248.59375 C 401.675781 245.085938 403.492188 244.089844 409.59375 243.535156 L 411.25 243.425781 L 460.230469 243.425781 L 460.230469 232.003906 L 412.078125 232.003906 C 405.15625 232.003906 401.523438 232.445312 398.21875 233.429688 C 387.996094 236.621094 383.539062 241.675781 383.539062 250.476562 L 383.539062 260.480469 C 383.539062 268.171875 392.277344 274.777344 406.957031 276.3125 C 408.613281 276.417969 410.257812 276.53125 411.902344 276.53125 L 429.722656 276.53125 C 430.386719 276.53125 431.035156 276.53125 431.539062 276.640625 C 436.976562 277.082031 439.28125 278.078125 440.941406 280.054688 C 441.792969 280.84375 442.28125 281.96875 442.25 283.121094 L 442.25 293.140625 C 442.25 294.34375 441.429688 295.890625 439.785156 297.203125 C 438.300781 298.527344 435.824219 299.398438 432.535156 299.621094 L 430.71875 299.730469 L 383.371094 299.730469 Z M 566.585938 291.246094 C 566.585938 303.019531 575.339844 309.605469 592.96875 310.933594 C 594.628906 311.042969 596.269531 311.15625 597.933594 311.15625 L 642.632812 311.15625 L 642.632812 299.71875 L 597.601562 299.71875 C 587.539062 299.71875 583.742188 297.191406 583.742188 291.136719 L 583.742188 231.980469 L 566.601562 231.980469 L 566.601562 291.242188 Z M 470.523438 291.847656 L 470.523438 251.066406 C 470.523438 240.714844 477.808594 234.429688 492.183594 232.453125 C 493.71875 232.230469 495.261719 232.121094 496.8125 232.121094 L 529.363281 232.121094 C 531.019531 232.121094 532.503906 232.230469 534.167969 232.453125 C 548.546875 234.425781 555.816406 240.714844 555.816406 251.066406 L 555.816406 291.847656 C 555.816406 300.25 552.734375 304.742188 545.609375 307.675781 L 562.515625 322.925781 L 542.59375 322.925781 L 528.925781 310.585938 L 515.164062 311.457031 L 496.820312 311.457031 C 493.398438 311.445312 490.035156 310.96875 486.742188 310.03125 C 475.824219 307.0625 470.53125 301.328125 470.53125 291.847656 Z M 489.039062 290.851562 C 489.039062 291.40625 489.214844 291.957031 489.371094 292.625 C 490.367188 297.363281 494.839844 300 501.597656 300 L 517.179688 300 L 502.863281 287.078125 L 522.789062 287.078125 L 535.269531 298.359375 C 537.578125 297.125 539.09375 295.261719 539.617188 292.84375 C 539.789062 292.292969 539.789062 291.742188 539.789062 291.1875 L 539.789062 252.082031 C 539.789062 251.640625 539.789062 251.085938 539.617188 250.535156 C 538.621094 246.125 534.164062 243.597656 527.5625 243.597656 L 501.601562 243.597656 C 494.003906 243.597656 489.042969 246.898438 489.042969 252.082031 Z M 657.71875 213.007812 C 647.183594 212.722656 639.121094 213.703125 632.230469 216.609375 C 630.273438 217.429688 627.144531 217.449219 626.828125 219.898438 C 627.90625 221.035156 628.078125 222.726562 628.933594 224.101562 C 630.574219 226.769531 633.355469 230.324219 635.835938 232.191406 C 638.523438 234.246094 641.316406 236.425781 644.226562 238.191406 C 649.375 241.335938 655.140625 243.140625 660.121094 246.28125 C 663.046875 248.148438 665.949219 250.484375 668.808594 252.589844 C 670.214844 253.617188 671.164062 255.242188 673.011719 255.886719 L 673.011719 255.589844 C 672.046875 254.355469 671.792969 252.664062 670.90625 251.386719 L 667.003906 247.484375 C 663.199219 242.429688 658.363281 237.988281 653.210938 234.289062 C 649.101562 231.347656 639.941406 227.367188 638.21875 222.597656 L 637.917969 222.296875 C 640.828125 221.980469 644.242188 220.921875 646.910156 220.210938 C 651.429688 218.992188 655.457031 219.308594 660.105469 218.105469 L 666.410156 216.289062 L 666.410156 215.105469 C 664.054688 212.6875 662.382812 209.496094 659.804688 207.300781 C 653.105469 201.597656 645.773438 195.875 638.222656 191.105469 C 634.035156 188.464844 628.871094 186.761719 624.429688 184.515625 C 622.945312 183.757812 620.320312 183.378906 619.324219 182.113281 C 617.003906 179.144531 615.738281 175.382812 613.9375 171.917969 C 610.097656 164.441406 606.5 156.847656 603.144531 149.136719 C 600.875 143.9375 599.386719 138.800781 596.542969 134.140625 C 582.9375 111.753906 568.277344 98.246094 545.570312 84.972656 C 540.753906 82.144531 534.917969 81.039062 528.792969 79.585938 L 518.886719 78.988281 C 516.878906 78.132812 514.792969 75.671875 512.898438 74.484375 C 505.378906 69.730469 486.085938 59.398438 480.507812 72.984375 C 477.003906 81.5625 485.773438 89.9375 488.914062 94.285156 C 491.109375 97.335938 493.9375 100.75 495.503906 104.175781 C 496.546875 106.417969 496.722656 108.675781 497.605469 111.0625 C 499.785156 116.9375 501.683594 123.320312 504.511719 128.757812 C 505.933594 131.507812 507.496094 134.402344 509.300781 136.847656 C 510.402344 138.347656 512.300781 139.027344 512.601562 141.347656 C 510.753906 143.941406 510.644531 147.953125 509.597656 151.238281 C 504.90625 166.011719 506.675781 184.371094 513.503906 195.320312 C 515.589844 198.667969 520.515625 205.871094 527.296875 203.109375 C 533.21875 200.691406 531.894531 193.21875 533.585938 186.613281 C 533.980469 185.128906 533.742188 184.023438 534.488281 183.027344 L 534.488281 183.324219 L 539.890625 194.117188 C 543.886719 200.546875 550.964844 207.261719 556.972656 211.796875 C 560.097656 214.152344 562.550781 218.226562 566.578125 219.601562 L 566.578125 219.289062 L 566.277344 219.289062 C 565.488281 218.085938 564.273438 217.582031 563.277344 216.601562 C 560.921875 214.296875 558.3125 211.4375 556.390625 208.796875 C 550.921875 201.386719 546.085938 193.265625 541.695312 184.808594 C 539.589844 180.78125 537.757812 176.324219 535.992188 172.21875 C 535.3125 170.636719 535.328125 168.238281 533.902344 167.429688 C 531.960938 170.429688 529.101562 172.867188 527.597656 176.421875 C 525.195312 182.09375 524.898438 189.027344 523.996094 196.203125 L 523.394531 196.503906 C 519.226562 195.492188 517.753906 191.195312 516.207031 187.511719 C 512.273438 178.1875 511.550781 163.164062 515.007812 152.4375 C 515.894531 149.65625 519.9375 140.898438 518.296875 138.34375 C 517.523438 135.785156 514.945312 134.300781 513.507812 132.339844 C 511.617188 129.710938 510.019531 126.914062 508.707031 123.953125 C 505.496094 116.667969 503.996094 108.519531 500.617188 101.167969 C 499.007812 97.644531 496.273438 94.089844 494.027344 90.964844 C 491.53125 87.503906 488.75 84.960938 486.824219 80.769531 C 486.144531 79.285156 485.214844 76.898438 486.226562 75.367188 C 486.539062 74.339844 487.011719 73.914062 488.023438 73.582031 C 489.765625 72.242188 494.613281 74.023438 496.414062 74.769531 C 501.230469 76.773438 505.246094 78.671875 509.320312 81.375 C 511.261719 82.667969 513.238281 85.179688 515.609375 85.875 L 518.3125 85.875 C 522.53125 86.839844 527.253906 86.160156 531.207031 87.359375 C 538.175781 89.476562 544.433594 92.78125 550.085938 96.367188 C 567.371094 107.269531 581.5 122.800781 591.164062 141.332031 C 592.730469 144.316406 593.394531 147.160156 594.769531 150.324219 C 597.535156 156.707031 601.011719 163.28125 603.761719 169.519531 C 606.511719 175.761719 609.179688 182.035156 613.050781 187.214844 C 615.089844 189.933594 622.972656 191.386719 626.546875 192.902344 C 629.058594 193.964844 633.167969 195.066406 635.535156 196.507812 C 640.085938 199.242188 644.480469 202.492188 648.746094 205.5 C 650.863281 207.015625 657.40625 210.304688 657.738281 213.003906 Z M 523.6875 98.773438 C 521.867188 98.746094 520.070312 98.945312 518.300781 99.371094 L 518.300781 99.671875 L 518.597656 99.671875 C 519.640625 101.835938 521.492188 103.226562 522.785156 105.074219 L 525.785156 111.367188 L 526.085938 111.082031 C 527.949219 109.773438 528.789062 107.667969 528.789062 104.476562 C 528.03125 103.6875 527.933594 102.710938 527.285156 101.773438 C 526.433594 100.527344 524.773438 99.832031 523.683594 98.773438 Z M 523.6875 98.773438 " fill-opacity="1" fill-rule="nonzero"/></g></svg>