<svg xmlns="http://www.w3.org/2000/svg" xmlns:xlink="http://www.w3.org/1999/xlink" width="1080" zoomAndPan="magnify" viewBox="0 0 810 530.249967" height="707" preserveAspectRatio="xMidYMid meet" version="1.0"><defs><clipPath id="709ce6db0a"><path d="M 0.578125 0.25 L 809.421875 0.25 L 809.421875 529.492188 L 0.578125 529.492188 Z M 0.578125 0.25 " clip-rule="nonzero"/></clipPath><clipPath id="b42b33ce2b"><path d="M 82.902344 199.324219 L 726.988281 199.324219 L 726.988281 330 L 82.902344 330 Z M 82.902344 199.324219 " clip-rule="nonzero"/></clipPath></defs><g clip-path="url(#709ce6db0a)"><path stroke-linecap="butt" transform="matrix(0.748941, 0, 0, 0.748941, 0.57801, 0.249627)" fill="none" stroke-linejoin="miter" d="M 0.00015329 0.000498189 L 1079.984 0.000498189 L 1079.984 706.654921 L 0.00015329 706.654921 Z M 0.00015329 0.000498189 " stroke="#444444" stroke-width="10" stroke-opacity="1" stroke-miterlimit="4"/></g><g clip-path="url(#b42b33ce2b)"><path fill="#444444" d="M 623.332031 199.378906 L 623.332031 220.085938 L 578.824219 220.085938 L 578.824219 329.035156 L 556.570312 329.035156 L 556.570312 220.085938 L 511.132812 220.085938 L 511.132812 199.378906 Z M 628.335938 316.683594 C 629.902344 316.683594 631.273438 317.246094 632.4375 318.375 C 633.613281 319.503906 634.199219 320.859375 634.214844 322.433594 C 634.210938 323.484375 633.933594 324.460938 633.386719 325.359375 C 632.847656 326.242188 632.128906 326.941406 631.230469 327.457031 C 630.339844 327.988281 629.375 328.25 628.335938 328.242188 C 626.703125 328.242188 625.320312 327.679688 624.160156 326.550781 C 622.996094 325.417969 622.421875 324.050781 622.4375 322.433594 C 622.421875 320.859375 622.996094 319.503906 624.160156 318.375 C 625.320312 317.246094 626.703125 316.683594 628.335938 316.683594 M 187.242188 329.035156 L 105.179688 227.039062 L 105.179688 328.980469 L 82.925781 328.980469 L 82.925781 199.324219 L 110.742188 199.324219 L 214.417969 328.0625 L 214.417969 220.085938 L 214.410156 199.378906 L 326.605469 199.378906 L 326.605469 220.085938 L 236.671875 220.085938 L 236.671875 253.402344 L 309 253.402344 L 309 274.109375 L 236.671875 274.109375 L 236.671875 308.324219 L 326.609375 308.324219 L 326.609375 329.035156 Z M 397.933594 273.914062 L 412.519531 292.046875 L 382.632812 329.1875 L 353.425781 329.1875 Z M 382.632812 199.433594 L 420.289062 246.195312 L 457.824219 199.574219 L 486.949219 199.53125 L 434.867188 264.304688 L 487.035156 329.089844 L 457.824219 329.089844 L 353.507812 199.433594 Z M 666.320312 273.621094 L 676.179688 273.621094 L 676.179688 311.617188 C 676.164062 315.109375 675.410156 318.09375 673.933594 320.605469 C 672.441406 323.117188 670.375 325.035156 667.722656 326.386719 C 665.082031 327.722656 661.992188 328.40625 658.476562 328.40625 C 655.265625 328.40625 652.386719 327.828125 649.824219 326.699219 C 647.257812 325.566406 645.222656 323.875 643.730469 321.644531 C 642.222656 319.417969 641.484375 316.636719 641.484375 313.308594 L 651.359375 313.308594 C 651.375 314.765625 651.707031 316.027344 652.339844 317.085938 C 652.976562 318.148438 653.851562 318.957031 654.964844 319.503906 C 656.09375 320.070312 657.390625 320.355469 658.851562 320.351562 C 660.4375 320.351562 661.792969 320.027344 662.894531 319.355469 C 663.996094 318.703125 664.839844 317.722656 665.429688 316.414062 C 666 315.121094 666.304688 313.519531 666.320312 311.617188 Z M 716.757812 288.480469 C 716.515625 286.179688 715.460938 284.378906 713.621094 283.101562 C 711.765625 281.808594 709.367188 281.171875 706.425781 281.171875 C 704.363281 281.171875 702.582031 281.484375 701.105469 282.09375 C 699.628906 282.714844 698.480469 283.546875 697.695312 284.601562 C 696.914062 285.65625 696.523438 286.859375 696.492188 288.214844 C 696.492188 289.34375 696.761719 290.324219 697.289062 291.140625 C 697.84375 292.007812 698.5625 292.707031 699.445312 293.234375 C 700.394531 293.832031 701.402344 294.3125 702.460938 294.675781 C 703.578125 295.0625 704.695312 295.390625 705.808594 295.65625 L 710.949219 296.921875 C 713.019531 297.398438 715.023438 298.035156 716.9375 298.851562 C 718.851562 299.65625 720.585938 300.679688 722.109375 301.914062 C 723.632812 303.144531 724.839844 304.632812 725.730469 306.371094 C 726.617188 308.109375 727.070312 310.144531 727.070312 312.492188 C 727.070312 315.65625 726.257812 318.4375 724.613281 320.84375 C 722.96875 323.234375 720.601562 325.109375 717.496094 326.460938 C 714.40625 327.796875 710.664062 328.480469 706.261719 328.480469 C 702.007812 328.480469 698.300781 327.828125 695.179688 326.519531 C 692.042969 325.226562 689.601562 323.324219 687.835938 320.828125 C 686.070312 318.332031 685.121094 315.285156 684.984375 311.703125 L 694.757812 311.703125 C 694.894531 313.578125 695.496094 315.136719 696.523438 316.398438 C 697.5625 317.648438 698.917969 318.570312 700.578125 319.191406 C 702.25 319.804688 704.121094 320.117188 706.1875 320.117188 C 708.34375 320.117188 710.242188 319.789062 711.886719 319.148438 C 713.515625 318.511719 714.796875 317.621094 715.714844 316.460938 C 716.652344 315.316406 717.121094 313.964844 717.132812 312.417969 C 717.121094 311.007812 716.695312 309.832031 715.882812 308.910156 C 715.050781 307.988281 713.90625 307.21875 712.441406 306.59375 C 710.96875 305.96875 709.246094 305.40625 707.289062 304.914062 L 701.042969 303.339844 C 696.535156 302.195312 692.960938 300.457031 690.351562 298.125 C 687.730469 295.792969 686.433594 292.703125 686.433594 288.824219 C 686.433594 285.644531 687.308594 282.847656 689.074219 280.457031 C 690.820312 278.066406 693.21875 276.207031 696.25 274.886719 C 699.292969 273.546875 702.734375 272.894531 706.5625 272.894531 C 710.453125 272.894531 713.859375 273.546875 716.800781 274.886719 C 719.742188 276.207031 722.050781 278.050781 723.722656 280.398438 C 725.398438 282.746094 726.273438 285.433594 726.316406 288.480469 Z M 716.757812 288.480469 " fill-opacity="1" fill-rule="nonzero"/></g></svg>