<svg xmlns="http://www.w3.org/2000/svg" xmlns:xlink="http://www.w3.org/1999/xlink" width="1080" zoomAndPan="magnify" viewBox="0 0 810 530.249967" height="707" preserveAspectRatio="xMidYMid meet" version="1.0"><defs><clipPath id="ba1ddd8241"><path d="M 702 314 L 723.199219 314 L 723.199219 344 L 702 344 Z M 702 314 " clip-rule="nonzero"/></clipPath><clipPath id="33128c79d7"><path d="M 709 355 L 723.199219 355 L 723.199219 378 L 709 378 Z M 709 355 " clip-rule="nonzero"/></clipPath><clipPath id="ec942c94a2"><path d="M 86.601562 157 L 112 157 L 112 189 L 86.601562 189 Z M 86.601562 157 " clip-rule="nonzero"/></clipPath><clipPath id="a4028c7036"><path d="M 0.578125 0.25 L 809.421875 0.25 L 809.421875 529.492188 L 0.578125 529.492188 Z M 0.578125 0.25 " clip-rule="nonzero"/></clipPath></defs><path fill="#444444" d="M 135.808594 215.054688 L 135.808594 236.355469 L 136.488281 236.355469 C 138.644531 232.179688 141.367188 228.40625 144.652344 225.039062 C 147.933594 221.671875 151.636719 218.859375 155.757812 216.59375 C 159.9375 214.449219 164.316406 212.847656 168.894531 211.785156 C 173.46875 210.726562 178.105469 210.234375 182.804688 210.320312 C 197.679688 210.320312 209.117188 214.378906 217.117188 222.492188 C 225.117188 230.605469 229.117188 243.789062 229.117188 262.046875 L 229.117188 396.945312 L 182.449219 396.945312 L 182.449219 271.515625 C 182.449219 262.046875 180.871094 255.460938 177.71875 251.753906 C 176.734375 250.753906 175.65625 249.875 174.476562 249.113281 C 173.300781 248.355469 172.054688 247.734375 170.738281 247.25 C 169.421875 246.769531 168.070312 246.4375 166.679688 246.253906 C 165.289062 246.074219 163.898438 246.046875 162.5 246.171875 C 146.046875 246.171875 137.820312 256.203125 137.820312 276.265625 L 137.820312 396.949219 L 91.183594 396.949219 L 91.183594 215.054688 Z M 135.808594 215.054688 " fill-opacity="1" fill-rule="nonzero"/><path fill="#444444" d="M 260.46875 152.84375 L 307.128906 152.84375 L 307.128906 192.734375 L 260.46875 192.734375 Z M 260.46875 152.84375 " fill-opacity="1" fill-rule="nonzero"/><path fill="#444444" d="M 260.46875 215.050781 L 307.128906 215.050781 L 307.128906 396.945312 L 260.46875 396.945312 Z M 260.46875 215.050781 " fill-opacity="1" fill-rule="nonzero"/><path fill="#444444" d="M 624.234375 399.578125 C 622.738281 399.578125 621.246094 399.542969 619.753906 399.46875 C 618.257812 399.394531 616.769531 399.285156 615.28125 399.140625 C 613.792969 398.992188 612.3125 398.808594 610.832031 398.589844 C 609.355469 398.371094 607.882812 398.117188 606.414062 397.824219 C 604.949219 397.53125 603.492188 397.207031 602.042969 396.84375 C 600.589844 396.480469 599.152344 396.082031 597.71875 395.648438 C 596.289062 395.210938 594.871094 394.742188 593.464844 394.242188 C 592.054688 393.738281 590.664062 393.199219 589.28125 392.628906 C 587.898438 392.054688 586.535156 391.449219 585.183594 390.808594 C 583.832031 390.171875 582.496094 389.5 581.179688 388.792969 C 579.859375 388.089844 578.558594 387.351562 577.277344 386.585938 C 575.996094 385.816406 574.734375 385.015625 573.492188 384.1875 C 572.246094 383.355469 571.027344 382.496094 569.824219 381.605469 C 568.625 380.714844 567.445312 379.796875 566.292969 378.847656 C 565.136719 377.898438 564.003906 376.921875 562.898438 375.917969 C 561.789062 374.914062 560.707031 373.882812 559.648438 372.828125 C 558.59375 371.769531 557.5625 370.6875 556.558594 369.582031 C 555.554688 368.472656 554.578125 367.339844 553.632812 366.1875 C 552.683594 365.03125 551.761719 363.851562 550.871094 362.652344 C 549.984375 361.449219 549.121094 360.230469 548.292969 358.988281 C 547.460938 357.742188 546.660156 356.480469 545.894531 355.199219 C 545.125 353.917969 544.386719 352.617188 543.683594 351.296875 C 542.980469 349.980469 542.308594 348.644531 541.667969 347.292969 C 541.027344 345.941406 540.421875 344.578125 539.851562 343.195312 C 539.28125 341.816406 538.742188 340.421875 538.238281 339.011719 C 537.734375 337.605469 537.265625 336.1875 536.832031 334.757812 C 536.398438 333.324219 536 331.886719 535.636719 330.433594 C 535.273438 328.984375 534.945312 327.527344 534.65625 326.0625 C 534.363281 324.59375 534.109375 323.121094 533.886719 321.644531 C 533.667969 320.164062 533.488281 318.683594 533.339844 317.195312 C 533.195312 315.707031 533.082031 314.21875 533.011719 312.722656 C 532.9375 311.230469 532.898438 309.738281 532.898438 308.242188 C 532.898438 264.835938 566.921875 223.195312 590.195312 192.824219 C 602.800781 176.464844 613.832031 159.101562 623.289062 140.742188 C 623.484375 140.347656 623.800781 140.152344 624.238281 140.152344 C 624.675781 140.152344 624.992188 140.347656 625.1875 140.742188 C 634.644531 159.105469 645.675781 176.464844 658.285156 192.828125 C 681.550781 223.199219 715.582031 264.816406 715.582031 308.246094 L 659.84375 308.246094 C 659.558594 308.246094 659.285156 308.300781 659.023438 308.410156 C 658.757812 308.519531 658.527344 308.671875 658.328125 308.875 C 658.125 309.074219 657.96875 309.308594 657.863281 309.570312 C 657.753906 309.832031 657.699219 310.105469 657.699219 310.390625 L 657.699219 341.714844 L 626.382812 341.714844 C 626.097656 341.714844 625.824219 341.769531 625.5625 341.875 C 625.300781 341.984375 625.066406 342.140625 624.867188 342.34375 C 624.664062 342.542969 624.511719 342.773438 624.402344 343.039062 C 624.292969 343.300781 624.238281 343.574219 624.238281 343.859375 L 624.238281 399.578125 Z M 624.234375 399.578125 " fill-opacity="1" fill-rule="nonzero"/><path fill="#444444" d="M 659.933594 377.40625 L 659.933594 347.582031 L 632.246094 347.582031 C 631.960938 347.582031 631.6875 347.636719 631.421875 347.746094 C 631.160156 347.855469 630.929688 348.007812 630.726562 348.210938 C 630.527344 348.410156 630.371094 348.644531 630.261719 348.90625 C 630.152344 349.167969 630.097656 349.441406 630.097656 349.726562 L 630.097656 377.40625 Z M 659.933594 377.40625 " fill-opacity="1" fill-rule="nonzero"/><path fill="#444444" d="M 630.101562 407.199219 C 640.375 407.007812 650.320312 405.097656 659.933594 401.464844 L 659.933594 386.441406 L 632.246094 386.441406 C 631.960938 386.441406 631.6875 386.496094 631.421875 386.605469 C 631.160156 386.714844 630.929688 386.867188 630.726562 387.070312 C 630.527344 387.269531 630.371094 387.503906 630.261719 387.765625 C 630.152344 388.027344 630.097656 388.304688 630.097656 388.585938 Z M 630.101562 407.199219 " fill-opacity="1" fill-rule="nonzero"/><path fill="#444444" d="M 693.386719 343.9375 L 693.386719 314.113281 L 665.703125 314.113281 C 665.421875 314.113281 665.148438 314.167969 664.882812 314.277344 C 664.621094 314.386719 664.390625 314.542969 664.1875 314.742188 C 663.988281 314.945312 663.832031 315.175781 663.722656 315.4375 C 663.613281 315.703125 663.558594 315.976562 663.558594 316.261719 L 663.558594 343.9375 Z M 693.386719 343.9375 " fill-opacity="1" fill-rule="nonzero"/><path fill="#444444" d="M 696.96875 381.003906 L 697.007812 380.96875 C 697.585938 380.378906 698.03125 379.699219 698.339844 378.933594 C 698.652344 378.167969 698.804688 377.371094 698.796875 376.542969 L 698.796875 352.972656 L 668.96875 352.972656 L 668.96875 382.804688 L 692.535156 382.804688 C 693.363281 382.808594 694.164062 382.65625 694.929688 382.34375 C 695.699219 382.03125 696.378906 381.585938 696.96875 381.003906 Z M 696.96875 381.003906 " fill-opacity="1" fill-rule="nonzero"/><path fill="#444444" d="M 670.996094 407.4375 C 679.007812 404 686.359375 399.480469 693.046875 393.882812 L 670.996094 393.882812 Z M 670.996094 407.4375 " fill-opacity="1" fill-rule="nonzero"/><g clip-path="url(#ba1ddd8241)"><path fill="#444444" d="M 717.441406 343.9375 C 721.082031 334.328125 722.996094 324.386719 723.183594 314.113281 L 702.433594 314.113281 L 702.433594 343.9375 Z M 717.441406 343.9375 " fill-opacity="1" fill-rule="nonzero"/></g><g clip-path="url(#33128c79d7)"><path fill="#444444" d="M 709.851562 377.054688 C 715.445312 370.367188 719.960938 363.015625 723.398438 355 L 709.851562 355 Z M 709.851562 377.054688 " fill-opacity="1" fill-rule="nonzero"/><path fill="#444444" d="M 709.851562 377.054688 C 715.445312 370.367188 719.960938 363.015625 723.398438 355 L 709.851562 355 Z M 709.851562 377.054688 " fill-opacity="1" fill-rule="nonzero"/></g><g clip-path="url(#ec942c94a2)"><path fill="#444444" d="M 102.925781 157.183594 L 111.332031 188.941406 L 104.65625 188.941406 L 103.1875 182.238281 L 94.71875 182.238281 L 93.25 188.941406 L 86.601562 188.941406 L 95.003906 157.183594 Z M 102.082031 176.976562 L 99.011719 162.699219 L 98.921875 162.699219 L 95.851562 176.976562 Z M 102.082031 176.976562 " fill-opacity="1" fill-rule="nonzero"/></g><path fill="#444444" d="M 126.230469 157.183594 C 127.667969 157.136719 129.039062 157.410156 130.347656 158.003906 C 131.414062 158.511719 132.3125 159.234375 133.039062 160.164062 C 133.738281 161.078125 134.226562 162.09375 134.507812 163.210938 C 134.804688 164.355469 134.953125 165.519531 134.953125 166.703125 C 134.980469 168.175781 134.738281 169.597656 134.21875 170.972656 C 133.773438 172.128906 133.09375 173.125 132.171875 173.953125 C 131.238281 174.761719 130.179688 175.339844 128.996094 175.6875 C 127.644531 176.089844 126.265625 176.28125 124.855469 176.261719 L 121.429688 176.261719 L 121.429688 188.941406 L 115.019531 188.941406 L 115.019531 157.183594 Z M 124.273438 171.550781 C 125.46875 171.597656 126.496094 171.214844 127.363281 170.390625 C 127.796875 169.894531 128.117188 169.335938 128.320312 168.710938 C 128.523438 168.085938 128.597656 167.445312 128.542969 166.789062 C 128.636719 165.453125 128.296875 164.234375 127.523438 163.140625 C 127.078125 162.683594 126.554688 162.34375 125.953125 162.125 C 125.355469 161.90625 124.738281 161.832031 124.101562 161.894531 L 121.433594 161.894531 L 121.433594 171.546875 Z M 124.273438 171.550781 " fill-opacity="1" fill-rule="nonzero"/><path fill="#444444" d="M 150.796875 157.183594 L 159.203125 188.941406 L 152.523438 188.941406 L 151.054688 182.238281 L 142.585938 182.238281 L 141.117188 188.941406 L 134.464844 188.941406 L 142.871094 157.183594 Z M 149.953125 176.976562 L 146.882812 162.699219 L 146.796875 162.699219 L 143.726562 176.976562 Z M 149.953125 176.976562 " fill-opacity="1" fill-rule="nonzero"/><path fill="#444444" d="M 175.011719 162.855469 C 174.714844 162.316406 174.292969 161.902344 173.746094 161.617188 C 173.203125 161.328125 172.621094 161.214844 172.007812 161.277344 C 171.269531 161.246094 170.609375 161.464844 170.027344 161.921875 C 169.414062 162.5 169.007812 163.195312 168.804688 164.011719 C 168.460938 165.25 168.25 166.507812 168.179688 167.789062 C 168.058594 169.347656 168 171.253906 168.003906 173.507812 C 167.980469 175.453125 168.0625 177.398438 168.246094 179.335938 C 168.339844 180.519531 168.589844 181.671875 169.003906 182.785156 C 169.242188 183.484375 169.667969 184.03125 170.289062 184.429688 C 170.855469 184.726562 171.457031 184.867188 172.09375 184.851562 C 172.636719 184.855469 173.164062 184.761719 173.675781 184.5625 C 174.226562 184.320312 174.648438 183.933594 174.941406 183.40625 C 175.363281 182.640625 175.648438 181.824219 175.789062 180.960938 C 176.023438 179.585938 176.128906 178.199219 176.101562 176.804688 L 182.507812 176.804688 C 182.511719 178.445312 182.378906 180.074219 182.105469 181.695312 C 181.875 183.140625 181.378906 184.492188 180.617188 185.742188 C 179.851562 186.941406 178.828125 187.84375 177.546875 188.457031 C 175.90625 189.175781 174.195312 189.503906 172.40625 189.433594 C 170.398438 189.523438 168.484375 189.140625 166.667969 188.277344 C 165.230469 187.503906 164.140625 186.394531 163.398438 184.9375 C 162.585938 183.292969 162.09375 181.558594 161.929688 179.730469 C 161.699219 177.515625 161.585938 175.289062 161.597656 173.058594 C 161.589844 170.835938 161.699219 168.621094 161.929688 166.410156 C 162.09375 164.578125 162.582031 162.835938 163.398438 161.183594 C 164.148438 159.722656 165.238281 158.589844 166.667969 157.78125 C 168.476562 156.871094 170.386719 156.464844 172.40625 156.558594 C 174.304688 156.464844 176.105469 156.835938 177.8125 157.671875 C 179.066406 158.335938 180.050781 159.273438 180.773438 160.492188 C 181.433594 161.640625 181.839844 162.871094 182 164.183594 C 182.15625 165.417969 182.238281 166.652344 182.246094 167.898438 L 175.835938 167.898438 C 175.941406 166.15625 175.667969 164.476562 175.011719 162.855469 Z M 175.011719 162.855469 " fill-opacity="1" fill-rule="nonzero"/><path fill="#444444" d="M 194.023438 157.183594 L 194.023438 169.324219 L 201.5 169.324219 L 201.5 157.183594 L 207.902344 157.183594 L 207.902344 188.941406 L 201.5 188.941406 L 201.5 174.828125 L 194.023438 174.828125 L 194.023438 188.941406 L 187.621094 188.941406 L 187.621094 157.183594 Z M 194.023438 157.183594 " fill-opacity="1" fill-rule="nonzero"/><path fill="#444444" d="M 231.570312 162.433594 L 220.222656 162.433594 L 220.222656 169.90625 L 230.898438 169.90625 L 230.898438 175.15625 L 220.222656 175.15625 L 220.222656 183.695312 L 232.011719 183.695312 L 232.011719 188.941406 L 213.820312 188.941406 L 213.820312 157.183594 L 231.566406 157.183594 L 231.566406 162.433594 Z M 231.570312 162.433594 " fill-opacity="1" fill-rule="nonzero"/><path fill="#444444" d="M 329.773438 246.828125 L 329.773438 215.050781 L 353.4375 215.050781 L 353.4375 194.429688 C 353.25 187.339844 354.375 180.464844 356.816406 173.808594 C 357.8125 171.175781 359.125 168.714844 360.757812 166.421875 C 362.390625 164.128906 364.289062 162.085938 366.453125 160.285156 C 371.027344 156.691406 376.15625 154.269531 381.835938 153.015625 C 388.507812 151.484375 395.269531 150.75 402.117188 150.820312 C 410.453125 150.820312 418.792969 151.15625 427.132812 151.832031 L 427.132812 184.964844 C 425.566406 184.703125 423.988281 184.585938 422.402344 184.613281 L 418.003906 184.613281 C 415.570312 184.386719 413.167969 184.566406 410.792969 185.144531 C 408.417969 185.722656 406.199219 186.671875 404.144531 187.992188 C 403.410156 188.710938 402.765625 189.503906 402.210938 190.367188 C 401.65625 191.230469 401.203125 192.144531 400.851562 193.109375 C 400.5 194.074219 400.257812 195.066406 400.128906 196.085938 C 400 197.105469 399.984375 198.125 400.085938 199.148438 L 400.085938 215.027344 L 427.132812 215.027344 L 427.132812 246.8125 L 400.085938 246.8125 L 400.085938 396.9375 L 353.433594 396.9375 L 353.433594 246.828125 Z M 329.773438 246.828125 " fill-opacity="1" fill-rule="nonzero"/><path fill="#444444" d="M 454.875 152.84375 L 501.53125 152.84375 L 501.53125 192.734375 L 454.875 192.734375 Z M 454.875 152.84375 " fill-opacity="1" fill-rule="nonzero"/><path fill="#444444" d="M 454.875 215.050781 L 501.53125 215.050781 L 501.53125 396.941406 L 454.875 396.941406 Z M 454.875 215.050781 " fill-opacity="1" fill-rule="nonzero"/><path fill="#444444" d="M 604.136719 184.378906 C 602.449219 186.734375 600.792969 189.105469 599.097656 191.4375 C 593.75 198.820312 588.113281 205.988281 582.597656 213.246094 C 584.757812 213.542969 586.925781 213.875 589.101562 214.242188 C 593.6875 206.539062 598.390625 198.882812 602.796875 191.066406 C 604.03125 188.878906 605.242188 186.671875 606.464844 184.46875 C 607.429688 182.742188 605.1875 182.914062 604.136719 184.378906 Z M 604.136719 184.378906 " fill-opacity="1" fill-rule="nonzero"/><path fill="#444444" d="M 582.359375 225.753906 C 583.171875 224.34375 584.011719 222.933594 584.832031 221.496094 C 582.359375 221.015625 579.890625 220.570312 577.421875 220.175781 L 577.394531 220.175781 C 569.566406 230.660156 562.4375 241.597656 556.011719 252.996094 C 544.527344 273.816406 536.5625 297.085938 540.222656 321.101562 C 540.996094 326.054688 542.195312 330.902344 543.820312 335.644531 C 545.445312 340.382812 547.472656 344.949219 549.902344 349.332031 C 552.328125 353.71875 555.121094 357.855469 558.277344 361.75 C 561.4375 365.644531 564.910156 369.230469 568.695312 372.511719 C 571.949219 375.324219 575.394531 377.871094 579.035156 380.152344 C 579.273438 380.300781 579.53125 380.351562 579.808594 380.300781 C 580.082031 380.253906 580.308594 380.117188 580.480469 379.898438 C 580.652344 379.675781 580.730469 379.425781 580.710938 379.148438 C 580.691406 378.867188 580.582031 378.628906 580.382812 378.433594 C 577.4375 375.59375 574.699219 372.566406 572.160156 369.359375 C 569.625 366.148438 567.3125 362.785156 565.226562 359.269531 C 563.140625 355.75 561.296875 352.109375 559.699219 348.34375 C 558.101562 344.578125 556.761719 340.722656 555.679688 336.777344 C 548.84375 311.566406 554.523438 285.730469 564.257812 262.089844 C 569.53125 249.597656 575.566406 237.488281 582.359375 225.753906 Z M 582.359375 225.753906 " fill-opacity="1" fill-rule="nonzero"/><g clip-path="url(#a4028c7036)"><path stroke-linecap="butt" transform="matrix(0.748941, 0, 0, 0.748941, 0.57801, 0.249627)" fill="none" stroke-linejoin="miter" d="M 0.00015329 0.00049815 L 1079.984 0.00049815 L 1079.984 706.654921 L 0.00015329 706.654921 Z M 0.00015329 0.00049815 " stroke="#444444" stroke-width="10" stroke-opacity="1" stroke-miterlimit="4"/></g></svg>