<svg xmlns="http://www.w3.org/2000/svg" xmlns:xlink="http://www.w3.org/1999/xlink" width="1080" zoomAndPan="magnify" viewBox="0 0 810 530.249967" height="707" preserveAspectRatio="xMidYMid meet" version="1.0"><defs><clipPath id="97ad755f46"><path d="M 0.578125 0.25 L 809.421875 0.25 L 809.421875 529.492188 L 0.578125 529.492188 Z M 0.578125 0.25 " clip-rule="nonzero"/></clipPath><clipPath id="8527f5dc62"><path d="M 54.148438 139.003906 L 740 139.003906 L 740 333 L 54.148438 333 Z M 54.148438 139.003906 " clip-rule="nonzero"/></clipPath></defs><g clip-path="url(#97ad755f46)"><path stroke-linecap="butt" transform="matrix(0.748941, 0, 0, 0.748941, 0.57801, 0.249627)" fill="none" stroke-linejoin="miter" d="M 0.00015329 0.000498189 L 1079.984 0.000498189 L 1079.984 706.654921 L 0.00015329 706.654921 Z M 0.00015329 0.000498189 " stroke="#444444" stroke-width="10" stroke-opacity="1" stroke-miterlimit="4"/></g><g clip-path="url(#8527f5dc62)"><path fill="#444444" d="M 159.125 236.84375 L 110.992188 209.148438 C 110.167969 208.703125 109.292969 208.449219 108.359375 208.378906 L 107.855469 208.378906 C 106.917969 208.457031 106.042969 208.71875 105.21875 209.167969 L 57.046875 236.84375 C 56.15625 237.375 55.449219 238.089844 54.933594 238.988281 C 54.417969 239.886719 54.15625 240.855469 54.148438 241.894531 L 54.257812 316.46875 C 54.257812 317.503906 54.785156 318.488281 55.707031 318.972656 C 56.15625 319.242188 56.644531 319.375 57.167969 319.375 C 57.691406 319.375 58.175781 319.242188 58.625 318.972656 L 87.222656 302.601562 C 88.113281 302.070312 88.816406 301.355469 89.335938 300.457031 C 89.851562 299.558594 90.113281 298.589844 90.121094 297.550781 L 90.121094 262.742188 C 90.121094 260.65625 91.21875 258.726562 93.015625 257.695312 L 105.199219 250.671875 C 106.101562 250.171875 107.066406 249.921875 108.097656 249.925781 C 109.128906 249.929688 110.09375 250.1875 110.992188 250.695312 L 123.152344 257.71875 C 124.046875 258.246094 124.753906 258.957031 125.273438 259.855469 C 125.792969 260.757812 126.058594 261.726562 126.070312 262.765625 L 126.070312 297.597656 C 126.070312 299.660156 127.167969 301.589844 128.96875 302.644531 L 157.519531 318.972656 C 157.742188 319.097656 157.972656 319.195312 158.21875 319.261719 C 158.464844 319.328125 158.714844 319.359375 158.96875 319.359375 C 159.222656 319.359375 159.472656 319.328125 159.71875 319.261719 C 159.960938 319.195312 160.195312 319.101562 160.414062 318.972656 C 160.636719 318.847656 160.835938 318.695312 161.015625 318.515625 C 161.195312 318.335938 161.347656 318.136719 161.476562 317.917969 C 161.601562 317.695312 161.699219 317.464844 161.765625 317.21875 C 161.832031 316.972656 161.867188 316.722656 161.867188 316.46875 L 161.953125 241.894531 C 161.953125 240.859375 161.695312 239.894531 161.1875 238.996094 C 160.679688 238.097656 159.984375 237.378906 159.101562 236.84375 Z M 447.667969 155.355469 L 419.023438 139.332031 C 418.570312 139.097656 418.085938 138.984375 417.570312 138.992188 C 417.058594 139 416.578125 139.128906 416.128906 139.375 C 415.683594 139.632812 415.332031 139.988281 415.074219 140.433594 C 414.820312 140.882812 414.695312 141.363281 414.703125 141.878906 L 414.703125 215.753906 C 414.699219 215.929688 414.675781 216.105469 414.628906 216.277344 C 414.582031 216.449219 414.511719 216.613281 414.421875 216.765625 C 414.332031 216.917969 414.226562 217.058594 414.097656 217.183594 C 413.972656 217.308594 413.832031 217.414062 413.679688 217.503906 C 413.523438 217.59375 413.363281 217.660156 413.191406 217.707031 C 413.019531 217.753906 412.84375 217.777344 412.664062 217.777344 C 412.488281 217.777344 412.3125 217.753906 412.140625 217.710938 C 411.96875 217.664062 411.804688 217.597656 411.652344 217.507812 L 399.578125 210.597656 C 398.675781 210.085938 397.707031 209.832031 396.671875 209.832031 C 395.636719 209.832031 394.667969 210.085938 393.765625 210.597656 L 345.632812 238.402344 C 344.738281 238.929688 344.03125 239.644531 343.507812 240.542969 C 342.988281 241.441406 342.722656 242.414062 342.714844 243.453125 L 342.714844 299 C 342.714844 301.085938 343.8125 302.996094 345.566406 304.046875 L 393.742188 331.832031 C 394.183594 332.09375 394.648438 332.292969 395.140625 332.425781 C 395.636719 332.5625 396.136719 332.628906 396.648438 332.628906 C 397.160156 332.628906 397.664062 332.5625 398.15625 332.425781 C 398.652344 332.292969 399.117188 332.09375 399.558594 331.832031 L 447.710938 304.027344 C 448.605469 303.5 449.3125 302.785156 449.832031 301.886719 C 450.355469 300.988281 450.621094 300.015625 450.628906 298.976562 L 450.628906 160.445312 C 450.625 159.925781 450.550781 159.417969 450.410156 158.917969 C 450.273438 158.417969 450.070312 157.945312 449.808594 157.5 C 449.542969 157.050781 449.226562 156.644531 448.855469 156.28125 C 448.484375 155.917969 448.074219 155.609375 447.621094 155.355469 Z M 414.527344 280.738281 C 414.511719 281.28125 414.277344 281.699219 413.824219 281.992188 L 397.296875 291.539062 C 396.8125 291.796875 396.332031 291.796875 395.847656 291.539062 L 379.300781 281.992188 C 378.835938 281.703125 378.59375 281.285156 378.574219 280.738281 L 378.574219 261.644531 C 378.585938 261.089844 378.828125 260.667969 379.300781 260.371094 L 395.828125 250.824219 C 396.042969 250.6875 396.28125 250.617188 396.539062 250.617188 C 396.796875 250.617188 397.035156 250.6875 397.253906 250.824219 L 413.78125 260.371094 C 414.21875 260.636719 414.503906 261.117188 414.503906 261.644531 L 414.503906 280.738281 Z M 591.269531 237.613281 L 543.421875 209.828125 C 542.984375 209.566406 542.515625 209.371094 542.023438 209.234375 C 541.53125 209.097656 541.027344 209.03125 540.515625 209.03125 C 540.003906 209.03125 539.5 209.097656 539.007812 209.234375 C 538.515625 209.371094 538.046875 209.566406 537.605469 209.828125 L 489.476562 237.613281 C 488.585938 238.144531 487.882812 238.859375 487.367188 239.757812 C 486.847656 240.65625 486.585938 241.625 486.578125 242.660156 L 486.578125 298.1875 C 486.578125 300.316406 487.675781 302.25 489.5 303.234375 L 537.34375 330.515625 C 539.101562 331.503906 541.292969 331.527344 543.050781 330.515625 L 571.976562 314.496094 C 572.203125 314.367188 572.40625 314.214844 572.589844 314.03125 C 572.773438 313.851562 572.929688 313.652344 573.0625 313.429688 C 573.191406 313.207031 573.292969 312.96875 573.359375 312.722656 C 573.429688 312.472656 573.464844 312.21875 573.46875 311.960938 C 573.46875 311.703125 573.4375 311.449219 573.375 311.199219 C 573.308594 310.949219 573.214844 310.714844 573.085938 310.488281 C 572.960938 310.265625 572.804688 310.058594 572.625 309.875 C 572.445312 309.691406 572.242188 309.535156 572.019531 309.402344 L 523.605469 281.617188 C 523.148438 281.363281 522.785156 281.011719 522.523438 280.558594 C 522.257812 280.105469 522.128906 279.617188 522.132812 279.09375 L 522.132812 261.691406 C 522.132812 260.65625 522.683594 259.714844 523.5625 259.164062 L 538.660156 250.472656 C 539.109375 250.210938 539.589844 250.078125 540.109375 250.078125 C 540.628906 250.078125 541.109375 250.210938 541.558594 250.472656 L 556.65625 259.144531 C 557.535156 259.648438 558.105469 260.613281 558.105469 261.667969 L 558.105469 275.386719 C 558.105469 275.640625 558.140625 275.886719 558.207031 276.132812 C 558.273438 276.378906 558.371094 276.613281 558.496094 276.832031 C 558.625 277.050781 558.777344 277.25 558.957031 277.429688 C 559.136719 277.609375 559.335938 277.761719 559.558594 277.890625 C 559.777344 278.015625 560.011719 278.113281 560.257812 278.175781 C 560.5 278.242188 560.75 278.273438 561.003906 278.273438 C 561.257812 278.273438 561.507812 278.242188 561.753906 278.175781 C 562 278.109375 562.230469 278.015625 562.453125 277.886719 L 591.289062 261.097656 C 592.183594 260.566406 592.886719 259.851562 593.402344 258.953125 C 593.917969 258.054688 594.179688 257.085938 594.1875 256.050781 L 594.1875 242.59375 C 594.1875 240.53125 593.089844 238.644531 591.269531 237.546875 Z M 303.539062 237.328125 L 255.40625 209.542969 C 254.5 209.03125 253.527344 208.773438 252.488281 208.773438 C 251.449219 208.773438 250.472656 209.03125 249.570312 209.542969 L 201.417969 237.328125 C 200.535156 237.863281 199.839844 238.582031 199.328125 239.480469 C 198.820312 240.378906 198.566406 241.34375 198.5625 242.375 L 198.5625 297.96875 C 198.5625 300.054688 199.660156 301.964844 201.460938 303.015625 L 249.589844 330.800781 C 250.492188 331.3125 251.460938 331.566406 252.5 331.566406 C 253.535156 331.566406 254.503906 331.3125 255.40625 330.800781 L 303.539062 302.972656 C 304.429688 302.441406 305.132812 301.726562 305.648438 300.828125 C 306.164062 299.929688 306.425781 298.960938 306.433594 297.925781 L 306.433594 242.375 C 306.425781 241.339844 306.164062 240.371094 305.648438 239.472656 C 305.132812 238.574219 304.429688 237.859375 303.539062 237.328125 M 734.9375 235.175781 L 689.507812 208.949219 C 688.773438 208.546875 688.003906 208.242188 687.195312 208.03125 C 686.390625 207.824219 685.566406 207.71875 684.730469 207.71875 C 683.898438 207.71875 683.074219 207.824219 682.265625 208.03125 C 681.460938 208.242188 680.691406 208.546875 679.957031 208.949219 L 634.570312 235.175781 C 633.847656 235.601562 633.191406 236.109375 632.597656 236.703125 C 632.007812 237.296875 631.503906 237.957031 631.082031 238.679688 C 630.664062 239.40625 630.34375 240.171875 630.125 240.980469 C 629.90625 241.789062 629.792969 242.613281 629.785156 243.453125 L 629.785156 295.796875 C 629.785156 299.21875 631.585938 302.378906 634.550781 304.09375 L 646.445312 310.941406 C 652.195312 313.792969 654.234375 313.792969 656.890625 313.792969 C 665.453125 313.792969 670.324219 308.613281 670.324219 299.613281 L 670.324219 247.863281 C 670.324219 247.6875 670.289062 247.519531 670.222656 247.359375 C 670.15625 247.199219 670.0625 247.054688 669.9375 246.933594 C 669.816406 246.808594 669.671875 246.714844 669.511719 246.644531 C 669.347656 246.578125 669.179688 246.546875 669.007812 246.546875 L 663.234375 246.546875 C 663.058594 246.546875 662.890625 246.578125 662.730469 246.644531 C 662.570312 246.714844 662.425781 246.808594 662.304688 246.933594 C 662.179688 247.054688 662.085938 247.199219 662.019531 247.359375 C 661.953125 247.519531 661.917969 247.6875 661.917969 247.863281 L 661.917969 299.570312 C 661.917969 303.566406 657.746094 307.539062 651.03125 304.179688 L 638.585938 297.003906 C 638.355469 296.886719 638.175781 296.71875 638.042969 296.496094 C 637.914062 296.273438 637.851562 296.03125 637.863281 295.773438 L 637.863281 243.472656 C 637.894531 242.917969 638.132812 242.492188 638.585938 242.199219 L 684.039062 216.039062 C 684.253906 215.910156 684.484375 215.84375 684.730469 215.84375 C 684.980469 215.84375 685.210938 215.910156 685.421875 216.039062 L 730.789062 242.15625 C 731.226562 242.417969 731.492188 242.902344 731.492188 243.40625 L 731.492188 295.753906 C 731.476562 296.292969 731.242188 296.710938 730.789062 297.003906 L 685.402344 323.1875 C 685.191406 323.316406 684.960938 323.382812 684.710938 323.382812 C 684.460938 323.382812 684.230469 323.316406 684.019531 323.1875 L 672.386719 316.296875 C 671.976562 316.0625 671.589844 316.039062 671.222656 316.230469 C 669.0625 317.539062 666.777344 318.585938 664.375 319.367188 C 663.628906 319.632812 662.53125 320.027344 664.816406 321.34375 L 679.957031 330.296875 C 681.421875 331.144531 683.007812 331.585938 684.722656 331.613281 C 687.289062 331.660156 688.011719 331.132812 689.503906 330.296875 L 734.894531 304.09375 C 735.617188 303.667969 736.273438 303.15625 736.863281 302.558594 C 737.453125 301.964844 737.957031 301.300781 738.375 300.574219 C 738.792969 299.847656 739.109375 299.078125 739.324219 298.269531 C 739.542969 297.460938 739.652344 296.632812 739.65625 295.796875 L 739.65625 243.472656 C 739.65625 240.050781 737.835938 236.890625 734.914062 235.175781 Z M 698.722656 287.542969 C 686.71875 287.542969 684.085938 284.515625 683.207031 278.546875 C 683.152344 278.226562 683 277.960938 682.75 277.753906 C 682.503906 277.546875 682.214844 277.445312 681.890625 277.449219 L 676.007812 277.449219 C 675.832031 277.449219 675.664062 277.480469 675.503906 277.546875 C 675.34375 277.613281 675.199219 277.710938 675.078125 277.832031 C 674.953125 277.957031 674.859375 278.097656 674.792969 278.261719 C 674.726562 278.421875 674.691406 278.589844 674.691406 278.765625 C 674.691406 286.402344 678.863281 295.53125 698.722656 295.53125 C 713.097656 295.53125 721.328125 289.828125 721.328125 279.949219 C 721.328125 270.160156 714.746094 267.550781 700.765625 265.683594 C 686.652344 263.839844 685.226562 262.898438 685.226562 259.582031 C 685.226562 256.839844 686.457031 253.21875 696.859375 253.21875 C 706.207031 253.21875 709.632812 255.191406 711.058594 261.515625 C 711.125 261.820312 711.285156 262.070312 711.53125 262.265625 C 711.78125 262.460938 712.0625 262.554688 712.375 262.546875 L 718.257812 262.546875 C 718.644531 262.539062 718.964844 262.394531 719.222656 262.105469 C 719.464844 261.8125 719.582031 261.476562 719.574219 261.097656 C 718.652344 250.277344 711.453125 245.230469 696.925781 245.230469 C 683.976562 245.230469 676.292969 250.714844 676.292969 259.867188 C 676.292969 269.808594 683.976562 272.554688 696.375 273.78125 C 711.234375 275.253906 712.398438 277.449219 712.398438 280.367188 C 712.398438 285.414062 708.316406 287.566406 698.746094 287.566406 Z M 539.847656 258.527344 L 530.628906 263.863281 C 530.265625 264.070312 530.082031 264.386719 530.078125 264.804688 L 530.078125 275.472656 C 530.09375 275.882812 530.277344 276.195312 530.628906 276.417969 L 539.847656 281.75 C 540.210938 281.96875 540.59375 281.96875 540.988281 281.75 L 550.207031 276.417969 C 550.585938 276.207031 550.777344 275.886719 550.777344 275.449219 L 550.777344 264.761719 C 550.78125 264.332031 550.597656 264.011719 550.226562 263.796875 L 541.007812 258.441406 C 540.628906 258.257812 540.25 258.257812 539.867188 258.441406 Z M 539.847656 258.527344 " fill-opacity="1" fill-rule="nonzero"/></g></svg>