<svg xmlns="http://www.w3.org/2000/svg" xmlns:xlink="http://www.w3.org/1999/xlink" width="1080" zoomAndPan="magnify" viewBox="0 0 810 530.249967" height="707" preserveAspectRatio="xMidYMid meet" version="1.0"><defs><clipPath id="e5836d3423"><path d="M 0.578125 0.25 L 809.421875 0.25 L 809.421875 529.492188 L 0.578125 529.492188 Z M 0.578125 0.25 " clip-rule="nonzero"/></clipPath><clipPath id="e0a9f32272"><path d="M 78.492188 95.246094 L 271 95.246094 L 271 434.515625 L 78.492188 434.515625 Z M 78.492188 95.246094 " clip-rule="nonzero"/></clipPath><clipPath id="a64fa67eef"><path d="M 79 163 L 731.570312 163 L 731.570312 434.515625 L 79 434.515625 Z M 79 163 " clip-rule="nonzero"/></clipPath></defs><g clip-path="url(#e5836d3423)"><path stroke-linecap="butt" transform="matrix(0.748941, 0, 0, 0.748941, 0.57801, 0.249627)" fill="none" stroke-linejoin="miter" d="M 0.00015329 0.000498189 L 1079.984 0.000498189 L 1079.984 706.654921 L 0.00015329 706.654921 Z M 0.00015329 0.000498189 " stroke="#444444" stroke-width="10" stroke-opacity="1" stroke-miterlimit="4"/></g><g clip-path="url(#e0a9f32272)"><path fill="#444444" d="M 88.101562 113.902344 L 96.730469 105.269531 C 109.957031 92.179688 131.539062 93.015625 143.652344 107.082031 L 263.113281 246.3125 C 273.558594 258.425781 273.417969 276.386719 262.835938 288.363281 L 143.792969 423.277344 C 131.539062 437.0625 110.238281 437.757812 97.148438 424.671875 L 88.515625 416.039062 C 76.820312 404.34375 75.984375 385.683594 86.566406 372.875 L 157.855469 287.386719 C 167.601562 275.691406 167.742188 258.84375 158.273438 246.867188 L 85.871094 156.367188 C 75.566406 143.835938 76.542969 125.460938 88.101562 113.902344 " fill-opacity="1" fill-rule="nonzero"/></g><g clip-path="url(#a64fa67eef)"><path fill="#444444" d="M 157.714844 287.664062 L 86.429688 373.15625 C 75.847656 385.828125 76.683594 404.621094 88.378906 416.316406 L 97.011719 424.949219 C 110.097656 438.039062 131.402344 437.34375 143.652344 423.558594 L 169.410156 394.320312 C 179.160156 375.105469 184.589844 353.382812 184.589844 330.410156 C 184.589844 302.007812 176.234375 275.691406 162.03125 253.554688 C 167.324219 264.414062 165.929688 277.917969 157.714844 287.667969 M 324.378906 368.839844 L 296.671875 368.839844 L 296.671875 207.746094 L 324.378906 207.746094 L 324.378906 224.59375 C 328.277344 213.316406 342.339844 205.238281 361.554688 205.238281 C 377.984375 205.238281 391.769531 211.085938 402.90625 222.78125 C 414.183594 234.339844 419.753906 248.679688 419.753906 265.945312 C 419.753906 283.210938 414.183594 297.550781 402.90625 309.386719 C 391.769531 320.941406 377.984375 326.652344 361.554688 326.652344 C 342.339844 326.652344 328.277344 318.574219 324.378906 307.296875 Z M 332.453125 240.605469 C 325.769531 247.289062 322.289062 255.921875 322.289062 266.085938 C 322.289062 276.25 325.769531 284.742188 332.453125 291.566406 C 339.417969 298.25 347.910156 301.730469 357.933594 301.730469 C 367.957031 301.730469 375.894531 298.246094 382.441406 291.5625 C 389.121094 284.878906 392.324219 276.25 392.324219 266.085938 C 392.324219 255.921875 389.121094 247.425781 382.441406 240.605469 C 376.035156 233.921875 367.820312 230.441406 357.933594 230.441406 C 348.046875 230.441406 339.414062 233.921875 332.453125 240.605469 M 429.359375 163.191406 L 457.070312 163.191406 L 457.070312 286.132812 C 457.070312 297.414062 460.828125 302.285156 470.992188 302.285156 C 474.195312 302.285156 476.980469 302.007812 479.347656 301.308594 L 479.347656 326.09375 C 476.144531 327.070312 471.6875 327.488281 466.117188 327.488281 C 441.613281 327.488281 429.363281 314.957031 429.363281 289.753906 Z M 573.1875 224.59375 L 573.1875 207.746094 L 600.898438 207.746094 L 600.898438 289.058594 C 600.898438 298.945312 603.265625 302.703125 609.390625 302.703125 C 611.0625 302.703125 613.148438 302.425781 615.238281 302.285156 L 615.238281 324.703125 C 612.175781 325.816406 607.582031 326.511719 601.59375 326.511719 C 594.910156 326.511719 589.617188 325.398438 585.441406 322.753906 C 580.289062 319.273438 577.089844 314.675781 575.972656 308.691406 C 567.898438 320.941406 554.53125 326.929688 536.015625 326.929688 C 519.585938 326.929688 505.800781 321.222656 494.382812 309.386719 C 483.246094 297.550781 477.675781 283.210938 477.675781 265.945312 C 477.675781 248.683594 483.246094 234.339844 494.382812 222.78125 C 505.660156 210.949219 519.585938 205.238281 536.015625 205.238281 C 554.671875 205.238281 568.734375 213.59375 573.1875 224.59375 M 564.835938 291.425781 C 571.796875 284.742188 575.277344 276.109375 575.277344 265.945312 C 575.277344 255.78125 571.796875 247.289062 564.835938 240.464844 C 558.152344 233.78125 549.519531 230.300781 539.632812 230.300781 C 529.75 230.300781 521.671875 233.78125 514.851562 240.464844 C 508.445312 247.148438 505.105469 255.78125 505.105469 265.945312 C 505.105469 276.109375 508.308594 284.601562 514.851562 291.425781 C 521.535156 298.109375 529.609375 301.589844 539.632812 301.589844 C 549.660156 301.589844 558.152344 298.109375 564.835938 291.425781 M 624.847656 347.535156 C 628.328125 348.652344 632.644531 349.347656 637.796875 349.347656 C 642.25 349.347656 645.453125 348.371094 647.960938 346.839844 C 650.464844 345.308594 652.832031 341.6875 654.644531 336.957031 L 657.707031 328.601562 L 608.972656 207.746094 L 636.820312 207.746094 L 671.074219 295.601562 L 703.234375 207.746094 L 731.222656 207.746094 L 679.007812 343.222656 C 675.527344 352.273438 671.347656 359.234375 666.476562 363.96875 C 659.515625 370.371094 650.324219 373.714844 638.488281 373.714844 C 633.339844 373.714844 628.746094 373.015625 624.84375 371.902344 Z M 624.847656 347.535156 " fill-opacity="1" fill-rule="nonzero"/></g></svg>