<svg xmlns="http://www.w3.org/2000/svg" xmlns:xlink="http://www.w3.org/1999/xlink" width="1080" zoomAndPan="magnify" viewBox="0 0 810 530.249967" height="707" preserveAspectRatio="xMidYMid meet" version="1.0"><defs><clipPath id="8b3129caca"><path d="M 0.578125 0.25 L 809.421875 0.25 L 809.421875 529.492188 L 0.578125 529.492188 Z M 0.578125 0.25 " clip-rule="nonzero"/></clipPath></defs><g clip-path="url(#8b3129caca)"><path stroke-linecap="butt" transform="matrix(0.748941, 0, 0, 0.748941, 0.57801, 0.249627)" fill="none" stroke-linejoin="miter" d="M 0.00015329 0.000498189 L 1079.984 0.000498189 L 1079.984 706.654921 L 0.00015329 706.654921 Z M 0.00015329 0.000498189 " stroke="#444444" stroke-width="10" stroke-opacity="1" stroke-miterlimit="4"/></g><path fill="#444444" d="M 402.679688 406.808594 C 409.710938 412.621094 417.949219 415.101562 426.847656 415.558594 C 430.523438 415.753906 434.308594 415.570312 437.929688 414.914062 C 443.671875 413.871094 449.398438 412.558594 454.984375 410.878906 C 466.359375 407.445312 476.1875 401.515625 483.527344 391.9375 C 487.707031 386.476562 491.140625 380.574219 493.34375 374.046875 C 495.164062 368.660156 496.875 363.222656 498.234375 357.710938 C 499.308594 353.367188 499.84375 348.886719 500.496094 344.449219 C 500.929688 341.515625 501.191406 338.550781 501.464844 335.589844 C 501.902344 330.785156 502.359375 325.988281 502.679688 321.171875 C 502.902344 317.820312 502.894531 314.457031 503.023438 311.101562 C 503.066406 310.078125 503.230469 309.0625 503.328125 308.046875 C 503.414062 307.101562 503.890625 306.777344 504.855469 306.792969 C 508.246094 306.84375 511.640625 306.929688 515.027344 306.777344 C 518.820312 306.609375 522.640625 306.441406 526.375 305.820312 C 531.691406 304.929688 536.957031 303.808594 542.171875 302.445312 C 548.320312 300.835938 553.964844 297.953125 559.402344 294.671875 C 565.726562 290.847656 571.5 286.367188 576.171875 280.585938 C 580.246094 275.558594 582.175781 269.730469 581.191406 263.371094 C 579.761719 254.136719 572 248.085938 562.976562 247.671875 C 559.703125 247.523438 556.386719 247.867188 553.128906 248.28125 C 549.1875 248.78125 545.304688 249.667969 541.375 250.253906 C 538.660156 250.660156 535.910156 250.839844 533.207031 251.125 L 533.132812 250.769531 C 538.191406 241.210938 543.460938 231.761719 548.246094 222.074219 C 551.921875 214.640625 555.058594 206.941406 558.304688 199.292969 C 563.675781 186.628906 567.964844 173.582031 571.519531 160.3125 C 574.917969 147.613281 577.828125 134.773438 578.75 121.59375 C 579.121094 116.335938 579.375 111.050781 579.339844 105.785156 C 579.316406 101.582031 578.859375 97.371094 578.441406 93.183594 C 577.960938 88.382812 576.511719 83.832031 574.503906 79.453125 C 571.859375 73.679688 567.753906 68.945312 563.433594 64.453125 C 559.980469 60.851562 556.175781 57.574219 552.40625 54.292969 C 547.027344 49.617188 540.980469 45.878906 534.703125 42.566406 C 527.566406 38.773438 520.082031 35.871094 512.253906 33.859375 C 507.5 32.660156 502.714844 31.585938 497.90625 30.636719 C 496.195312 30.292969 494.46875 29.414062 492.746094 29.414062 L 460.320312 29.414062 C 459.144531 29.414062 457.984375 30.183594 456.804688 30.3125 C 449.023438 31.160156 441.398438 32.738281 433.917969 35.039062 C 431.132812 35.898438 428.589844 35.394531 425.945312 35.148438 C 423.914062 34.960938 421.914062 34.4375 419.882812 34.335938 C 412.152344 33.953125 404.414062 33.394531 396.679688 33.476562 C 389.273438 33.558594 381.945312 34.78125 374.777344 36.8125 C 368.78125 38.523438 362.910156 40.597656 357.527344 43.753906 C 355.230469 45.105469 353.402344 44.847656 351.019531 44.167969 C 343.023438 41.824219 334.960938 39.726562 326.835938 37.875 C 321.773438 36.742188 316.558594 36.167969 311.386719 35.636719 C 306.417969 35.117188 301.441406 34.808594 296.445312 34.707031 C 291.574219 34.601562 286.671875 34.605469 281.820312 35.035156 C 274.097656 35.722656 266.523438 37.289062 259.160156 39.824219 C 250.980469 42.625 243.503906 46.703125 236.722656 52.066406 C 229.859375 57.5 224.351562 64.121094 219.933594 71.695312 C 215.269531 79.6875 212.0625 88.242188 210.078125 97.21875 C 209 102.085938 209.398438 107.089844 208.65625 112.03125 C 208.429688 113.5625 208.886719 115.101562 208.886719 116.636719 L 208.886719 138.152344 C 208.886719 139.578125 208.46875 141.011719 208.648438 142.445312 C 209.089844 145.894531 208.9375 149.367188 209.523438 152.792969 C 210.441406 158.214844 211.269531 163.613281 212.382812 168.996094 C 213.9375 176.515625 215.425781 184.027344 217.152344 191.507812 C 218.402344 196.957031 219.769531 202.375 221.261719 207.757812 C 223.535156 215.988281 225.757812 224.230469 228.332031 232.359375 C 230.730469 239.917969 233.460938 247.367188 236.1875 254.820312 C 239.929688 265.140625 244.492188 275.085938 249.875 284.65625 C 254.5625 292.933594 259.90625 300.6875 267.085938 307.0625 C 271.820312 311.269531 277.078125 314.496094 283.203125 316.113281 C 288.050781 317.402344 292.929688 317.539062 297.84375 316.519531 C 300.652344 315.949219 303.347656 315.042969 305.933594 313.808594 C 308.519531 312.570312 310.914062 311.035156 313.121094 309.203125 C 313.636719 308.785156 314.199219 308.460938 314.816406 309.234375 C 317.144531 312.183594 320.257812 314.15625 323.519531 315.851562 C 332.3125 320.441406 341.894531 321.820312 351.625 322.375 C 353.988281 322.507812 356.363281 322.171875 358.738281 322.109375 C 363.367188 321.980469 367.863281 321.078125 372.285156 319.796875 C 374.605469 319.128906 376.867188 318.273438 379.230469 317.480469 C 379.351562 319.996094 379.507812 322.410156 379.585938 324.832031 L 379.914062 338.019531 C 379.976562 340.03125 380.054688 342.039062 380.238281 344.039062 C 380.714844 349.191406 381.183594 354.34375 381.800781 359.484375 C 382.222656 363.027344 382.671875 366.589844 383.5 370.050781 C 385.179688 377.035156 387.457031 383.816406 390.335938 390.398438 C 391.707031 393.585938 393.4375 396.570312 395.527344 399.34375 C 397.613281 402.117188 400 404.605469 402.679688 406.808594 M 388.597656 341.042969 C 388.316406 334.847656 388.109375 328.652344 387.972656 322.453125 C 387.808594 314.835938 387.753906 307.214844 387.648438 299.597656 L 387.628906 299.308594 C 383.757812 301.632812 379.941406 304.175781 375.902344 306.273438 C 371.167969 308.734375 366.03125 310.15625 360.710938 310.5625 C 356.539062 310.875 352.308594 311.160156 348.15625 310.832031 C 341.347656 310.277344 334.539062 309.214844 328.445312 305.859375 C 325.972656 304.496094 323.394531 302.839844 321.6875 300.667969 C 317.605469 295.457031 319.5625 288.871094 325.71875 285.703125 C 329.972656 283.507812 334.617188 282.59375 339.230469 281.523438 C 343.246094 280.613281 347.21875 279.527344 351.140625 278.269531 C 355.007812 277.003906 357.445312 273.863281 359.859375 270.785156 L 363.679688 265.875 L 359.085938 265.398438 C 354.527344 264.972656 350.179688 263.714844 346.019531 261.871094 C 342.46875 260.296875 342.410156 260.125 339.800781 262.957031 C 335.445312 267.683594 331.210938 272.527344 326.9375 277.335938 C 323.796875 280.875 320.679688 284.429688 317.542969 287.980469 C 314.453125 291.492188 311.550781 295.199219 308.214844 298.460938 C 303.265625 303.308594 297.292969 306.222656 290.171875 305.894531 C 285.601562 305.683594 281.421875 304.082031 277.65625 301.464844 C 269.894531 296.0625 264.664062 288.492188 259.898438 280.546875 C 253.800781 270.367188 249.113281 259.519531 245.109375 248.382812 C 242.335938 240.679688 239.546875 232.972656 237.132812 225.160156 C 234.5 216.667969 232.1875 208.078125 229.917969 199.480469 C 228.199219 192.996094 226.679688 186.457031 225.226562 179.90625 C 223.554688 172.460938 222.011719 164.988281 220.589844 157.492188 C 219.644531 152.429688 219.101562 147.289062 218.335938 142.195312 C 217.304688 135.320312 217.117188 128.390625 217.492188 121.488281 C 217.824219 115.273438 218.714844 109.074219 219.601562 102.902344 C 220.832031 94.359375 223.644531 86.300781 227.695312 78.6875 C 230.199219 74.027344 233.238281 69.75 236.804688 65.84375 C 242.648438 59.375 249.722656 54.707031 257.589844 51.195312 C 263.085938 48.742188 268.894531 47.273438 274.8125 46.117188 C 283.597656 44.40625 292.460938 44.476562 301.328125 44.65625 C 305.203125 44.738281 309.066406 45.441406 312.9375 45.828125 C 321.273438 46.65625 329.445312 48.414062 337.511719 50.574219 C 343.394531 52.152344 349.160156 54.199219 354.988281 55.972656 C 355.566406 56.148438 356.425781 56.132812 356.910156 55.824219 C 364.8125 50.660156 373.445312 47.257812 382.632812 45.308594 C 386.121094 44.570312 389.722656 44.246094 393.289062 44.015625 C 397.617188 43.746094 401.992188 43.488281 406.3125 43.742188 C 411.511719 44.039062 416.691406 44.804688 421.855469 45.511719 C 424.367188 45.855469 426.816406 46.722656 429.324219 46.960938 C 430.53125 47.074219 431.808594 46.199219 433.078125 45.898438 C 439.566406 44.398438 446.027344 42.730469 452.570312 41.550781 C 457.445312 40.671875 462.425781 40.257812 467.375 39.972656 C 472.90625 39.65625 478.46875 39.425781 483.988281 39.691406 C 490.972656 40.027344 497.902344 41.019531 504.742188 42.613281 C 513.222656 44.585938 521.347656 47.449219 529.078125 51.425781 C 534.855469 54.402344 540.34375 57.847656 545.289062 62.082031 C 548.53125 64.863281 551.847656 67.605469 554.769531 70.703125 C 558.378906 74.523438 562.058594 78.339844 564.324219 83.230469 C 566.03125 86.921875 567.246094 90.742188 567.585938 94.777344 C 568 99.804688 568.507812 104.84375 568.460938 109.875 C 568.417969 114.683594 567.761719 119.488281 567.296875 124.289062 C 566.234375 135.226562 563.863281 145.925781 560.972656 156.484375 C 558.558594 165.207031 555.828125 173.832031 552.777344 182.355469 C 549.996094 190.210938 546.785156 197.921875 543.539062 205.605469 C 541.148438 211.296875 538.554688 216.894531 535.757812 222.398438 C 530.449219 232.800781 524.925781 243.09375 518.535156 252.902344 C 517.433594 254.589844 516.386719 256.324219 515.3125 258.054688 C 518.101562 259.933594 521.257812 260.597656 524.4375 260.941406 C 527.460938 261.265625 530.542969 261.46875 533.5625 261.238281 C 538.398438 260.878906 543.21875 260.1875 548.027344 259.515625 C 552.789062 258.851562 557.453125 257.496094 562.347656 257.855469 C 567.226562 258.210938 570.726562 261.921875 570.394531 266.496094 C 570.179688 269.390625 568.851562 271.871094 566.929688 273.996094 C 557.847656 284.011719 546.453125 290.082031 533.414062 293.078125 C 528.460938 294.214844 523.351562 294.796875 518.28125 295.273438 C 513.945312 295.652344 509.605469 295.753906 505.257812 295.578125 C 502.070312 295.460938 498.914062 294.730469 495.65625 294.261719 C 495.328125 297.238281 495.019531 300.339844 494.640625 303.429688 L 493.125 315.289062 C 492.664062 319.046875 492.308594 322.820312 491.832031 326.574219 C 491.371094 330.222656 490.792969 333.851562 490.308594 337.496094 C 489.855469 340.886719 489.523438 344.300781 489.015625 347.691406 C 488.242188 352.882812 487.5 358.085938 486.484375 363.242188 C 485.269531 369.398438 483.410156 375.359375 480.363281 380.917969 C 476.652344 387.699219 471.390625 392.867188 464.691406 396.691406 C 457.789062 400.632812 450.238281 402.683594 442.59375 404.402344 C 437.171875 405.621094 431.601562 405.816406 426.113281 405.320312 C 416.601562 404.460938 408.480469 400.394531 402.34375 393.015625 C 396.488281 385.976562 392.523438 377.910156 391.105469 368.777344 C 390.4375 364.429688 389.921875 360.0625 389.554688 355.679688 C 389.128906 350.808594 388.808594 345.925781 388.597656 341.042969 M 399.289062 278.464844 C 399.347656 281.722656 399.011719 284.976562 399.027344 288.230469 C 399.097656 303.386719 399.199219 318.539062 399.332031 333.695312 C 399.355469 336.167969 399.476562 338.652344 399.652344 341.125 C 400.027344 346.300781 400.394531 351.480469 400.898438 356.644531 C 401.257812 360.3125 401.746094 363.96875 402.324219 367.605469 C 403.148438 372.757812 405.492188 377.34375 408.152344 381.734375 C 410.441406 385.507812 413.429688 388.707031 417.355469 390.921875 C 424.03125 394.675781 431.210938 394.988281 438.453125 393.605469 C 443.34375 392.675781 448.152344 391.175781 452.898438 389.625 C 457.628906 388.105469 461.785156 385.617188 465.363281 382.171875 C 468.691406 378.945312 471.054688 375.011719 472.644531 370.671875 C 475.734375 362.253906 476.703125 353.382812 477.976562 344.589844 C 478.457031 341.296875 478.871094 337.992188 479.304688 334.695312 C 479.808594 330.941406 480.300781 327.191406 480.785156 323.4375 C 481.144531 320.636719 481.46875 317.839844 481.808594 315.042969 C 482.300781 311.027344 482.8125 307.015625 483.28125 303 C 483.636719 299.894531 483.933594 296.773438 484.257812 293.660156 C 484.664062 289.679688 485.097656 285.710938 485.457031 281.722656 C 485.722656 278.699219 485.613281 275.621094 486.152344 272.652344 C 487.136719 267.210938 489.707031 262.585938 494.53125 259.589844 C 496.546875 258.339844 498.832031 257.515625 501.066406 256.457031 L 500.683594 255.875 C 498.617188 253.191406 496.496094 250.550781 494.46875 247.835938 C 491.285156 243.578125 488.996094 238.828125 486.691406 234.054688 C 484.511719 229.527344 481.84375 225.246094 479.550781 220.769531 C 475.542969 212.964844 471.464844 205.179688 467.773438 197.226562 C 463.136719 187.226562 459.480469 176.878906 458.332031 165.804688 C 457.839844 161.121094 457.714844 156.4375 458.667969 151.796875 C 460.183594 144.382812 464.050781 138.585938 470.5625 134.609375 C 476.605469 130.921875 483.332031 129.730469 490.222656 129.359375 C 494.496094 129.125 498.800781 129.316406 503.234375 129.316406 L 503.089844 128.566406 C 500.328125 122.792969 497.753906 116.921875 494.726562 111.289062 C 490.46875 103.332031 485.007812 96.164062 478.9375 89.507812 C 474.445312 84.550781 469.542969 80.039062 464.230469 75.976562 C 458.980469 72.003906 453.449219 68.453125 447.546875 65.554688 C 440.507812 62.054688 433.15625 59.441406 425.488281 57.710938 C 418.09375 56.070312 410.664062 55.066406 403.078125 54.984375 C 396.613281 54.914062 390.1875 55.210938 383.890625 56.667969 C 374.382812 58.867188 365.6875 62.78125 358.128906 69.121094 C 353.925781 72.640625 350.214844 76.621094 346.992188 81.058594 C 343.199219 86.257812 340.148438 91.878906 337.535156 97.769531 C 333.953125 105.851562 331.492188 114.257812 329.804688 122.902344 C 328.964844 127.214844 328.308594 131.558594 327.636719 135.898438 C 327.402344 137.425781 327.386719 138.976562 327.246094 140.71875 L 330.117188 139.226562 L 332.917969 137.972656 C 342.394531 133.636719 352.214844 130.847656 362.765625 131.164062 C 367.25 131.300781 371.535156 132.191406 375.527344 134.15625 C 383.175781 137.929688 387.648438 144.339844 389.59375 152.453125 C 390.933594 158.054688 391.855469 163.761719 392.75 169.460938 C 393.449219 173.910156 394.164062 178.40625 394.246094 182.890625 C 394.359375 189.449219 394.027344 196.023438 393.671875 202.578125 C 393.363281 208.183594 392.222656 213.613281 390.25 218.871094 C 386.707031 228.347656 382.753906 237.671875 379.0625 247.089844 C 377.839844 250.207031 376.902344 253.425781 375.753906 256.851562 L 380.414062 256.855469 C 380.980469 256.867188 381.554688 256.882812 382.101562 257.011719 C 386.339844 258.011719 390.023438 259.933594 393.039062 263.195312 C 397.074219 267.527344 399.183594 272.59375 399.289062 278.464844 M 318.304688 233.535156 C 315.886719 227.839844 314.457031 221.910156 314.015625 215.738281 C 313.605469 209.957031 314.292969 204.207031 314.890625 198.449219 C 315.460938 192.875 315.949219 187.273438 316.113281 181.679688 C 316.390625 172.476562 315.773438 163.292969 315.332031 154.09375 C 315.070312 148.621094 315.707031 143.078125 316.191406 137.589844 C 316.632812 132.648438 317.179688 127.695312 318.117188 122.824219 C 319.683594 114.648438 321.765625 106.59375 324.726562 98.785156 C 327.53125 91.378906 330.761719 84.171875 335.3125 77.683594 C 338.4375 73.226562 341.976562 69.074219 345.378906 64.71875 L 344.367188 64.359375 C 333.292969 60.84375 322.035156 58.089844 310.453125 56.894531 C 304.980469 56.324219 299.488281 55.996094 294 55.667969 C 292.3125 55.570312 290.601562 55.796875 288.914062 55.957031 C 284.726562 56.359375 280.488281 56.519531 276.371094 57.300781 C 269.359375 58.636719 262.632812 60.878906 256.410156 64.53125 C 250.847656 67.800781 246.105469 72 242.1875 77.125 C 237.84375 82.738281 234.914062 89.085938 232.816406 95.847656 C 230.335938 103.828125 229.152344 112.042969 228.835938 120.332031 C 228.558594 127.601562 228.417969 134.90625 229.675781 142.148438 C 230.605469 147.535156 231.226562 152.980469 232.253906 158.351562 C 233.636719 165.671875 235.1875 172.960938 236.90625 180.210938 C 239.390625 190.578125 241.875 200.957031 244.824219 211.203125 C 247.640625 221.011719 250.8125 230.734375 254.261719 240.34375 C 257.078125 248.1875 260.339844 255.882812 263.769531 263.472656 C 266.007812 268.417969 268.714844 273.179688 271.550781 277.808594 C 274.570312 282.726562 278.003906 287.394531 282.65625 290.960938 C 288.535156 295.464844 293.082031 296.167969 299.058594 291.222656 C 301.617188 289.105469 303.777344 286.488281 306.003906 283.996094 C 309.539062 280.042969 312.953125 275.972656 316.472656 272 C 320.957031 266.941406 325.496094 261.9375 330.003906 256.898438 C 330.957031 255.835938 331.875 254.734375 332.800781 253.660156 L 331.261719 252.316406 C 325.640625 246.953125 321.324219 240.695312 318.304688 233.535156 M 488.300781 82.910156 C 491.988281 87.195312 495.484375 91.632812 498.78125 96.222656 C 505.132812 105.125 510.171875 114.714844 513.902344 124.996094 C 515.546875 129.527344 516.867188 134.101562 516.277344 139.054688 C 515.871094 142.523438 515.898438 146.042969 515.59375 149.535156 C 515.339844 152.4375 514.878906 155.324219 514.503906 158.21875 C 513.941406 162.578125 513.125 166.933594 512.878906 171.3125 C 512.644531 175.488281 512.890625 179.699219 513.15625 183.875 C 513.417969 188.125 513.992188 192.351562 514.378906 196.589844 C 514.816406 201.402344 515.414062 206.203125 515.546875 211.023438 C 515.65625 214.976562 515.304688 218.949219 514.964844 222.902344 C 514.527344 227.667969 513.390625 232.261719 511.550781 236.679688 C 510.285156 239.792969 508.773438 242.804688 507.351562 245.917969 L 507.921875 246.523438 L 508.792969 247.199219 L 509.675781 245.628906 C 517.097656 233.960938 523.660156 221.832031 529.371094 209.242188 C 533.027344 201.125 536.5 192.925781 539.78125 184.648438 C 544.898438 171.765625 549.019531 158.566406 552.136719 145.058594 C 553.550781 139.003906 554.632812 132.851562 555.589844 126.703125 C 556.339844 121.894531 556.957031 117.03125 557.101562 112.179688 C 557.246094 107.03125 556.960938 101.847656 556.488281 96.714844 C 556.132812 92.839844 555.175781 88.941406 552.75 85.785156 C 548.84375 80.714844 544.632812 75.867188 539.449219 72.027344 C 535.085938 68.796875 530.730469 65.476562 526.050781 62.761719 C 518.625 58.453125 510.589844 55.589844 502.191406 53.636719 C 493.992188 51.726562 485.691406 50.902344 477.335938 50.722656 C 472.410156 50.617188 467.460938 51.148438 462.546875 51.613281 C 458.089844 52.03125 453.664062 52.746094 449.179688 53.332031 C 453.992188 56.039062 458.742188 58.449219 463.214844 61.28125 C 472.625 67.246094 481.066406 74.417969 488.300781 82.910156 M 366.003906 249.851562 C 369.042969 240.125 373.191406 230.832031 377.203125 221.488281 C 380.460938 213.90625 382.238281 205.925781 382.832031 197.71875 C 383.125 193.675781 383.046875 189.578125 382.847656 185.523438 C 382.648438 181.007812 382.234375 176.515625 381.605469 172.039062 C 380.765625 166.335938 379.808594 160.628906 378.457031 155.03125 C 376.996094 148.976562 373.308594 144.757812 366.984375 143.199219 C 363.136719 142.253906 359.308594 142.292969 355.414062 142.910156 C 345.910156 144.402344 337.210938 147.90625 329.109375 153.035156 C 327.476562 154.066406 326.574219 154.902344 326.859375 157.238281 C 327.457031 162.195312 327.585938 167.230469 327.5625 172.230469 C 327.53125 179.3125 327.230469 186.390625 326.960938 193.46875 C 326.875 195.769531 326.542969 198.066406 326.292969 200.363281 C 325.914062 203.875 325.179688 207.386719 325.203125 210.898438 C 325.230469 214.511719 325.597656 218.210938 326.476562 221.714844 C 329.265625 232.824219 335.164062 241.90625 344.839844 248.320312 C 350.789062 252.265625 357.371094 254.25 364.601562 254.628906 C 365.078125 252.972656 365.523438 251.40625 366.003906 249.851562 M 354.644531 154.585938 C 353.371094 151.914062 354.101562 149.699219 357.050781 148.671875 C 357.769531 148.421875 358.507812 148.148438 359.253906 148.078125 C 360.285156 147.976562 361.324219 148.050781 362.363281 148.050781 C 366.109375 148.074219 369.710938 148.597656 372.796875 150.972656 C 374.78125 152.503906 375.316406 154.523438 374.027344 156.609375 C 372.207031 159.5625 369.433594 161.046875 366.019531 161.328125 C 360.652344 161.769531 356.882812 159.269531 354.644531 154.585938 M 503.59375 153.609375 L 504.8125 142.921875 C 504.988281 141.492188 504.238281 141.101562 503.039062 141.066406 C 499.261719 140.964844 495.488281 140.828125 491.710938 140.761719 C 487.460938 140.683594 483.316406 141.367188 479.375 142.984375 C 475.007812 144.785156 471.679688 147.664062 470.320312 152.421875 C 469.320312 155.960938 469.011719 159.558594 469.394531 163.214844 C 469.929688 168.847656 471.1875 174.3125 473.171875 179.609375 C 475.816406 186.640625 478.578125 193.671875 481.882812 200.410156 C 486.359375 209.527344 491.417969 218.363281 496.171875 227.34375 C 497.4375 229.738281 498.511719 232.246094 499.835938 235.042969 C 502.535156 229.417969 503.960938 223.484375 504.109375 217.242188 C 504.238281 212.140625 503.835938 207.027344 503.539062 201.921875 C 503.351562 198.800781 502.910156 195.695312 502.609375 192.582031 C 502.1875 188.242188 501.546875 183.902344 501.441406 179.550781 C 501.34375 175.125 501.660156 170.679688 502.035156 166.257812 C 502.386719 162.03125 503.085938 157.828125 503.59375 153.609375 M 495.085938 150.179688 C 493.679688 154.050781 490.683594 156.242188 486.792969 156.878906 C 483.167969 157.480469 479.992188 156.144531 477.632812 153.25 C 475.949219 151.1875 476.59375 148.753906 479.113281 147.355469 C 482.007812 145.757812 485.191406 145.351562 488.941406 145.109375 C 489.96875 145.292969 491.496094 145.453125 492.957031 145.867188 C 495.070312 146.460938 495.855469 148.0625 495.085938 150.179688 M 382.917969 269.429688 C 380.847656 267.734375 378.101562 267.636719 376.132812 269.496094 C 373.683594 271.808594 371.53125 274.453125 369.378906 277.058594 C 366.894531 280.070312 364.558594 283.199219 361.355469 285.535156 C 356.691406 288.925781 351.246094 290.332031 345.777344 291.660156 C 341.429688 292.71875 337.0625 293.703125 332.703125 294.714844 L 332.648438 295.28125 C 333.945312 295.875 335.195312 296.625 336.546875 297.054688 C 343.195312 299.15625 349.960938 300.207031 356.992188 299.609375 C 362.058594 299.175781 366.890625 298.070312 371.46875 295.898438 C 377.769531 292.914062 382.621094 288.179688 386.746094 282.683594 C 387.433594 281.765625 387.75 280.40625 387.828125 279.222656 C 388.105469 275.042969 385.984375 271.929688 382.917969 269.429688 M 504.289062 267.617188 C 501.03125 268.710938 498.378906 270.378906 497.589844 273.902344 C 497.054688 276.289062 496.859375 278.757812 496.652344 281.199219 C 496.609375 281.632812 497.148438 282.421875 497.554688 282.535156 C 500.066406 283.195312 502.59375 283.976562 505.15625 284.207031 C 508.316406 284.496094 511.523438 284.402344 514.699219 284.246094 C 518.128906 284.074219 521.582031 283.851562 524.960938 283.285156 C 532.917969 281.945312 540.625 279.773438 547.46875 275.253906 C 549.9375 273.625 552.378906 271.960938 554.832031 270.308594 L 554.628906 269.957031 C 552.011719 270.347656 549.40625 270.820312 546.777344 271.101562 C 541.425781 271.671875 536.074219 272.277344 530.703125 272.585938 C 528.109375 272.734375 525.484375 272.238281 522.871094 272.027344 C 518.484375 271.667969 514.203125 270.695312 510.496094 268.351562 C 508.359375 267 506.570312 266.851562 504.289062 267.617188 " fill-opacity="1" fill-rule="evenodd"/><path fill="#444444" d="M 165.09375 418.4375 C 170.734375 417.519531 176.414062 417.078125 182.128906 417.113281 C 190.894531 417.113281 197.324219 419.152344 201.402344 422.824219 C 205.175781 426.085938 207.421875 431.085938 207.421875 437.207031 C 207.421875 443.425781 205.582031 448.324219 202.113281 451.890625 C 197.421875 456.890625 189.773438 459.4375 181.105469 459.4375 C 178.453125 459.4375 176.007812 459.335938 173.972656 458.828125 L 173.972656 486.363281 L 165.09375 486.363281 Z M 173.972656 451.582031 C 175.910156 452.09375 178.355469 452.296875 181.3125 452.296875 C 192.015625 452.296875 198.546875 447.09375 198.546875 437.609375 C 198.546875 428.535156 192.125 424.148438 182.332031 424.148438 C 178.457031 424.148438 175.5 424.457031 173.972656 424.863281 Z M 261.164062 461.269531 C 261.164062 479.523438 248.511719 487.480469 236.582031 487.480469 C 223.222656 487.480469 212.921875 477.691406 212.921875 462.085938 C 212.921875 445.566406 223.734375 435.878906 237.398438 435.878906 C 251.578125 435.875 261.164062 446.175781 261.164062 461.269531 M 222.003906 461.78125 C 222.003906 472.589844 228.222656 480.746094 236.992188 480.746094 C 245.558594 480.746094 251.980469 472.691406 251.980469 461.574219 C 251.980469 453.214844 247.804688 442.609375 237.195312 442.609375 C 226.585938 442.609375 222.003906 452.398438 222.003906 461.78125 M 271.253906 477.179688 C 273.90625 478.914062 278.597656 480.746094 283.085938 480.746094 C 289.609375 480.746094 292.671875 477.484375 292.671875 473.40625 C 292.671875 469.121094 290.125 466.777344 283.492188 464.328125 C 274.621094 461.167969 270.4375 456.273438 270.4375 450.359375 C 270.4375 442.402344 276.863281 435.878906 287.46875 435.878906 C 292.464844 435.878906 296.855469 437.304688 299.609375 438.9375 L 297.363281 445.464844 C 294.269531 443.558594 290.90625 442.605469 287.269531 442.609375 C 281.964844 442.609375 279.007812 445.667969 279.007812 449.339844 C 279.007812 453.417969 281.96875 455.253906 288.394531 457.699219 C 296.960938 460.964844 301.347656 465.246094 301.347656 472.589844 C 301.347656 481.257812 294.617188 487.375 282.886719 487.375 C 277.484375 487.375 272.484375 486.050781 269.019531 484.011719 Z M 323.675781 422.820312 L 323.675781 436.996094 L 336.519531 436.996094 L 336.519531 443.828125 L 323.675781 443.828125 L 323.675781 470.445312 C 323.675781 476.5625 325.40625 480.03125 330.40625 480.03125 C 332.167969 480.058594 333.902344 479.855469 335.605469 479.417969 L 336.015625 486.148438 C 334.285156 486.863281 331.527344 487.371094 328.0625 487.371094 C 323.882812 487.371094 320.515625 486.046875 318.371094 483.597656 C 315.828125 480.949219 314.90625 476.5625 314.90625 470.75 L 314.90625 443.828125 L 307.257812 443.828125 L 307.257812 436.996094 L 314.90625 436.996094 L 314.90625 425.164062 Z M 388.535156 437 C 388.324219 440.570312 388.125 444.546875 388.125 450.5625 L 388.125 479.21875 C 388.125 490.539062 385.882812 497.472656 381.089844 501.757812 C 376.296875 506.246094 369.363281 507.675781 363.140625 507.675781 C 357.226562 507.675781 350.699219 506.246094 346.71875 503.59375 L 348.960938 496.761719 C 352.226562 498.800781 357.324219 500.636719 363.441406 500.636719 C 372.621094 500.636719 379.351562 495.84375 379.351562 483.402344 L 379.351562 477.894531 L 379.148438 477.894531 C 376.394531 482.484375 371.089844 486.15625 363.441406 486.15625 C 351.207031 486.15625 342.433594 475.753906 342.433594 462.085938 C 342.433594 445.363281 353.347656 435.878906 364.667969 435.878906 C 373.238281 435.878906 377.929688 440.363281 380.070312 444.445312 L 380.273438 444.445312 L 380.679688 437 Z M 379.253906 456.476562 C 379.253906 454.949219 379.152344 453.621094 378.742188 452.398438 C 377.113281 447.195312 372.726562 442.914062 366.199219 442.914062 C 357.628906 442.914062 351.515625 450.15625 351.515625 461.574219 C 351.515625 471.265625 356.410156 479.320312 366.097656 479.320312 C 371.605469 479.320312 376.601562 475.851562 378.539062 470.140625 C 379.050781 468.613281 379.257812 466.878906 379.257812 465.347656 L 379.257812 456.476562 Z M 402.398438 452.398438 C 402.398438 446.585938 402.296875 441.589844 401.992188 437 L 409.847656 437 L 410.148438 446.6875 L 410.558594 446.6875 C 412.800781 440.058594 418.207031 435.878906 424.222656 435.878906 C 425.242188 435.878906 425.953125 435.980469 426.769531 436.183594 L 426.769531 444.648438 C 425.761719 444.425781 424.742188 444.324219 423.710938 444.339844 C 417.390625 444.339844 412.898438 449.132812 411.679688 455.863281 C 411.425781 457.246094 411.289062 458.640625 411.269531 460.046875 L 411.269531 486.355469 L 402.398438 486.355469 Z M 439.726562 463.308594 C 439.929688 475.445312 447.675781 480.441406 456.652344 480.441406 C 463.078125 480.441406 466.949219 479.320312 470.316406 477.890625 L 471.847656 484.316406 C 468.683594 485.746094 463.28125 487.375 455.425781 487.375 C 440.234375 487.375 431.15625 477.382812 431.15625 462.492188 C 431.15625 447.605469 439.925781 435.875 454.304688 435.875 C 470.417969 435.875 474.703125 450.046875 474.703125 459.125 C 474.703125 460.960938 474.496094 462.386719 474.394531 463.304688 L 439.726562 463.304688 Z M 466.039062 456.886719 C 466.136719 451.175781 463.6875 442.300781 453.597656 442.300781 C 444.519531 442.300781 440.542969 450.664062 439.824219 456.886719 Z M 484.898438 475.546875 C 487.300781 476.992188 489.855469 478.09375 492.554688 478.855469 C 495.253906 479.617188 498.003906 480.011719 500.808594 480.035156 C 509.882812 480.035156 515.1875 475.242188 515.1875 468.304688 C 515.1875 461.882812 511.515625 458.210938 502.234375 454.640625 C 491.019531 450.664062 484.082031 444.851562 484.082031 435.164062 C 484.082031 424.457031 492.957031 416.5 506.316406 416.5 C 513.351562 416.5 518.449219 418.132812 521.507812 419.867188 L 519.0625 427.105469 C 514.984375 424.917969 510.636719 423.832031 506.007812 423.84375 C 496.625 423.84375 493.058594 429.453125 493.058594 434.144531 C 493.058594 440.570312 497.234375 443.730469 506.722656 447.402344 C 518.347656 451.890625 524.261719 457.496094 524.261719 467.59375 C 524.261719 478.199219 516.410156 487.375 500.195312 487.375 C 493.566406 487.375 486.328125 485.4375 482.652344 482.992188 Z M 593.097656 496.453125 C 584.230469 494.125 575.460938 491.472656 566.789062 488.5 C 565.359375 487.988281 563.933594 487.476562 562.605469 487.476562 C 546.289062 486.867188 532.320312 474.832031 532.320312 452.703125 C 532.320312 430.675781 545.78125 416.5 564.339844 416.5 C 583.003906 416.5 595.140625 430.984375 595.140625 451.277344 C 595.140625 468.917969 586.984375 480.238281 575.5625 484.214844 L 575.5625 484.625 C 582.394531 486.355469 589.839844 487.988281 595.652344 489.007812 Z M 585.757812 451.683594 C 585.757812 437.917969 578.621094 423.738281 564.035156 423.738281 C 549.042969 423.738281 541.703125 437.605469 541.804688 452.5 C 541.703125 467.082031 549.757812 480.238281 563.625 480.238281 C 577.804688 480.238281 585.757812 467.390625 585.757812 451.683594 M 606.65625 417.625 L 615.535156 417.625 L 615.535156 478.914062 L 644.902344 478.914062 L 644.902344 486.355469 L 606.65625 486.355469 Z M 606.65625 417.625 " fill-opacity="1" fill-rule="nonzero"/></svg>