<svg xmlns="http://www.w3.org/2000/svg" xmlns:xlink="http://www.w3.org/1999/xlink" width="1080" zoomAndPan="magnify" viewBox="0 0 810 530.249967" height="707" preserveAspectRatio="xMidYMid meet" version="1.0"><defs><clipPath id="eb52a6814e"><path d="M 0.578125 0.25 L 809.421875 0.25 L 809.421875 529.492188 L 0.578125 529.492188 Z M 0.578125 0.25 " clip-rule="nonzero"/></clipPath></defs><g clip-path="url(#eb52a6814e)"><path stroke-linecap="butt" transform="matrix(0.748941, 0, 0, 0.748941, 0.57801, 0.249627)" fill="none" stroke-linejoin="miter" d="M 0.00015329 0.000498189 L 1079.984 0.000498189 L 1079.984 706.654921 L 0.00015329 706.654921 Z M 0.00015329 0.000498189 " stroke="#444444" stroke-width="10" stroke-opacity="1" stroke-miterlimit="4"/></g><path fill="#444444" d="M 330.667969 277.261719 L 330.667969 246.046875 C 330.667969 224.449219 349.925781 206.027344 372.117188 206.027344 L 437.472656 206.027344 C 455.664062 206.027344 466.941406 190.417969 466.941406 172.152344 L 466.941406 109.84375 C 466.941406 92.109375 453.605469 78.792969 435.84375 75.835938 C 424.832031 73.992188 413.742188 73.105469 402.574219 73.164062 C 391.390625 73.21875 379.84375 74.167969 370.441406 75.835938 C 342.75 80.722656 336.859375 90.960938 336.859375 109.84375 L 336.859375 134.792969 L 401.902344 134.792969 L 401.902344 144.085938 L 314.84375 144.085938 C 295.828125 144.085938 279.175781 155.015625 273.96875 176.765625 C 267.960938 201.6875 267.695312 217.652344 273.96875 243.679688 C 278.617188 263.050781 289.726562 277.261719 308.742188 277.261719 Z M 368 118.15625 C 361.214844 118.15625 355.722656 112.597656 355.722656 105.726562 C 355.722656 98.824219 361.214844 93.21875 368 93.21875 C 374.757812 93.21875 380.277344 98.824219 380.277344 105.726562 C 380.277344 112.597656 374.757812 118.15625 368 118.15625 M 535.621094 176.765625 C 530.921875 157.828125 521.945312 144.085938 502.90625 144.085938 L 476.234375 144.085938 L 476.234375 172.152344 C 476.234375 194.675781 459.246094 215.320312 437.472656 215.320312 L 372.117188 215.320312 C 354.214844 215.320312 336.859375 228.957031 336.859375 246.886719 L 336.859375 309.195312 C 336.859375 326.925781 353.546875 337.355469 370.847656 342.4375 C 391.554688 348.53125 410.433594 349.628906 435.214844 342.4375 C 451.683594 337.667969 466.941406 328.074219 466.941406 309.195312 L 466.941406 286.554688 L 401.902344 286.554688 L 401.902344 277.261719 L 502.902344 277.261719 C 521.917969 277.261719 529.003906 263.585938 535.617188 243.679688 C 542.449219 223.183594 542.160156 203.058594 535.621094 176.765625 M 441.585938 300.878906 C 448.371094 300.878906 453.867188 306.4375 453.867188 313.3125 C 453.867188 320.210938 448.375 325.816406 441.585938 325.816406 C 434.828125 325.816406 429.3125 320.207031 429.3125 313.3125 C 429.3125 306.4375 434.828125 300.878906 441.585938 300.878906 M 314.90625 413.6875 C 314.90625 402.054688 311.585938 396.074219 304.949219 395.753906 C 302.285156 395.621094 299.707031 396.042969 297.222656 397.019531 C 295.226562 397.734375 293.871094 398.449219 293.164062 399.164062 L 293.164062 426.9375 C 297.410156 429.601562 301.175781 430.835938 304.464844 430.644531 C 311.421875 430.191406 314.902344 424.539062 314.90625 413.6875 M 323.089844 414.175781 C 323.09375 420.085938 321.703125 424.992188 318.914062 428.894531 C 315.808594 433.3125 311.5 435.585938 305.996094 435.710938 C 301.84375 435.84375 297.566406 434.542969 293.167969 431.816406 L 293.167969 457.0625 L 286.050781 454.519531 L 286.050781 398.484375 C 287.21875 397.054688 288.714844 395.820312 290.542969 394.78125 C 294.78125 392.308594 299.929688 391.042969 305.988281 390.976562 L 306.089844 391.074219 C 311.628906 391.007812 315.894531 393.28125 318.894531 397.894531 C 321.691406 402.121094 323.089844 407.546875 323.089844 414.175781 M 366.601562 430.742188 C 366.601562 438.671875 365.808594 444.160156 364.21875 447.210938 C 362.621094 450.269531 359.578125 452.703125 355.097656 454.519531 C 351.460938 455.949219 347.53125 456.730469 343.304688 456.863281 L 342.125 452.378906 C 346.417969 451.792969 349.441406 451.210938 351.195312 450.625 C 354.640625 449.457031 357.015625 447.671875 358.3125 445.265625 C 359.351562 443.316406 359.871094 439.582031 359.871094 434.0625 L 359.871094 432.207031 C 355.011719 434.425781 349.910156 435.53125 344.566406 435.515625 C 341.058594 435.515625 337.972656 434.414062 335.304688 432.207031 C 332.3125 429.796875 330.816406 426.746094 330.816406 423.042969 L 330.816406 393.417969 L 337.9375 390.980469 L 337.9375 420.804688 C 337.9375 423.988281 338.96875 426.441406 341.023438 428.164062 C 344.109375 430.746094 345.742188 430.710938 349.007812 430.652344 C 352.273438 430.582031 355.765625 429.316406 359.480469 426.847656 L 359.480469 392.054688 L 366.601562 392.054688 Z M 394.394531 435.320312 C 393.613281 435.382812 392.832031 435.417969 392.050781 435.421875 C 388.019531 435.421875 384.882812 434.460938 382.640625 432.539062 C 380.402344 430.613281 379.28125 427.957031 379.28125 424.570312 L 379.28125 396.53125 L 374.40625 396.53125 L 374.40625 392.050781 L 379.28125 392.050781 L 379.28125 380.160156 L 386.394531 377.628906 L 386.394531 392.050781 L 394.394531 392.050781 L 394.394531 396.53125 L 386.394531 396.53125 L 386.394531 424.375 C 386.394531 427.050781 387.109375 428.941406 388.542969 430.042969 C 389.777344 430.957031 391.726562 431.480469 394.394531 431.613281 Z M 437.496094 434.738281 L 430.378906 434.738281 L 430.378906 407.253906 C 430.378906 404.460938 429.726562 402.054688 428.425781 400.042969 C 426.925781 397.769531 424.835938 396.632812 422.15625 396.628906 C 418.890625 396.628906 414.808594 398.351562 409.910156 401.796875 L 409.910156 434.738281 L 402.792969 434.738281 L 402.792969 369.050781 L 409.910156 366.808594 L 409.910156 396.722656 C 414.457031 393.414062 419.429688 391.757812 424.824219 391.753906 C 428.597656 391.753906 431.648438 393.023438 433.988281 395.558594 C 436.332031 398.089844 437.5 401.242188 437.5 405.011719 L 437.5 434.738281 Z M 475.335938 412.570312 C 475.335938 408.101562 474.492188 404.40625 472.796875 401.484375 C 470.785156 397.925781 467.667969 396.050781 463.441406 395.855469 C 455.636719 396.308594 451.738281 401.898438 451.742188 412.617188 C 451.738281 417.53125 452.554688 421.636719 454.1875 424.929688 C 456.273438 429.128906 459.40625 431.199219 463.582031 431.132812 C 471.417969 431.070312 475.335938 424.882812 475.335938 412.570312 M 483.136719 412.617188 C 483.136719 418.980469 481.511719 424.277344 478.257812 428.507812 C 474.683594 433.246094 469.746094 435.613281 463.445312 435.621094 C 457.199219 435.613281 452.324219 433.246094 448.816406 428.507812 C 445.632812 424.277344 444.039062 418.980469 444.039062 412.617188 C 444.039062 406.636719 445.761719 401.601562 449.207031 397.503906 C 452.84375 393.15625 457.621094 390.980469 463.539062 390.980469 C 469.449219 390.980469 474.261719 393.15625 477.96875 397.503906 C 481.410156 401.601562 483.132812 406.636719 483.136719 412.617188 M 523.949219 434.738281 L 516.828125 434.738281 L 516.828125 405.699219 C 516.828125 402.515625 515.871094 400.027344 513.957031 398.238281 C 512.039062 396.449219 509.488281 395.589844 506.300781 395.65625 C 502.917969 395.722656 499.703125 396.828125 496.648438 398.96875 L 496.648438 434.738281 L 489.527344 434.738281 L 489.527344 398.089844 C 493.625 395.105469 497.394531 393.15625 500.839844 392.246094 C 504.089844 391.398438 506.953125 390.976562 509.421875 390.976562 C 511.109375 390.976562 512.703125 391.140625 514.199219 391.464844 C 516.992188 392.113281 519.265625 393.3125 521.019531 395.070312 C 522.972656 397.019531 523.949219 399.359375 523.949219 402.09375 Z M 523.949219 434.738281 " fill-opacity="1" fill-rule="nonzero"/></svg>