<svg xmlns="http://www.w3.org/2000/svg" xmlns:xlink="http://www.w3.org/1999/xlink" width="1080" zoomAndPan="magnify" viewBox="0 0 810 530.249967" height="707" preserveAspectRatio="xMidYMid meet" version="1.0"><defs><clipPath id="6d668c32a0"><path d="M 0.578125 0.25 L 809.421875 0.25 L 809.421875 529.492188 L 0.578125 529.492188 Z M 0.578125 0.25 " clip-rule="nonzero"/></clipPath></defs><g clip-path="url(#6d668c32a0)"><path stroke-linecap="butt" transform="matrix(0.748941, 0, 0, 0.748941, 0.57801, 0.249627)" fill="none" stroke-linejoin="miter" d="M 0.00015329 0.000498189 L 1079.984 0.000498189 L 1079.984 706.654921 L 0.00015329 706.654921 Z M 0.00015329 0.000498189 " stroke="#444444" stroke-width="10" stroke-opacity="1" stroke-miterlimit="4"/></g><path fill="#444444" d="M 433.101562 215.015625 C 433.101562 215.9375 433.054688 216.855469 432.964844 217.769531 C 432.875 218.6875 432.742188 219.597656 432.5625 220.5 C 432.382812 221.402344 432.160156 222.292969 431.890625 223.175781 C 431.625 224.054688 431.316406 224.921875 430.960938 225.769531 C 430.609375 226.621094 430.21875 227.453125 429.785156 228.261719 C 429.347656 229.074219 428.875 229.863281 428.367188 230.628906 C 427.855469 231.394531 427.304688 232.132812 426.722656 232.84375 C 426.140625 233.554688 425.519531 234.238281 424.871094 234.886719 C 424.21875 235.539062 423.539062 236.15625 422.828125 236.738281 C 422.117188 237.324219 421.378906 237.871094 420.613281 238.382812 C 419.847656 238.894531 419.058594 239.367188 418.246094 239.800781 C 417.433594 240.234375 416.605469 240.628906 415.753906 240.980469 C 414.902344 241.332031 414.039062 241.640625 413.15625 241.910156 C 412.277344 242.175781 411.382812 242.398438 410.480469 242.578125 C 409.578125 242.757812 408.667969 242.894531 407.753906 242.984375 C 406.839844 243.074219 405.917969 243.117188 405 243.117188 C 404.078125 243.117188 403.160156 243.074219 402.246094 242.984375 C 401.328125 242.894531 400.417969 242.757812 399.515625 242.578125 C 398.613281 242.398438 397.722656 242.175781 396.84375 241.910156 C 395.960938 241.640625 395.09375 241.332031 394.246094 240.980469 C 393.394531 240.628906 392.5625 240.234375 391.753906 239.800781 C 390.941406 239.367188 390.152344 238.894531 389.386719 238.382812 C 388.621094 237.871094 387.882812 237.324219 387.171875 236.738281 C 386.460938 236.15625 385.777344 235.539062 385.128906 234.886719 C 384.476562 234.238281 383.859375 233.554688 383.277344 232.84375 C 382.691406 232.132812 382.144531 231.394531 381.632812 230.628906 C 381.121094 229.863281 380.648438 229.074219 380.214844 228.261719 C 379.78125 227.453125 379.390625 226.621094 379.035156 225.769531 C 378.683594 224.921875 378.375 224.054688 378.109375 223.175781 C 377.839844 222.292969 377.617188 221.402344 377.4375 220.5 C 377.257812 219.597656 377.121094 218.6875 377.03125 217.769531 C 376.941406 216.855469 376.898438 215.9375 376.898438 215.015625 C 376.898438 214.097656 376.941406 213.179688 377.03125 212.261719 C 377.121094 211.347656 377.257812 210.4375 377.4375 209.535156 C 377.617188 208.632812 377.839844 207.738281 378.109375 206.859375 C 378.375 205.976562 378.683594 205.113281 379.035156 204.261719 C 379.390625 203.410156 379.78125 202.582031 380.214844 201.769531 C 380.648438 200.957031 381.121094 200.167969 381.632812 199.402344 C 382.144531 198.636719 382.691406 197.898438 383.277344 197.1875 C 383.859375 196.476562 384.476562 195.796875 385.128906 195.144531 C 385.777344 194.496094 386.460938 193.878906 387.171875 193.292969 C 387.882812 192.710938 388.621094 192.160156 389.386719 191.648438 C 390.152344 191.140625 390.941406 190.667969 391.753906 190.234375 C 392.5625 189.796875 393.394531 189.40625 394.246094 189.054688 C 395.09375 188.699219 395.960938 188.390625 396.84375 188.125 C 397.722656 187.855469 398.613281 187.632812 399.515625 187.453125 C 400.417969 187.273438 401.328125 187.140625 402.246094 187.050781 C 403.160156 186.960938 404.078125 186.914062 405 186.914062 C 405.917969 186.914062 406.839844 186.960938 407.753906 187.050781 C 408.667969 187.140625 409.578125 187.273438 410.480469 187.453125 C 411.382812 187.632812 412.277344 187.855469 413.15625 188.125 C 414.039062 188.390625 414.902344 188.699219 415.753906 189.054688 C 416.605469 189.40625 417.433594 189.796875 418.246094 190.234375 C 419.058594 190.667969 419.847656 191.140625 420.613281 191.648438 C 421.378906 192.160156 422.117188 192.710938 422.828125 193.292969 C 423.539062 193.878906 424.21875 194.496094 424.871094 195.144531 C 425.519531 195.796875 426.140625 196.476562 426.722656 197.1875 C 427.304688 197.898438 427.855469 198.636719 428.367188 199.402344 C 428.875 200.167969 429.347656 200.957031 429.785156 201.769531 C 430.21875 202.582031 430.609375 203.410156 430.960938 204.261719 C 431.316406 205.113281 431.625 205.976562 431.890625 206.859375 C 432.160156 207.738281 432.382812 208.632812 432.5625 209.535156 C 432.742188 210.4375 432.875 211.347656 432.964844 212.261719 C 433.054688 213.179688 433.101562 214.097656 433.101562 215.015625 Z M 433.101562 215.015625 " fill-opacity="1" fill-rule="nonzero"/><path fill="#444444" d="M 405 318.359375 C 427.058594 339.8125 448.816406 352.503906 466.339844 352.503906 C 472.082031 352.503906 477.519531 351.296875 482.054688 348.578125 C 497.765625 339.511719 503.507812 316.847656 498.070312 284.515625 C 497.164062 278.773438 495.953125 273.035156 494.441406 266.988281 C 500.484375 265.175781 505.925781 263.363281 511.363281 261.550781 C 541.882812 249.765625 558.804688 233.449219 558.804688 215.621094 C 558.804688 197.492188 541.882812 181.171875 511.363281 169.691406 C 505.925781 167.574219 500.484375 165.761719 494.441406 164.25 C 495.953125 158.207031 497.164062 152.464844 498.070312 146.726562 C 503.207031 113.789062 497.464844 90.824219 481.75 81.757812 C 477.21875 79.039062 471.78125 77.828125 466.039062 77.828125 C 448.816406 77.828125 426.757812 90.519531 404.699219 111.976562 C 382.941406 90.519531 361.183594 77.828125 343.660156 77.828125 C 337.917969 77.828125 332.476562 79.039062 327.945312 81.757812 C 312.234375 90.824219 306.492188 113.484375 311.929688 145.820312 C 312.835938 151.558594 314.046875 157.300781 315.554688 163.34375 C 309.511719 165.15625 304.074219 166.972656 298.632812 168.785156 C 268.117188 180.570312 251.195312 196.886719 251.195312 214.714844 C 251.195312 232.84375 268.117188 249.160156 298.632812 260.644531 C 304.074219 262.757812 309.511719 264.574219 315.554688 266.082031 C 314.046875 272.125 312.835938 277.867188 311.929688 283.609375 C 306.792969 315.941406 312.535156 338.90625 327.945312 347.671875 C 332.476562 350.390625 337.917969 351.597656 343.660156 351.597656 C 361.183594 352.203125 382.941406 339.511719 405 318.359375 M 388.078125 277.566406 C 393.515625 277.867188 399.257812 277.867188 405 277.867188 C 410.742188 277.867188 416.480469 277.867188 421.921875 277.566406 C 416.480469 284.816406 410.742188 291.464844 405 297.8125 C 399.257812 291.464844 393.515625 284.816406 388.078125 277.566406 M 350.609375 246.441406 C 353.628906 251.578125 356.351562 256.414062 359.671875 261.25 C 350.304688 260.039062 341.542969 258.527344 333.082031 256.714844 C 335.800781 248.558594 338.824219 240.097656 342.449219 231.636719 C 344.867188 236.46875 347.585938 241.609375 350.609375 246.441406 M 333.082031 173.617188 C 341.542969 171.804688 350.304688 170.292969 359.671875 169.085938 C 356.652344 173.921875 353.628906 178.753906 350.609375 183.890625 C 347.585938 189.03125 344.867188 193.863281 342.449219 199 C 338.519531 190.238281 335.5 181.777344 333.082031 173.617188 M 349.703125 215.015625 C 353.628906 206.859375 357.859375 198.699219 362.695312 190.539062 C 367.226562 182.683594 372.363281 174.828125 377.5 166.972656 C 386.566406 166.367188 395.632812 166.0625 405 166.0625 C 414.667969 166.0625 423.734375 166.367188 432.496094 166.972656 C 437.9375 174.828125 442.769531 182.683594 447.304688 190.539062 C 452.136719 198.699219 456.367188 206.859375 460.296875 215.015625 C 456.367188 223.175781 452.136719 231.332031 447.304688 239.492188 C 442.769531 247.347656 437.632812 255.207031 432.496094 263.0625 C 423.433594 263.667969 414.367188 263.96875 405 263.96875 C 395.328125 263.96875 386.265625 263.667969 377.5 263.0625 C 372.0625 255.207031 367.226562 247.347656 362.695312 239.492188 C 357.859375 231.332031 353.628906 223.175781 349.703125 215.015625 M 467.851562 198.699219 L 459.691406 183.589844 C 456.671875 178.453125 453.953125 173.617188 450.628906 168.785156 C 459.996094 169.992188 468.757812 171.503906 477.21875 173.316406 C 474.5 181.777344 471.476562 190.238281 467.851562 198.699219 M 467.851562 231.332031 C 471.476562 239.792969 474.5 248.253906 477.21875 256.414062 C 468.757812 258.226562 459.996094 259.738281 450.628906 260.945312 C 453.648438 256.113281 456.671875 251.277344 459.691406 246.140625 C 462.414062 241.609375 465.132812 236.46875 467.851562 231.332031 M 474.800781 336.1875 C 472.382812 337.699219 469.363281 338.300781 466.039062 338.300781 C 451.230469 338.300781 432.800781 326.214844 414.667969 308.085938 C 423.433594 298.71875 431.894531 288.140625 440.355469 276.355469 C 454.554688 275.148438 468.152344 273.035156 480.84375 270.011719 C 482.355469 275.449219 483.261719 280.890625 484.167969 286.328125 C 488.398438 312.015625 485.074219 330.445312 474.800781 336.1875 M 490.515625 176.941406 C 524.359375 186.613281 544.601562 201.417969 544.601562 215.015625 C 544.601562 226.800781 530.703125 238.585938 506.226562 247.953125 C 501.390625 249.765625 495.953125 251.578125 490.515625 253.089844 C 486.585938 240.699219 481.75 228.007812 475.707031 215.015625 C 481.75 202.023438 486.886719 189.332031 490.515625 176.941406 M 466.339844 91.730469 C 469.664062 91.730469 472.382812 92.335938 475.105469 93.84375 C 485.074219 99.585938 488.703125 117.714844 484.472656 143.703125 C 483.5625 148.839844 482.355469 154.28125 481.148438 160.019531 C 468.457031 157.300781 454.859375 155.1875 440.65625 153.675781 C 432.496094 141.890625 423.734375 131.3125 414.972656 121.945312 C 433.101562 104.117188 451.535156 91.730469 466.339844 91.730469 M 421.921875 152.464844 C 416.480469 152.164062 410.742188 152.164062 405 152.164062 C 399.257812 152.164062 393.515625 152.164062 388.078125 152.464844 C 393.515625 145.214844 399.257812 138.566406 405 132.222656 C 410.742188 138.566406 416.480469 145.515625 421.921875 152.464844 M 335.199219 93.84375 C 337.613281 92.335938 340.636719 91.730469 343.960938 91.730469 C 358.765625 91.730469 377.199219 103.816406 395.328125 121.945312 C 386.566406 131.316406 378.105469 141.890625 369.644531 153.675781 C 355.441406 154.882812 341.84375 157 329.152344 160.019531 C 327.644531 154.582031 326.738281 149.144531 325.832031 143.703125 C 321.601562 118.019531 324.921875 99.886719 335.199219 93.84375 M 319.484375 253.089844 C 285.640625 243.421875 265.394531 228.613281 265.394531 215.015625 C 265.394531 203.230469 279.296875 191.445312 303.773438 182.078125 C 308.605469 180.265625 314.046875 178.453125 319.484375 176.941406 C 323.414062 189.332031 328.246094 202.023438 334.292969 215.015625 C 328.246094 228.007812 323.109375 241.003906 319.484375 253.089844 M 325.832031 286.328125 C 326.738281 281.191406 327.945312 275.753906 329.152344 270.011719 C 341.84375 272.730469 355.441406 274.847656 369.644531 276.355469 C 377.804688 288.140625 386.566406 298.71875 395.328125 308.085938 C 377.199219 325.914062 358.765625 338.300781 343.960938 338.300781 C 340.636719 338.300781 337.917969 337.699219 335.199219 336.1875 C 324.921875 330.445312 321.601562 312.015625 325.832031 286.328125 M 313.140625 410.824219 C 319.785156 402.664062 320.089844 393.601562 316.460938 384.535156 C 312.835938 375.46875 305.28125 371.238281 295.914062 370.9375 C 284.734375 370.636719 273.253906 370.9375 262.070312 370.9375 L 259.957031 370.9375 L 259.957031 449.199219 L 269.023438 449.199219 L 269.023438 419.585938 L 283.222656 419.585938 C 285.035156 419.585938 286.546875 420.191406 287.453125 421.703125 L 305.585938 449.804688 C 305.886719 450.410156 306.792969 451.316406 307.398438 451.316406 L 319.183594 451.316406 C 311.929688 440.136719 304.980469 429.558594 297.726562 418.679688 C 304.074219 417.773438 309.511719 415.660156 313.140625 410.824219 M 269.023438 410.21875 L 269.023438 380.304688 L 272.34375 380.304688 C 279.296875 380.304688 286.546875 380.003906 293.496094 380.605469 C 301.65625 380.910156 307.398438 387.253906 307.398438 395.414062 C 307.398438 403.570312 300.75 409.917969 292.589844 410.21875 C 285.339844 410.523438 278.085938 410.21875 269.023438 410.21875 M 385.960938 414.148438 C 381.128906 392.996094 361.789062 387.558594 346.980469 394.203125 C 335.5 399.339844 330.363281 409.3125 330.0625 421.703125 C 329.757812 431.070312 332.476562 439.53125 339.730469 445.875 C 347.890625 453.128906 357.859375 454.035156 368.132812 452.222656 C 373.875 451.011719 379.011719 448.292969 382.941406 444.0625 C 381.429688 441.949219 379.917969 439.832031 378.410156 438.019531 C 369.949219 445.273438 360.582031 447.6875 350.304688 442.855469 C 343.660156 439.53125 340.335938 431.371094 339.730469 425.328125 L 386.566406 425.328125 L 386.566406 421.398438 C 386.867188 418.679688 386.566406 416.261719 385.960938 414.148438 M 340.335938 418.984375 C 339.429688 409.917969 348.492188 400.25 358.464844 400.25 C 369.949219 399.945312 377.199219 406.894531 377.5 418.984375 Z M 433.101562 392.695312 C 428.570312 391.789062 423.734375 391.484375 419.203125 391.789062 C 411.949219 392.390625 405.605469 395.714844 400.46875 401.15625 C 401.976562 403.269531 403.1875 405.386719 405 407.800781 C 405.605469 407.199219 406.207031 406.59375 406.8125 406.292969 C 411.648438 401.757812 417.386719 399.339844 424.339844 399.945312 C 429.777344 400.25 434.914062 402.0625 436.425781 407.5 C 437.632812 411.730469 437.332031 416.261719 437.632812 420.796875 C 436.726562 420.796875 436.425781 420.492188 436.125 420.191406 C 428.871094 414.148438 420.710938 412.9375 411.949219 415.054688 C 403.789062 417.167969 398.652344 423.515625 398.050781 431.675781 C 397.445312 441.042969 401.675781 447.992188 409.835938 451.316406 C 414.972656 453.429688 420.710938 453.429688 426.152344 452.222656 C 430.382812 451.316406 432.195312 448.898438 438.238281 445.574219 L 438.238281 449.503906 L 446.699219 449.503906 C 446.699219 437.414062 447 422.609375 446.699219 408.710938 C 446.699219 399.945312 441.5625 394.507812 433.101562 392.695312 M 437.332031 430.769531 C 437.03125 431.675781 437.332031 432.582031 437.332031 433.488281 C 437.332031 439.832031 435.820312 441.949219 429.777344 444.367188 C 425.546875 445.875 421.015625 446.480469 416.480469 444.96875 C 411.34375 443.457031 407.71875 438.925781 407.71875 433.789062 C 407.417969 428.652344 410.742188 423.515625 415.878906 422.003906 C 422.828125 419.585938 429.171875 421.097656 434.914062 425.328125 C 436.726562 426.839844 437.9375 428.351562 437.332031 430.769531 M 484.472656 400.851562 C 492.328125 398.433594 499.578125 399.945312 505.019531 406.59375 L 505.925781 407.199219 C 508.039062 405.386719 509.851562 403.570312 512.269531 401.457031 C 511.363281 400.550781 511.0625 399.945312 510.457031 399.039062 C 501.695312 389.671875 484.472656 388.464844 473.894531 396.019531 C 459.089844 406.894531 459.390625 428.046875 466.644531 439.226562 C 473.59375 449.804688 483.5625 453.429688 495.347656 451.917969 C 502.300781 451.011719 508.039062 447.6875 512.574219 441.949219 C 510.457031 440.136719 508.34375 438.320312 506.226562 436.207031 C 505.621094 436.8125 505.320312 437.113281 505.019531 437.71875 C 496.859375 446.78125 483.261719 445.875 476.011719 436.207031 C 471.78125 430.464844 470.875 423.816406 472.082031 417.167969 C 472.6875 409.617188 476.613281 403.570312 484.472656 400.851562 M 547.324219 441.949219 C 546.71875 442.25 546.417969 442.550781 546.417969 442.550781 C 544 444.367188 541.582031 444.667969 538.863281 443.761719 C 536.140625 442.550781 535.839844 440.136719 535.539062 437.71875 L 535.539062 403.269531 C 535.539062 402.664062 535.539062 403.875 535.839844 400.851562 L 547.324219 400.851562 L 547.324219 391.789062 L 535.234375 391.789062 L 535.234375 376.679688 L 526.171875 376.679688 L 526.171875 392.996094 L 518.3125 392.996094 C 517.710938 392.996094 516.804688 393.601562 516.804688 394.203125 C 516.5 396.320312 516.804688 397.832031 516.804688 400.851562 L 526.472656 400.851562 L 526.472656 439.53125 C 526.472656 444.367188 527.679688 448.597656 531.910156 451.011719 C 536.445312 453.734375 545.207031 453.128906 549.136719 449.804688 C 549.738281 449.503906 550.042969 448.292969 550.042969 447.992188 C 549.136719 446.179688 548.230469 444.0625 547.324219 441.949219 " fill-opacity="1" fill-rule="nonzero"/></svg>