<svg xmlns="http://www.w3.org/2000/svg" xmlns:xlink="http://www.w3.org/1999/xlink" width="1080" zoomAndPan="magnify" viewBox="0 0 810 530.249967" height="707" preserveAspectRatio="xMidYMid meet" version="1.0"><defs><g/><clipPath id="86bb4521eb"><path d="M 0.578125 0 L 809.421875 0 L 809.421875 529.242188 L 0.578125 529.242188 Z M 0.578125 0 " clip-rule="nonzero"/></clipPath><clipPath id="cfd80d6791"><path d="M 119.125 137.917969 L 400.726562 137.917969 L 400.726562 419.519531 L 119.125 419.519531 Z M 119.125 137.917969 " clip-rule="nonzero"/></clipPath></defs><g clip-path="url(#86bb4521eb)"><path stroke-linecap="butt" transform="matrix(0.748941, 0, 0, 0.748941, 0.57801, -0.0000199718)" fill="none" stroke-linejoin="miter" d="M 0.00015329 0.0000266667 L 1079.984 0.0000266667 L 1079.984 706.654449 L 0.00015329 706.654449 Z M 0.00015329 0.0000266667 " stroke="#444444" stroke-width="10" stroke-opacity="1" stroke-miterlimit="4"/></g><g clip-path="url(#cfd80d6791)"><path fill="#444444" d="M 398.929688 275.304688 L 387.097656 267.988281 L 386.765625 264.539062 L 396.933594 255.066406 C 397.183594 254.828125 397.402344 254.5625 397.585938 254.269531 C 397.769531 253.976562 397.914062 253.664062 398.015625 253.335938 C 398.121094 253.003906 398.183594 252.667969 398.203125 252.320312 C 398.222656 251.976562 398.195312 251.636719 398.128906 251.296875 C 398.0625 250.957031 397.953125 250.632812 397.800781 250.320312 C 397.648438 250.007812 397.464844 249.722656 397.238281 249.457031 C 397.015625 249.195312 396.761719 248.960938 396.480469 248.761719 C 396.199219 248.5625 395.894531 248.402344 395.570312 248.28125 L 382.589844 243.417969 C 382.265625 242.296875 381.925781 241.183594 381.566406 240.074219 L 389.667969 228.804688 C 389.871094 228.523438 390.035156 228.222656 390.160156 227.898438 C 390.285156 227.574219 390.367188 227.242188 390.40625 226.898438 C 390.445312 226.550781 390.441406 226.207031 390.394531 225.867188 C 390.347656 225.523438 390.253906 225.191406 390.121094 224.871094 C 389.988281 224.550781 389.820312 224.253906 389.609375 223.976562 C 389.398438 223.699219 389.160156 223.453125 388.886719 223.238281 C 388.617188 223.023438 388.320312 222.847656 388.003906 222.707031 C 387.6875 222.570312 387.355469 222.472656 387.011719 222.417969 L 373.324219 220.1875 C 372.792969 219.15625 372.246094 218.136719 371.683594 217.125 L 377.433594 204.492188 C 377.730469 203.851562 377.851562 203.179688 377.792969 202.476562 C 377.734375 201.773438 377.503906 201.128906 377.105469 200.546875 C 376.710938 199.964844 376.203125 199.511719 375.578125 199.191406 C 374.953125 198.871094 374.285156 198.71875 373.582031 198.738281 L 359.671875 199.222656 C 358.957031 198.316406 358.21875 197.429688 357.464844 196.554688 L 360.671875 183.019531 C 360.75 182.683594 360.785156 182.339844 360.777344 181.996094 C 360.769531 181.648438 360.71875 181.308594 360.621094 180.976562 C 360.527344 180.640625 360.390625 180.324219 360.214844 180.027344 C 360.039062 179.730469 359.832031 179.457031 359.585938 179.210938 C 359.339844 178.964844 359.066406 178.757812 358.769531 178.582031 C 358.46875 178.40625 358.15625 178.269531 357.820312 178.175781 C 357.488281 178.078125 357.148438 178.027344 356.800781 178.019531 C 356.453125 178.011719 356.113281 178.046875 355.777344 178.125 L 342.238281 181.332031 L 339.5625 179.125 L 340.042969 165.222656 C 340.0625 164.875 340.035156 164.53125 339.960938 164.191406 C 339.890625 163.851562 339.773438 163.523438 339.617188 163.214844 C 339.460938 162.902344 339.269531 162.617188 339.039062 162.355469 C 338.808594 162.09375 338.546875 161.867188 338.257812 161.671875 C 337.96875 161.480469 337.660156 161.324219 337.328125 161.210938 C 337 161.097656 336.660156 161.027344 336.316406 161 C 335.96875 160.976562 335.621094 160.992188 335.28125 161.058594 C 334.9375 161.121094 334.609375 161.226562 334.292969 161.375 L 321.660156 167.125 L 318.585938 165.484375 L 316.355469 151.78125 C 316.296875 151.441406 316.199219 151.113281 316.058594 150.796875 C 315.917969 150.480469 315.738281 150.1875 315.523438 149.914062 C 315.308594 149.644531 315.0625 149.40625 314.785156 149.195312 C 314.507812 148.988281 314.210938 148.816406 313.890625 148.683594 C 313.570312 148.550781 313.238281 148.460938 312.898438 148.414062 C 312.554688 148.363281 312.210938 148.359375 311.867188 148.398438 C 311.523438 148.4375 311.1875 148.519531 310.867188 148.644531 C 310.542969 148.765625 310.238281 148.929688 309.957031 149.128906 L 298.6875 157.230469 C 297.578125 156.875 296.460938 156.539062 295.34375 156.21875 L 290.480469 143.238281 C 290.359375 142.914062 290.199219 142.609375 290 142.328125 C 289.800781 142.046875 289.566406 141.792969 289.304688 141.570312 C 289.039062 141.34375 288.753906 141.160156 288.441406 141.007812 C 288.128906 140.855469 287.804688 140.746094 287.464844 140.679688 C 287.125 140.613281 286.785156 140.585938 286.4375 140.605469 C 286.09375 140.625 285.757812 140.6875 285.425781 140.789062 C 285.097656 140.894531 284.785156 141.039062 284.492188 141.222656 C 284.199219 141.40625 283.933594 141.625 283.695312 141.875 L 274.222656 152.054688 C 273.074219 151.925781 271.921875 151.816406 270.773438 151.722656 L 263.457031 139.890625 C 263.277344 139.59375 263.058594 139.328125 262.808594 139.085938 C 262.558594 138.84375 262.28125 138.640625 261.980469 138.46875 C 261.675781 138.300781 261.355469 138.171875 261.019531 138.082031 C 260.683594 137.996094 260.34375 137.953125 259.996094 137.953125 C 259.648438 137.953125 259.304688 137.996094 258.96875 138.082031 C 258.632812 138.171875 258.3125 138.300781 258.011719 138.46875 C 257.707031 138.640625 257.429688 138.84375 257.179688 139.085938 C 256.929688 139.328125 256.714844 139.59375 256.53125 139.890625 L 249.21875 151.722656 L 245.765625 152.054688 L 236.28125 141.875 C 236.046875 141.621094 235.78125 141.402344 235.488281 141.214844 C 235.195312 141.027344 234.882812 140.882812 234.554688 140.777344 C 234.222656 140.667969 233.882812 140.605469 233.539062 140.585938 C 233.191406 140.566406 232.847656 140.589844 232.507812 140.660156 C 232.167969 140.726562 231.84375 140.835938 231.53125 140.988281 C 231.21875 141.140625 230.929688 141.328125 230.667969 141.554688 C 230.402344 141.78125 230.171875 142.035156 229.972656 142.320312 C 229.777344 142.605469 229.617188 142.910156 229.496094 143.238281 L 224.636719 156.21875 L 221.289062 157.230469 L 210.03125 149.128906 C 209.75 148.929688 209.449219 148.765625 209.125 148.644531 C 208.800781 148.519531 208.46875 148.4375 208.125 148.398438 C 207.777344 148.359375 207.4375 148.363281 207.09375 148.414062 C 206.75 148.460938 206.417969 148.550781 206.097656 148.683594 C 205.777344 148.816406 205.480469 148.988281 205.203125 149.195312 C 204.929688 149.40625 204.683594 149.644531 204.464844 149.914062 C 204.25 150.1875 204.074219 150.480469 203.933594 150.796875 C 203.789062 151.113281 203.691406 151.441406 203.632812 151.78125 L 201.402344 165.484375 C 200.371094 166.011719 199.34375 166.5625 198.328125 167.125 L 185.695312 161.375 C 185.382812 161.230469 185.054688 161.125 184.710938 161.066406 C 184.371094 161.003906 184.027344 160.988281 183.679688 161.015625 C 183.332031 161.042969 182.996094 161.117188 182.667969 161.230469 C 182.339844 161.34375 182.03125 161.496094 181.746094 161.691406 C 181.457031 161.882812 181.195312 162.109375 180.964844 162.371094 C 180.734375 162.628906 180.542969 162.914062 180.382812 163.222656 C 180.226562 163.53125 180.109375 163.855469 180.035156 164.195312 C 179.960938 164.535156 179.929688 164.878906 179.945312 165.222656 L 180.425781 179.125 C 179.519531 179.839844 178.628906 180.570312 177.75 181.320312 L 164.214844 178.125 C 163.875 178.046875 163.535156 178.011719 163.1875 178.019531 C 162.84375 178.027344 162.503906 178.078125 162.167969 178.175781 C 161.835938 178.269531 161.519531 178.40625 161.21875 178.582031 C 160.921875 178.757812 160.648438 178.964844 160.40625 179.210938 C 160.160156 179.457031 159.949219 179.730469 159.773438 180.027344 C 159.597656 180.324219 159.460938 180.640625 159.367188 180.976562 C 159.273438 181.308594 159.222656 181.648438 159.210938 181.996094 C 159.203125 182.339844 159.238281 182.683594 159.320312 183.019531 L 162.5 196.554688 L 160.316406 199.222656 L 146.417969 198.726562 C 146.070312 198.714844 145.726562 198.746094 145.390625 198.820312 C 145.050781 198.894531 144.726562 199.011719 144.417969 199.167969 C 144.105469 199.324219 143.824219 199.519531 143.5625 199.75 C 143.304688 199.980469 143.078125 200.238281 142.882812 200.527344 C 142.691406 200.816406 142.535156 201.125 142.421875 201.453125 C 142.308594 201.78125 142.238281 202.117188 142.210938 202.460938 C 142.183594 202.808594 142.199219 203.152344 142.257812 203.496094 C 142.320312 203.835938 142.421875 204.164062 142.566406 204.480469 L 148.320312 217.125 C 147.753906 218.140625 147.207031 219.164062 146.675781 220.199219 L 132.988281 222.429688 C 132.648438 222.488281 132.320312 222.585938 132.003906 222.726562 C 131.6875 222.867188 131.394531 223.046875 131.125 223.261719 C 130.855469 223.476562 130.617188 223.722656 130.410156 224 C 130.199219 224.273438 130.03125 224.570312 129.898438 224.890625 C 129.765625 225.210938 129.675781 225.539062 129.625 225.882812 C 129.578125 226.222656 129.570312 226.566406 129.609375 226.910156 C 129.648438 227.253906 129.730469 227.585938 129.851562 227.910156 C 129.972656 228.230469 130.136719 228.535156 130.335938 228.816406 L 138.433594 240.0625 L 137.414062 243.417969 L 124.429688 248.28125 C 124.105469 248.402344 123.804688 248.5625 123.519531 248.761719 C 123.238281 248.960938 122.984375 249.195312 122.761719 249.457031 C 122.539062 249.722656 122.351562 250.007812 122.199219 250.320312 C 122.050781 250.632812 121.941406 250.957031 121.871094 251.296875 C 121.804688 251.632812 121.78125 251.976562 121.800781 252.320312 C 121.816406 252.667969 121.878906 253.003906 121.984375 253.335938 C 122.089844 253.664062 122.234375 253.976562 122.417969 254.269531 C 122.601562 254.5625 122.816406 254.828125 123.066406 255.066406 L 133.234375 264.539062 C 133.105469 265.6875 132.996094 266.835938 132.90625 267.988281 L 121.074219 275.304688 C 120.773438 275.484375 120.503906 275.699219 120.257812 275.945312 C 120.015625 276.195312 119.808594 276.472656 119.636719 276.777344 C 119.464844 277.078125 119.332031 277.398438 119.246094 277.738281 C 119.15625 278.074219 119.113281 278.417969 119.113281 278.765625 C 119.113281 279.113281 119.15625 279.457031 119.246094 279.796875 C 119.332031 280.132812 119.464844 280.453125 119.636719 280.757812 C 119.808594 281.058594 120.015625 281.335938 120.257812 281.585938 C 120.503906 281.835938 120.773438 282.050781 121.074219 282.230469 L 132.90625 289.542969 C 133 290.695312 133.109375 291.84375 133.234375 292.996094 L 123.066406 302.46875 C 122.8125 302.703125 122.59375 302.96875 122.40625 303.261719 C 122.222656 303.554688 122.074219 303.867188 121.96875 304.195312 C 121.863281 304.527344 121.800781 304.863281 121.78125 305.210938 C 121.757812 305.558594 121.785156 305.902344 121.851562 306.242188 C 121.921875 306.582031 122.03125 306.90625 122.183594 307.21875 C 122.335938 307.53125 122.523438 307.820312 122.75 308.082031 C 122.972656 308.347656 123.230469 308.578125 123.515625 308.777344 C 123.800781 308.972656 124.105469 309.132812 124.429688 309.253906 L 137.414062 314.125 C 137.742188 315.253906 138.082031 316.367188 138.433594 317.472656 L 130.335938 328.730469 C 130.128906 329.011719 129.964844 329.3125 129.839844 329.636719 C 129.710938 329.960938 129.628906 330.292969 129.585938 330.640625 C 129.546875 330.984375 129.550781 331.328125 129.597656 331.671875 C 129.648438 332.015625 129.738281 332.351562 129.871094 332.671875 C 130.007812 332.992188 130.179688 333.289062 130.390625 333.566406 C 130.601562 333.84375 130.84375 334.089844 131.117188 334.300781 C 131.390625 334.515625 131.6875 334.691406 132.003906 334.828125 C 132.324219 334.96875 132.65625 335.0625 133 335.113281 L 146.6875 337.34375 C 147.226562 338.378906 147.777344 339.402344 148.332031 340.421875 L 142.578125 353.050781 C 142.433594 353.367188 142.332031 353.695312 142.269531 354.039062 C 142.210938 354.378906 142.195312 354.722656 142.222656 355.070312 C 142.25 355.417969 142.320312 355.753906 142.433594 356.082031 C 142.546875 356.410156 142.703125 356.71875 142.894531 357.003906 C 143.089844 357.292969 143.316406 357.554688 143.574219 357.785156 C 143.835938 358.015625 144.117188 358.207031 144.429688 358.367188 C 144.738281 358.523438 145.0625 358.640625 145.402344 358.714844 C 145.738281 358.789062 146.082031 358.816406 146.429688 358.804688 L 160.316406 358.324219 C 161.042969 359.222656 161.777344 360.113281 162.511719 360.988281 L 159.34375 374.535156 C 159.261719 374.871094 159.226562 375.214844 159.234375 375.5625 C 159.238281 375.90625 159.289062 376.246094 159.382812 376.582031 C 159.480469 376.914062 159.613281 377.230469 159.789062 377.53125 C 159.964844 377.828125 160.171875 378.101562 160.417969 378.347656 C 160.664062 378.589844 160.933594 378.800781 161.234375 378.976562 C 161.53125 379.152344 161.847656 379.289062 162.179688 379.382812 C 162.515625 379.480469 162.855469 379.53125 163.199219 379.539062 C 163.546875 379.546875 163.890625 379.511719 164.226562 379.429688 L 177.761719 376.238281 C 178.644531 376.988281 179.539062 377.71875 180.4375 378.433594 L 179.957031 392.332031 C 179.941406 392.679688 179.96875 393.023438 180.042969 393.363281 C 180.117188 393.703125 180.230469 394.027344 180.386719 394.339844 C 180.542969 394.648438 180.738281 394.933594 180.96875 395.195312 C 181.199219 395.457031 181.460938 395.683594 181.75 395.875 C 182.039062 396.066406 182.347656 396.222656 182.675781 396.335938 C 183.003906 396.449219 183.34375 396.515625 183.691406 396.542969 C 184.035156 396.570312 184.382812 396.550781 184.722656 396.488281 C 185.066406 396.425781 185.394531 396.320312 185.707031 396.171875 L 198.339844 390.417969 C 199.359375 390.988281 200.382812 391.539062 201.414062 392.0625 L 203.644531 405.761719 C 203.703125 406.105469 203.800781 406.433594 203.941406 406.75 C 204.082031 407.066406 204.257812 407.363281 204.476562 407.632812 C 204.691406 407.90625 204.9375 408.144531 205.210938 408.355469 C 205.488281 408.5625 205.785156 408.734375 206.105469 408.867188 C 206.425781 409 206.757812 409.09375 207.101562 409.140625 C 207.445312 409.191406 207.789062 409.195312 208.132812 409.15625 C 208.476562 409.117188 208.8125 409.035156 209.136719 408.914062 C 209.457031 408.789062 209.761719 408.628906 210.042969 408.425781 L 221.300781 400.328125 C 222.410156 400.679688 223.527344 401.019531 224.648438 401.335938 L 229.507812 414.332031 C 229.628906 414.65625 229.785156 414.964844 229.984375 415.25 C 230.183594 415.535156 230.414062 415.789062 230.675781 416.015625 C 230.941406 416.242188 231.230469 416.429688 231.542969 416.582031 C 231.855469 416.734375 232.179688 416.84375 232.519531 416.914062 C 232.863281 416.980469 233.207031 417.003906 233.554688 416.984375 C 233.898438 416.960938 234.238281 416.898438 234.570312 416.789062 C 234.898438 416.683594 235.210938 416.535156 235.503906 416.347656 C 235.792969 416.160156 236.058594 415.9375 236.292969 415.679688 L 245.777344 405.527344 L 249.230469 405.878906 L 256.542969 417.6875 C 256.726562 417.984375 256.941406 418.25 257.195312 418.492188 C 257.445312 418.730469 257.722656 418.933594 258.023438 419.101562 C 258.328125 419.273438 258.648438 419.398438 258.984375 419.488281 C 259.320312 419.574219 259.660156 419.617188 260.007812 419.617188 C 260.351562 419.617188 260.695312 419.574219 261.03125 419.488281 C 261.367188 419.398438 261.683594 419.273438 261.988281 419.101562 C 262.292969 418.933594 262.570312 418.730469 262.820312 418.492188 C 263.070312 418.25 263.285156 417.984375 263.46875 417.6875 L 270.785156 405.867188 C 271.941406 405.765625 273.09375 405.648438 274.234375 405.515625 L 283.707031 415.679688 C 283.945312 415.933594 284.210938 416.148438 284.503906 416.332031 C 284.796875 416.519531 285.105469 416.664062 285.4375 416.765625 C 285.765625 416.871094 286.101562 416.933594 286.449219 416.953125 C 286.792969 416.972656 287.136719 416.949219 287.472656 416.882812 C 287.8125 416.8125 288.136719 416.707031 288.449219 416.554688 C 288.761719 416.40625 289.046875 416.21875 289.3125 415.996094 C 289.578125 415.773438 289.808594 415.519531 290.007812 415.238281 C 290.207031 414.957031 290.371094 414.652344 290.492188 414.332031 L 295.351562 401.335938 C 296.472656 401.015625 297.589844 400.671875 298.699219 400.316406 L 309.957031 408.414062 C 310.238281 408.621094 310.539062 408.789062 310.863281 408.914062 C 311.1875 409.042969 311.523438 409.128906 311.867188 409.167969 C 312.214844 409.210938 312.558594 409.207031 312.902344 409.160156 C 313.25 409.113281 313.582031 409.023438 313.902344 408.890625 C 314.222656 408.757812 314.523438 408.585938 314.800781 408.375 C 315.078125 408.164062 315.324219 407.921875 315.539062 407.648438 C 315.753906 407.375 315.929688 407.078125 316.070312 406.757812 C 316.207031 406.4375 316.300781 406.105469 316.355469 405.761719 L 318.585938 392.074219 L 321.660156 390.429688 L 334.292969 396.183594 C 334.609375 396.324219 334.9375 396.425781 335.277344 396.484375 C 335.621094 396.542969 335.964844 396.558594 336.308594 396.53125 C 336.652344 396.503906 336.988281 396.433594 337.316406 396.316406 C 337.644531 396.203125 337.953125 396.050781 338.238281 395.855469 C 338.527344 395.664062 338.785156 395.4375 339.015625 395.179688 C 339.246094 394.921875 339.441406 394.636719 339.597656 394.328125 C 339.757812 394.019531 339.875 393.695312 339.949219 393.359375 C 340.023438 393.019531 340.058594 392.679688 340.042969 392.332031 L 339.5625 378.433594 C 340.46875 377.71875 341.355469 376.988281 342.226562 376.238281 L 355.765625 379.429688 C 356.101562 379.507812 356.441406 379.542969 356.789062 379.535156 C 357.132812 379.527344 357.472656 379.476562 357.804688 379.382812 C 358.136719 379.285156 358.453125 379.152344 358.753906 378.976562 C 359.050781 378.800781 359.320312 378.59375 359.566406 378.347656 C 359.8125 378.101562 360.023438 377.832031 360.199219 377.535156 C 360.375 377.238281 360.507812 376.921875 360.605469 376.589844 C 360.699219 376.257812 360.753906 375.917969 360.761719 375.570312 C 360.769531 375.226562 360.738281 374.882812 360.660156 374.546875 L 357.464844 360.988281 C 358.210938 360.113281 358.941406 359.222656 359.660156 358.324219 L 373.558594 358.804688 C 373.910156 358.820312 374.253906 358.792969 374.59375 358.722656 C 374.933594 358.648438 375.261719 358.535156 375.570312 358.378906 C 375.882812 358.222656 376.167969 358.027344 376.429688 357.796875 C 376.691406 357.566406 376.917969 357.308594 377.113281 357.015625 C 377.304688 356.726562 377.460938 356.417969 377.574219 356.089844 C 377.6875 355.761719 377.757812 355.421875 377.785156 355.074219 C 377.808594 354.726562 377.792969 354.382812 377.726562 354.039062 C 377.664062 353.695312 377.558594 353.367188 377.410156 353.050781 L 371.660156 340.421875 C 372.222656 339.402344 372.773438 338.378906 373.3125 337.34375 L 387 335.113281 C 387.34375 335.058594 387.671875 334.957031 387.984375 334.816406 C 388.300781 334.675781 388.59375 334.496094 388.863281 334.28125 C 389.132812 334.066406 389.375 333.820312 389.582031 333.546875 C 389.789062 333.269531 389.960938 332.972656 390.09375 332.65625 C 390.222656 332.335938 390.316406 332.003906 390.363281 331.664062 C 390.414062 331.320312 390.417969 330.976562 390.378906 330.636719 C 390.339844 330.292969 390.261719 329.957031 390.136719 329.636719 C 390.015625 329.3125 389.855469 329.011719 389.65625 328.730469 L 381.554688 317.472656 L 382.574219 314.125 L 395.558594 309.265625 C 395.886719 309.144531 396.191406 308.988281 396.480469 308.789062 C 396.765625 308.589844 397.019531 308.359375 397.246094 308.09375 C 397.472656 307.832031 397.664062 307.542969 397.816406 307.230469 C 397.96875 306.917969 398.078125 306.589844 398.148438 306.25 C 398.214844 305.90625 398.238281 305.5625 398.21875 305.214844 C 398.199219 304.867188 398.136719 304.527344 398.027344 304.199219 C 397.921875 303.867188 397.773438 303.554688 397.585938 303.261719 C 397.398438 302.96875 397.175781 302.703125 396.921875 302.46875 L 386.753906 292.996094 C 386.878906 291.84375 386.988281 290.695312 387.085938 289.542969 L 398.917969 282.21875 C 399.214844 282.039062 399.484375 281.824219 399.726562 281.574219 C 399.96875 281.324219 400.175781 281.046875 400.347656 280.746094 C 400.519531 280.441406 400.648438 280.125 400.734375 279.785156 C 400.824219 279.449219 400.867188 279.109375 400.867188 278.761719 C 400.867188 278.414062 400.824219 278.070312 400.734375 277.734375 C 400.648438 277.398438 400.519531 277.078125 400.347656 276.777344 C 400.175781 276.472656 399.96875 276.195312 399.726562 275.945312 C 399.484375 275.699219 399.214844 275.484375 398.917969 275.304688 Z M 319.78125 373.386719 C 319.253906 373.257812 318.742188 373.085938 318.25 372.859375 C 317.753906 372.636719 317.289062 372.367188 316.847656 372.050781 C 316.40625 371.734375 315.996094 371.378906 315.625 370.984375 C 315.25 370.589844 314.921875 370.164062 314.628906 369.707031 C 314.339844 369.246094 314.097656 368.765625 313.902344 368.257812 C 313.707031 367.753906 313.558594 367.234375 313.464844 366.699219 C 313.371094 366.164062 313.328125 365.625 313.335938 365.082031 C 313.34375 364.539062 313.40625 364.003906 313.519531 363.472656 C 313.632812 362.941406 313.796875 362.429688 314.011719 361.929688 C 314.226562 361.429688 314.484375 360.957031 314.789062 360.507812 C 315.097656 360.058594 315.441406 359.644531 315.828125 359.265625 C 316.214844 358.882812 316.632812 358.542969 317.085938 358.242188 C 317.539062 357.941406 318.015625 357.6875 318.515625 357.480469 C 319.019531 357.273438 319.535156 357.117188 320.066406 357.011719 C 320.597656 356.90625 321.136719 356.851562 321.679688 356.847656 C 322.222656 356.84375 322.761719 356.894531 323.292969 356.996094 C 323.835938 357.105469 324.367188 357.269531 324.878906 357.480469 C 325.390625 357.695312 325.875 357.957031 326.335938 358.269531 C 326.796875 358.582031 327.21875 358.933594 327.609375 359.328125 C 328 359.722656 328.347656 360.152344 328.652344 360.617188 C 328.957031 361.082031 329.210938 361.570312 329.417969 362.085938 C 329.625 362.601562 329.78125 363.132812 329.882812 363.679688 C 329.984375 364.222656 330.03125 364.773438 330.023438 365.328125 C 330.015625 365.882812 329.953125 366.433594 329.835938 366.976562 C 329.71875 367.519531 329.550781 368.042969 329.332031 368.554688 C 329.109375 369.0625 328.839844 369.546875 328.523438 370 C 328.207031 370.457031 327.847656 370.875 327.449219 371.261719 C 327.046875 371.644531 326.613281 371.988281 326.144531 372.285156 C 325.675781 372.582031 325.183594 372.832031 324.664062 373.03125 C 324.148438 373.234375 323.613281 373.378906 323.066406 373.472656 C 322.519531 373.570312 321.96875 373.609375 321.414062 373.59375 C 320.859375 373.578125 320.3125 373.507812 319.769531 373.386719 Z M 315.769531 346.21875 C 315.277344 346.117188 314.78125 346.058594 314.28125 346.054688 C 313.78125 346.046875 313.285156 346.089844 312.792969 346.179688 C 312.300781 346.269531 311.820312 346.410156 311.355469 346.59375 C 310.890625 346.78125 310.449219 347.007812 310.027344 347.28125 C 309.605469 347.554688 309.21875 347.863281 308.859375 348.214844 C 308.5 348.5625 308.179688 348.945312 307.894531 349.355469 C 307.609375 349.769531 307.371094 350.207031 307.171875 350.664062 C 306.972656 351.125 306.820312 351.601562 306.71875 352.089844 L 302.515625 371.683594 C 295.84375 374.714844 288.925781 377.003906 281.765625 378.546875 C 274.601562 380.089844 267.355469 380.855469 260.03125 380.839844 C 252.539062 380.855469 245.132812 380.054688 237.816406 378.441406 C 230.5 376.828125 223.445312 374.4375 216.652344 371.273438 L 212.449219 351.691406 C 212.347656 351.199219 212.195312 350.726562 211.996094 350.265625 C 211.796875 349.804688 211.558594 349.367188 211.273438 348.953125 C 210.988281 348.542969 210.667969 348.160156 210.308594 347.808594 C 209.945312 347.460938 209.558594 347.148438 209.136719 346.878906 C 208.714844 346.605469 208.273438 346.375 207.804688 346.191406 C 207.339844 346.003906 206.859375 345.867188 206.367188 345.777344 C 205.875 345.6875 205.375 345.644531 204.875 345.652344 C 204.375 345.660156 203.878906 345.714844 203.386719 345.820312 L 186.097656 349.542969 C 182.886719 346.222656 179.910156 342.710938 177.164062 339 L 261.296875 339 C 262.25 339 262.894531 338.835938 262.894531 337.96875 L 262.894531 308.195312 C 262.894531 307.328125 262.261719 307.164062 261.296875 307.164062 L 236.691406 307.164062 L 236.691406 288.285156 L 263.316406 288.285156 C 265.734375 288.285156 276.300781 288.980469 279.667969 302.480469 C 280.726562 306.625 283.050781 320.136719 284.648438 324.46875 C 286.21875 329.316406 292.664062 339 299.53125 339 L 341.464844 339 C 341.976562 338.984375 342.484375 338.933594 342.992188 338.847656 C 340.070312 342.796875 336.886719 346.519531 333.449219 350.023438 Z M 199.386719 372.984375 C 198.84375 373.109375 198.296875 373.179688 197.742188 373.195312 C 197.1875 373.210938 196.636719 373.167969 196.089844 373.074219 C 195.542969 372.980469 195.007812 372.832031 194.492188 372.632812 C 193.972656 372.433594 193.480469 372.183594 193.011719 371.886719 C 192.542969 371.585938 192.109375 371.246094 191.710938 370.863281 C 191.308594 370.476562 190.949219 370.058594 190.632812 369.601562 C 190.316406 369.144531 190.046875 368.664062 189.824219 368.15625 C 189.605469 367.644531 189.4375 367.121094 189.320312 366.578125 C 189.203125 366.035156 189.140625 365.484375 189.132812 364.929688 C 189.125 364.375 189.171875 363.824219 189.273438 363.277344 C 189.375 362.734375 189.53125 362.203125 189.738281 361.6875 C 189.945312 361.171875 190.199219 360.683594 190.503906 360.21875 C 190.808594 359.753906 191.15625 359.324219 191.546875 358.929688 C 191.9375 358.535156 192.359375 358.179688 192.820312 357.871094 C 193.28125 357.558594 193.765625 357.296875 194.277344 357.082031 C 194.789062 356.867188 195.320312 356.707031 195.863281 356.597656 C 196.398438 356.492188 196.9375 356.4375 197.484375 356.433594 C 198.03125 356.433594 198.570312 356.484375 199.105469 356.585938 C 199.640625 356.691406 200.164062 356.84375 200.667969 357.050781 C 201.171875 357.253906 201.652344 357.507812 202.109375 357.804688 C 202.566406 358.105469 202.988281 358.445312 203.378906 358.828125 C 203.769531 359.210938 204.117188 359.625 204.425781 360.074219 C 204.734375 360.527344 204.996094 361 205.214844 361.503906 C 205.429688 362.003906 205.59375 362.519531 205.707031 363.054688 C 205.824219 363.585938 205.886719 364.128906 205.894531 364.671875 C 205.902344 365.21875 205.859375 365.757812 205.765625 366.296875 C 205.667969 366.832031 205.519531 367.355469 205.320312 367.863281 C 205.121094 368.371094 204.878906 368.855469 204.585938 369.316406 C 204.292969 369.777344 203.957031 370.203125 203.578125 370.601562 C 203.203125 370.996094 202.792969 371.347656 202.347656 371.664062 C 201.902344 371.980469 201.429688 372.246094 200.929688 372.46875 C 200.433594 372.691406 199.917969 372.863281 199.386719 372.984375 M 167.453125 243.535156 C 167.710938 244.042969 167.914062 244.570312 168.0625 245.117188 C 168.210938 245.667969 168.304688 246.222656 168.339844 246.789062 C 168.375 247.355469 168.355469 247.921875 168.273438 248.484375 C 168.195312 249.046875 168.0625 249.59375 167.871094 250.128906 C 167.679688 250.664062 167.4375 251.175781 167.144531 251.660156 C 166.851562 252.144531 166.511719 252.597656 166.125 253.015625 C 165.738281 253.429688 165.316406 253.804688 164.855469 254.136719 C 164.390625 254.464844 163.902344 254.746094 163.382812 254.976562 C 162.863281 255.207031 162.328125 255.382812 161.773438 255.507812 C 161.21875 255.628906 160.65625 255.691406 160.089844 255.699219 C 159.523438 255.707031 158.960938 255.660156 158.402344 255.550781 C 157.84375 255.445312 157.300781 255.285156 156.777344 255.066406 C 156.253906 254.851562 155.753906 254.585938 155.285156 254.265625 C 154.8125 253.949219 154.378906 253.585938 153.984375 253.179688 C 153.585938 252.773438 153.234375 252.332031 152.925781 251.855469 C 152.621094 251.378906 152.363281 250.875 152.15625 250.347656 C 151.957031 249.847656 151.804688 249.332031 151.699219 248.804688 C 151.597656 248.277344 151.546875 247.742188 151.546875 247.203125 C 151.546875 246.667969 151.597656 246.132812 151.699219 245.605469 C 151.804688 245.074219 151.953125 244.5625 152.15625 244.0625 C 152.359375 243.5625 152.605469 243.089844 152.898438 242.636719 C 153.191406 242.183594 153.527344 241.765625 153.898438 241.378906 C 154.273438 240.992188 154.679688 240.644531 155.121094 240.335938 C 155.5625 240.027344 156.03125 239.761719 156.523438 239.542969 C 157.015625 239.324219 157.523438 239.15625 158.046875 239.035156 C 158.570312 238.914062 159.101562 238.84375 159.640625 238.824219 C 160.179688 238.808594 160.714844 238.839844 161.246094 238.925781 C 161.777344 239.007812 162.296875 239.144531 162.800781 239.328125 C 163.308594 239.511719 163.789062 239.742188 164.25 240.023438 C 164.710938 240.300781 165.144531 240.617188 165.542969 240.980469 C 165.941406 241.339844 166.304688 241.734375 166.628906 242.164062 C 166.953125 242.59375 167.230469 243.054688 167.464844 243.535156 M 157.675781 266.792969 L 175.683594 258.785156 C 176.140625 258.582031 176.574219 258.335938 176.984375 258.046875 C 177.394531 257.757812 177.769531 257.433594 178.117188 257.070312 C 178.460938 256.707031 178.769531 256.3125 179.035156 255.890625 C 179.304688 255.464844 179.527344 255.019531 179.707031 254.550781 C 179.886719 254.085938 180.019531 253.605469 180.105469 253.109375 C 180.1875 252.617188 180.226562 252.121094 180.210938 251.617188 C 180.199219 251.117188 180.136719 250.621094 180.027344 250.132812 C 179.917969 249.644531 179.761719 249.171875 179.558594 248.714844 L 175.847656 240.320312 L 190.453125 240.320312 L 190.453125 306.082031 L 160.996094 306.082031 C 159.183594 299.699219 158 293.203125 157.4375 286.59375 C 156.875 279.980469 156.953125 273.378906 157.664062 266.78125 Z M 236.726562 260.417969 L 236.726562 241.035156 L 271.476562 241.035156 C 273.273438 241.035156 284.152344 243.113281 284.152344 251.25 C 284.152344 257.988281 275.796875 260.40625 268.941406 260.40625 Z M 363.007812 277.863281 C 363.007812 280.4375 362.914062 282.984375 362.726562 285.503906 L 352.160156 285.503906 C 351.101562 285.503906 350.667969 286.199219 350.667969 287.242188 L 350.667969 292.089844 C 350.667969 303.511719 344.234375 305.988281 338.578125 306.625 C 333.210938 307.234375 327.261719 304.382812 326.519531 301.082031 C 323.351562 283.261719 318.070312 279.449219 309.734375 272.875 C 320.089844 266.300781 330.851562 256.601562 330.851562 243.621094 C 330.851562 229.613281 321.226562 220.785156 314.6875 216.441406 C 305.496094 210.386719 295.316406 209.164062 292.582031 209.164062 L 183.3125 209.164062 C 187.0625 204.972656 191.128906 201.113281 195.511719 197.589844 C 199.894531 194.0625 204.535156 190.917969 209.433594 188.152344 C 214.332031 185.386719 219.421875 183.039062 224.703125 181.109375 C 229.988281 179.179688 235.390625 177.691406 240.917969 176.648438 L 253.808594 190.171875 C 254.15625 190.53125 254.53125 190.855469 254.941406 191.140625 C 255.351562 191.429688 255.789062 191.671875 256.246094 191.875 C 256.703125 192.074219 257.175781 192.230469 257.664062 192.335938 C 258.152344 192.445312 258.648438 192.503906 259.148438 192.515625 C 259.648438 192.527344 260.144531 192.488281 260.636719 192.402344 C 261.128906 192.316406 261.609375 192.183594 262.074219 192 C 262.542969 191.820312 262.988281 191.59375 263.410156 191.328125 C 263.832031 191.058594 264.222656 190.75 264.585938 190.40625 L 278.988281 176.636719 C 282.648438 177.324219 286.261719 178.207031 289.828125 179.285156 C 293.390625 180.363281 296.886719 181.632812 300.3125 183.089844 C 303.742188 184.550781 307.078125 186.1875 310.328125 188.007812 C 313.578125 189.828125 316.71875 191.816406 319.753906 193.980469 C 322.785156 196.140625 325.695312 198.457031 328.476562 200.933594 C 331.257812 203.410156 333.898438 206.027344 336.398438 208.789062 C 338.898438 211.550781 341.238281 214.441406 343.421875 217.457031 C 345.609375 220.472656 347.625 223.597656 349.472656 226.832031 L 339.609375 249.113281 C 339.40625 249.570312 339.25 250.046875 339.136719 250.535156 C 339.027344 251.023438 338.964844 251.519531 338.949219 252.019531 C 338.9375 252.523438 338.972656 253.019531 339.058594 253.515625 C 339.144531 254.007812 339.277344 254.492188 339.457031 254.957031 C 339.636719 255.425781 339.859375 255.875 340.128906 256.296875 C 340.394531 256.722656 340.703125 257.117188 341.046875 257.480469 C 341.394531 257.84375 341.773438 258.167969 342.179688 258.457031 C 342.589844 258.746094 343.027344 258.992188 343.484375 259.195312 L 362.480469 267.625 C 362.808594 270.992188 362.972656 274.402344 362.972656 277.863281 Z M 253.832031 165.164062 C 254.226562 164.78125 254.660156 164.4375 255.125 164.136719 C 255.585938 163.835938 256.078125 163.585938 256.589844 163.382812 C 257.105469 163.179688 257.636719 163.027344 258.179688 162.929688 C 258.722656 162.832031 259.273438 162.789062 259.824219 162.796875 C 260.378906 162.808594 260.925781 162.871094 261.464844 162.992188 C 262.003906 163.109375 262.527344 163.28125 263.035156 163.503906 C 263.539062 163.726562 264.019531 163.996094 264.472656 164.3125 C 264.925781 164.632812 265.34375 164.988281 265.726562 165.390625 C 266.105469 165.789062 266.445312 166.222656 266.742188 166.691406 C 267.035156 167.160156 267.285156 167.652344 267.480469 168.167969 C 267.679688 168.683594 267.824219 169.214844 267.917969 169.757812 C 268.011719 170.304688 268.050781 170.855469 268.035156 171.40625 C 268.019531 171.960938 267.949219 172.503906 267.824219 173.042969 C 267.699219 173.582031 267.523438 174.105469 267.296875 174.609375 C 267.070312 175.113281 266.792969 175.589844 266.472656 176.039062 C 266.148438 176.488281 265.789062 176.902344 265.382812 177.28125 C 264.980469 177.621094 264.546875 177.921875 264.085938 178.179688 C 263.625 178.4375 263.144531 178.648438 262.644531 178.816406 C 262.140625 178.984375 261.628906 179.101562 261.105469 179.175781 C 260.582031 179.246094 260.058594 179.265625 259.527344 179.238281 C 259 179.207031 258.480469 179.128906 257.96875 179.003906 C 257.457031 178.875 256.960938 178.703125 256.480469 178.480469 C 256 178.257812 255.546875 177.996094 255.113281 177.6875 C 254.683594 177.382812 254.289062 177.035156 253.921875 176.65625 C 253.558594 176.273438 253.234375 175.859375 252.945312 175.414062 C 252.660156 174.972656 252.417969 174.503906 252.21875 174.015625 C 252.019531 173.527344 251.867188 173.023438 251.765625 172.503906 C 251.664062 171.984375 251.609375 171.460938 251.605469 170.933594 C 251.601562 170.40625 251.644531 169.882812 251.742188 169.363281 C 251.835938 168.84375 251.980469 168.335938 252.167969 167.84375 C 252.359375 167.351562 252.59375 166.878906 252.875 166.433594 C 253.152344 165.984375 253.472656 165.566406 253.832031 165.175781 M 351.726562 243.949219 C 351.945312 243.445312 352.214844 242.96875 352.53125 242.519531 C 352.847656 242.070312 353.203125 241.65625 353.597656 241.277344 C 353.996094 240.898438 354.425781 240.5625 354.890625 240.269531 C 355.355469 239.976562 355.84375 239.730469 356.355469 239.53125 C 356.867188 239.335938 357.394531 239.191406 357.933594 239.097656 C 358.472656 239.003906 359.019531 238.964844 359.566406 238.976562 C 360.117188 238.992188 360.660156 239.058594 361.195312 239.179688 C 361.730469 239.300781 362.246094 239.472656 362.75 239.699219 C 363.253906 239.917969 363.730469 240.1875 364.179688 240.503906 C 364.632812 240.820312 365.050781 241.175781 365.429688 241.574219 C 365.8125 241.972656 366.148438 242.402344 366.445312 242.867188 C 366.742188 243.332031 366.988281 243.820312 367.1875 244.335938 C 367.386719 244.847656 367.535156 245.375 367.628906 245.917969 C 367.726562 246.460938 367.765625 247.007812 367.753906 247.558594 C 367.742188 248.109375 367.675781 248.652344 367.558594 249.191406 C 367.4375 249.730469 367.265625 250.25 367.042969 250.753906 C 366.820312 251.257812 366.550781 251.734375 366.234375 252.1875 C 365.917969 252.636719 365.5625 253.050781 365.164062 253.433594 C 364.765625 253.8125 364.335938 254.152344 363.871094 254.445312 C 363.40625 254.742188 362.914062 254.988281 362.402344 255.1875 C 361.886719 255.386719 361.359375 255.53125 360.816406 255.628906 C 360.273438 255.722656 359.726562 255.761719 359.179688 255.75 C 358.628906 255.738281 358.082031 255.671875 357.546875 255.550781 C 357.007812 255.429688 356.488281 255.257812 355.984375 255.035156 C 355.480469 254.8125 355.003906 254.542969 354.550781 254.226562 C 354.101562 253.910156 353.6875 253.550781 353.308594 253.152344 C 352.925781 252.753906 352.589844 252.324219 352.292969 251.859375 C 352 251.390625 351.753906 250.902344 351.554688 250.390625 C 351.355469 249.875 351.210938 249.347656 351.117188 248.804688 C 351.023438 248.261719 350.980469 247.714844 350.996094 247.164062 C 351.007812 246.613281 351.078125 246.070312 351.199219 245.53125 C 351.316406 244.996094 351.488281 244.476562 351.714844 243.972656 Z M 351.726562 243.949219 " fill-opacity="1" fill-rule="nonzero"/></g><g fill="#444444" fill-opacity="1"><g transform="translate(400.871535, 337.97758)"><g><path d="M 46.484375 1.9375 C 35.066406 1.9375 26.644531 -1.175781 21.21875 -7.40625 C 15.789062 -13.632812 13.078125 -22.578125 13.078125 -34.234375 L 13.078125 -101.53125 L 38.5625 -101.53125 L 38.5625 -37.46875 C 38.5625 -31.269531 39.894531 -26.742188 42.5625 -23.890625 C 45.238281 -21.035156 49.367188 -19.609375 54.953125 -19.609375 C 62.003906 -19.609375 67.492188 -21.921875 71.421875 -26.546875 C 75.359375 -31.179688 77.328125 -38.472656 77.328125 -48.421875 L 77.328125 -101.53125 L 102.8125 -101.53125 L 102.8125 0 L 78.328125 0 L 78.328125 -14.90625 L 76.40625 -15.375 C 73.144531 -9.539062 69.164062 -5.195312 64.46875 -2.34375 C 59.78125 0.507812 53.785156 1.9375 46.484375 1.9375 Z M 46.484375 1.9375 "/></g></g></g><g fill="#444444" fill-opacity="1"><g transform="translate(518.323629, 337.97758)"><g><path d="M 47.5 1.9375 C 40.5625 1.9375 34.207031 1.125 28.4375 -0.5 C 22.675781 -2.132812 17.753906 -4.375 13.671875 -7.21875 C 9.585938 -10.070312 6.566406 -13.34375 4.609375 -17.03125 L 18.78125 -32.3125 L 20.71875 -32.3125 C 24.09375 -27.769531 28.078125 -24.363281 32.671875 -22.09375 C 37.273438 -19.820312 42.28125 -18.6875 47.6875 -18.6875 C 52.65625 -18.6875 56.394531 -19.578125 58.90625 -21.359375 C 61.425781 -23.140625 62.6875 -25.6875 62.6875 -29 C 62.6875 -31.570312 61.78125 -33.734375 59.96875 -35.484375 C 58.15625 -37.234375 55.222656 -38.597656 51.171875 -39.578125 L 37.734375 -42.796875 C 27.671875 -45.191406 20.320312 -48.859375 15.6875 -53.796875 C 11.0625 -58.742188 8.75 -65.019531 8.75 -72.625 C 8.75 -78.945312 10.359375 -84.4375 13.578125 -89.09375 C 16.796875 -93.757812 21.332031 -97.320312 27.1875 -99.78125 C 33.050781 -102.238281 39.882812 -103.46875 47.6875 -103.46875 C 56.820312 -103.46875 64.394531 -102.144531 70.40625 -99.5 C 76.425781 -96.863281 81.125 -93.335938 84.5 -88.921875 L 70.875 -74.1875 L 69.03125 -74.1875 C 66.207031 -77.382812 63.03125 -79.71875 59.5 -81.1875 C 55.976562 -82.65625 52.039062 -83.390625 47.6875 -83.390625 C 37.613281 -83.390625 32.578125 -80.257812 32.578125 -74 C 32.578125 -71.363281 33.515625 -69.21875 35.390625 -67.5625 C 37.265625 -65.90625 40.5625 -64.554688 45.28125 -63.515625 L 57.8125 -60.75 C 68.113281 -58.539062 75.640625 -54.992188 80.390625 -50.109375 C 85.148438 -45.234375 87.53125 -38.6875 87.53125 -30.46875 C 87.53125 -24.019531 85.9375 -18.34375 82.75 -13.4375 C 79.5625 -8.53125 74.957031 -4.738281 68.9375 -2.0625 C 62.925781 0.601562 55.78125 1.9375 47.5 1.9375 Z M 47.5 1.9375 "/></g></g></g><g fill="#444444" fill-opacity="1"><g transform="translate(611.935525, 337.97758)"><g><path d="M 70.046875 -24.203125 L 76.671875 -5.34375 C 73.910156 -3.070312 70.441406 -1.289062 66.265625 0 C 62.097656 1.289062 57.375 1.9375 52.09375 1.9375 C 41.113281 1.9375 32.769531 -1.050781 27.0625 -7.03125 C 21.351562 -13.019531 18.5 -21.722656 18.5 -33.140625 L 18.5 -81.375 L 3.03125 -81.375 L 3.03125 -101.625 L 18.5 -101.625 L 18.5 -121.40625 L 44 -125.546875 L 44 -101.625 L 72.8125 -101.625 L 72.8125 -81.375 L 44 -81.375 L 44 -34.984375 C 44 -29.953125 45.039062 -26.285156 47.125 -23.984375 C 49.21875 -21.679688 52.253906 -20.53125 56.234375 -20.53125 C 60.773438 -20.53125 64.734375 -21.753906 68.109375 -24.203125 Z M 70.046875 -24.203125 "/></g></g></g></svg>