<svg xmlns="http://www.w3.org/2000/svg" xmlns:xlink="http://www.w3.org/1999/xlink" width="1080" zoomAndPan="magnify" viewBox="0 0 810 530.249967" height="707" preserveAspectRatio="xMidYMid meet" version="1.0"><defs><clipPath id="efb8af7422"><path d="M 0.578125 0 L 809.421875 0 L 809.421875 529.242188 L 0.578125 529.242188 Z M 0.578125 0 " clip-rule="nonzero"/></clipPath></defs><g clip-path="url(#efb8af7422)"><path stroke-linecap="butt" transform="matrix(0.748941, 0, 0, 0.748941, 0.57801, -0.0000199718)" fill="none" stroke-linejoin="miter" d="M 0.00015329 0.0000266667 L 1079.984 0.0000266667 L 1079.984 706.654449 L 0.00015329 706.654449 Z M 0.00015329 0.0000266667 " stroke="#444444" stroke-width="10" stroke-opacity="1" stroke-miterlimit="4"/></g><path fill="#444444" d="M 415.65625 341.320312 C 400.761719 337.902344 386.601562 326.183594 381.351562 312.628906 C 379.273438 307.378906 378.539062 303.101562 378.539062 294.554688 C 378.417969 284.175781 378.660156 282.953125 383.058594 274.285156 C 388.304688 263.660156 395.023438 256.945312 405.769531 251.699219 C 411.992188 248.519531 413.824219 248.28125 426.648438 248.28125 C 439.957031 248.28125 441.175781 248.519531 448.628906 252.1875 C 453.019531 254.382812 458.027344 257.679688 459.859375 259.511719 L 463.035156 262.929688 L 456.683594 270.136719 L 450.214844 277.339844 L 445.207031 273.554688 C 430.675781 263.054688 411.019531 266.960938 403.570312 281.734375 C 393.433594 301.515625 408.089844 323.976562 429.578125 321.78125 C 436.417969 321.054688 442.640625 318.609375 446.796875 314.699219 C 449.359375 312.503906 449.480469 312.503906 456.441406 319.582031 L 463.402344 326.667969 L 457.78125 331.671875 C 447.648438 340.585938 430.1875 344.617188 415.65625 341.320312 M 487.699219 341.078125 C 478.296875 338.394531 472.4375 333.996094 468.773438 326.667969 C 463.40625 315.679688 465.234375 303.835938 473.65625 295.773438 C 480.003906 289.671875 486.359375 287.347656 503.816406 284.910156 C 510.898438 283.929688 518.226562 282.464844 520.058594 281.613281 C 526.160156 278.804688 525.425781 270.5 518.714844 267.691406 C 510.046875 264.027344 497.46875 266.960938 489.894531 274.164062 L 486.597656 277.335938 L 482.082031 273.796875 C 471.703125 265.617188 472.558594 266.71875 474.878906 263.175781 C 477.320312 259.390625 482.816406 255.113281 490.140625 251.332031 C 494.417969 249.011719 498.203125 248.28125 507.234375 247.914062 C 520.542969 247.300781 526.285156 248.523438 534.464844 253.769531 C 538.863281 256.582031 541.058594 259.023438 543.257812 263.90625 C 546.1875 270.015625 546.308594 271.355469 546.308594 294.800781 C 546.308594 320.558594 546.429688 321.414062 551.804688 322.394531 C 553.875 322.761719 554.246094 323.859375 554.609375 330.085938 C 554.976562 340.21875 554.125 341.078125 544.476562 341.078125 C 536.785156 341.078125 536.171875 340.832031 532.753906 337.046875 L 529.089844 332.898438 L 524.574219 335.828125 C 518.226562 340.097656 513.34375 341.445312 503.207031 342.296875 C 497.226562 342.664062 492.21875 342.296875 487.699219 341.074219 Z M 512.363281 321.910156 C 514.929688 321.175781 518.714844 318.609375 520.664062 316.410156 C 523.84375 312.867188 524.328125 311.28125 524.328125 305.054688 L 524.328125 297.851562 L 520.058594 299.6875 C 517.738281 300.535156 514.683594 301.390625 513.21875 301.390625 C 505.769531 301.390625 494.660156 304.320312 491.242188 307.132812 C 485.5 312.015625 487.457031 319.707031 495.027344 322.519531 C 498.324219 323.738281 507.480469 323.371094 512.363281 321.90625 Z M 576.464844 341.199219 C 573.050781 340.21875 568.898438 337.902344 566.453125 335.582031 C 558.765625 328.132812 558.519531 326.421875 558.519531 268.183594 L 558.519531 215.921875 L 580.375 215.921875 L 581.109375 317.511719 L 584.039062 319.828125 C 585.871094 321.292969 588.800781 322.152344 592.21875 322.152344 L 597.59375 322.152344 L 597.59375 341.445312 L 593.804688 342.175781 C 588.316406 343.277344 583.1875 342.910156 576.464844 341.199219 M 626.042969 341.683594 C 611.144531 338.632812 601.988281 328.375 601.988281 314.699219 C 602.109375 305.054688 606.140625 297.242188 613.34375 292.722656 C 620.183594 288.328125 624.210938 287.109375 639.839844 284.90625 C 654.980469 282.710938 658.277344 281.609375 660.109375 277.703125 C 661.210938 275.265625 661.089844 274.039062 659.378906 271.476562 C 654.128906 263.542969 638.863281 264.152344 627.382812 272.820312 L 621.769531 277.097656 L 615.054688 271.351562 L 608.214844 265.492188 L 615.054688 259.144531 C 624.210938 250.597656 632.148438 247.667969 646.308594 247.667969 C 658.765625 247.667969 665.972656 249.738281 672.566406 255.234375 C 680.867188 262.074219 681.84375 265.738281 681.84375 292.476562 C 681.84375 318.242188 682.578125 322.152344 687.339844 322.152344 C 690.265625 322.152344 690.390625 322.394531 690.390625 330.699219 C 690.390625 340.34375 689.292969 341.683594 680.621094 341.683594 C 674.882812 341.683594 669.390625 339.246094 666.824219 335.582031 C 665.113281 333.019531 664.992188 333.019531 659.132812 336.679688 C 650.585938 341.929688 637.519531 343.882812 626.042969 341.683594 M 652.296875 320.441406 C 657.792969 317.632812 659.984375 313.601562 660.722656 304.933594 C 661.449219 297.726562 661.332031 297.488281 658.882812 298.828125 C 657.546875 299.558594 651.195312 300.902344 644.851562 301.882812 C 638.507812 302.859375 631.539062 304.566406 629.460938 305.667969 C 621.523438 309.695312 621.644531 317.996094 629.707031 321.660156 C 634.589844 323.859375 646.800781 323.246094 652.296875 320.441406 M 314.679688 340.464844 C 309.183594 339.242188 298.5625 333.75 294.535156 330.207031 C 290.257812 326.421875 282.566406 316.289062 282.566406 314.457031 C 282.566406 313.601562 285.128906 311.402344 288.425781 309.449219 C 291.160156 307.648438 293.929688 305.902344 296.730469 304.203125 C 298.929688 302.734375 299.539062 303.101562 302.960938 307.984375 C 308.816406 316.414062 316.269531 320.074219 328.234375 320.6875 C 340.078125 321.175781 345.453125 318.976562 348.992188 311.894531 C 354.242188 301.269531 347.890625 293.824219 326.402344 285.523438 C 310.894531 279.539062 299.539062 272.453125 295.386719 266.105469 C 289.40625 257.066406 288.671875 242.660156 293.554688 233.015625 C 296.488281 227.273438 304.667969 219.949219 311.75 216.773438 C 316.144531 214.703125 319.804688 214.214844 328.964844 214.214844 C 339.097656 214.214844 341.542969 214.574219 348.136719 217.632812 C 355.21875 220.804688 366.816406 231.0625 366.816406 233.992188 C 366.816406 234.605469 363.277344 237.535156 358.761719 240.339844 L 350.824219 245.589844 L 348.988281 242.90625 C 342.277344 233.378906 319.195312 232.40625 314.3125 241.441406 C 312.242188 245.46875 312.972656 250.964844 316.023438 254.628906 C 318.953125 258.167969 320.90625 259.148438 342.394531 268.425781 C 362.910156 277.214844 370.726562 285.03125 372.925781 298.585938 C 375.976562 317.511719 366.816406 333.261719 349.355469 339.121094 C 341.542969 341.808594 323.105469 342.542969 314.679688 340.464844 M 117.726562 366.351562 L 117.726562 338.382812 L 139.09375 337.53125 C 161.320312 336.675781 177.804688 334.847656 201.976562 330.691406 C 229.453125 325.933594 256.558594 317.382812 259.363281 312.5 C 260.101562 311.277344 260.589844 320.679688 260.589844 338.875 L 260.589844 367.199219 L 257.414062 369.644531 C 253.996094 372.328125 240.804688 376.847656 225.789062 380.628906 C 202.34375 386.5 145.078125 394.1875 125.546875 394.1875 L 117.726562 394.1875 Z M 117.726562 295.527344 L 117.726562 267.570312 L 139.09375 266.839844 C 162.78125 265.859375 181.222656 263.785156 205.640625 259.265625 C 232.992188 254.136719 257.902344 245.835938 259.734375 241.320312 C 260.101562 240.460938 260.46875 252.308594 260.46875 267.691406 C 260.589844 292.113281 260.34375 296.019531 258.511719 297.972656 C 254.242188 302.734375 221.273438 311.28125 187.328125 316.53125 C 166.691406 319.707031 132.5 323.371094 122.980469 323.371094 L 117.726562 323.371094 Z M 117.726562 225.199219 L 117.726562 197.847656 L 121.515625 197.117188 C 123.585938 196.75 128.71875 196.382812 132.867188 196.382812 C 153.382812 196.382812 202.101562 189.667969 226.03125 183.566406 C 242.761719 179.167969 254.359375 174.773438 258.390625 171.109375 C 260.460938 169.277344 260.589844 170.375 260.589844 197.242188 C 260.589844 223.492188 260.46875 225.445312 258.269531 227.398438 C 254.972656 230.449219 232.378906 237.410156 214.800781 240.953125 C 186.351562 246.570312 139.09375 252.550781 122.980469 252.550781 L 117.726562 252.550781 Z M 117.726562 225.199219 " fill-opacity="1" fill-rule="nonzero"/></svg>