<svg xmlns="http://www.w3.org/2000/svg" xmlns:xlink="http://www.w3.org/1999/xlink" width="1080" zoomAndPan="magnify" viewBox="0 0 810 530.249967" height="707" preserveAspectRatio="xMidYMid meet" version="1.0"><defs><clipPath id="013e9dd09a"><path d="M 0.578125 0.25 L 809.421875 0.25 L 809.421875 529.492188 L 0.578125 529.492188 Z M 0.578125 0.25 " clip-rule="nonzero"/></clipPath><clipPath id="a8203d1b68"><path d="M 89.972656 179.226562 L 719.832031 179.226562 L 719.832031 349.984375 L 89.972656 349.984375 Z M 89.972656 179.226562 " clip-rule="nonzero"/></clipPath></defs><g clip-path="url(#013e9dd09a)"><path stroke-linecap="butt" transform="matrix(0.748941, 0, 0, 0.748941, 0.57801, 0.249627)" fill="none" stroke-linejoin="miter" d="M 0.00015329 0.000498189 L 1079.984 0.000498189 L 1079.984 706.654921 L 0.00015329 706.654921 Z M 0.00015329 0.000498189 " stroke="#444444" stroke-width="10" stroke-opacity="1" stroke-miterlimit="4"/></g><g clip-path="url(#a8203d1b68)"><path fill="#444444" d="M 423.632812 221.824219 C 442.902344 221.824219 461.820312 237.0625 461.820312 264.5625 L 461.820312 264.914062 C 461.820312 292.238281 443.078125 307.648438 423.632812 307.648438 C 409.972656 307.648438 401.390625 300.820312 395.609375 293.113281 L 395.609375 322.191406 C 395.613281 322.796875 395.554688 323.402344 395.441406 324 C 395.328125 324.597656 395.15625 325.179688 394.929688 325.746094 C 394.699219 326.308594 394.421875 326.847656 394.089844 327.359375 C 393.757812 327.871094 393.378906 328.34375 392.957031 328.78125 C 392.53125 329.21875 392.070312 329.613281 391.570312 329.960938 C 391.070312 330.308594 390.542969 330.605469 389.984375 330.847656 C 389.425781 331.09375 388.851562 331.285156 388.257812 331.417969 C 387.664062 331.550781 387.0625 331.625 386.453125 331.640625 L 386.152344 331.648438 C 381.070312 331.648438 376.867188 327.445312 376.867188 322.363281 L 376.867188 231.632812 C 376.691406 226.554688 380.894531 222.347656 385.976562 222.171875 L 386.152344 222.171875 C 386.757812 222.171875 387.363281 222.226562 387.960938 222.339844 C 388.558594 222.457031 389.140625 222.625 389.707031 222.855469 C 390.269531 223.082031 390.808594 223.359375 391.320312 223.691406 C 391.832031 224.023438 392.304688 224.402344 392.742188 224.824219 C 393.179688 225.25 393.574219 225.710938 393.921875 226.210938 C 394.269531 226.710938 394.566406 227.238281 394.808594 227.796875 C 395.054688 228.355469 395.246094 228.929688 395.378906 229.523438 C 395.511719 230.121094 395.585938 230.722656 395.605469 231.328125 L 395.609375 231.632812 L 395.609375 237.238281 C 401.738281 228.65625 410.324219 221.824219 423.632812 221.824219 M 673.058594 221.648438 C 686.160156 221.648438 694.679688 228.265625 700.792969 236.65625 L 701.085938 237.0625 L 701.085938 231.457031 L 701.089844 231.15625 C 701.105469 230.558594 701.179688 229.96875 701.304688 229.386719 C 701.433594 228.804688 701.617188 228.242188 701.851562 227.691406 C 702.085938 227.144531 702.371094 226.625 702.707031 226.132812 C 703.042969 225.636719 703.417969 225.179688 703.839844 224.757812 C 704.261719 224.335938 704.71875 223.960938 705.214844 223.625 C 705.707031 223.289062 706.226562 223.003906 706.773438 222.769531 C 707.320312 222.53125 707.886719 222.351562 708.46875 222.222656 C 709.050781 222.09375 709.640625 222.019531 710.234375 222.003906 L 710.542969 222 L 710.71875 222 C 715.871094 222.171875 720.015625 226.21875 720.007812 231.328125 L 720.003906 231.632812 L 720.003906 289.085938 C 720.003906 302.921875 716.324219 313.257812 709.492188 320.085938 C 702.136719 327.617188 690.574219 331.121094 675.6875 331.121094 C 664.652344 331.121094 653.792969 328.667969 643.808594 323.765625 C 640.65625 322.714844 638.554688 319.5625 638.554688 316.234375 C 638.730469 311.851562 642.230469 308.527344 646.609375 308.527344 C 647.835938 308.527344 648.886719 308.703125 649.9375 309.226562 C 657.644531 313.605469 666.402344 315.707031 675.160156 315.707031 C 691.101562 315.707031 700.210938 308 701.085938 293.113281 C 695.304688 300.644531 686.722656 307.476562 673.058594 307.476562 C 653.8125 307.476562 635.25 292.367188 634.882812 265.550781 L 634.875 264.738281 L 634.875 264.386719 C 634.875 236.886719 653.792969 221.648438 673.058594 221.648438 M 598.265625 222.171875 C 616.835938 222.171875 627.519531 234.609375 627.519531 253.703125 L 627.519531 298.015625 C 627.695312 303.097656 623.664062 307.125 618.585938 307.300781 L 618.234375 307.300781 C 613.15625 307.476562 608.953125 303.273438 608.777344 298.191406 L 608.777344 259.480469 C 608.777344 246.695312 602.472656 239.339844 591.085938 239.339844 C 580.226562 239.339844 572.519531 247.046875 572.519531 259.832031 L 572.519531 298.191406 C 572.519531 298.8125 572.460938 299.429688 572.34375 300.039062 C 572.222656 300.648438 572.046875 301.242188 571.808594 301.816406 C 571.570312 302.394531 571.28125 302.9375 570.9375 303.457031 C 570.589844 303.972656 570.199219 304.453125 569.757812 304.890625 C 569.320312 305.332031 568.839844 305.722656 568.324219 306.066406 C 567.808594 306.414062 567.261719 306.703125 566.6875 306.941406 C 566.109375 307.175781 565.519531 307.355469 564.910156 307.476562 C 564.296875 307.59375 563.683594 307.652344 563.058594 307.648438 C 562.4375 307.652344 561.824219 307.59375 561.210938 307.476562 C 560.601562 307.355469 560.011719 307.175781 559.433594 306.941406 C 558.859375 306.703125 558.3125 306.414062 557.796875 306.070312 C 557.277344 305.722656 556.800781 305.332031 556.359375 304.890625 C 555.921875 304.453125 555.527344 303.972656 555.183594 303.457031 C 554.839844 302.9375 554.546875 302.394531 554.3125 301.816406 C 554.074219 301.242188 553.894531 300.652344 553.777344 300.039062 C 553.65625 299.429688 553.597656 298.8125 553.601562 298.191406 L 553.777344 231.808594 C 553.601562 226.726562 557.804688 222.523438 562.882812 222.347656 L 563.058594 222.347656 C 563.667969 222.34375 564.273438 222.402344 564.871094 222.515625 C 565.46875 222.628906 566.050781 222.800781 566.617188 223.027344 C 567.179688 223.257812 567.71875 223.535156 568.230469 223.867188 C 568.742188 224.199219 569.214844 224.578125 569.652344 225 C 570.089844 225.425781 570.484375 225.886719 570.832031 226.386719 C 571.179688 226.886719 571.476562 227.414062 571.722656 227.972656 C 571.964844 228.53125 572.15625 229.105469 572.289062 229.699219 C 572.421875 230.296875 572.496094 230.898438 572.515625 231.503906 L 572.519531 231.808594 L 572.519531 235.660156 C 578.125 226.902344 587.933594 221.824219 598.265625 222.171875 M 337.632812 222 C 346.738281 222.171875 355.5 224.453125 363.554688 228.65625 C 366.359375 230.054688 368.109375 232.683594 368.109375 235.835938 C 368.109375 240.039062 364.605469 243.542969 360.402344 243.542969 L 360.226562 243.542969 C 359 243.542969 357.773438 243.191406 356.546875 242.667969 C 350.59375 239.339844 344.113281 237.414062 337.28125 237.0625 C 329.925781 237.0625 325.71875 240.566406 325.71875 245.121094 L 325.71875 245.46875 C 325.71875 251.601562 334.652344 254.050781 344.289062 257.203125 L 345.078125 257.449219 L 345.871094 257.695312 C 346.800781 257.988281 347.726562 258.296875 348.65625 258.621094 L 349.453125 258.898438 C 359.917969 262.648438 369.859375 268.566406 369.859375 281.203125 L 369.859375 281.550781 C 369.859375 298.894531 356.375 307.476562 339.382812 307.476562 C 328.171875 307.300781 317.136719 303.972656 307.855469 297.667969 C 305.578125 296.265625 304.175781 293.8125 304.351562 291.1875 C 304.351562 286.984375 307.679688 283.480469 311.882812 283.480469 L 312.058594 283.480469 C 313.460938 283.480469 314.863281 283.828125 316.085938 284.53125 C 323.09375 289.433594 331.324219 292.0625 339.734375 292.410156 C 347.789062 292.410156 352.519531 288.910156 352.519531 283.476562 L 352.519531 283.128906 C 352.519531 276.648438 343.761719 274.546875 334.128906 271.566406 C 333.121094 271.277344 332.105469 270.972656 331.082031 270.65625 L 330.316406 270.417969 C 319.34375 266.925781 308.378906 261.519531 308.378906 247.394531 L 308.378906 247.046875 C 308.378906 231.457031 321.34375 222 337.632812 222 M 534.683594 222.347656 C 535.292969 222.34375 535.898438 222.402344 536.496094 222.515625 C 537.09375 222.628906 537.675781 222.800781 538.238281 223.027344 C 538.804688 223.257812 539.34375 223.535156 539.855469 223.867188 C 540.363281 224.199219 540.839844 224.578125 541.277344 225 C 541.714844 225.425781 542.105469 225.886719 542.453125 226.386719 C 542.800781 226.886719 543.097656 227.414062 543.34375 227.972656 C 543.589844 228.53125 543.777344 229.105469 543.914062 229.699219 C 544.046875 230.296875 544.121094 230.898438 544.136719 231.503906 L 544.144531 231.808594 L 544.144531 298.191406 C 544.144531 303.445312 539.941406 307.476562 534.683594 307.476562 C 529.429688 307.476562 525.402344 303.273438 525.402344 298.191406 L 525.402344 231.808594 C 525.226562 226.726562 529.429688 222.523438 534.507812 222.347656 Z M 517.871094 230.058594 L 517.871094 231.457031 C 517.871094 236.011719 514.714844 239.867188 510.339844 240.566406 C 496.851562 242.84375 487.742188 254.578125 487.742188 270.871094 L 487.742188 298.019531 C 487.742188 303.273438 483.539062 307.300781 478.285156 307.300781 C 473.304688 307.300781 469.167969 303.429688 469.007812 298.492188 L 469 298.191406 L 469 298.019531 L 469.175781 231.632812 C 469 226.554688 473.203125 222.347656 478.285156 222.175781 L 478.457031 222.175781 C 479.066406 222.171875 479.671875 222.226562 480.269531 222.34375 C 480.867188 222.457031 481.449219 222.628906 482.015625 222.855469 C 482.578125 223.082031 483.117188 223.363281 483.628906 223.695312 C 484.140625 224.027344 484.613281 224.402344 485.050781 224.828125 C 485.488281 225.25 485.882812 225.710938 486.230469 226.210938 C 486.578125 226.710938 486.875 227.242188 487.117188 227.796875 C 487.363281 228.355469 487.554688 228.933594 487.6875 229.527344 C 487.820312 230.121094 487.894531 230.722656 487.914062 231.332031 L 487.917969 231.632812 L 487.917969 236.1875 C 488.792969 229.179688 500.351562 222.175781 508.585938 222.175781 C 513.316406 221.824219 517.519531 225.328125 517.871094 230.058594 M 419.429688 238.289062 C 406.644531 238.289062 395.433594 248.972656 395.433594 264.5625 L 395.433594 264.914062 C 395.433594 280.675781 406.644531 291.1875 419.429688 291.1875 C 432.21875 291.1875 442.902344 281.203125 442.902344 264.914062 L 442.902344 264.5625 C 442.902344 248.625 432.214844 238.289062 419.429688 238.289062 M 677.4375 238.113281 C 664.785156 238.113281 654.1875 248.238281 653.972656 263.898438 L 653.96875 264.386719 L 653.96875 264.738281 C 653.96875 281.027344 664.476562 291.1875 677.4375 291.1875 C 690.269531 291.1875 701.382812 280.71875 701.4375 265.21875 L 701.433594 264.738281 L 701.433594 264.386719 C 701.433594 248.796875 690.226562 238.113281 677.4375 238.113281 M 544.320312 199.226562 L 544.320312 199.578125 C 544.320312 200.199219 544.261719 200.816406 544.144531 201.425781 C 544.023438 202.035156 543.847656 202.628906 543.609375 203.203125 C 543.371094 203.777344 543.082031 204.324219 542.738281 204.84375 C 542.390625 205.359375 542 205.839844 541.558594 206.277344 C 541.121094 206.71875 540.640625 207.109375 540.125 207.453125 C 539.605469 207.800781 539.0625 208.089844 538.484375 208.328125 C 537.910156 208.5625 537.316406 208.742188 536.707031 208.863281 C 536.097656 208.980469 535.480469 209.039062 534.859375 209.035156 C 534.238281 209.039062 533.621094 208.980469 533.011719 208.863281 C 532.402344 208.742188 531.808594 208.5625 531.234375 208.328125 C 530.660156 208.089844 530.113281 207.800781 529.59375 207.453125 C 529.078125 207.109375 528.597656 206.71875 528.160156 206.277344 C 527.71875 205.839844 527.328125 205.359375 526.984375 204.84375 C 526.636719 204.324219 526.347656 203.777344 526.109375 203.203125 C 525.875 202.628906 525.695312 202.035156 525.578125 201.425781 C 525.457031 200.816406 525.398438 200.199219 525.402344 199.578125 C 525.398438 198.96875 525.453125 198.363281 525.570312 197.765625 C 525.683594 197.167969 525.855469 196.585938 526.082031 196.023438 C 526.308594 195.457031 526.589844 194.917969 526.921875 194.410156 C 527.253906 193.898438 527.628906 193.421875 528.054688 192.984375 C 528.476562 192.546875 528.9375 192.15625 529.4375 191.808594 C 529.9375 191.460938 530.46875 191.164062 531.023438 190.917969 C 531.582031 190.671875 532.160156 190.484375 532.753906 190.351562 C 533.347656 190.214844 533.949219 190.140625 534.558594 190.125 L 534.859375 190.117188 C 539.941406 189.945312 544.144531 194.148438 544.320312 199.226562 M 115.882812 203.082031 C 149.511719 170.503906 203.285156 171.378906 235.863281 205.183594 C 239.542969 200.277344 242.695312 194.847656 244.972656 189.246094 C 255.65625 221.824219 262.136719 249.148438 259.6875 270.34375 C 258.460938 288.207031 251.453125 305.375 239.894531 319.035156 C 209.765625 354.769531 156.167969 359.324219 120.4375 329.195312 L 119.75 328.585938 L 119.628906 328.503906 C 119.21875 328.210938 118.839844 327.875 118.503906 327.5 L 118.40625 327.390625 L 117.28125 326.394531 C 116.230469 325.492188 115.179688 324.589844 114.238281 323.582031 L 113.78125 323.066406 C 81.199219 289.433594 82.25 235.660156 115.882812 203.082031 M 128.492188 317.109375 C 125.339844 314.65625 120.785156 315.007812 118.332031 318.160156 C 116.195312 320.910156 116.1875 324.722656 118.308594 327.28125 L 118.40625 327.390625 L 119.75 328.585938 L 119.878906 328.675781 C 122.914062 330.671875 126.992188 330.28125 129.351562 327.503906 L 129.542969 327.269531 C 131.996094 324.117188 131.46875 319.5625 128.492188 317.109375 M 244.09375 198.003906 C 235.339844 216.394531 213.617188 230.40625 194.875 234.785156 C 187.65625 236.5 180.816406 236.933594 174.136719 237.273438 L 172.140625 237.371094 C 163.167969 237.820312 154.457031 238.316406 145.480469 241.792969 C 108.347656 255.980469 109.050781 300.121094 129.367188 310.105469 L 130.59375 310.804688 C 130.59375 310.804688 144.039062 308.132812 157.917969 304.523438 L 159.160156 304.199219 L 159.78125 304.03125 L 161.027344 303.699219 C 166.824219 302.136719 172.527344 300.4375 177.1875 298.71875 C 201.359375 289.785156 227.980469 267.714844 236.738281 242.144531 C 232.1875 268.765625 209.238281 294.515625 186.292969 306.25 C 174.035156 312.554688 164.574219 313.957031 144.429688 320.964844 C 142.949219 321.492188 141.488281 322.078125 140.050781 322.714844 L 140.398438 322.667969 L 141.089844 322.578125 L 141.777344 322.492188 C 146.21875 321.941406 150.210938 321.664062 150.210938 321.664062 C 178.761719 320.261719 223.601562 329.722656 244.445312 301.871094 C 265.816406 273.496094 253.90625 227.605469 244.09375 198.003906 " fill-opacity="1" fill-rule="nonzero"/></g><path fill="#ffffff" d="M 128.492188 317.109375 C 131.46875 319.5625 131.996094 324.117188 129.542969 327.269531 C 127.089844 330.421875 122.539062 330.769531 119.382812 328.320312 C 116.230469 325.867188 115.882812 321.3125 118.332031 318.160156 C 120.785156 315.007812 125.339844 314.65625 128.492188 317.109375 M 244.097656 198 C 253.90625 227.605469 265.816406 273.496094 244.449219 301.871094 C 223.601562 329.71875 178.761719 320.261719 150.210938 321.664062 C 150.210938 321.664062 145.132812 322.015625 140.054688 322.714844 C 140.054688 322.714844 141.980469 321.839844 144.433594 320.960938 C 164.574219 313.957031 174.035156 312.554688 186.292969 306.25 C 209.242188 294.511719 232.1875 268.765625 236.742188 242.140625 C 227.980469 267.714844 201.359375 289.785156 177.1875 298.71875 C 172.859375 300.3125 167.632812 301.894531 162.269531 303.363281 L 161.027344 303.699219 C 146.121094 307.714844 130.59375 310.804688 130.59375 310.804688 L 129.367188 310.101562 C 109.050781 300.121094 108.347656 255.980469 145.484375 241.792969 C 161.773438 235.484375 177.1875 238.988281 194.878906 234.785156 C 213.621094 230.40625 235.339844 216.394531 244.097656 198 " fill-opacity="1" fill-rule="nonzero"/></svg>