<svg xmlns="http://www.w3.org/2000/svg" xmlns:xlink="http://www.w3.org/1999/xlink" width="1080" zoomAndPan="magnify" viewBox="0 0 810 809.999993" height="1080" preserveAspectRatio="xMidYMid meet" version="1.0"><defs><clipPath id="019ec14276"><path d="M 528 273.121094 L 708 273.121094 L 708 529 L 528 529 Z M 528 273.121094 " clip-rule="nonzero"/></clipPath><clipPath id="2fe129a406"><path d="M 694 444 L 715.5 444 L 715.5 474 L 694 474 Z M 694 444 " clip-rule="nonzero"/></clipPath><clipPath id="0c05b70715"><path d="M 701 484 L 715.5 484 L 715.5 507 L 701 507 Z M 701 484 " clip-rule="nonzero"/></clipPath></defs><rect x="-81" width="972" fill="#ffffff" y="-80.999999" height="971.999992" fill-opacity="1"/><rect x="-81" width="972" fill="#444444" y="-80.999999" height="971.999992" fill-opacity="1"/><path fill="#ffffff" d="M 138.320312 347.320312 L 138.320312 368.238281 L 138.984375 368.238281 C 141.105469 364.132812 143.777344 360.429688 147 357.125 C 150.222656 353.820312 153.859375 351.054688 157.90625 348.832031 C 162.011719 346.726562 166.3125 345.152344 170.804688 344.109375 C 175.296875 343.070312 179.851562 342.589844 184.460938 342.671875 C 199.070312 342.671875 210.300781 346.65625 218.15625 354.621094 C 226.011719 362.589844 229.941406 375.535156 229.9375 393.460938 L 229.9375 525.917969 L 184.117188 525.917969 L 184.117188 402.757812 C 184.117188 393.460938 182.566406 386.996094 179.46875 383.355469 C 178.503906 382.371094 177.445312 381.507812 176.289062 380.761719 C 175.132812 380.015625 173.90625 379.40625 172.617188 378.933594 C 171.324219 378.460938 169.996094 378.132812 168.632812 377.957031 C 167.265625 377.777344 165.898438 377.75 164.527344 377.875 C 148.371094 377.875 140.292969 387.726562 140.292969 407.421875 L 140.292969 525.925781 L 94.5 525.925781 L 94.5 347.320312 Z M 138.320312 347.320312 " fill-opacity="1" fill-rule="nonzero"/><path fill="#ffffff" d="M 260.722656 286.234375 L 306.539062 286.234375 L 306.539062 325.40625 L 260.722656 325.40625 Z M 260.722656 286.234375 " fill-opacity="1" fill-rule="nonzero"/><path fill="#ffffff" d="M 260.722656 347.316406 L 306.539062 347.316406 L 306.539062 525.917969 L 260.722656 525.917969 Z M 260.722656 347.316406 " fill-opacity="1" fill-rule="nonzero"/><g clip-path="url(#019ec14276)"><path fill="#ffffff" d="M 617.90625 528.507812 C 616.4375 528.507812 614.972656 528.46875 613.507812 528.398438 C 612.039062 528.328125 610.578125 528.21875 609.117188 528.074219 C 607.65625 527.929688 606.199219 527.75 604.746094 527.535156 C 603.296875 527.320312 601.851562 527.070312 600.410156 526.785156 C 598.972656 526.496094 597.539062 526.175781 596.117188 525.820312 C 594.691406 525.460938 593.277344 525.070312 591.875 524.644531 C 590.46875 524.21875 589.074219 523.757812 587.695312 523.265625 C 586.3125 522.769531 584.941406 522.242188 583.585938 521.679688 C 582.230469 521.117188 580.890625 520.523438 579.5625 519.894531 C 578.234375 519.269531 576.925781 518.609375 575.628906 517.917969 C 574.335938 517.226562 573.058594 516.5 571.800781 515.746094 C 570.542969 514.992188 569.300781 514.207031 568.082031 513.390625 C 566.863281 512.578125 565.660156 511.730469 564.484375 510.855469 C 563.304688 509.984375 562.148438 509.082031 561.011719 508.148438 C 559.878906 507.21875 558.765625 506.257812 557.679688 505.273438 C 556.59375 504.289062 555.53125 503.277344 554.492188 502.238281 C 553.453125 501.199219 552.441406 500.136719 551.457031 499.050781 C 550.472656 497.960938 549.511719 496.851562 548.582031 495.71875 C 547.648438 494.582031 546.746094 493.425781 545.875 492.246094 C 545 491.066406 544.152344 489.867188 543.339844 488.648438 C 542.523438 487.425781 541.738281 486.1875 540.984375 484.929688 C 540.230469 483.671875 539.507812 482.394531 538.8125 481.097656 C 538.121094 479.804688 537.460938 478.492188 536.835938 477.167969 C 536.207031 475.839844 535.613281 474.5 535.050781 473.144531 C 534.488281 471.785156 533.960938 470.417969 533.46875 469.035156 C 532.972656 467.652344 532.511719 466.261719 532.085938 464.855469 C 531.660156 463.453125 531.269531 462.039062 530.914062 460.613281 C 530.554688 459.191406 530.234375 457.757812 529.949219 456.320312 C 529.664062 454.878906 529.410156 453.433594 529.195312 451.980469 C 528.980469 450.53125 528.800781 449.074219 528.65625 447.613281 C 528.511719 446.152344 528.40625 444.6875 528.332031 443.222656 C 528.261719 441.757812 528.226562 440.289062 528.226562 438.820312 C 528.226562 396.203125 561.632812 355.316406 584.484375 325.492188 C 596.859375 309.425781 607.691406 292.378906 616.976562 274.351562 C 617.167969 273.964844 617.480469 273.773438 617.910156 273.773438 C 618.339844 273.773438 618.652344 273.964844 618.84375 274.351562 C 628.128906 292.382812 638.960938 309.429688 651.339844 325.496094 C 674.1875 355.320312 707.601562 396.183594 707.601562 438.824219 L 652.871094 438.824219 C 652.59375 438.824219 652.324219 438.878906 652.066406 438.984375 C 651.808594 439.09375 651.582031 439.246094 651.382812 439.441406 C 651.183594 439.640625 651.03125 439.867188 650.925781 440.125 C 650.820312 440.382812 650.765625 440.652344 650.765625 440.933594 L 650.765625 471.6875 L 620.015625 471.6875 C 619.738281 471.6875 619.46875 471.742188 619.210938 471.847656 C 618.953125 471.953125 618.726562 472.105469 618.527344 472.304688 C 618.328125 472.503906 618.179688 472.730469 618.070312 472.988281 C 617.964844 473.246094 617.910156 473.515625 617.910156 473.792969 L 617.910156 528.507812 Z M 617.90625 528.507812 " fill-opacity="1" fill-rule="nonzero"/></g><path fill="#ffffff" d="M 652.960938 506.734375 L 652.960938 477.449219 L 625.773438 477.449219 C 625.492188 477.449219 625.226562 477.503906 624.964844 477.609375 C 624.707031 477.71875 624.480469 477.871094 624.28125 478.066406 C 624.085938 478.265625 623.933594 478.492188 623.828125 478.75 C 623.71875 479.007812 623.667969 479.277344 623.667969 479.554688 L 623.667969 506.734375 Z M 652.960938 506.734375 " fill-opacity="1" fill-rule="nonzero"/><path fill="#ffffff" d="M 623.667969 535.988281 C 633.757812 535.800781 643.519531 533.921875 652.960938 530.355469 L 652.960938 515.605469 L 625.773438 515.605469 C 625.492188 515.605469 625.226562 515.660156 624.964844 515.765625 C 624.707031 515.875 624.480469 516.027344 624.28125 516.222656 C 624.085938 516.421875 623.933594 516.648438 623.828125 516.90625 C 623.71875 517.164062 623.664062 517.433594 623.667969 517.714844 Z M 623.667969 535.988281 " fill-opacity="1" fill-rule="nonzero"/><path fill="#ffffff" d="M 685.808594 473.871094 L 685.808594 444.585938 L 658.628906 444.585938 C 658.347656 444.585938 658.078125 444.640625 657.820312 444.75 C 657.5625 444.855469 657.335938 445.007812 657.136719 445.203125 C 656.941406 445.402344 656.789062 445.628906 656.679688 445.886719 C 656.574219 446.144531 656.519531 446.414062 656.519531 446.695312 L 656.519531 473.871094 Z M 685.808594 473.871094 " fill-opacity="1" fill-rule="nonzero"/><path fill="#ffffff" d="M 689.328125 510.265625 L 689.363281 510.230469 C 689.929688 509.652344 690.367188 508.988281 690.671875 508.234375 C 690.976562 507.480469 691.128906 506.699219 691.121094 505.886719 L 691.121094 482.746094 L 661.832031 482.746094 L 661.832031 512.035156 L 684.972656 512.035156 C 685.785156 512.039062 686.570312 511.890625 687.324219 511.582031 C 688.078125 511.277344 688.746094 510.839844 689.328125 510.265625 Z M 689.328125 510.265625 " fill-opacity="1" fill-rule="nonzero"/><path fill="#ffffff" d="M 663.820312 536.222656 C 671.691406 532.84375 678.90625 528.410156 685.476562 522.914062 L 663.820312 522.914062 Z M 663.820312 536.222656 " fill-opacity="1" fill-rule="nonzero"/><g clip-path="url(#2fe129a406)"><path fill="#ffffff" d="M 709.429688 473.871094 C 713 464.4375 714.878906 454.675781 715.066406 444.585938 L 694.691406 444.585938 L 694.691406 473.871094 Z M 709.429688 473.871094 " fill-opacity="1" fill-rule="nonzero"/></g><g clip-path="url(#0c05b70715)"><path fill="#ffffff" d="M 701.976562 506.390625 C 707.46875 499.820312 711.902344 492.601562 715.277344 484.734375 L 701.976562 484.734375 Z M 701.976562 506.390625 " fill-opacity="1" fill-rule="nonzero"/><path fill="#ffffff" d="M 701.976562 506.390625 C 707.46875 499.820312 711.902344 492.601562 715.277344 484.734375 L 701.976562 484.734375 Z M 701.976562 506.390625 " fill-opacity="1" fill-rule="nonzero"/></g><path fill="#ffffff" d="M 106.027344 290.496094 L 114.28125 321.679688 L 107.730469 321.679688 L 106.289062 315.097656 L 97.972656 315.097656 L 96.53125 321.679688 L 90 321.679688 L 98.253906 290.496094 Z M 105.199219 309.929688 L 102.1875 295.910156 L 102.101562 295.910156 L 99.085938 309.929688 Z M 105.199219 309.929688 " fill-opacity="1" fill-rule="nonzero"/><path fill="#ffffff" d="M 128.914062 290.496094 C 130.324219 290.449219 131.671875 290.71875 132.957031 291.304688 C 134.003906 291.800781 134.886719 292.507812 135.597656 293.421875 C 136.285156 294.320312 136.765625 295.320312 137.039062 296.414062 C 137.332031 297.539062 137.480469 298.683594 137.476562 299.84375 C 137.507812 301.289062 137.265625 302.6875 136.757812 304.035156 C 136.320312 305.171875 135.652344 306.148438 134.746094 306.960938 C 133.832031 307.753906 132.789062 308.324219 131.628906 308.667969 C 130.300781 309.058594 128.949219 309.246094 127.5625 309.230469 L 124.199219 309.230469 L 124.199219 321.679688 L 117.90625 321.679688 L 117.90625 290.496094 Z M 126.992188 304.601562 C 128.164062 304.652344 129.175781 304.273438 130.027344 303.464844 C 130.453125 302.976562 130.765625 302.425781 130.964844 301.8125 C 131.167969 301.199219 131.238281 300.570312 131.183594 299.925781 C 131.277344 298.613281 130.941406 297.417969 130.183594 296.34375 C 129.746094 295.894531 129.230469 295.5625 128.644531 295.347656 C 128.054688 295.132812 127.445312 295.058594 126.824219 295.121094 L 124.203125 295.121094 L 124.203125 304.597656 Z M 126.992188 304.601562 " fill-opacity="1" fill-rule="nonzero"/><path fill="#ffffff" d="M 153.035156 290.496094 L 161.289062 321.679688 L 154.730469 321.679688 L 153.289062 315.097656 L 144.972656 315.097656 L 143.53125 321.679688 L 137 321.679688 L 145.253906 290.496094 Z M 152.207031 309.929688 L 149.191406 295.910156 L 149.105469 295.910156 L 146.089844 309.929688 Z M 152.207031 309.929688 " fill-opacity="1" fill-rule="nonzero"/><path fill="#ffffff" d="M 176.8125 296.066406 C 176.519531 295.535156 176.105469 295.128906 175.570312 294.847656 C 175.035156 294.566406 174.464844 294.453125 173.863281 294.515625 C 173.136719 294.488281 172.488281 294.699219 171.917969 295.148438 C 171.316406 295.714844 170.917969 296.398438 170.71875 297.199219 C 170.378906 298.414062 170.175781 299.652344 170.105469 300.910156 C 169.984375 302.441406 169.929688 304.3125 169.929688 306.523438 C 169.910156 308.4375 169.988281 310.34375 170.167969 312.25 C 170.261719 313.410156 170.507812 314.539062 170.910156 315.632812 C 171.144531 316.320312 171.566406 316.855469 172.175781 317.25 C 172.730469 317.539062 173.320312 317.679688 173.945312 317.664062 C 174.480469 317.667969 175 317.574219 175.5 317.378906 C 176.042969 317.140625 176.457031 316.761719 176.742188 316.242188 C 177.160156 315.492188 177.4375 314.691406 177.574219 313.84375 C 177.804688 312.492188 177.90625 311.132812 177.882812 309.761719 L 184.171875 309.761719 C 184.179688 311.375 184.046875 312.972656 183.777344 314.5625 C 183.550781 315.984375 183.066406 317.308594 182.316406 318.539062 C 181.566406 319.714844 180.558594 320.601562 179.300781 321.203125 C 177.691406 321.910156 176.011719 322.230469 174.253906 322.164062 C 172.28125 322.253906 170.40625 321.875 168.621094 321.027344 C 167.207031 320.269531 166.136719 319.175781 165.410156 317.746094 C 164.609375 316.132812 164.128906 314.429688 163.96875 312.636719 C 163.738281 310.457031 163.628906 308.273438 163.640625 306.085938 C 163.632812 303.902344 163.742188 301.726562 163.96875 299.554688 C 164.128906 297.757812 164.609375 296.046875 165.410156 294.425781 C 166.144531 292.988281 167.214844 291.875 168.621094 291.085938 C 170.394531 290.191406 172.273438 289.789062 174.253906 289.882812 C 176.117188 289.792969 177.886719 290.15625 179.5625 290.972656 C 180.792969 291.625 181.761719 292.550781 182.46875 293.746094 C 183.117188 294.871094 183.515625 296.082031 183.671875 297.371094 C 183.828125 298.582031 183.910156 299.796875 183.914062 301.015625 L 177.621094 301.015625 C 177.726562 299.304688 177.457031 297.65625 176.8125 296.066406 Z M 176.8125 296.066406 " fill-opacity="1" fill-rule="nonzero"/><path fill="#ffffff" d="M 195.480469 290.496094 L 195.480469 302.417969 L 202.820312 302.417969 L 202.820312 290.496094 L 209.109375 290.496094 L 209.109375 321.679688 L 202.820312 321.679688 L 202.820312 307.820312 L 195.480469 307.820312 L 195.480469 321.679688 L 189.191406 321.679688 L 189.191406 290.496094 Z M 195.480469 290.496094 " fill-opacity="1" fill-rule="nonzero"/><path fill="#ffffff" d="M 232.347656 295.652344 L 221.207031 295.652344 L 221.207031 302.992188 L 231.6875 302.992188 L 231.6875 308.144531 L 221.207031 308.144531 L 221.207031 316.527344 L 232.777344 316.527344 L 232.777344 321.679688 L 214.917969 321.679688 L 214.917969 290.496094 L 232.34375 290.496094 L 232.34375 295.652344 Z M 232.347656 295.652344 " fill-opacity="1" fill-rule="nonzero"/><path fill="#ffffff" d="M 328.773438 378.519531 L 328.773438 347.316406 L 352.011719 347.316406 L 352.011719 327.070312 C 351.824219 320.105469 352.933594 313.359375 355.328125 306.820312 C 356.304688 304.234375 357.59375 301.816406 359.199219 299.566406 C 360.800781 297.316406 362.664062 295.308594 364.789062 293.542969 C 369.28125 290.015625 374.316406 287.636719 379.894531 286.402344 C 386.445312 284.898438 393.085938 284.179688 399.808594 284.25 C 407.992188 284.25 416.183594 284.578125 424.371094 285.242188 L 424.371094 317.777344 C 422.835938 317.515625 421.285156 317.402344 419.726562 317.429688 L 415.410156 317.429688 C 413.019531 317.207031 410.65625 317.382812 408.328125 317.949219 C 405.996094 318.519531 403.820312 319.453125 401.796875 320.75 C 401.078125 321.453125 400.445312 322.230469 399.902344 323.078125 C 399.355469 323.929688 398.910156 324.824219 398.566406 325.773438 C 398.21875 326.722656 397.984375 327.695312 397.859375 328.695312 C 397.730469 329.695312 397.714844 330.699219 397.8125 331.703125 L 397.8125 347.292969 L 424.371094 347.292969 L 424.371094 378.503906 L 397.8125 378.503906 L 397.8125 525.910156 L 352.007812 525.910156 L 352.007812 378.519531 Z M 328.773438 378.519531 " fill-opacity="1" fill-rule="nonzero"/><path fill="#ffffff" d="M 451.613281 286.234375 L 497.421875 286.234375 L 497.421875 325.40625 L 451.613281 325.40625 Z M 451.613281 286.234375 " fill-opacity="1" fill-rule="nonzero"/><path fill="#ffffff" d="M 451.613281 347.316406 L 497.421875 347.316406 L 497.421875 525.914062 L 451.613281 525.914062 Z M 451.613281 347.316406 " fill-opacity="1" fill-rule="nonzero"/><path fill="#ffffff" d="M 598.175781 317.199219 C 596.519531 319.511719 594.890625 321.839844 593.226562 324.128906 C 587.972656 331.378906 582.441406 338.417969 577.023438 345.542969 C 579.144531 345.835938 581.273438 346.164062 583.410156 346.519531 C 587.914062 338.957031 592.53125 331.441406 596.859375 323.765625 C 598.070312 321.617188 599.257812 319.449219 600.457031 317.285156 C 601.40625 315.59375 599.203125 315.761719 598.175781 317.199219 Z M 598.175781 317.199219 " fill-opacity="1" fill-rule="nonzero"/><path fill="#ffffff" d="M 576.792969 357.828125 C 577.589844 356.441406 578.414062 355.054688 579.214844 353.644531 C 576.792969 353.175781 574.367188 352.738281 571.941406 352.347656 L 571.914062 352.347656 C 564.226562 362.640625 557.226562 373.382812 550.917969 384.574219 C 539.644531 405.015625 531.824219 427.867188 535.414062 451.449219 C 536.175781 456.3125 537.351562 461.070312 538.949219 465.726562 C 540.542969 470.382812 542.535156 474.863281 544.917969 479.167969 C 547.304688 483.472656 550.046875 487.539062 553.144531 491.359375 C 556.246094 495.183594 559.65625 498.707031 563.375 501.929688 C 566.566406 504.691406 569.953125 507.191406 573.527344 509.433594 C 573.761719 509.578125 574.011719 509.625 574.285156 509.578125 C 574.554688 509.527344 574.773438 509.398438 574.945312 509.179688 C 575.113281 508.964844 575.1875 508.71875 575.171875 508.445312 C 575.152344 508.167969 575.042969 507.9375 574.847656 507.746094 C 569.042969 502.136719 564.082031 495.863281 559.96875 488.925781 C 555.851562 481.984375 552.726562 474.621094 550.59375 466.839844 C 543.878906 442.085938 549.460938 416.71875 559.015625 393.503906 C 564.195312 381.238281 570.117188 369.347656 576.792969 357.828125 Z M 576.792969 357.828125 " fill-opacity="1" fill-rule="nonzero"/></svg>